<svg width="59" height="57" viewBox="0 0 59 57" fill="none" xmlns="http://www.w3.org/2000/svg">
<ellipse cx="23.4766" cy="38.8185" rx="9.964" ry="21.767" transform="rotate(-80.0329 23.4766 38.8185)" fill="#8E99AA"/>
<path d="M39.8774 18.1158C48.3911 24.6351 50.7592 35.7249 45.2945 42.8862C41.0995 46.6212 36.9025 48.4612 32.6939 48.6509C28.4795 48.8409 24.2195 47.3776 19.9015 44.4426C16.0587 41.4986 12.5065 37.3317 11.0762 32.3942C9.6494 27.4687 10.3245 21.7449 14.9938 15.6471C17.7174 12.0904 21.7723 11.0612 26.2459 11.7467C30.7267 12.4333 35.5993 14.8399 39.8774 18.1158Z" fill="#3B49BC" stroke="black" stroke-width="0.5"/>
<path d="M43.4041 14.9309C51.7883 22.7539 53.3611 34.5604 47.069 41.304C40.7769 48.0475 28.8898 47.2952 20.5056 39.4722C12.1213 31.6492 10.5485 19.8427 16.8407 13.0991C23.1328 6.35557 35.0198 7.10788 43.4041 14.9309Z" fill="#5A6AEF" stroke="black" stroke-width="0.5"/>
<path fill-rule="evenodd" clip-rule="evenodd" d="M26.9618 19.9383L27.1966 20.1882C26.5579 20.3101 22.7802 22.9872 25.9564 21.816C27.9912 21.1095 27.0685 20.9748 27.7678 20.982L28.1059 20.9751C29.3171 20.9343 30.7064 21.0239 32.1835 21.3117C34.1337 21.7 36.2717 22.4288 38.5291 23.7197C38.5291 23.7197 39.1471 23.1332 35.5692 21.816L34.3707 20.529L35.8089 17.4783C36.2989 17.5335 38.8086 18.4243 41.6819 20.529C41.6819 20.529 44.7276 26.793 46.0924 31.4525C45.3972 33.0825 45.2294 33.538 44.1986 34.7715C44.1986 34.7715 42.3049 37.1097 38.0829 36.9283C38.0829 36.9283 38.4575 34.7236 38.913 32.1956C38.7767 32.9598 38.6689 33.4174 38.6689 33.4174C38.5894 33.8757 38.3709 34.0273 37.6989 34.2127C36.7454 34.5243 35.8133 34.7048 34.8851 34.7716C32.9937 34.9399 29.9796 34.3185 28.4255 33.9095C29.1686 32.699 29.3124 32.3274 30.1394 31.3925C30.1394 31.3206 29.6121 31.7761 29.0727 32.699C29.0727 32.699 28.308 33.9417 27.9526 34.4197C27.4497 35.0958 26.8244 35.8938 26.8244 35.8938C22.3383 35.3485 20.2454 32.3998 20.2454 32.3998C19.3683 26.1982 20.9704 21.816 20.9704 21.816C21.306 20.1882 22.9992 19.0642 24.0148 18.3881C26.4015 16.7991 29.0188 16.9977 29.3604 17.0219L26.9618 19.9383Z" fill="#C5D4EE" stroke="black" stroke-width="0.5"/>
<path d="M24.1528 18.5402C25.7464 17.4504 27.3939 17.1614 28.3991 17.0972C27.1786 17.413 26.2642 17.8042 25.6212 18.1448C25.2121 18.3616 24.9129 18.5578 24.7149 18.701C24.6158 18.7726 24.542 18.8309 24.4924 18.872C24.4676 18.8925 24.4488 18.9087 24.4359 18.92L24.4209 18.9333L24.4167 18.9372L24.4155 18.9384L24.415 18.9388L24.4148 18.9389C24.4148 18.939 24.4147 18.9391 24.6083 19.1374L24.4147 18.9391L24.7546 19.3672L24.7547 19.3673L24.7547 19.3673L24.7547 19.3673L24.7548 19.3673L24.7555 19.3669L24.7588 19.3655L24.7723 19.3593L24.8271 19.3349C24.8757 19.3135 24.948 19.2821 25.0422 19.2426C25.2303 19.1638 25.5055 19.0528 25.8525 18.9248C27.8606 18.2279 29.517 18.1382 30.1939 18.1452L30.1939 18.1453L30.2013 18.1452L30.5395 18.1382L30.5395 18.1383L30.5426 18.1382C31.7364 18.098 33.1062 18.1863 34.5622 18.47C36.4845 18.8528 38.5907 19.5707 40.8151 20.8429L41.0415 20.4666L40.8999 20.6343C41.0415 20.4666 41.0415 20.4666 41.0414 20.4665L41.0412 20.4663L41.0406 20.4658L41.039 20.4644L41.0339 20.4599L41.0156 20.4443C40.9999 20.4309 40.9771 20.4117 40.9473 20.3873C40.8876 20.3384 40.7997 20.2682 40.6835 20.1805C40.4512 20.0051 40.1061 19.7593 39.6485 19.4725C38.8484 18.9711 37.7048 18.3446 36.22 17.7494C37.0888 17.9004 39.1963 18.4222 41.5602 20.1397L41.5662 20.1486C41.592 20.1876 41.6304 20.2461 41.6798 20.3231C41.7787 20.477 41.9216 20.7049 42.0962 20.9981C42.4454 21.5845 42.9209 22.4319 43.4238 23.4717C44.4222 25.5361 45.5246 28.3511 45.9653 31.3866C45.9575 31.3998 45.9481 31.4153 45.9371 31.4329C45.8954 31.4992 45.8302 31.5956 45.7378 31.7114C45.5531 31.9431 45.2604 32.2519 44.8325 32.5531C43.9939 33.1434 42.631 33.7085 40.528 33.6014L40.4758 33.5459C40.3858 33.4499 40.2583 33.3138 40.1088 33.1531C39.8877 32.9156 39.6188 32.625 39.351 32.3315C40.4654 32.0708 41.2207 31.618 41.7078 31.2112C41.976 30.9872 42.1625 30.7775 42.283 30.6219C42.3433 30.5441 42.387 30.4798 42.4163 30.434C42.4309 30.4111 42.4418 30.3928 42.4494 30.3797L42.4583 30.3641L42.4609 30.3593L42.4618 30.3578L42.4621 30.3572L42.4622 30.357C42.4623 30.3569 42.4623 30.3568 42.2335 30.2046L42.4623 30.3568L42.071 29.983C41.3301 30.4185 40.609 30.7055 39.9532 30.8864L39.9532 30.8862L39.9443 30.8891C39.0058 31.1958 38.0907 31.3727 37.1813 31.4382L37.1813 31.4381L37.1775 31.4385C35.3199 31.6038 33.5584 31.349 32.0282 30.9464C30.8645 30.6336 29.8457 30.2404 28.9842 29.8609C28.5022 29.6481 27.979 29.3954 27.4497 29.0877L27.3656 29.0378L27.3523 29.0299L27.3384 29.0234L27.3273 29.0181L27.2695 28.9838L27.1939 28.9284L27.1831 28.9205L27.1719 28.9136L26.5597 28.5342L26.2723 28.8486L26.4647 28.7366C26.2723 28.8486 26.2724 28.8487 26.2725 28.8488L26.2727 28.8491L26.2731 28.8497L26.2744 28.8515L26.2783 28.8567L26.2915 28.874C26.3026 28.8886 26.3186 28.9089 26.3394 28.9346C26.3811 28.9859 26.4423 29.0585 26.5236 29.1476C26.6861 29.3259 26.9293 29.571 27.2579 29.8463C27.8542 30.3457 28.7301 30.9434 29.9123 31.4218C29.7187 31.6786 29.5212 31.9362 29.3582 32.1474C29.2488 32.2891 29.1551 32.4098 29.0887 32.495L29.0486 32.5465C26.9217 32.2647 25.3666 31.4317 24.3422 30.6707C23.8193 30.2822 23.4331 29.9112 23.179 29.6393C23.052 29.5034 22.9582 29.3925 22.897 29.3168C22.8807 29.2965 22.8666 29.2788 22.855 29.2638C22.4371 26.2301 22.7618 23.5459 23.1949 21.6129C23.4131 20.6394 23.6583 19.8583 23.8486 19.3213C23.9438 19.0529 24.0251 18.8457 24.0825 18.7061C24.1112 18.6363 24.1338 18.5834 24.1492 18.5483L24.1528 18.5402ZM29.7477 23.7375C28.4469 23.6179 27.5905 24.6104 27.7744 25.9105C27.9585 27.2122 29.1434 28.3907 30.4225 28.5082C31.7226 28.6276 32.5787 27.6364 32.3961 26.3373C32.2326 25.0328 31.0441 23.8566 29.7477 23.7375ZM37.1254 24.4154C35.8246 24.2958 34.9682 25.2883 35.1521 26.5884C35.3362 27.8902 36.5211 29.0686 37.8001 29.1861C39.101 29.3056 39.9573 28.3132 39.7734 27.0131C39.5896 25.7129 38.4263 24.5349 37.1254 24.4154Z" fill="white" stroke="black" stroke-width="0.5"/>
</svg>
