<svg width="101" height="25" viewBox="0 0 101 25" fill="none" xmlns="http://www.w3.org/2000/svg">
<g opacity="0.5">
<g clip-path="url(#clip0_257_6553)">
<path d="M12.9768 0.581482C8.01043 0.581482 6.55796 0.586605 6.27562 0.610026C5.25644 0.694745 4.62224 0.855216 3.93132 1.19921C3.39885 1.46362 2.97892 1.7701 2.56447 2.19974C1.80969 2.98325 1.35225 3.94717 1.18665 5.09298C1.10614 5.64923 1.08272 5.76268 1.07796 8.60395C1.07613 9.55105 1.07796 10.7975 1.07796 12.4694C1.07796 17.4317 1.08345 18.8827 1.10724 19.1645C1.18958 20.1562 1.34511 20.7802 1.67447 21.4627C2.30391 22.7692 3.50608 23.7499 4.92232 24.1159C5.4127 24.2421 5.95432 24.3117 6.64963 24.3446C6.94423 24.3574 9.94689 24.3666 12.9514 24.3666C15.9559 24.3666 18.9604 24.3629 19.2476 24.3483C20.0527 24.3104 20.5203 24.2476 21.0372 24.114C22.4626 23.7463 23.6428 22.7801 24.285 21.4554C24.608 20.7893 24.7717 20.1416 24.8458 19.2017C24.8619 18.9967 24.8687 15.7293 24.8687 12.4662C24.8687 9.20266 24.8614 5.94126 24.8453 5.73633C24.7703 4.78118 24.6065 4.13893 24.2731 3.46009C23.9996 2.90438 23.6958 2.48939 23.2549 2.06506C22.4679 1.31339 21.5054 0.855948 20.3585 0.690537C19.8028 0.610209 19.6921 0.586422 16.8486 0.581482H12.9768Z" fill="url(#paint0_radial_257_6553)"/>
<path d="M12.9768 0.581482C8.01043 0.581482 6.55796 0.586605 6.27562 0.610026C5.25644 0.694745 4.62224 0.855216 3.93132 1.19921C3.39885 1.46362 2.97892 1.7701 2.56447 2.19974C1.80969 2.98325 1.35225 3.94717 1.18665 5.09298C1.10614 5.64923 1.08272 5.76268 1.07796 8.60395C1.07613 9.55105 1.07796 10.7975 1.07796 12.4694C1.07796 17.4317 1.08345 18.8827 1.10724 19.1645C1.18958 20.1562 1.34511 20.7802 1.67447 21.4627C2.30391 22.7692 3.50608 23.7499 4.92232 24.1159C5.4127 24.2421 5.95432 24.3117 6.64963 24.3446C6.94423 24.3574 9.94689 24.3666 12.9514 24.3666C15.9559 24.3666 18.9604 24.3629 19.2476 24.3483C20.0527 24.3104 20.5203 24.2476 21.0372 24.114C22.4626 23.7463 23.6428 22.7801 24.285 21.4554C24.608 20.7893 24.7717 20.1416 24.8458 19.2017C24.8619 18.9967 24.8687 15.7293 24.8687 12.4662C24.8687 9.20266 24.8614 5.94126 24.8453 5.73633C24.7703 4.78118 24.6065 4.13893 24.2731 3.46009C23.9996 2.90438 23.6958 2.48939 23.2549 2.06506C22.4679 1.31339 21.5054 0.855948 20.3585 0.690537C19.8028 0.610209 19.6921 0.586422 16.8486 0.581482H12.9768Z" fill="black"/>
<path d="M12.9721 3.6922C10.5868 3.6922 10.2875 3.70263 9.35064 3.74526C8.41563 3.78808 7.7774 3.93611 7.21895 4.1533C6.64129 4.37763 6.15128 4.67772 5.66309 5.16608C5.17454 5.65427 4.87446 6.14428 4.6494 6.72176C4.43165 7.28039 4.28344 7.9188 4.24136 8.85345C4.19946 9.79029 4.18848 10.0898 4.18848 12.4751C4.18848 14.8604 4.19909 15.1589 4.24154 16.0957C4.28454 17.0307 4.43257 17.6689 4.64958 18.2274C4.87409 18.8051 5.17418 19.2951 5.66254 19.7833C6.15055 20.2718 6.64056 20.5726 7.21785 20.7969C7.77667 21.0141 8.41508 21.1622 9.34991 21.205C10.2868 21.2476 10.5859 21.2581 12.971 21.2581C15.3565 21.2581 15.655 21.2476 16.5918 21.205C17.5268 21.1622 18.1658 21.0141 18.7246 20.7969C19.3021 20.5726 19.7913 20.2718 20.2793 19.7833C20.7679 19.2951 21.068 18.8051 21.293 18.2276C21.509 17.6689 21.6572 17.0305 21.7011 16.0959C21.7432 15.159 21.7541 14.8604 21.7541 12.4751C21.7541 10.0898 21.7432 9.79048 21.7011 8.85363C21.6572 7.91862 21.509 7.28039 21.293 6.72194C21.068 6.14428 20.7679 5.65427 20.2793 5.16608C19.7908 4.67753 19.3022 4.37745 18.724 4.1533C18.1641 3.93611 17.5255 3.78808 16.5905 3.74526C15.6537 3.70263 15.3554 3.6922 12.9694 3.6922H12.9721ZM12.1842 5.27496C12.4181 5.27459 12.679 5.27496 12.9721 5.27496C15.3172 5.27496 15.5951 5.28337 16.5212 5.32546C17.3775 5.36462 17.8423 5.5077 18.1519 5.62792C18.5617 5.78711 18.854 5.97741 19.1612 6.28481C19.4686 6.59221 19.6589 6.88498 19.8184 7.29485C19.9386 7.60408 20.0819 8.06884 20.1209 8.92518C20.163 9.85104 20.1721 10.1292 20.1721 12.4731C20.1721 14.8171 20.163 15.0952 20.1209 16.021C20.0817 16.8774 19.9386 17.3421 19.8184 17.6514C19.6592 18.0612 19.4686 18.3531 19.1612 18.6603C18.8538 18.9677 18.5619 19.158 18.1519 19.3172C17.8426 19.438 17.3775 19.5807 16.5212 19.6199C15.5953 19.6619 15.3172 19.6711 12.9721 19.6711C10.6269 19.6711 10.349 19.6619 9.4231 19.6199C8.56677 19.5803 8.102 19.4372 7.79222 19.317C7.38235 19.1578 7.08959 18.9675 6.78218 18.6601C6.47478 18.3527 6.28449 18.0607 6.12493 17.6506C6.00471 17.3414 5.86144 16.8767 5.82247 16.0203C5.78038 15.0944 5.77196 14.8163 5.77196 12.4709C5.77196 10.1255 5.78038 9.84885 5.82247 8.92298C5.86162 8.06665 6.00471 7.60188 6.12493 7.29228C6.28412 6.88241 6.47478 6.58965 6.78218 6.28225C7.08959 5.97485 7.38235 5.78455 7.79222 5.62499C8.10182 5.50423 8.56677 5.3615 9.4231 5.32216C10.2333 5.28557 10.5473 5.27459 12.1842 5.27276V5.27496ZM17.6604 6.73329C17.0785 6.73329 16.6064 7.20482 16.6064 7.78687C16.6064 8.36874 17.0785 8.84082 17.6604 8.84082C18.2423 8.84082 18.7143 8.36874 18.7143 7.78687C18.7143 7.205 18.2423 6.73292 17.6604 6.73292V6.73329ZM12.9721 7.96473C10.4813 7.96473 8.46174 9.98425 8.46174 12.4751C8.46174 14.966 10.4813 16.9846 12.9721 16.9846C15.463 16.9846 17.4818 14.966 17.4818 12.4751C17.4818 9.98425 15.4628 7.96473 12.972 7.96473H12.9721ZM12.9721 9.54748C14.5889 9.54748 15.8998 10.8582 15.8998 12.4751C15.8998 14.0919 14.5889 15.4028 12.9721 15.4028C11.3552 15.4028 10.0445 14.0919 10.0445 12.4751C10.0445 10.8582 11.3552 9.54748 12.9721 9.54748Z" fill="white"/>
</g>
<path d="M33.659 4.07192C32.2009 4.70472 30.5994 6.49147 30.0974 8.7249C29.464 11.5663 32.1173 12.7575 32.3444 12.3728C32.5953 11.9137 31.8663 11.7524 31.7229 10.2759C31.5316 8.37748 32.3802 6.24331 33.4559 5.31271C33.659 5.139 33.6471 5.37475 33.6471 5.82144C33.6471 6.61555 33.5993 13.7749 33.5993 15.2763C33.5993 17.2988 33.5156 17.9316 33.3722 18.5644C33.2288 19.2096 32.9897 19.6315 33.169 19.8052C33.3722 19.9913 34.2208 19.5446 34.7108 18.8374C35.2964 17.9812 35.5115 16.9514 35.5474 15.8347C35.5952 14.4946 35.5952 12.3604 35.5952 11.132C35.5952 10.0153 35.6191 6.73963 35.5713 4.77917C35.5474 4.30767 34.2686 3.81135 33.659 4.07192ZM100.684 14.6931C100.469 14.6931 100.373 14.9165 100.301 15.3011C100.027 16.6164 99.7397 16.9142 99.3572 16.9142C98.9389 16.9142 98.5684 16.2565 98.4728 14.9537C98.4011 13.9238 98.4131 12.0254 98.5087 10.1394C98.5326 9.75476 98.425 9.37012 97.4211 8.99788C96.9908 8.83657 96.3693 8.60082 96.0586 9.38252C95.1742 11.5911 94.8395 13.3407 94.7559 14.0479C94.7559 14.0851 94.7081 14.0976 94.6961 14.0107C94.6483 13.4399 94.5288 12.4101 94.5168 10.2263C94.5168 9.8044 94.4332 9.44456 93.979 9.14677C93.6802 8.96065 92.7958 8.61323 92.4731 9.02269C92.1982 9.35771 91.8755 10.2387 91.5409 11.2934C91.266 12.1495 91.0748 12.7327 91.0748 12.7327C91.0748 12.7327 91.0748 10.4248 91.0867 9.54383C91.0867 9.20881 90.8716 9.09714 90.7999 9.08473C90.5011 8.99788 89.9154 8.84898 89.6764 8.84898C89.3657 8.84898 89.294 9.02269 89.294 9.28326C89.294 9.32048 89.2462 12.3232 89.2462 14.4326V14.7304C89.0788 15.6982 88.5291 17.0134 87.9315 17.0134C87.3339 17.0134 87.047 16.4675 87.047 13.9611C87.047 12.4969 87.0949 11.8641 87.1068 10.8094C87.1188 10.2015 87.1427 9.72995 87.1427 9.63068C87.1427 9.30808 86.5929 9.14677 86.3419 9.08473C86.0909 9.02269 85.8638 8.99788 85.6965 9.01029C85.4575 9.02269 85.2782 9.19641 85.2782 9.41975V9.77958C84.9675 9.27085 84.4655 8.91102 84.1189 8.81176C83.2106 8.53878 82.2664 8.77453 81.5612 9.8168C80.9995 10.6357 80.6529 11.5663 80.5214 12.9064C80.4258 13.8866 80.4497 14.8793 80.629 15.7106C80.4139 16.6536 80.0314 17.0382 79.6012 17.0382C78.9797 17.0382 78.5255 15.9836 78.5853 14.1596C78.6211 12.956 78.8482 12.1247 79.0992 10.9087C79.2068 10.3876 79.1231 10.1146 78.896 9.85403C78.6928 9.61828 78.2626 9.4942 77.653 9.64309C77.2108 9.75476 76.5894 9.86644 76.0157 9.95329C76.0157 9.95329 76.0515 9.8044 76.0754 9.55624C76.2189 8.22858 74.8325 8.34026 74.3903 8.76213C74.1273 9.01029 73.948 9.30808 73.8763 9.85403C73.7688 10.7102 74.4381 11.1072 74.4381 11.1072C74.2229 12.1495 73.6851 13.5144 73.1234 14.4946C72.8246 15.0281 72.5975 15.4128 72.2987 15.8347V15.3756C72.2868 13.1794 72.3226 11.4547 72.3346 10.8343C72.3465 10.2263 72.3704 9.76717 72.3704 9.66791C72.3704 9.43216 72.239 9.3453 71.9521 9.22122C71.7011 9.12196 71.4143 9.04751 71.1155 9.02269C70.733 8.99788 70.506 9.19641 70.506 9.44456V9.77958C70.1952 9.27085 69.6933 8.91102 69.3467 8.81176C68.4383 8.53878 67.4942 8.77453 66.789 9.8168C66.2273 10.6357 65.8568 11.7897 65.7492 12.894C65.6536 13.9238 65.6656 14.7924 65.797 15.5369C65.6536 16.2689 65.2353 17.0506 64.7692 17.0506C64.1716 17.0506 63.8369 16.5047 63.8369 13.9983C63.8369 12.5341 63.8848 11.9013 63.8967 10.8467C63.9087 10.2387 63.9326 9.76717 63.9326 9.66791C63.9326 9.3453 63.3828 9.184 63.1318 9.12196C62.8689 9.05992 62.6418 9.0351 62.4625 9.04751C62.2354 9.05992 62.0681 9.28326 62.0681 9.44456V9.8168C61.7574 9.30808 61.2554 8.94825 60.9088 8.84898C60.0005 8.57601 59.0682 8.82417 58.3511 9.85403C57.885 10.5241 57.5026 11.2685 57.3114 12.9188C57.2516 13.3903 57.2277 13.837 57.2277 14.2589C57.0365 15.4376 56.2238 16.8025 55.5425 16.8025C55.1481 16.8025 54.7776 16.0084 54.7776 14.3209C54.7776 12.0626 54.9091 8.86139 54.933 8.55119C54.933 8.55119 55.7815 8.53878 55.9489 8.53878C56.3791 8.53878 56.7616 8.53878 57.3233 8.51397C57.6101 8.50156 57.885 7.44688 57.5862 7.31039C57.4548 7.24835 56.5106 7.19872 56.1401 7.18632C55.8293 7.17391 54.9569 7.11187 54.9569 7.11187C54.9569 7.11187 55.0405 4.9777 55.0525 4.75435C55.0644 4.56823 54.8374 4.46897 54.7059 4.40693C54.3832 4.25804 54.0844 4.196 53.7378 4.12155C53.2597 4.02228 53.0446 4.12155 52.9968 4.54342C52.937 5.17622 52.9012 7.03742 52.9012 7.03742C52.5546 7.03742 51.3594 6.96297 51.0009 6.96297C50.6782 6.96297 50.3196 8.4147 50.7738 8.43952C51.2877 8.46434 52.196 8.47674 52.7936 8.50156C52.7936 8.50156 52.7697 11.7649 52.7697 12.7699V13.0801C52.4351 14.8668 51.2758 15.8223 51.2758 15.8223C51.5268 14.6435 51.0128 13.7625 50.1045 13.0057C49.7699 12.7327 49.1006 12.2115 48.3596 11.6284C48.3596 11.6284 48.7898 11.1817 49.1723 10.3007C49.4472 9.66791 49.4591 8.94825 48.7898 8.78694C47.6903 8.52638 46.7819 9.35771 46.5071 10.2635C46.2919 10.9583 46.4114 11.4671 46.8178 12.013C46.8537 12.0502 46.8776 12.0875 46.9134 12.1371C46.6624 12.6334 46.3278 13.3034 46.029 13.8246C45.2282 15.2639 44.6187 16.4054 44.1645 16.4054C43.794 16.4054 43.806 15.2515 43.806 14.1596C43.806 13.229 43.8777 11.8269 43.9255 10.3628C43.9375 9.87884 43.7104 9.60587 43.3279 9.35771C43.0889 9.20881 42.5869 8.91102 42.3001 8.91102C41.8579 8.91102 40.6029 8.97306 39.4197 12.5466C39.2644 12.9932 38.9775 13.8122 38.9775 13.8122L39.0014 9.51901C39.0014 9.41975 38.9536 9.32048 38.8341 9.25844C38.6309 9.14677 38.0931 8.91102 37.627 8.91102C37.3999 8.91102 37.2923 9.02269 37.2923 9.23363L37.2565 15.9587C37.2565 16.4675 37.2684 17.0631 37.3162 17.3236C37.3641 17.5842 37.4477 17.7951 37.5433 17.9192C37.6389 18.0433 37.7585 18.1425 37.9377 18.1798C38.1051 18.217 39.0492 18.3411 39.109 17.9688C39.1687 17.5222 39.1687 17.0382 39.6707 15.2267C40.4476 12.4101 41.4515 11.0328 41.9176 10.5489C42.0013 10.462 42.0969 10.462 42.085 10.5985C42.061 11.2189 41.9893 12.7575 41.9415 14.0727C41.8101 17.5842 42.4315 18.2294 43.304 18.2294C43.9733 18.2294 44.9294 17.5346 45.9453 15.785C46.5788 14.6931 47.1883 13.6136 47.6305 12.8443C47.9413 13.1421 48.2879 13.4647 48.6345 13.7998C49.4352 14.5939 49.6982 15.3383 49.5308 16.058C49.3994 16.604 48.8974 17.1623 48.001 16.6164C47.7381 16.4551 47.6305 16.331 47.3676 16.1573C47.2242 16.058 47.009 16.0332 46.8776 16.1325C46.5429 16.393 46.3517 16.728 46.2441 17.1375C46.1366 17.5346 46.531 17.7579 46.9254 17.944C47.272 18.1053 48.013 18.2542 48.491 18.2666C50.3435 18.3287 51.8255 17.336 52.8534 14.78C53.0327 16.9886 53.8215 18.2418 55.1959 18.2418C56.1042 18.2418 57.0245 17.0134 57.4309 15.8099C57.5504 16.3062 57.7177 16.728 57.9328 17.0879C58.9846 18.825 61.0283 18.4527 62.0562 16.9762C62.3788 16.5171 62.4267 16.3558 62.4267 16.3558C62.582 17.7455 63.6577 18.2294 64.2672 18.2294C64.9604 18.2294 65.6656 17.8944 66.1675 16.728C66.2273 16.8521 66.287 16.9762 66.3587 17.0879C67.4105 18.825 69.4542 18.4527 70.4821 16.9762C70.5299 16.9018 70.5777 16.8397 70.6135 16.7901L70.6494 17.7083C70.6494 17.7083 70.0638 18.2666 69.7052 18.6016C68.1276 20.103 66.9205 21.2445 66.8249 22.5846C66.7173 24.2845 68.032 24.9173 69.0359 24.9917C70.0996 25.0786 71.0079 24.4706 71.5697 23.6145C72.0597 22.8576 72.3824 21.2445 72.3585 19.6439C72.3465 18.9987 72.3346 18.1922 72.3226 17.3112C72.8843 16.6412 73.5058 15.7974 74.0795 14.8048C74.7129 13.7253 75.3822 12.2736 75.7288 11.1445C75.7288 11.1445 76.3145 11.1445 76.936 11.1072C77.1391 11.0948 77.1989 11.132 77.1511 11.2934C77.1033 11.4795 76.3623 14.4574 77.0435 16.4427C77.5096 17.8075 78.5614 18.2418 79.1829 18.2418C79.9119 18.2418 80.6051 17.671 80.9756 16.8273C81.0234 16.9266 81.0712 17.0134 81.119 17.1003C82.1708 18.8374 84.2026 18.4527 85.2423 16.9886C85.4814 16.6536 85.6129 16.3682 85.6129 16.3682C85.8399 17.8075 86.9156 18.2542 87.5251 18.2542C88.1705 18.2542 88.78 17.9812 89.2701 16.7653C89.294 17.2988 89.3179 17.7331 89.3776 17.8696C89.4135 17.9564 89.5927 18.0557 89.7242 18.1053C90.3098 18.3287 90.9074 18.2294 91.1345 18.1798C91.2899 18.1425 91.4094 18.0185 91.4213 17.6835C91.4692 16.8149 91.4333 15.3632 91.6962 14.2713C92.1265 12.4597 92.5209 11.7524 92.7002 11.405C92.8077 11.2065 92.9273 11.1817 92.9273 11.3802C92.9392 11.8021 92.9512 13.0305 93.1185 14.6807C93.238 15.8967 93.4053 16.6164 93.5248 16.8397C93.8834 17.4849 94.3137 17.5222 94.6722 17.5222C94.8993 17.5222 95.3773 17.4601 95.3295 17.0382C95.3056 16.8397 95.3415 15.5865 95.7598 13.7998C96.0347 12.6334 96.4888 11.5787 96.6562 11.1817C96.7159 11.0452 96.7398 11.1569 96.7398 11.1693C96.704 11.9758 96.6323 14.6063 96.943 16.0456C97.3733 17.9937 98.6162 18.217 99.0465 18.217C99.9668 18.217 100.72 17.4849 100.971 15.5741C101.054 15.0406 100.959 14.6931 100.684 14.6931ZM62.0681 13.502C62.0203 14.5194 61.8291 15.3632 61.5183 15.9836C60.9686 17.1003 59.869 17.4477 59.3909 15.8471C59.0443 14.6807 59.1639 13.1049 59.3073 12.2488C59.5224 10.9832 60.0602 10.0774 60.8968 10.1642C61.7574 10.2511 62.1876 11.3926 62.0681 13.502ZM70.494 13.5268C70.4462 14.4822 70.2072 15.45 69.9442 15.9836C69.4064 17.1003 68.283 17.4601 67.8168 15.8471C67.4942 14.7428 67.5778 13.3159 67.7332 12.4101C67.9364 11.2437 68.4383 10.1642 69.3228 10.1642C70.1952 10.1642 70.6255 11.1445 70.494 13.5268ZM70.7211 20.0534C70.7091 21.8029 70.4462 23.3291 69.8725 23.7758C69.0718 24.4086 67.9842 23.9371 68.2113 22.659C68.4144 21.5299 69.3467 20.376 70.7211 18.9739V20.0534ZM85.2663 13.5268C85.2184 14.5815 84.9914 15.4004 84.7165 15.9836C84.1786 17.1003 83.0552 17.4477 82.5891 15.8471C82.3261 14.9661 82.3142 13.502 82.5054 12.2736C82.6966 11.0204 83.2225 10.0774 84.095 10.1642C84.9555 10.2387 85.3619 11.3926 85.2663 13.5268Z" fill="#1B1C17"/>
</g>
<defs>
<radialGradient id="paint0_radial_257_6553" cx="0" cy="0" r="1" gradientUnits="userSpaceOnUse" gradientTransform="translate(7.39681 26.1985) rotate(-90) scale(23.5728 21.9305)">
<stop stop-color="#FFDD55"/>
<stop offset="0.1" stop-color="#FFDD55"/>
<stop offset="0.5" stop-color="#FF543E"/>
<stop offset="1" stop-color="#C837AB"/>
</radialGradient>
<clipPath id="clip0_257_6553">
<rect width="24.1538" height="24.153" fill="white" transform="translate(0.895508 0.39856)"/>
</clipPath>
</defs>
</svg>
