<svg width="350" height="255" viewBox="0 0 350 255" fill="none" xmlns="http://www.w3.org/2000/svg">
<ellipse cx="163.6" cy="193.363" rx="75.6" ry="8.1" fill="#DDE1ED"/>
<mask id="path-2-inside-1_257_5160" fill="white">
<path fill-rule="evenodd" clip-rule="evenodd" d="M144.154 80.6565C143.989 77.2636 144.816 72.1215 147.683 67.9589C150.384 64.0372 155.137 60.6038 163.819 60.6038C172.506 60.6038 177.386 64.0444 180.218 68.0148C183.209 72.2083 184.159 77.3709 184.076 80.758C184.02 83.0605 185.841 84.9726 188.144 85.0287C190.446 85.0849 192.358 83.2639 192.414 80.9613C192.53 76.2064 191.276 69.1559 187.009 63.1719C182.582 56.9647 175.15 52.2632 163.819 52.2632C152.484 52.2632 145.123 56.9718 140.814 63.2277C136.671 69.2427 135.592 76.3137 135.823 81.0628C135.936 83.3633 137.891 85.1372 140.192 85.025C142.492 84.9128 144.266 82.9569 144.154 80.6565ZM117.774 93.1578C112.928 93.1578 109 97.0861 109 101.932V151.126C109 174.143 127.659 192.802 150.676 192.802H177.321C200.338 192.802 218.997 174.143 218.997 151.126V101.932C218.997 97.0861 215.069 93.1578 210.223 93.1578H117.774Z"/>
</mask>
<path fill-rule="evenodd" clip-rule="evenodd" d="M144.154 80.6565C143.989 77.2636 144.816 72.1215 147.683 67.9589C150.384 64.0372 155.137 60.6038 163.819 60.6038C172.506 60.6038 177.386 64.0444 180.218 68.0148C183.209 72.2083 184.159 77.3709 184.076 80.758C184.02 83.0605 185.841 84.9726 188.144 85.0287C190.446 85.0849 192.358 83.2639 192.414 80.9613C192.53 76.2064 191.276 69.1559 187.009 63.1719C182.582 56.9647 175.15 52.2632 163.819 52.2632C152.484 52.2632 145.123 56.9718 140.814 63.2277C136.671 69.2427 135.592 76.3137 135.823 81.0628C135.936 83.3633 137.891 85.1372 140.192 85.025C142.492 84.9128 144.266 82.9569 144.154 80.6565ZM117.774 93.1578C112.928 93.1578 109 97.0861 109 101.932V151.126C109 174.143 127.659 192.802 150.676 192.802H177.321C200.338 192.802 218.997 174.143 218.997 151.126V101.932C218.997 97.0861 215.069 93.1578 210.223 93.1578H117.774Z" fill="#090909"/>
<path d="M147.683 67.9589L149.33 69.0934L147.683 67.9589ZM144.154 80.6565L142.156 80.7539L144.154 80.6565ZM180.218 68.0148L178.59 69.176L180.218 68.0148ZM184.076 80.758L186.076 80.8067V80.8067L184.076 80.758ZM188.144 85.0287L188.095 87.0281L188.144 85.0287ZM192.414 80.9613L194.414 81.0101V81.0101L192.414 80.9613ZM187.009 63.1719L188.637 62.0106V62.0106L187.009 63.1719ZM140.814 63.2277L139.167 62.0932L140.814 63.2277ZM135.823 81.0628L137.821 80.9654L135.823 81.0628ZM140.192 85.025L140.289 87.0227H140.289L140.192 85.025ZM146.036 66.8244C142.863 71.4307 141.975 77.035 142.156 80.7539L146.152 80.559C146.002 77.4922 146.768 72.8123 149.33 69.0934L146.036 66.8244ZM163.819 58.6038C154.5 58.6038 149.122 62.3434 146.036 66.8244L149.33 69.0934C151.646 65.731 155.773 62.6038 163.819 62.6038V58.6038ZM181.846 66.8535C178.632 62.347 173.14 58.6038 163.819 58.6038V62.6038C171.872 62.6038 176.14 65.7418 178.59 69.176L181.846 66.8535ZM186.076 80.8067C186.166 77.0909 185.143 71.4759 181.846 66.8535L178.59 69.176C181.274 72.9407 182.151 77.6509 182.077 80.7092L186.076 80.8067ZM188.192 83.0293C186.994 83.0001 186.046 82.005 186.076 80.8067L182.077 80.7092C181.994 84.116 184.688 86.9451 188.095 87.0281L188.192 83.0293ZM190.415 80.9126C190.386 82.1109 189.391 83.0586 188.192 83.0293L188.095 87.0281C191.502 87.1112 194.331 84.4169 194.414 81.0101L190.415 80.9126ZM185.38 64.3331C189.341 69.8875 190.523 76.4851 190.415 80.9126L194.414 81.0101C194.538 75.9276 193.211 68.4243 188.637 62.0106L185.38 64.3331ZM163.819 54.2632C174.516 54.2632 181.336 58.6625 185.38 64.3331L188.637 62.0106C183.827 55.2669 175.784 50.2632 163.819 50.2632V54.2632ZM142.461 64.3622C146.384 58.6663 153.12 54.2632 163.819 54.2632V50.2632C151.848 50.2632 143.861 55.2774 139.167 62.0932L142.461 64.3622ZM137.821 80.9654C137.605 76.5409 138.624 69.9326 142.461 64.3622L139.167 62.0932C134.718 68.5528 133.578 76.0865 133.826 81.1603L137.821 80.9654ZM140.094 83.0274C138.897 83.0858 137.879 82.1626 137.821 80.9654L133.826 81.1603C133.992 84.564 136.886 87.1887 140.289 87.0227L140.094 83.0274ZM142.156 80.7539C142.215 81.9511 141.292 82.969 140.094 83.0274L140.289 87.0227C143.693 86.8566 146.318 83.9628 146.152 80.559L142.156 80.7539ZM111 101.932C111 98.1906 114.033 95.1578 117.774 95.1578V91.1578C111.824 91.1578 107 95.9815 107 101.932H111ZM111 151.126V101.932H107V151.126H111ZM150.676 190.802C128.764 190.802 111 173.038 111 151.126H107C107 175.248 126.555 194.802 150.676 194.802V190.802ZM177.321 190.802H150.676V194.802H177.321V190.802ZM216.997 151.126C216.997 173.038 199.233 190.802 177.321 190.802V194.802C201.442 194.802 220.997 175.248 220.997 151.126H216.997ZM216.997 101.932V151.126H220.997V101.932H216.997ZM210.223 95.1578C213.964 95.1578 216.997 98.1907 216.997 101.932H220.997C220.997 95.9815 216.173 91.1578 210.223 91.1578V95.1578ZM117.774 95.1578H210.223V91.1578H117.774V95.1578Z" fill="black" mask="url(#path-2-inside-1_257_5160)"/>
<mask id="path-4-inside-2_257_5160" fill="white">
<path fill-rule="evenodd" clip-rule="evenodd" d="M173.135 156.181C168.979 161.996 162.171 165.787 154.479 165.787C141.822 165.787 131.562 155.527 131.562 142.871C131.562 130.215 141.822 119.955 154.479 119.955C162.288 119.955 169.186 123.862 173.323 129.828H228.823C236.1 129.828 242 135.727 242 143.004C242 150.282 236.1 156.181 228.823 156.181H173.135Z"/>
</mask>
<path fill-rule="evenodd" clip-rule="evenodd" d="M173.135 156.181C168.979 161.996 162.171 165.787 154.479 165.787C141.822 165.787 131.562 155.527 131.562 142.871C131.562 130.215 141.822 119.955 154.479 119.955C162.288 119.955 169.186 123.862 173.323 129.828H228.823C236.1 129.828 242 135.727 242 143.004C242 150.282 236.1 156.181 228.823 156.181H173.135Z" fill="#AAE738"/>
<path d="M173.135 156.181V154.181H172.106L171.508 155.018L173.135 156.181ZM173.323 129.828L171.679 130.967L172.276 131.828H173.323V129.828ZM171.508 155.018C167.711 160.331 161.498 163.787 154.479 163.787V167.787C162.844 167.787 170.247 163.662 174.762 157.344L171.508 155.018ZM154.479 163.787C142.927 163.787 133.562 154.423 133.562 142.871H129.562C129.562 156.632 140.718 167.787 154.479 167.787V163.787ZM133.562 142.871C133.562 131.319 142.927 121.955 154.479 121.955V117.955C140.718 117.955 129.562 129.11 129.562 142.871H133.562ZM154.479 121.955C161.605 121.955 167.9 125.517 171.679 130.967L174.966 128.688C170.472 122.206 162.972 117.955 154.479 117.955V121.955ZM173.323 131.828H228.823V127.828H173.323V131.828ZM228.823 131.828C234.996 131.828 240 136.832 240 143.004H244C244 134.623 237.205 127.828 228.823 127.828V131.828ZM240 143.004C240 149.177 234.996 154.181 228.823 154.181V158.181C237.205 158.181 244 151.386 244 143.004H240ZM228.823 154.181H173.135V158.181H228.823V154.181Z" fill="black" mask="url(#path-4-inside-2_257_5160)"/>
<circle cx="190.791" cy="142.517" r="3.23065" fill="white" stroke="black" stroke-width="2"/>
<circle cx="207.714" cy="142.517" r="3.23065" fill="white" stroke="black" stroke-width="2"/>
<circle cx="224.637" cy="142.517" r="3.23065" fill="white" stroke="black" stroke-width="2"/>
<path fill-rule="evenodd" clip-rule="evenodd" d="M163.4 137.32C163.991 137.911 163.991 138.869 163.4 139.459L153.122 149.738C151.94 150.919 150.024 150.919 148.843 149.738L144.995 145.89C144.404 145.299 144.404 144.341 144.995 143.75C145.586 143.159 146.544 143.159 147.135 143.75L150.982 147.598L161.26 137.32C161.851 136.729 162.809 136.729 163.4 137.32Z" fill="black" stroke="black" stroke-width="2" stroke-linecap="round"/>
</svg>
