<svg width="342" height="255" viewBox="0 0 342 255" fill="none" xmlns="http://www.w3.org/2000/svg">
<ellipse cx="172.6" cy="204.363" rx="75.6" ry="8.1" fill="#DDE1ED"/>
<path d="M75.2476 81.317C77.5935 81.317 79.4952 79.4152 79.4952 77.0694C79.4952 74.7235 77.5935 72.8218 75.2476 72.8218C72.9017 72.8218 71 74.7235 71 77.0694C71 79.4152 72.9017 81.317 75.2476 81.317Z" fill="#AAE738" fill-opacity="0.22"/>
<path d="M152.681 46.2318C156.538 46.2318 159.665 43.1048 159.665 39.2475C159.665 35.3902 156.538 32.2632 152.681 32.2632C148.823 32.2632 145.696 35.3902 145.696 39.2475C145.696 43.1048 148.823 46.2318 152.681 46.2318Z" fill="#DDE1ED" fill-opacity="0.46"/>
<path d="M265.829 135.441C268.903 135.441 271.395 132.949 271.395 129.875C271.395 126.801 268.903 124.309 265.829 124.309C262.755 124.309 260.263 126.801 260.263 129.875C260.263 132.949 262.755 135.441 265.829 135.441Z" fill="#AAE738" fill-opacity="0.22"/>
<path d="M240.383 180.131H101.213C95.595 180.131 91.041 175.577 91.041 169.959V64.2673C91.041 58.6497 95.595 54.0957 101.213 54.0957H240.383C246 54.0957 250.554 58.6497 250.554 64.2673V169.959C250.554 175.577 246 180.131 240.383 180.131Z" fill="white" stroke="black" stroke-width="0.5"/>
<path d="M239.5 69.7578V165.77C239.5 167.999 237.787 169.764 235.725 169.764H105.275C103.213 169.764 101.5 167.999 101.5 165.77V69.7578C101.5 67.528 103.213 65.7637 105.275 65.7637H235.725C237.787 65.7637 239.5 67.528 239.5 69.7578Z" fill="white" stroke="black"/>
<path d="M146.158 182.977V182.727H145.908H101.212C94.1729 182.727 88.4453 176.999 88.4453 169.959V64.2676C88.4453 57.2276 94.1729 51.5 101.212 51.5H240.383C247.423 51.5 253.15 57.2276 253.15 64.2676V169.959C253.15 176.999 247.423 182.727 240.383 182.727H195.687H195.437V182.977V200.778V201.028H195.687H204.795C206.091 201.028 207.141 202.078 207.141 203.374C207.141 204.669 206.091 205.72 204.795 205.72H204.622H204.45H204.278H204.107H203.936H203.765H203.595H203.426H203.257H203.088H202.92H202.752H202.585H202.418H202.252H202.086H201.921H201.755H201.591H201.427H201.263H201.1H200.937H200.774H200.612H200.451H200.29H200.129H199.969H199.809H199.649H199.49H199.331H199.173H199.015H198.858H198.701H198.544H198.388H198.232H198.077H197.922H197.767H197.613H197.459H197.306H197.152H197H196.847H196.696H196.544H196.393H196.242H196.092H195.942H195.792H195.643H195.494H195.345H195.197H195.049H194.902H194.754H194.608H194.461H194.315H194.169H194.024H193.879H193.734H193.59H193.446H193.302H193.159H193.016H192.873H192.731H192.589H192.447H192.306H192.165H192.024H191.884H191.744H191.604H191.465H191.325H191.187H191.048H190.91H190.772H190.634H190.497H190.36H190.224H190.087H189.951H189.815H189.68H189.545H189.41H189.275H189.141H189.007H188.873H188.739H188.606H188.473H188.34H188.208H188.076H187.944H187.812H187.681H187.55H187.419H187.288H187.158H187.028H186.898H186.769H186.639H186.51H186.381H186.253H186.124H185.996H185.868H185.741H185.613H185.486H185.359H185.233H185.106H184.98H184.854H184.728H184.602H184.477H184.352H184.227H184.102H183.978H183.853H183.729H183.605H183.482H183.358H183.235H183.112H182.989H182.866H182.744H182.621H182.499H182.377H182.255H182.134H182.012H181.891H181.77H181.649H181.528H181.408H181.288H181.167H181.047H180.927H180.808H180.688H180.569H180.449H180.33H180.211H180.093H179.974H179.856H179.737H179.619H179.501H179.383H179.265H179.148H179.03H178.913H178.796H178.678H178.561H178.445H178.328H178.211H178.095H177.978H177.862H177.746H177.63H177.514H177.398H177.282H177.167H177.051H176.936H176.821H176.705H176.59H176.475H176.36H176.245H176.131H176.016H175.901H175.787H175.673H175.558H175.444H175.33H175.216H175.102H174.988H174.874H174.76H174.646H174.532H174.419H174.305H174.192H174.078H173.965H173.851H173.738H173.625H173.512H173.398H173.285H173.172H173.059H172.946H172.833H172.72H172.607H172.494H172.382H172.269H172.156H172.043H171.93H171.818H171.705H171.592H171.479H171.367H171.254H171.141H171.029H170.916H170.803H170.691H170.578H170.465H170.352H170.24H170.127H170.014H169.902H169.789H169.676H169.563H169.451H169.338H169.225H169.112H168.999H168.886H168.773H168.66H168.547H168.434H168.321H168.208H168.095H167.981H167.868H167.755H167.641H167.528H167.415H167.301H167.187H167.074H166.96H166.846H166.732H166.618H166.504H166.39H166.276H166.162H166.048H165.934H165.819H165.705H165.59H165.475H165.361H165.246H165.131H165.016H164.901H164.785H164.67H164.555H164.439H164.323H164.208H164.092H163.976H163.86H163.744H163.627H163.511H163.394H163.278H163.161H163.044H162.927H162.81H162.693H162.575H162.458H162.34H162.222H162.104H161.986H161.868H161.75H161.631H161.513H161.394H161.275H161.156H161.036H160.917H160.797H160.678H160.558H160.438H160.317H160.197H160.076H159.956H159.835H159.714H159.592H159.471H159.349H159.228H159.105H158.983H158.861H158.738H158.616H158.493H158.37H158.246H158.123H157.999H157.875H157.751H157.626H157.502H157.377H157.252H157.127H157.001H156.876H156.75H156.624H156.498H156.371H156.244H156.117H155.99H155.863H155.735H155.607H155.479H155.351H155.222H155.093H154.964H154.835H154.705H154.575H154.445H154.315H154.184H154.053H153.922H153.791H153.659H153.527H153.395H153.262H153.129H152.996H152.863H152.73H152.596H152.462H152.327H152.193H152.058H151.922H151.787H151.651H151.515H151.378H151.242H151.105H150.967H150.83H150.692H150.553H150.415H150.276H150.137H149.997H149.857H149.717H149.577H149.436H149.295H149.154H149.012H148.87H148.727H148.585H148.442H148.298H148.155H148.01H147.866H147.721H147.576H147.431H147.285H147.139H146.992H146.845H146.698H146.551H146.403H146.254H146.106H145.957H145.807H145.658H145.508H145.357H145.206H145.055H144.903H144.751H144.599H144.446H144.293H144.14H143.986H143.831H143.677H143.521H143.366H143.21H143.054H142.897H142.74H142.582H142.425H142.266H142.107H141.948H141.789H141.629H141.468H141.308H141.146H140.985H140.823H140.66H140.497H140.334H140.17H140.006H139.841H139.676H139.51H139.344H139.178H139.011H138.844H138.676H138.507H138.339H138.17H138H137.83H137.659H137.488H137.317H137.145H136.973H136.8C135.504 205.72 134.454 204.669 134.454 203.374C134.454 202.078 135.504 201.028 136.8 201.028H145.908H146.158V200.778V182.977ZM190.495 201.028H190.745V200.778V182.977V182.727H190.495H151.1H150.85V182.977V200.778V201.028H151.1H190.495ZM240.383 178.035C244.836 178.035 248.458 174.412 248.458 169.959V64.2676C248.458 59.8149 244.836 56.1918 240.383 56.1918H101.212C96.7595 56.1918 93.1372 59.8149 93.1372 64.2676V169.959C93.1372 174.412 96.7595 178.035 101.212 178.035H240.383Z" fill="black" stroke="black" stroke-width="0.5"/>
<path d="M126.454 137.846L126.454 137.846C118.323 133.057 113.27 124.215 113.27 114.778V95.1884L133.444 86.6043L153.617 95.1876V114.778C153.617 124.215 148.564 133.057 140.433 137.846L140.941 138.708L140.433 137.846L133.444 141.963L126.454 137.846Z" fill="#AAE738" stroke="black" stroke-width="2"/>
<path d="M129.636 119.446L129.636 119.446C129.879 119.754 130.24 119.917 130.61 119.917C130.864 119.917 131.12 119.839 131.341 119.676L131.341 119.676L141.392 112.292L141.392 112.292C141.942 111.888 142.062 111.113 141.657 110.561L129.636 119.446ZM129.636 119.446L126.074 114.933L126.074 114.932M129.636 119.446L126.074 114.932M126.074 114.932C125.65 114.396 125.742 113.617 126.279 113.192L126.28 113.192M126.074 114.932L126.28 113.192M126.28 113.192C126.816 112.769 127.594 112.86 128.018 113.397C128.018 113.397 128.018 113.398 128.018 113.398L130.241 116.213L130.839 116.971M126.28 113.192L130.839 116.971M130.839 116.971L131.617 116.4M130.839 116.971L131.617 116.4M131.617 116.4L139.925 110.297L139.927 110.296M131.617 116.4L139.927 110.296M139.927 110.296C140.475 109.891 141.251 110.009 141.656 110.561L139.927 110.296Z" fill="black" stroke="black" stroke-width="2"/>
<path d="M202.915 137.846L202.915 137.846C194.784 133.057 189.73 124.215 189.73 114.778V95.1884L209.905 86.6043L230.078 95.1876V114.778C230.078 124.215 225.025 133.057 216.894 137.846L217.402 138.708L216.894 137.846L209.905 141.963L202.915 137.846Z" fill="#AAE738" stroke="black" stroke-width="2"/>
<path d="M205.508 119.91L205.508 119.91L201.946 115.397L201.946 115.397C201.266 114.535 201.413 113.284 202.276 112.604L202.276 112.604C203.137 111.923 204.387 112.07 205.068 112.933L207.29 115.748L207.44 115.938L207.634 115.795L215.942 109.693L215.943 109.692C216.827 109.04 218.072 109.232 218.722 110.117C219.372 111.003 219.182 112.247 218.297 112.897L218.297 112.897L208.246 120.28L208.246 120.28C207.892 120.541 207.48 120.667 207.07 120.667C206.481 120.667 205.899 120.406 205.508 119.91Z" fill="black" stroke="black" stroke-width="0.5"/>
<rect x="159" y="112.263" width="27" height="2" rx="1" fill="black"/>
</svg>
