<svg width="342" height="245" viewBox="0 0 342 245" fill="none" xmlns="http://www.w3.org/2000/svg">
<ellipse cx="171.6" cy="205.364" rx="75.6" ry="8.1" fill="#DDE1ED"/>
<path d="M230.666 198.752V198.711V198.059L230.036 198.228C228.791 198.563 227.508 198.743 226.218 198.763C225.306 198.762 224.431 198.399 223.786 197.754C223.14 197.108 222.777 196.232 222.777 195.319V100.652C222.777 99.7384 223.14 98.8623 223.786 98.2164C224.432 97.5704 225.308 97.2075 226.222 97.2075H238.055C238.969 97.2075 239.845 97.5704 240.491 98.2164C241.137 98.8623 241.5 99.7384 241.5 100.652V187.43C241.5 190.436 240.306 193.318 238.18 195.444C236.173 197.451 233.49 198.627 230.666 198.752Z" fill="black" stroke="black"/>
<path d="M138.181 104.244L138.035 104.097H137.827H111.833C110.92 104.097 110.043 103.734 109.398 103.088C108.752 102.442 108.389 101.566 108.389 100.652V61.2076C108.389 60.2941 108.752 59.418 109.398 58.772C110.043 58.1261 110.92 57.7632 111.833 57.7632H226.222C227.136 57.7632 228.012 58.1261 228.658 58.772C229.304 59.418 229.666 60.2941 229.666 61.2076V195.319C229.666 196.232 229.304 197.108 228.658 197.754C228.012 198.4 227.136 198.763 226.222 198.763C222.17 198.763 218.284 197.154 215.419 194.288C212.554 191.423 210.944 187.537 210.944 183.485V116.43V115.93H210.444L151.278 115.93L151.275 115.93C150.821 115.932 150.372 115.846 149.952 115.674C149.533 115.503 149.151 115.251 148.83 114.932C148.83 114.931 148.829 114.931 148.829 114.931L138.181 104.244Z" fill="white" stroke="black"/>
<path d="M152.541 108.894L152.687 109.041H152.895H214.389C215.302 109.041 216.179 109.404 216.825 110.05C217.47 110.696 217.833 111.572 217.833 112.485V183.485C217.833 185.71 218.717 187.844 220.29 189.417C221.864 190.99 223.997 191.874 226.222 191.874C227.136 191.874 228.012 192.237 228.658 192.883C229.304 193.529 229.667 194.405 229.667 195.319C229.667 196.232 229.304 197.108 228.658 197.754C228.012 198.4 227.136 198.763 226.222 198.763L115.778 198.763L115.772 198.763C114.002 198.783 112.244 198.459 110.596 197.812L110.596 197.812L110.583 197.807C107.637 196.742 105.089 194.796 103.285 192.234C101.482 189.672 100.509 186.618 100.5 183.485V100.652C100.5 99.7385 100.863 98.8624 101.509 98.2164C102.155 97.5705 103.031 97.2076 103.944 97.2076L139.444 97.2076L139.447 97.2076C139.901 97.205 140.35 97.2918 140.77 97.4633L140.959 97.0004L140.77 97.4633C141.189 97.6345 141.57 97.8866 141.892 98.2053C141.892 98.2057 141.893 98.2061 141.893 98.2065L152.541 108.894Z" fill="#2B2B2B" stroke="black"/>
<path d="M178.389 84.8741C178.389 86.7764 176.847 88.3186 174.944 88.3186C173.042 88.3186 171.5 86.7764 171.5 84.8741C171.5 82.9718 173.042 81.4297 174.944 81.4297C176.847 81.4297 178.389 82.9718 178.389 84.8741Z" fill="#AAE738" stroke="black"/>
<path d="M194.166 84.8741C194.166 86.7764 192.624 88.3186 190.722 88.3186C188.819 88.3186 187.277 86.7764 187.277 84.8741C187.277 82.9718 188.819 81.4297 190.722 81.4297C192.624 81.4297 194.166 82.9718 194.166 84.8741Z" fill="#AAE738" stroke="black"/>
<path d="M209.945 84.8741C209.945 86.7764 208.402 88.3186 206.5 88.3186C204.598 88.3186 203.056 86.7764 203.056 84.8741C203.056 82.9718 204.598 81.4297 206.5 81.4297C208.402 81.4297 209.945 82.9718 209.945 84.8741Z" fill="#AAE738" stroke="black"/>
<path d="M150.778 144.041V144.541H151.278H167.056H167.556V144.041C167.556 141.816 166.672 139.682 165.099 138.109C163.526 136.536 161.392 135.652 159.167 135.652C156.942 135.652 154.808 136.536 153.235 138.109C151.662 139.682 150.778 141.816 150.778 144.041ZM159.167 88.3186H127.611C126.698 88.3186 125.822 87.9557 125.176 87.3097C124.53 86.6638 124.167 85.7877 124.167 84.8741C124.167 83.9606 124.53 83.0845 125.176 82.4385C125.822 81.7926 126.698 81.4297 127.611 81.4297H159.167C160.081 81.4297 160.957 81.7926 161.603 82.4385C162.249 83.0845 162.611 83.9606 162.611 84.8741C162.611 85.7877 162.249 86.6638 161.603 87.3097C160.957 87.9557 160.081 88.3186 159.167 88.3186ZM171 151.43H147.334C146.42 151.43 145.544 151.067 144.898 150.421C144.252 149.775 143.889 148.899 143.889 147.985V144.041C143.889 139.989 145.499 136.103 148.364 133.238C151.229 130.373 155.115 128.763 159.167 128.763C163.219 128.763 167.105 130.373 169.97 133.238C172.835 136.103 174.445 139.989 174.445 144.041V147.985C174.445 148.899 174.082 149.775 173.436 150.421C172.79 151.067 171.914 151.43 171 151.43Z" fill="#89C31E" stroke="black"/>
<path d="M218.833 176.097H229.666V198.752C226.842 198.628 224.16 197.451 222.152 195.444C220.027 193.318 218.833 190.436 218.833 187.43V176.097Z" fill="#EDEDED" stroke="black"/>
<path d="M147.333 144.541H171C177.259 144.541 182.333 149.615 182.333 155.874V167.708C182.333 173.967 177.259 179.041 171 179.041H147.333C141.074 179.041 136 173.967 136 167.708V155.874C136 149.615 141.074 144.541 147.333 144.541Z" fill="#AAE738" stroke="black"/>
<path d="M159.167 167.208C158.254 167.208 157.377 166.845 156.732 166.199C156.086 165.553 155.723 164.677 155.723 163.763V159.819C155.723 158.905 156.086 158.029 156.732 157.383C157.377 156.737 158.254 156.375 159.167 156.375C160.081 156.375 160.957 156.737 161.603 157.383C162.249 158.029 162.612 158.905 162.612 159.819V163.763C162.612 164.677 162.249 165.553 161.603 166.199C160.957 166.845 160.081 167.208 159.167 167.208Z" fill="#89C31E" stroke="black"/>
</svg>
