<svg width="342" height="255" viewBox="0 0 342 255" fill="none" xmlns="http://www.w3.org/2000/svg">
<ellipse cx="174.6" cy="202.063" rx="75.6" ry="8.1" fill="#DDE1ED"/>
<path d="M190.642 124.263C181.106 121.062 173.123 114.39 168.283 105.572C163.442 96.7537 162.098 86.4368 164.517 76.6729C166.937 66.909 172.943 58.4135 181.341 52.8761C189.739 47.3386 199.913 45.1651 209.841 46.7876C219.768 48.4102 228.721 53.71 234.919 61.6329C241.117 69.5559 244.106 79.5215 243.291 89.5476C242.476 99.5738 237.917 108.926 230.521 115.744C223.125 122.562 213.433 126.346 203.374 126.344C199.045 126.346 194.745 125.643 190.642 124.263ZM225.362 90.607V70.0447L203.383 59.2503L203.315 59.2846L181.408 70.0135V90.607C181.408 95.4832 184.687 101.704 188.733 104.465L203.383 114.458L218.037 104.465C222.083 101.704 225.362 95.5144 225.362 90.607Z" fill="#FEDB41" stroke="black"/>
<path d="M225.362 70.0449V90.6073C225.362 95.5147 222.083 101.704 218.037 104.465L203.383 114.458L203.327 59.3066L203.314 59.2848L203.383 59.2505L225.362 70.0449Z" fill="#AAE738" stroke="black"/>
<path d="M211.903 142.973V176.426C211.903 183.152 201.461 188.986 186.124 191.928C178.647 193.315 171.055 193.996 163.45 193.962C136.685 193.962 115 186.119 115 176.426V142.973C115 152.663 136.685 160.506 163.45 160.506C190.214 160.506 211.903 152.663 211.903 142.973Z" fill="#89C31E" stroke="black"/>
<path d="M211.903 142.28V142.973C211.903 152.663 190.214 160.506 163.45 160.506C136.685 160.506 115 152.663 115 142.973V109.747C115 119.437 136.685 127.283 163.45 127.283C173.53 127.283 182.892 126.17 190.642 124.263C197.494 126.563 204.841 126.965 211.903 125.427V142.28Z" fill="#AAE738" stroke="black"/>
<path d="M203.327 59.3065L203.383 114.458L188.733 104.465C184.686 101.704 181.407 95.4833 181.407 90.6071V70.0135L203.314 59.2847L203.327 59.3065ZM190.642 124.263C182.892 126.169 173.53 127.283 163.45 127.283C136.685 127.283 115 119.437 115 109.747V76.5214C115 86.2083 136.692 94.0576 163.45 94.0576C163.734 94.0576 164.012 94.0576 164.289 94.0545C165.622 100.969 168.763 107.406 173.392 112.712C178.021 118.019 183.973 122.004 190.642 124.263Z" fill="#89C31E" stroke="black"/>
<path d="M163.45 58.9883C167.166 58.9883 170.785 59.138 174.26 59.4282C167.387 66.7871 163.57 76.485 163.584 86.5545C163.584 89.0711 163.82 91.5821 164.289 94.0545C164.012 94.0576 163.734 94.0576 163.45 94.0576C136.692 94.0576 115 86.2082 115 76.5214C115 66.8345 136.692 58.9883 163.45 58.9883Z" fill="#AAE738" stroke="black"/>
<path d="M153.186 110.38C153.186 110.959 153.416 111.515 153.825 111.924C154.235 112.334 154.79 112.564 155.369 112.564H171.28C171.859 112.564 172.415 112.334 172.824 111.924C173.234 111.515 173.464 110.959 173.464 110.38C173.464 109.801 173.234 109.245 172.824 108.836C172.415 108.426 171.859 108.196 171.28 108.196H155.369C154.79 108.196 154.235 108.426 153.825 108.836C153.416 109.245 153.186 109.801 153.186 110.38ZM171.592 141.266H155.369C154.79 141.266 154.235 141.496 153.825 141.905C153.416 142.315 153.186 142.87 153.186 143.45C153.186 144.029 153.416 144.584 153.825 144.994C154.235 145.403 154.79 145.633 155.369 145.633H171.592C172.171 145.633 172.727 145.403 173.136 144.994C173.546 144.584 173.776 144.029 173.776 143.45C173.776 142.87 173.546 142.315 173.136 141.905C172.727 141.496 172.171 141.266 171.592 141.266ZM171.592 174.959H155.369C154.79 174.959 154.235 175.189 153.825 175.599C153.416 176.008 153.186 176.564 153.186 177.143C153.186 177.722 153.416 178.278 153.825 178.687C154.235 179.097 154.79 179.327 155.369 179.327H171.592C172.171 179.327 172.727 179.097 173.136 178.687C173.546 178.278 173.776 177.722 173.776 177.143C173.776 176.564 173.546 176.008 173.136 175.599C172.727 175.189 172.171 174.959 171.592 174.959Z" fill="#F4B844" stroke="black"/>
</svg>
