<svg width="350" height="255" viewBox="0 0 350 255" fill="none" xmlns="http://www.w3.org/2000/svg">
<ellipse cx="171" cy="204" rx="75.6" ry="8.1" fill="#DDE1ED"/>
<mask id="path-2-inside-1_257_5212" fill="white">
<path fill-rule="evenodd" clip-rule="evenodd" d="M221.683 121.674H235.745C238.852 121.674 241.37 124.192 241.37 127.299V169.486C241.37 172.593 238.852 175.111 235.745 175.111H221.683C218.576 175.111 216.058 172.593 216.058 169.486V127.299C216.058 124.192 218.576 121.674 221.683 121.674ZM192.152 189.174H203.402C208.838 189.174 213.245 193.581 213.245 199.018C213.245 204.454 208.838 208.861 203.402 208.861H192.152C186.715 208.861 182.308 204.454 182.308 199.018C182.308 193.581 186.715 189.174 192.152 189.174ZM106.37 169.486L97.9328 169.486C96.328 169.364 94.8365 168.613 93.783 167.396C92.7295 166.179 92.1993 164.595 92.3078 162.989V133.796C92.1993 132.19 92.7295 130.606 93.783 129.389C94.8365 128.173 96.328 127.421 97.9328 127.299H106.37C106.37 124.192 108.889 121.674 111.995 121.674H126.058C129.165 121.674 131.683 124.192 131.683 127.299V169.486C131.683 172.593 129.165 175.111 126.058 175.111H111.995C108.889 175.111 106.37 172.593 106.37 169.486Z"/>
</mask>
<path fill-rule="evenodd" clip-rule="evenodd" d="M221.683 121.674H235.745C238.852 121.674 241.37 124.192 241.37 127.299V169.486C241.37 172.593 238.852 175.111 235.745 175.111H221.683C218.576 175.111 216.058 172.593 216.058 169.486V127.299C216.058 124.192 218.576 121.674 221.683 121.674ZM192.152 189.174H203.402C208.838 189.174 213.245 193.581 213.245 199.018C213.245 204.454 208.838 208.861 203.402 208.861H192.152C186.715 208.861 182.308 204.454 182.308 199.018C182.308 193.581 186.715 189.174 192.152 189.174ZM106.37 169.486L97.9328 169.486C96.328 169.364 94.8365 168.613 93.783 167.396C92.7295 166.179 92.1993 164.595 92.3078 162.989V133.796C92.1993 132.19 92.7295 130.606 93.783 129.389C94.8365 128.173 96.328 127.421 97.9328 127.299H106.37C106.37 124.192 108.889 121.674 111.995 121.674H126.058C129.165 121.674 131.683 124.192 131.683 127.299V169.486C131.683 172.593 129.165 175.111 126.058 175.111H111.995C108.889 175.111 106.37 172.593 106.37 169.486Z" fill="#404040"/>
<path d="M97.9328 169.486L97.8948 169.985L97.9138 169.986H97.9328L97.9328 169.486ZM106.37 169.486H106.87V168.986H106.37V169.486ZM93.783 167.396L94.161 167.068L93.783 167.396ZM92.3078 162.989L92.8067 163.023L92.8078 163.006V162.989H92.3078ZM92.3078 133.796H92.8078V133.779L92.8067 133.762L92.3078 133.796ZM93.783 129.389L94.161 129.717L93.783 129.389ZM97.9328 127.299V126.799H97.9138L97.8948 126.8L97.9328 127.299ZM106.37 127.299V127.799H106.87L106.87 127.299L106.37 127.299ZM235.745 121.174H221.683V122.174H235.745V121.174ZM241.87 127.299C241.87 123.916 239.128 121.174 235.745 121.174V122.174C238.576 122.174 240.87 124.468 240.87 127.299H241.87ZM241.87 169.486V127.299H240.87V169.486H241.87ZM235.745 175.611C239.128 175.611 241.87 172.869 241.87 169.486H240.87C240.87 172.317 238.576 174.611 235.745 174.611V175.611ZM221.683 175.611H235.745V174.611H221.683V175.611ZM215.558 169.486C215.558 172.869 218.3 175.611 221.683 175.611V174.611C218.852 174.611 216.558 172.317 216.558 169.486H215.558ZM215.558 127.299V169.486H216.558V127.299H215.558ZM221.683 121.174C218.3 121.174 215.558 123.916 215.558 127.299H216.558C216.558 124.468 218.852 122.174 221.683 122.174V121.174ZM203.402 188.674H192.152V189.674H203.402V188.674ZM213.745 199.018C213.745 193.305 209.114 188.674 203.402 188.674V189.674C208.562 189.674 212.745 193.857 212.745 199.018H213.745ZM203.402 209.361C209.114 209.361 213.745 204.73 213.745 199.018H212.745C212.745 204.178 208.562 208.361 203.402 208.361V209.361ZM192.152 209.361H203.402V208.361H192.152V209.361ZM181.808 199.018C181.808 204.73 186.439 209.361 192.152 209.361V208.361C186.991 208.361 182.808 204.178 182.808 199.018H181.808ZM192.152 188.674C186.439 188.674 181.808 193.305 181.808 199.018H182.808C182.808 193.857 186.991 189.674 192.152 189.674V188.674ZM97.9328 169.986L106.37 169.986V168.986L97.9328 168.986L97.9328 169.986ZM93.405 167.723C94.5448 169.039 96.1585 169.852 97.8948 169.985L97.9709 168.988C96.4975 168.875 95.1282 168.186 94.161 167.068L93.405 167.723ZM91.809 162.956C91.6916 164.693 92.2652 166.407 93.405 167.723L94.161 167.068C93.1939 165.951 92.7071 164.497 92.8067 163.023L91.809 162.956ZM91.8078 133.796V162.989H92.8078V133.796H91.8078ZM93.405 129.062C92.2652 130.379 91.6916 132.092 91.809 133.829L92.8067 133.762C92.7071 132.288 93.1939 130.834 94.161 129.717L93.405 129.062ZM97.8948 126.8C96.1585 126.933 94.5448 127.746 93.405 129.062L94.161 129.717C95.1282 128.6 96.4975 127.91 97.9709 127.797L97.8948 126.8ZM106.37 126.799H97.9328V127.799H106.37V126.799ZM111.995 121.174C108.613 121.174 105.87 123.916 105.87 127.299L106.87 127.299C106.87 124.468 109.165 122.174 111.995 122.174V121.174ZM126.058 121.174H111.995V122.174H126.058V121.174ZM132.183 127.299C132.183 123.916 129.441 121.174 126.058 121.174V122.174C128.888 122.174 131.183 124.468 131.183 127.299H132.183ZM132.183 169.486V127.299H131.183V169.486H132.183ZM126.058 175.611C129.441 175.611 132.183 172.869 132.183 169.486H131.183C131.183 172.317 128.888 174.611 126.058 174.611V175.611ZM111.995 175.611H126.058V174.611H111.995V175.611ZM105.87 169.486C105.87 172.869 108.613 175.611 111.995 175.611V174.611C109.165 174.611 106.87 172.317 106.87 169.486H105.87Z" fill="black" mask="url(#path-2-inside-1_257_5212)"/>
<path d="M232.875 205.763H188.125V195.013H227.25C228.808 195.013 230.302 194.394 231.404 193.292C232.506 192.191 233.125 190.696 233.125 189.138V147.201H243.875V194.763C243.875 197.681 242.716 200.478 240.653 202.541C238.59 204.604 235.792 205.763 232.875 205.763Z" fill="white" stroke="black" stroke-width="0.5"/>
<path d="M189.281 189.388H200.531C205.83 189.388 210.125 193.683 210.125 198.982C210.125 204.28 205.83 208.576 200.531 208.576H189.281C183.983 208.576 179.688 204.28 179.688 198.982C179.688 193.683 183.983 189.388 189.281 189.388Z" fill="black" stroke="black" stroke-width="0.5"/>
<path d="M108.875 119.531V146.701H98.1251L98.1251 119.501L98.125 119.497C97.9832 109.856 99.7663 100.284 103.37 91.3412C106.973 82.3982 112.325 74.264 119.112 67.415C125.898 60.566 133.983 55.1398 142.892 51.4542C151.802 47.7685 161.357 45.8976 170.999 45.9508L171.001 45.9508C180.643 45.8976 190.198 47.7685 199.108 51.4542C208.018 55.1398 216.102 60.566 222.889 67.415C229.675 74.264 235.027 82.3982 238.63 91.3412C242.234 100.284 244.017 109.856 243.875 119.497V119.501V146.701H233.125V119.502C233.241 111.28 231.719 103.118 228.646 95.4906C225.574 87.8628 221.013 80.9233 215.23 75.077C209.447 69.2308 202.557 64.5948 194.963 61.4398C187.369 58.2848 179.223 56.6739 171 56.7008C162.775 56.6738 154.626 58.2857 147.03 61.4424C139.435 64.5992 132.544 69.2376 126.76 75.0869C120.977 80.9362 116.416 87.8791 113.345 95.5102C110.275 103.141 108.755 111.306 108.875 119.531Z" fill="white" stroke="black" stroke-width="0.5"/>
<path d="M211.832 80.246L211.829 80.2418C206.725 74.4495 200.441 69.8163 193.399 66.6534C186.357 63.4906 178.72 61.8712 171 61.904C163.29 61.8793 155.664 63.5026 148.632 66.6651C141.6 69.8278 135.326 74.4567 130.228 80.2418L130.228 80.2418L130.225 80.2461C129.746 80.8146 129.155 81.2777 128.488 81.606C127.821 81.9344 127.093 82.1208 126.351 82.1537C125.608 82.1865 124.867 82.065 124.174 81.7968C123.481 81.5287 122.851 81.1198 122.324 80.596C122.324 80.5958 122.324 80.5956 122.324 80.5955L114.439 72.711C121.223 64.3146 129.808 57.5495 139.56 52.9169C149.38 48.2522 160.128 45.8707 170.999 45.9509L171.003 45.9509C181.883 45.8581 192.644 48.2337 202.474 52.899C212.237 57.5322 220.831 64.304 227.618 72.7109L219.733 80.5955C219.206 81.1195 218.576 81.5286 217.883 81.7968C217.19 82.065 216.449 82.1865 215.706 82.1537C214.964 82.1208 214.236 81.9344 213.569 81.606C212.902 81.2777 212.311 80.8146 211.832 80.2461L211.832 80.246ZM252.313 162.954V162.962L252.313 162.971C252.418 164.511 251.909 166.03 250.899 167.197C249.89 168.361 248.464 169.081 246.928 169.201H235.938V127.513H246.928C248.464 127.633 249.89 128.353 250.899 129.518C251.909 130.685 252.418 132.203 252.313 133.743L252.313 133.752V133.76V162.954Z" fill="black" stroke="black" stroke-width="0.5"/>
<path d="M218.812 121.888H232.875C235.844 121.888 238.25 124.295 238.25 127.263V169.451C238.25 172.419 235.844 174.826 232.875 174.826H218.812C215.844 174.826 213.438 172.419 213.438 169.451V127.263C213.438 124.295 215.844 121.888 218.812 121.888Z" fill="#B4BED7" stroke="black" stroke-width="0.5"/>
<path d="M89.6872 162.971L89.6877 162.962V162.954V133.76V133.752L89.6872 133.743C89.5831 132.203 90.0916 130.684 91.1019 129.517C92.1102 128.353 93.5368 127.633 95.0723 127.513H106.063V169.201H95.0723C93.5368 169.081 92.1102 168.361 91.1019 167.196C90.0916 166.03 89.5831 164.511 89.6872 162.971Z" fill="black" stroke="black" stroke-width="0.5"/>
<path d="M123.188 174.826H109.125C106.156 174.826 103.75 172.419 103.75 169.451V127.263C103.75 124.295 106.156 121.888 109.125 121.888H123.188C126.156 121.888 128.562 124.295 128.562 127.263V169.451C128.562 172.419 126.156 174.826 123.188 174.826Z" fill="#B4BED7" stroke="black" stroke-width="0.5"/>
<path d="M214.709 115.84C214.709 137.74 196.956 155.493 175.057 155.493C153.157 155.493 135.404 137.74 135.404 115.84C135.404 93.9409 153.157 76.188 175.057 76.188C196.956 76.188 214.709 93.9409 214.709 115.84Z" fill="#6E9A1B" stroke="black" stroke-width="0.5"/>
<path d="M211.18 115.134C211.18 137.034 193.427 154.787 171.527 154.787C149.628 154.787 131.875 137.034 131.875 115.134C131.875 93.2349 149.628 75.4819 171.527 75.4819C193.427 75.4819 211.18 93.2349 211.18 115.134Z" fill="#AAE738" stroke="black" stroke-width="0.5"/>
<path d="M171.527 144.646C187.826 144.646 201.039 131.433 201.039 115.134C201.039 98.8354 187.826 85.6226 171.527 85.6226C155.228 85.6226 142.016 98.8354 142.016 115.134C142.016 131.433 155.228 144.646 171.527 144.646Z" fill="#AAE738" stroke="black" stroke-width="0.5"/>
<path d="M189.128 86.8744C188.866 87.084 188.551 87.2021 188.116 87.217C188.108 87.2103 188.1 87.2032 188.092 87.1957C188.028 87.141 187.937 87.068 187.826 86.9946C187.638 86.8687 187.365 86.7227 187.067 86.6923C186.596 86.2001 186.244 85.5986 186.065 85.0027C185.877 84.3766 185.887 83.7816 186.116 83.3242L188.153 79.2494C189.632 79.6541 190.56 80.3232 191.615 81.0843C191.887 81.2806 192.168 81.4829 192.469 81.6885L189.936 85.7401L189.93 85.7501L189.925 85.7608C189.664 86.2826 189.418 86.6426 189.128 86.8744ZM200.369 95.6727L200.379 95.6674L200.39 95.6611L204.44 93.1296C205.419 94.5995 206.358 96.0394 206.872 97.4708L202.841 99.9902C202.543 100.012 202.26 100.153 202.031 100.268L202.007 100.28C201.727 100.42 201.517 100.519 201.321 100.519C201.122 100.519 200.771 100.413 200.396 100.162C200.031 99.9195 199.668 99.557 199.425 99.0773C198.926 97.5607 199.457 96.1286 200.369 95.6727ZM178.689 101.35L178.694 101.326V101.301C178.694 100.604 179.035 100.146 179.507 99.8509C179.977 99.5572 180.573 99.4302 181.064 99.4236C181.817 99.6806 182.415 100.052 182.766 100.52C183.113 100.983 183.236 101.562 182.995 102.286L182.989 102.304L182.986 102.322L179.794 120.411L179.742 120.705H180.04H192.809C193.55 120.705 194.148 120.951 194.56 121.363C194.973 121.775 195.219 122.374 195.219 123.115C195.219 123.856 194.973 124.454 194.56 124.867C194.148 125.279 193.55 125.525 192.809 125.525H176.848C176.642 125.525 176.287 125.414 175.895 125.219C175.512 125.027 175.138 124.775 174.896 124.534C174.686 124.323 174.564 123.987 174.501 123.606C174.44 123.241 174.438 122.873 174.438 122.607L178.689 101.35ZM169.117 85.8726V75.4819H171.527H173.938V85.8726C173.938 86.6138 173.692 87.2121 173.279 87.6244C172.867 88.0367 172.269 88.2827 171.527 88.2827C170.786 88.2827 170.188 88.0367 169.776 87.6244C169.363 87.2121 169.117 86.6138 169.117 85.8726ZM169.117 144.396C169.117 143.655 169.363 143.056 169.776 142.644C170.188 142.232 170.786 141.986 171.527 141.986C172.269 141.986 172.867 142.232 173.279 142.644C173.692 143.056 173.938 143.655 173.938 144.396V154.787H169.117V144.396ZM200.789 112.724H211.18V117.544H200.789C200.048 117.544 199.45 117.298 199.037 116.886C198.625 116.474 198.379 115.876 198.379 115.134C198.379 114.393 198.625 113.795 199.037 113.382C199.45 112.97 200.048 112.724 200.789 112.724Z" fill="black" stroke="black" stroke-width="0.5"/>
<path d="M162.124 113.718L162.124 113.719L162.127 113.715C162.674 113.168 163.094 112.612 163.376 111.977C163.658 111.342 163.797 110.641 163.797 109.814C163.797 108.161 163.244 106.764 162.26 105.78C161.276 104.796 159.879 104.244 158.226 104.244C156.573 104.244 155.176 104.796 154.192 105.78C153.208 106.764 152.656 108.161 152.656 109.814C152.656 110.555 152.41 111.154 151.998 111.566C151.585 111.978 150.987 112.224 150.246 112.224C149.536 112.224 148.935 111.87 148.505 111.379C148.071 110.882 147.836 110.274 147.836 109.814C147.836 104.1 152.512 99.4234 158.226 99.4234C163.941 99.4234 168.617 104.1 168.617 109.814C168.617 112.405 167.582 115.001 165.501 117.083L156.459 125.593L156 126.025H156.63H166.207C166.948 126.025 167.546 126.271 167.959 126.683C168.371 127.096 168.617 127.694 168.617 128.435C168.617 129.176 168.371 129.775 167.959 130.187C167.546 130.599 166.948 130.845 166.207 130.845H150.246C149.263 130.845 148.293 130.355 147.809 129.387C147.346 128.46 147.801 127.511 148.293 127.018C148.293 127.017 148.294 127.016 148.294 127.016L162.124 113.718ZM155.986 143.556L156.002 143.564L156.019 143.569C156.727 143.805 157.075 144.266 157.255 144.867C157.437 145.471 157.444 146.203 157.444 146.985L154.957 150.964C154.218 150.492 153.482 150.124 152.757 149.762L152.752 149.759C152.015 149.39 151.291 149.028 150.569 148.565L152.579 144.545C153.078 144.055 153.696 143.689 154.308 143.505C154.934 143.317 155.529 143.327 155.986 143.556ZM152.597 86.2929L152.592 86.2823L152.586 86.2722L150.032 82.1865C151.026 81.235 152.44 80.3018 153.864 79.7897L156.402 83.8514C156.894 85.364 156.364 86.7903 155.454 87.2451L155.316 87.3142V87.4688C155.316 87.5585 155.294 87.6008 155.277 87.6228C155.258 87.6471 155.224 87.6741 155.154 87.6971C155.002 87.748 154.782 87.7508 154.502 87.7508C154.303 87.7508 153.952 87.6439 153.577 87.3937C153.208 87.1482 152.841 86.7804 152.597 86.2929ZM187.488 130.845C186.747 130.845 186.148 130.599 185.736 130.187C185.324 129.775 185.078 129.176 185.078 128.435V112.474C185.078 111.733 185.324 111.135 185.736 110.722C186.148 110.31 186.747 110.064 187.488 110.064C188.229 110.064 188.827 110.31 189.24 110.722C189.652 111.135 189.898 111.733 189.898 112.474V128.435C189.898 129.176 189.652 129.775 189.24 130.187C188.827 130.599 188.229 130.845 187.488 130.845ZM199.366 132.354C199.183 131.744 199.187 131.163 199.399 130.711C199.898 130.221 200.515 129.856 201.127 129.672C201.751 129.485 202.344 129.494 202.8 129.72L207.349 132.248C206.881 132.983 206.514 133.716 206.154 134.436L206.151 134.442C205.784 135.176 205.424 135.897 204.963 136.616L200.409 134.086C199.917 133.586 199.55 132.967 199.366 132.354ZM190.989 143.976L193.035 148.069C192.033 149.034 190.595 150.004 189.116 150.991L188.757 150.632L186.656 146.429C186.16 144.92 186.682 143.496 187.584 143.031C189.101 142.534 190.533 143.064 190.989 143.976Z" fill="black" stroke="black" stroke-width="0.5"/>
</svg>
