<svg width="342" height="245" viewBox="0 0 342 245" fill="none" xmlns="http://www.w3.org/2000/svg">
<ellipse cx="176.6" cy="214.363" rx="75.6" ry="8.1" fill="#DDE1ED"/>
<path d="M237.776 90.8077C238.463 90.8077 239.003 90.268 239.003 89.6057V69.4652C239.003 68.8029 238.463 68.2632 237.776 68.2632H116.492C116.174 68.2632 115.868 68.3898 115.642 68.6153C115.417 68.8407 115.29 69.1464 115.29 69.4652V89.6057C115.29 90.268 115.83 90.8077 116.492 90.8077H135.504V108.52H116.492C116.174 108.52 115.868 108.646 115.642 108.872C115.417 109.097 115.29 109.403 115.29 109.722V129.862C115.29 130.524 115.83 131.064 116.492 131.064H135.504V140.092C132.021 138.301 128.513 135.848 124.637 132.56C123.14 131.309 120.982 131.309 119.485 132.56C108.078 142.152 99.9826 144.851 86.2939 143.722C85.1164 143.624 84.0616 144.017 83.252 144.777C82.4425 145.562 81.9764 146.642 82.0009 147.77C82.5651 185.941 95.1498 201.887 119.73 219.525C120.393 220.016 121.202 220.261 122.061 220.261C122.895 220.261 123.705 220.016 124.391 219.525C143.183 206.033 154.933 193.497 159.692 171.32H237.776C238.463 171.32 239.003 170.781 239.003 170.118V149.978C239.003 149.316 238.463 148.776 237.776 148.776H218.789V131.064H237.776C238.463 131.064 239.003 130.524 239.003 129.862V109.722C239.003 109.059 238.463 108.52 237.776 108.52H218.789V90.8077H237.776ZM158.147 70.6918H196.146V88.4036H158.147V70.6918ZM196.146 128.635H158.147V110.924H196.146V128.635ZM216.36 131.064V148.776H178.361V131.064H216.36ZM160.845 144.777C160.036 144.017 158.981 143.649 157.779 143.722C149.855 144.385 143.821 143.747 137.908 141.22V131.064H175.932V148.776H162.072C162.097 148.432 162.121 148.113 162.121 147.77C162.121 146.642 161.68 145.562 160.845 144.777ZM137.933 108.52V90.8077H175.932V108.52H137.933ZM178.361 108.52V90.8077H216.36V108.52H178.361ZM117.719 88.4036V70.6918H155.718V88.4036H117.719ZM117.719 128.635V110.924H155.718V128.635H117.719ZM122.969 217.562C122.454 217.955 121.668 217.955 121.129 217.562C97.2105 200.39 84.9692 184.886 84.405 147.746C84.405 147.279 84.5767 146.862 84.8956 146.543C85.2146 146.274 85.6071 146.126 86.0241 146.126H86.1222C100.547 147.328 109.035 144.483 121.031 134.425C121.619 133.91 122.478 133.934 123.067 134.425C127.826 138.399 131.996 141.245 136.24 143.158C141.22 145.39 146.225 146.396 152.235 146.396C154.05 146.396 155.939 146.298 157.951 146.126C158.441 146.102 158.883 146.249 159.202 146.543C159.521 146.862 159.717 147.279 159.692 147.746C159.153 184.886 146.911 200.39 122.969 217.562ZM196.146 168.892H160.159C161.164 163.593 161.753 157.73 161.998 151.204H196.146V168.892ZM236.574 151.18V168.892H198.575V151.18H236.574ZM236.574 110.924V128.635H198.575V110.924H236.574ZM198.575 88.4036V70.6918H236.574V88.4036H198.575Z" fill="black"/>
<path d="M198.575 151.18H236.574V168.892H198.575V151.18ZM175.932 131.064V148.776H162.072C162.096 148.432 162.121 148.113 162.121 147.77C162.121 146.642 161.679 145.562 160.845 144.777C160.036 144.017 158.981 143.649 157.779 143.722C149.855 144.385 143.82 143.747 137.908 141.22V131.064H175.932Z" fill="#DDE1ED" fill-opacity="0.6"/>
<path d="M196.146 151.204V168.892H160.158C161.164 163.593 161.753 157.73 161.998 151.204H196.146ZM178.361 131.064H216.36V148.776H178.361V131.064Z" fill="white"/>
<path d="M155.718 110.924V128.635H117.719V110.924H155.718ZM198.575 110.924H236.574V128.635H198.575V110.924ZM137.933 90.8078H175.932V108.52H137.933V90.8078ZM178.361 90.8078H216.36V108.52H178.361V90.8078ZM158.147 70.6919H196.146V88.4037H158.147V70.6919Z" fill="#DDE1ED" fill-opacity="0.6"/>
<path d="M158.147 110.924H196.146V128.635H158.147V110.924ZM198.575 70.6919H236.574V88.4037H198.575V70.6919ZM117.719 70.6919H155.718V88.4037H117.719V70.6919Z" fill="white"/>
<path d="M159.202 146.544C159.032 146.394 158.834 146.28 158.619 146.208C158.404 146.136 158.177 146.109 157.951 146.127C155.939 146.298 154.05 146.396 152.235 146.396C146.225 146.396 141.22 145.391 136.241 143.158C131.997 141.245 127.826 138.399 123.067 134.425C122.784 134.182 122.423 134.048 122.049 134.048C121.675 134.048 121.314 134.182 121.031 134.425C109.035 144.483 100.547 147.329 86.1225 146.127H86.0244C85.6073 146.127 85.2148 146.274 84.8959 146.544C84.577 146.863 84.4053 147.28 84.4053 147.746C84.9695 184.886 97.2108 200.39 121.129 217.563C121.669 217.955 122.454 217.955 122.969 217.563C146.912 200.39 159.153 184.886 159.693 147.746C159.701 147.522 159.662 147.299 159.577 147.092C159.492 146.884 159.365 146.698 159.202 146.544ZM122.773 213.785C122.552 213.932 122.307 214.03 122.061 214.03C121.816 214.03 121.546 213.932 121.35 213.785C99.8602 198.084 88.7719 184.028 87.668 150.738C87.6434 150.395 87.7661 150.076 88.0114 149.831C88.2567 149.61 88.5756 149.463 88.9191 149.487C101.626 150.052 110.433 147.034 121.301 138.301C121.519 138.134 121.786 138.043 122.061 138.043C122.336 138.043 122.603 138.134 122.822 138.301C133.665 147.01 142.373 150.052 155.203 149.487C155.522 149.487 155.866 149.61 156.087 149.831C156.332 150.076 156.455 150.395 156.455 150.738C155.351 184.028 144.238 198.084 122.773 213.785Z" fill="#AAE738"/>
<path fill-rule="evenodd" clip-rule="evenodd" d="M155.204 149.487C155.531 149.485 155.847 149.608 156.087 149.83C156.332 150.076 156.455 150.395 156.455 150.738C155.351 184.028 144.238 198.084 122.773 213.784C122.552 213.932 122.307 214.03 122.061 214.03C121.816 214.03 121.546 213.932 121.35 213.784C99.8603 198.084 88.772 184.028 87.6681 150.738C87.6436 150.395 87.7662 150.076 88.0116 149.83C88.132 149.715 88.2744 149.625 88.4304 149.566C88.5863 149.507 88.7526 149.48 88.9192 149.487C101.627 150.051 110.433 147.034 121.301 138.301C121.519 138.134 121.786 138.043 122.061 138.043C122.336 138.043 122.604 138.134 122.822 138.301C133.665 147.009 142.374 150.051 155.204 149.487ZM91.1311 163.434C94.3919 186.574 104.622 198.461 122.061 211.307C137.13 200.194 146.817 189.799 151.277 172.214C146.817 189.798 137.13 200.194 122.061 211.307C104.622 198.461 94.392 186.574 91.1311 163.434ZM105.969 193.3C110.139 197.863 116.027 200.488 122.086 200.488C127.826 200.488 133.223 198.182 137.32 193.987C141.515 189.67 143.723 183.978 143.576 177.944C143.379 170.78 140.681 161.287 135.088 156.209C134.671 155.792 134.008 155.767 133.567 156.11C133.337 156.281 133.174 156.526 133.107 156.804C133.04 157.082 133.072 157.375 133.199 157.631C133.223 157.68 135.897 163.298 133.518 165.899C132.782 166.684 131.8 167.125 130.795 167.125C129.764 167.125 128.832 166.733 128.121 165.948C127.09 164.893 126.256 162.611 126.722 160.281C128.17 156.209 129.053 147.77 121.939 145.022C121.497 144.826 120.957 144.949 120.639 145.317C120.295 145.685 120.222 146.224 120.418 146.666C120.663 147.156 122.601 151.572 118.431 153.829C118.284 153.903 115.094 155.963 113.156 159.545C112.003 161.728 111.66 164.378 112.175 167.027C112.666 169.48 112.543 171.467 111.881 172.645C111.562 173.209 110.973 173.577 110.286 173.675C109.575 173.749 108.863 173.479 108.397 172.988C106.901 171.32 106.165 167.935 107.661 164.647C107.882 164.108 107.71 163.494 107.22 163.151C106.754 162.832 106.091 162.881 105.674 163.323C102.78 166.34 101.259 170.682 100.621 177.87C100.106 183.512 102.019 188.983 105.969 193.3Z" fill="#AAE738"/>
<path d="M135.087 156.209C134.888 156.012 134.625 155.893 134.345 155.875C134.066 155.857 133.789 155.941 133.566 156.111C133.1 156.479 132.929 157.092 133.198 157.632C133.223 157.681 135.897 163.298 133.517 165.899C132.781 166.684 131.8 167.125 130.794 167.125C129.764 167.125 128.832 166.733 128.12 165.948C127.09 164.893 126.256 162.611 126.722 160.281C128.169 156.209 129.053 147.77 121.938 145.022C121.718 144.928 121.474 144.905 121.241 144.958C121.007 145.011 120.796 145.137 120.638 145.317C120.295 145.685 120.221 146.224 120.418 146.666C120.663 147.157 122.601 151.572 118.43 153.829C118.283 153.903 115.094 155.963 113.156 159.545C112.003 161.728 111.66 164.378 112.175 167.027C112.666 169.48 112.543 171.467 111.881 172.645C111.562 173.209 110.973 173.577 110.286 173.675C109.94 173.711 109.59 173.667 109.263 173.548C108.936 173.429 108.64 173.238 108.397 172.988C106.901 171.32 106.165 167.935 107.661 164.648C107.882 164.108 107.71 163.495 107.22 163.151C106.983 162.992 106.698 162.922 106.415 162.953C106.132 162.985 105.87 163.116 105.674 163.323C102.779 166.34 101.258 170.682 100.621 177.87C100.105 183.512 102.019 188.983 105.968 193.3C110.139 197.863 116.026 200.488 122.086 200.488C127.826 200.488 133.223 198.182 137.32 193.987C139.386 191.87 141.004 189.358 142.079 186.602C143.154 183.845 143.663 180.901 143.575 177.944C143.379 170.78 140.681 161.287 135.087 156.209ZM135.578 192.295C131.947 196.024 127.164 198.084 122.086 198.084C116.689 198.084 111.463 195.754 107.735 191.681C104.251 187.854 102.583 183.046 103.025 178.091C103.319 174.73 103.81 172.081 104.546 169.922C104.84 171.86 105.625 173.504 106.606 174.607C107.587 175.687 109.059 176.227 110.556 176.055C112.028 175.908 113.279 175.098 113.99 173.822C115.217 171.688 114.971 168.695 114.53 166.561C114.137 164.451 114.383 162.366 115.29 160.698C116.885 157.705 119.657 155.914 119.657 155.914C122.601 154.295 123.484 151.793 123.484 149.536C123.484 149.291 123.484 149.07 123.459 148.825C126.894 152.406 124.563 159.153 124.392 159.619C123.705 162.979 124.882 166.07 126.354 167.616C127.556 168.867 129.224 169.529 130.794 169.554C132.512 169.529 134.082 168.818 135.284 167.518C136.633 166.07 136.976 164.182 136.903 162.391C139.38 166.684 141 172.449 141.147 178.017C141.294 183.39 139.307 188.468 135.578 192.295Z" fill="black"/>
<path d="M136.903 162.391C136.976 164.181 136.633 166.07 135.284 167.518C134.082 168.818 132.512 169.529 130.794 169.554C129.224 169.529 127.556 168.867 126.354 167.616C124.882 166.07 123.705 162.979 124.392 159.619C124.563 159.152 126.894 152.406 123.46 148.825C123.484 149.07 123.484 149.291 123.484 149.536C123.484 151.793 122.601 154.295 119.657 155.914C119.657 155.914 116.885 157.705 115.291 160.698C114.383 162.366 114.138 164.451 114.53 166.561C114.972 168.695 115.217 171.688 113.99 173.822C113.279 175.098 112.028 175.908 110.556 176.055C109.06 176.226 107.588 175.687 106.606 174.607C105.625 173.503 104.84 171.86 104.546 169.922C103.81 172.081 103.319 174.73 103.025 178.091C102.583 183.046 104.251 187.854 107.735 191.681C111.464 195.754 116.689 198.084 122.086 198.084C127.164 198.084 131.947 196.023 135.578 192.295C137.42 190.413 138.863 188.178 139.82 185.725C140.777 183.271 141.228 180.65 141.147 178.017C141 172.449 139.381 166.684 136.903 162.391ZM134.008 190.577C133.935 190.676 129.813 196.759 122.699 196.759C120.687 196.759 118.455 196.269 115.977 195.018C115.855 194.969 111.292 192.932 109.477 188.222C108.299 185.156 108.544 181.746 110.212 178.042C110.433 177.551 110.973 177.257 111.513 177.33C112.052 177.429 112.445 177.87 112.518 178.41C112.543 178.631 113.156 183.807 117.376 184.518C118.382 184.69 119.755 184.518 120.516 183.512C121.595 182.065 120.761 179.906 119.878 178.336C114.898 169.284 116.37 164.893 120.835 159.913C121.025 159.688 121.292 159.541 121.584 159.5C121.876 159.459 122.173 159.527 122.418 159.69C122.664 159.854 122.84 160.102 122.915 160.387C122.989 160.672 122.956 160.975 122.822 161.238C122.773 161.36 120.516 166.978 130.868 176.472C133.468 178.925 137.443 185.033 134.008 190.577Z" fill="#FCCA3E"/>
<path d="M130.868 176.472C120.515 166.979 122.772 161.361 122.821 161.238C122.955 160.976 122.989 160.673 122.914 160.388C122.84 160.102 122.663 159.854 122.418 159.691C122.172 159.527 121.875 159.459 121.584 159.5C121.292 159.542 121.025 159.689 120.834 159.913C116.369 164.893 114.897 169.285 119.877 178.337C120.761 179.907 121.595 182.065 120.515 183.513C119.755 184.519 118.381 184.69 117.375 184.519C113.156 183.807 112.542 178.631 112.518 178.41C112.486 178.147 112.372 177.901 112.191 177.707C112.01 177.513 111.773 177.381 111.512 177.331C111.248 177.295 110.979 177.345 110.745 177.473C110.511 177.601 110.325 177.801 110.212 178.042C108.544 181.747 108.298 185.156 109.476 188.223C111.291 192.933 115.854 194.969 115.977 195.018C118.455 196.269 120.687 196.76 122.699 196.76C129.813 196.76 133.934 190.676 134.008 190.578C137.442 185.034 133.468 178.925 130.868 176.472ZM131.971 189.278C131.751 189.621 126.378 197.545 117.007 192.835C116.983 192.835 113.205 191.142 111.733 187.34C111.169 185.868 111.021 184.273 111.316 182.556C112.273 184.445 113.99 186.408 116.958 186.898C119.19 187.291 121.276 186.53 122.453 184.96C123.484 183.562 124.244 181.084 121.987 177.159C118.528 170.904 118.675 167.445 120.294 164.599C120.81 167.715 122.846 172.4 129.224 178.239C129.273 178.288 135.21 184.028 131.971 189.278Z" fill="black"/>
<path d="M131.972 189.277C131.751 189.621 126.378 197.545 117.007 192.834C116.983 192.834 113.205 191.142 111.733 187.339C111.169 185.868 111.022 184.273 111.316 182.556C112.273 184.445 113.99 186.407 116.958 186.898C119.191 187.29 121.276 186.53 122.453 184.96C123.484 183.562 124.244 181.084 121.987 177.159C118.528 170.903 118.676 167.444 120.295 164.599C120.81 167.714 122.846 172.4 129.224 178.238C129.273 178.287 135.21 184.028 131.972 189.277Z" fill="#FF725E"/>
</svg>
