<svg width="60" height="57" viewBox="0 0 60 57" fill="none" xmlns="http://www.w3.org/2000/svg">
<ellipse cx="23.1631" cy="38.629" rx="9.964" ry="21.767" transform="rotate(-80.0329 23.1631 38.629)" fill="#8E99AA"/>
<path d="M40.768 18.1158C49.2818 24.6352 51.6498 35.725 46.1851 42.8863C41.9901 46.6212 37.7931 48.4612 33.5845 48.651C29.3701 48.841 25.1101 47.3777 20.7921 44.4427C16.9494 41.4986 13.3972 37.3317 11.9669 32.3943C10.54 27.4688 11.2151 21.7449 15.8845 15.6471C18.608 12.0904 22.663 11.0612 27.1365 11.7467C31.6174 12.4334 36.49 14.84 40.768 18.1158Z" fill="#025D9A" stroke="black" stroke-width="0.5"/>
<path d="M44.2947 14.9309C52.679 22.7539 54.2518 34.5604 47.9596 41.304C41.6675 48.0475 29.7805 47.2952 21.3962 39.4722C13.012 31.6492 11.4392 19.8427 17.7313 13.0991C24.0234 6.35557 35.9105 7.10788 44.2947 14.9309Z" fill="#017CCF" stroke="black" stroke-width="0.5"/>
<path d="M19.7046 25.4193L21.0768 23.3082L41.1535 17.6716L44.2569 33.9484C43.8346 34.5254 42.8466 35.8315 42.2724 36.4395C41.6982 37.0475 40.4146 36.5661 39.8446 36.2495C37.2831 34.7013 31.9913 31.453 31.3157 30.845C30.6401 30.237 30.8653 29.7472 31.0624 29.5783L33.9757 26.0317C35.559 24.9127 38.2402 23.0128 37.8179 22.675C37.2902 22.2528 37.0157 22.3159 36.8679 22.3582C36.7202 22.4004 30.4501 26.3271 28.4446 27.5937C26.8401 28.6071 25.482 28.6212 25.0035 28.5015C23.5398 28.0441 20.4604 27.0195 19.8524 26.5804C19.2444 26.1413 19.5005 25.6234 19.7046 25.4193Z" fill="#C5D4EE" stroke="black" stroke-width="0.5"/>
<path d="M21.6897 24.3012C20.575 23.9296 21.2252 23.1049 21.6897 22.7389C27.8542 20.6559 40.5885 16.3547 42.2098 15.8143C43.8312 15.2738 44.3209 16.5461 44.3632 17.2498C44.4476 21.5847 44.6165 30.7694 44.6165 32.8299C44.6165 34.8903 42.8713 34.5047 41.9987 34.0543C39.3246 32.4921 33.816 29.2156 33.1742 28.6076C32.372 27.8476 32.7098 27.341 33.9764 25.9056C37.7765 22.3591 39.0009 20.7967 39.1276 20.0367C39.2289 19.4287 38.2972 19.9804 37.8187 20.3323C35.3839 21.8382 30.2947 25.0105 29.4164 25.6523C28.5382 26.2941 27.2772 26.0886 26.7564 25.9056C25.532 25.5256 22.8044 24.6727 21.6897 24.3012Z" fill="white" stroke="black" stroke-width="0.5"/>
</svg>
