<svg width="287" height="165" viewBox="0 0 287 165" fill="none" xmlns="http://www.w3.org/2000/svg">
<g clip-path="url(#clip0_257_5947)">
<rect width="286.75" height="165" rx="12" fill="transparent"/>
<path d="M160.977 153.359L160.977 153.359L160.979 153.367C165.56 165.939 178.405 173.209 194.15 175.037C209.897 176.866 228.569 173.257 244.85 164.051C261.129 154.845 274.633 140.772 281.484 126.256C288.334 111.74 288.539 96.7596 278.178 85.7744C272.109 78.9243 260.437 73.9908 246.225 73.0669C232.008 72.1427 215.236 75.2293 198.955 84.436C166.403 102.844 154.177 128.349 160.977 153.359Z" fill="#679B07" stroke="black" stroke-width="0.197207"/>
<path d="M144.896 131.107C149.083 141.107 159.607 147.323 173.206 149.307C186.808 151.292 203.503 149.047 220.072 142.11C236.641 135.172 249.954 124.851 258.084 113.767C266.212 102.685 269.167 90.825 264.98 80.825C260.793 70.8249 250.269 64.6092 236.669 62.625C223.068 60.6406 206.372 62.8849 189.804 69.8226C173.235 76.7604 159.921 87.0816 151.792 98.1654C143.664 109.247 140.709 121.107 144.896 131.107Z" fill="#A4DD3B" stroke="black" stroke-width="0.197207"/>
<path d="M163.701 153.312L163.701 153.312L163.704 153.32C167.753 164.778 179.755 171.162 194.622 172.477C209.493 173.793 227.258 170.044 242.889 161.205C258.518 152.367 271.631 139.12 278.456 125.619C285.279 112.119 285.824 98.339 276.26 88.476C270.668 82.3172 259.726 78.0534 246.289 77.5335C232.847 77.0134 216.893 80.239 201.263 89.0779C170.013 106.75 157.839 130.476 163.701 153.312Z" fill="#A4DD3B" stroke="black" stroke-width="0.197207"/>
<path d="M167.18 150.67L167.18 150.67L167.183 150.678C170.957 161.381 182.188 167.327 196.108 168.533C210.032 169.738 226.674 166.205 241.325 157.92C255.975 149.636 268.276 137.236 274.689 124.608C281.101 111.981 281.634 99.1009 272.692 89.8974C267.465 84.1498 257.224 80.1833 244.642 79.7194C232.055 79.2553 217.11 82.2955 202.459 90.5806C173.167 107.145 161.727 129.337 167.18 150.67Z" fill="#679B07" stroke="black" stroke-width="0.197207"/>
<path d="M271.071 91.4194L271.071 91.4195L271.073 91.4218C276.057 96.5048 277.875 102.808 277.236 109.585C276.827 113.915 275.417 118.439 273.187 122.961C271.355 126.675 268.971 130.387 266.138 133.987C263.2 137.72 259.78 141.333 255.992 144.702C253.335 147.065 250.499 149.308 247.521 151.39C245.141 153.054 242.672 154.614 240.134 156.049C226.004 164.04 209.967 167.592 196.585 166.621C183.201 165.65 172.502 160.158 168.986 150.092C168.627 148.656 168.349 147.214 168.154 145.769C167.344 139.771 167.953 133.716 170.005 127.77C171.397 123.734 173.454 119.748 176.182 115.863C182.078 107.467 191.111 99.5446 203.353 92.6219C224.53 80.6465 246.447 79.8856 260.264 84.7996C264.886 86.4435 268.597 88.7204 271.071 91.4194Z" stroke="black" stroke-width="0.197207"/>
<path d="M179.022 138.839C181.998 147.668 190.477 152.133 200.9 152.86C211.324 153.587 223.718 150.579 234.578 144.437C245.435 138.298 255.262 129.382 260.363 120.107C262.914 115.468 264.287 110.735 264.009 106.211C263.731 101.686 261.802 97.3791 257.767 93.5966C253.837 89.2438 246.114 86.2014 236.673 85.777C227.226 85.3522 216.044 87.5476 205.181 93.6902C183.472 105.967 174.047 124.081 179.022 138.839Z" fill="#4A7200" stroke="black" stroke-width="0.197207"/>
<path d="M179.972 140.52C183.212 148.34 191.452 152.384 201.571 152.943C211.693 153.502 223.718 150.578 234.579 144.437C245.436 138.297 255.036 129.4 260.145 120.35C262.7 115.824 264.134 111.254 264.035 106.968C263.936 102.679 262.302 98.6807 258.732 95.3034C254.969 91.2462 247.434 88.5407 238.142 88.378C228.843 88.2152 217.768 90.598 206.906 96.74C196.049 102.88 187.953 110.525 183.252 118.283C178.551 126.04 177.238 133.922 179.972 140.52Z" fill="#679B07" stroke="black" stroke-width="0.197207"/>
<path d="M189.007 139.777C191.841 146.498 198.746 150.099 207.14 150.769C215.536 151.44 225.442 149.181 234.32 144.16C243.195 139.141 250.977 131.751 255.036 124.142C257.066 120.337 258.167 116.473 258.003 112.82C257.839 109.165 256.408 105.729 253.386 102.785C250.189 99.2569 243.894 96.8089 236.194 96.4923C228.488 96.1755 219.359 97.9921 210.48 103.013C201.605 108.032 195.045 114.386 191.298 120.902C187.552 127.418 186.616 134.105 189.007 139.777Z" fill="#4A7200" stroke="black" stroke-width="0.197207"/>
<mask id="path-10-outside-1_257_5947" maskUnits="userSpaceOnUse" x="137.267" y="59.9774" width="139" height="101" fill="black">
<rect fill="white" x="137.267" y="59.9774" width="139" height="101"/>
<path fill-rule="evenodd" clip-rule="evenodd" d="M140.739 137.839C154.047 161.55 186.636 167.295 223.32 152.697C260.004 138.098 282.465 107.977 273.488 85.42C259.556 55.0123 227.496 56.4109 190.812 71.0095C154.129 85.608 130.284 115.305 140.739 137.839ZM146.273 132.719C154.329 151.958 187.6 156.357 220.586 142.545C253.573 128.732 273.783 101.939 265.727 82.7005C256.487 64.3867 224.4 59.0625 191.414 72.8746C158.428 86.6868 138.952 113.491 146.273 132.719Z"/>
</mask>
<path fill-rule="evenodd" clip-rule="evenodd" d="M140.739 137.839C154.047 161.55 186.636 167.295 223.32 152.697C260.004 138.098 282.465 107.977 273.488 85.42C259.556 55.0123 227.496 56.4109 190.812 71.0095C154.129 85.608 130.284 115.305 140.739 137.839ZM146.273 132.719C154.329 151.958 187.6 156.357 220.586 142.545C253.573 128.732 273.783 101.939 265.727 82.7005C256.487 64.3867 224.4 59.0625 191.414 72.8746C158.428 86.6868 138.952 113.491 146.273 132.719Z" fill="#FFC802"/>
<path d="M223.32 152.697L223.247 152.513L223.32 152.697ZM140.739 137.839L140.56 137.922L140.564 137.929L140.567 137.936L140.739 137.839ZM273.488 85.42L273.672 85.347L273.668 85.3378L273.488 85.42ZM190.812 71.0095L190.739 70.8262L190.812 71.0095ZM220.586 142.545L220.663 142.727L220.586 142.545ZM146.273 132.719L146.089 132.789L146.091 132.795L146.273 132.719ZM265.727 82.7005L265.909 82.6242L265.903 82.6117L265.727 82.7005ZM191.414 72.8746L191.49 73.0565L191.414 72.8746ZM223.247 152.513C186.598 167.098 154.145 161.323 140.911 137.743L140.567 137.936C153.949 161.778 186.675 167.492 223.393 152.88L223.247 152.513ZM273.305 85.4929C277.759 96.6841 274.425 109.781 265.369 121.925C256.315 134.066 241.561 145.225 223.247 152.513L223.393 152.88C241.763 145.569 256.581 134.369 265.685 122.161C274.787 109.955 278.195 96.7131 273.672 85.3471L273.305 85.4929ZM190.885 71.1927C209.217 63.8977 226.366 59.9123 240.66 61.5334C254.937 63.1525 266.373 70.3643 273.309 85.5021L273.668 85.3378C266.671 70.0681 255.112 62.7753 240.705 61.1415C226.314 59.5095 209.092 63.5227 190.739 70.8262L190.885 71.1927ZM140.918 137.756C135.733 126.582 139.039 113.604 148.255 101.568C157.469 89.5362 172.57 78.4815 190.885 71.1927L190.739 70.8262C172.371 78.136 157.207 89.2292 147.942 101.329C138.679 113.425 135.289 126.562 140.56 137.922L140.918 137.756ZM220.51 142.363C204.044 149.258 187.514 151.603 174.107 149.83C160.694 148.057 150.445 142.17 146.455 132.643L146.091 132.795C150.158 142.506 160.572 148.439 174.055 150.221C187.543 152.005 204.143 149.644 220.663 142.727L220.51 142.363ZM265.545 82.7767C269.535 92.3045 266.538 103.737 258.39 114.539C250.246 125.336 236.977 135.468 220.51 142.363L220.663 142.727C237.182 135.809 250.512 125.638 258.705 114.776C266.895 103.919 269.975 92.3353 265.909 82.6244L265.545 82.7767ZM191.49 73.0565C207.955 66.162 224.188 64.0476 237.448 65.9356C250.712 67.8242 260.971 73.7112 265.551 82.7893L265.903 82.6117C261.243 73.376 250.839 67.444 237.503 65.5451C224.163 63.6456 207.858 65.7751 191.338 72.6927L191.49 73.0565ZM146.458 132.649C142.83 123.123 145.83 111.687 153.886 100.884C161.939 90.0853 175.024 79.9512 191.49 73.0565L191.338 72.6927C174.817 79.6102 161.671 89.7844 153.57 100.648C145.472 111.507 142.395 123.087 146.089 132.789L146.458 132.649Z" fill="black" mask="url(#path-10-outside-1_257_5947)"/>
<mask id="path-12-outside-2_257_5947" maskUnits="userSpaceOnUse" x="136.093" y="57.559" width="137" height="100" fill="black">
<rect fill="white" x="136.093" y="57.559" width="137" height="100"/>
<path fill-rule="evenodd" clip-rule="evenodd" d="M139.169 133.967C148.331 156.992 185.208 163.937 221.535 149.481C257.861 135.025 279.882 104.64 270.72 81.6157C261.557 58.5911 224.68 51.6453 188.353 66.1018C152.027 80.5582 130.006 110.943 139.169 133.967ZM145.711 132.104C153.767 151.342 187.038 155.742 220.024 141.929C253.01 128.117 273.22 101.324 265.164 82.0853C255.925 63.7715 223.838 58.4472 190.851 72.2594C157.865 86.0715 138.389 112.876 145.711 132.104Z"/>
</mask>
<path fill-rule="evenodd" clip-rule="evenodd" d="M139.169 133.967C148.331 156.992 185.208 163.937 221.535 149.481C257.861 135.025 279.882 104.64 270.72 81.6157C261.557 58.5911 224.68 51.6453 188.353 66.1018C152.027 80.5582 130.006 110.943 139.169 133.967ZM145.711 132.104C153.767 151.342 187.038 155.742 220.024 141.929C253.01 128.117 273.22 101.324 265.164 82.0853C255.925 63.7715 223.838 58.4472 190.851 72.2594C157.865 86.0715 138.389 112.876 145.711 132.104Z" fill="#C1FF4D"/>
<path d="M221.535 149.481L221.608 149.664L221.535 149.481ZM139.169 133.967L138.985 134.04L139.169 133.967ZM270.72 81.6157L270.903 81.5427L270.72 81.6157ZM188.353 66.1018L188.281 65.9186L188.353 66.1018ZM220.024 141.929L220.1 142.111L220.024 141.929ZM145.711 132.104L145.526 132.174L145.529 132.18L145.711 132.104ZM265.164 82.0853L265.347 82.0089L265.34 81.9965L265.164 82.0853ZM190.851 72.2594L190.927 72.4413L190.851 72.2594ZM221.462 149.298C203.328 156.514 185.065 158.385 170.202 155.586C155.336 152.786 143.899 145.322 139.352 133.894L138.985 134.04C143.6 145.637 155.184 153.158 170.129 155.973C185.076 158.789 203.415 156.904 221.608 149.664L221.462 149.298ZM270.536 81.6886C275.084 93.1161 271.903 106.397 263.026 118.646C254.15 130.892 239.596 142.081 221.462 149.298L221.608 149.664C239.8 142.424 254.42 131.193 263.345 118.877C272.27 106.564 275.518 93.1397 270.903 81.5427L270.536 81.6886ZM188.426 66.285C206.56 59.0685 224.823 57.1976 239.686 59.9972C254.553 62.7972 265.989 70.261 270.536 81.6886L270.903 81.5427C266.288 69.9457 254.704 62.4244 239.759 59.6096C224.812 56.7942 206.473 58.6787 188.281 65.9186L188.426 66.285ZM139.352 133.894C134.804 122.467 137.985 109.186 146.862 96.9371C155.738 84.6906 170.292 73.5016 188.426 66.285L188.281 65.9186C170.088 73.1585 155.469 84.3898 146.543 96.7057C137.619 109.019 134.37 122.443 138.985 134.04L139.352 133.894ZM219.948 141.748C203.481 148.643 186.952 150.988 173.544 149.215C160.131 147.442 149.882 141.555 145.893 132.027L145.529 132.18C149.595 141.891 160.01 147.823 173.493 149.606C186.981 151.39 203.581 149.028 220.1 142.111L219.948 141.748ZM264.983 82.1615C268.972 91.6893 265.975 103.122 257.827 113.924C249.683 124.721 236.414 134.852 219.948 141.748L220.1 142.111C236.62 135.194 249.949 125.023 258.142 114.161C266.332 103.303 269.413 91.7201 265.346 82.0091L264.983 82.1615ZM190.927 72.4413C207.393 65.5468 223.625 63.4323 236.885 65.3203C250.149 67.209 260.408 73.096 264.988 82.1741L265.34 81.9965C260.681 72.7608 250.277 66.8288 236.941 64.9299C223.6 63.0303 207.296 65.1598 190.775 72.0775L190.927 72.4413ZM145.895 132.033C142.268 122.508 145.268 111.071 153.324 100.269C161.377 89.4701 174.462 79.336 190.927 72.4413L190.775 72.0775C174.255 78.995 161.109 89.1691 153.008 100.033C144.91 110.892 141.832 122.472 145.526 132.174L145.895 132.033Z" fill="black" mask="url(#path-12-outside-2_257_5947)"/>
<path d="M243.785 75.1026L243.785 75.1027L243.79 75.1076C247.328 79.0657 248.695 83.5133 248.369 88.1384C248.042 92.7667 246.018 97.5788 242.764 102.258C236.254 111.616 224.836 120.419 212.311 126.117C199.788 131.814 186.324 133.907 175.312 132.393C164.297 130.88 155.76 125.763 153.037 117.065C150.737 109.716 152.951 101.32 158.883 93.3281C164.814 85.3368 174.455 77.7601 186.98 72.0622C199.501 66.366 211.869 64.7738 222.026 65.7839C232.188 66.7946 240.118 70.408 243.785 75.1026ZM151.155 117.654C154.204 127.395 163.663 132.783 175.044 134.347C186.476 135.918 200.091 133.633 212.903 127.805C225.664 122 237.623 113.103 244.383 103.384C247.766 98.5194 249.976 93.37 250.336 88.2774C250.699 83.1432 249.167 78.1869 245.301 73.8391C241.142 68.5603 232.595 64.8533 222.221 63.8216C211.717 62.7768 199 64.4276 186.163 70.2671C173.405 76.0714 163.471 83.8375 157.3 92.1528C151.14 100.452 148.603 109.5 151.155 117.654Z" fill="#679B07" stroke="black" stroke-width="0.197207"/>
<path d="M242.774 74.001L242.773 74.0011L242.778 74.006C246.317 77.9641 247.684 82.4118 247.357 87.0369C247.03 91.6651 245.007 96.4773 241.752 101.156C235.243 110.515 223.824 119.318 211.299 125.016C198.777 130.712 185.313 132.805 174.301 131.292C163.286 129.778 154.748 124.662 152.025 115.963C149.725 108.615 151.94 100.219 157.871 92.2266C163.802 84.2353 173.443 76.6586 185.968 70.9606C198.489 65.2645 210.858 63.6722 221.014 64.6824C231.176 65.6931 239.107 69.3064 242.774 74.001ZM150.143 116.552C153.192 126.293 162.651 131.681 174.032 133.246C185.465 134.817 199.08 132.532 211.891 126.704C224.652 120.898 236.611 112.001 243.371 102.282C246.755 97.4179 248.965 92.2684 249.324 87.1758C249.687 82.0416 248.156 77.0853 244.289 72.7375C240.131 67.4587 231.583 63.7518 221.209 62.72C210.705 61.6752 197.988 63.3261 185.152 69.1655C172.393 74.9698 162.459 82.7359 156.288 91.0513C150.128 99.3505 147.591 108.399 150.143 116.552Z" fill="#C1FF4D" stroke="black" stroke-width="0.197207"/>
<mask id="mask0_257_5947" style="mask-type:alpha" maskUnits="userSpaceOnUse" x="124" y="64" width="22" height="65">
<path d="M145.454 122.217L136.984 128.657L125.251 124.239L124.928 97.36L125.342 81.2157L128.663 73.5201L139.897 64.4064L145.37 65.9086L144.159 74.192L145.454 122.217Z" fill="black"/>
</mask>
<g mask="url(#mask0_257_5947)">
<path d="M157.222 69.2507C152.891 68.233 149.064 68.0912 146.188 68.8409C138.2 74.6109 134.547 83.5995 134.516 94.1823C134.485 104.774 138.084 116.956 144.593 129.081C151.099 141.203 160.539 151.029 170.215 156.5C179.893 161.973 189.785 163.079 197.223 157.811C203.507 153.36 206.835 145.34 206.961 135.388C207.088 125.437 204.013 113.567 197.505 101.443C191.001 89.3266 181.054 80.4172 171.284 74.917C166.4 72.167 161.561 70.2702 157.222 69.2507ZM146.097 68.6632L146.102 68.6595L146.114 68.6564C147.335 68.1647 148.644 67.778 150.043 67.5052C156.55 65.8273 165.595 68.06 174.471 73.5275C183.459 79.0638 192.573 88.0853 199.242 100.51C205.872 112.861 209.065 125.059 208.933 135.413C208.802 145.748 205.335 154.482 198.363 159.42C190.033 165.319 179.244 163.871 169.244 158.217C159.199 152.536 149.755 142.466 143.098 130.065C136.468 117.713 132.35 103.387 132.864 91.5599C133.121 85.64 134.485 80.2048 137.286 75.9365C139.415 72.6918 142.339 70.1801 146.097 68.6632Z" fill="#679B07" stroke="black" stroke-width="0.197207"/>
<path d="M136.997 76.163C138.973 73.1519 141.633 70.772 145.01 69.2327L145.018 69.2274L145.026 69.2252C146.47 68.5683 148.045 68.065 149.754 67.7318C156.261 66.0539 165.306 68.2865 174.182 73.754C183.17 79.2904 192.284 88.3118 198.953 100.737C205.583 113.087 208.776 125.285 208.644 135.64C208.513 145.974 205.046 154.709 198.074 159.646C189.744 165.546 178.955 164.098 168.955 158.443C158.908 152.762 149.105 141.673 142.45 129.274C135.819 116.921 132.06 103.614 132.575 91.7865C132.832 85.8666 134.196 80.4314 136.997 76.163ZM156.261 69.766C151.854 68.7799 147.976 68.6595 145.099 69.4099C137.062 74.7057 133.522 83.8434 133.532 94.5333C133.543 105.23 137.109 117.467 143.271 128.924L143.271 128.924C149.778 141.044 159.475 150.966 169.409 156.534C179.347 162.104 189.496 163.305 196.934 158.037C203.218 153.587 206.546 145.567 206.672 135.615C206.799 125.664 203.724 113.794 197.216 101.67C190.712 89.5541 180.566 80.7302 170.597 75.3152C165.613 72.6078 160.675 70.7536 156.261 69.766Z" fill="#C1FF4D" stroke="black" stroke-width="0.197207"/>
</g>
<mask id="mask1_257_5947" style="mask-type:alpha" maskUnits="userSpaceOnUse" x="230" y="69" width="38" height="62">
<path d="M230.815 119.88L235.423 129.471L247.88 130.88L260.408 107.097L267.391 92.5346L267.939 84.1712L262.087 70.9416L256.53 69.7867L253.837 77.7129L230.815 119.88Z" fill="black"/>
</mask>
<g mask="url(#mask1_257_5947)">
<path d="M245.239 68.4284C249.559 69.4947 253.03 71.111 255.25 73.0882C259.734 81.8625 258.893 91.5287 254.101 100.965C249.306 110.408 240.555 119.615 229.239 127.447C217.926 135.276 205.047 139.725 193.941 140.19C182.833 140.656 173.523 137.136 169.299 129.059C165.731 122.235 166.421 113.579 170.84 104.661C175.258 95.7443 183.401 86.5767 194.716 78.7462C206.024 70.9205 218.937 67.518 230.139 67.0698C235.741 66.8457 240.912 67.3603 245.239 68.4284ZM255.411 72.9713L255.408 72.9657L255.399 72.9576C254.536 71.9638 253.547 71.0234 252.426 70.1437C247.397 65.6867 238.327 63.5557 227.935 64.3815C217.412 65.2178 205.19 69.0995 193.594 77.1245C182.068 85.1012 173.67 94.5071 169.073 103.786C164.484 113.046 163.593 122.401 167.551 129.972C172.281 139.017 182.546 142.641 194.024 142.161C205.554 141.678 218.547 137.013 230.121 129.003C241.649 121.025 251.839 110.147 256.767 99.3823C259.233 93.9945 260.494 88.5346 259.944 83.459C259.526 79.6007 258.066 76.0331 255.411 72.9713Z" fill="#E5961D" stroke="black" stroke-width="0.197207"/>
<path d="M259.315 82.7285C258.927 79.1479 257.642 75.8176 255.337 72.9097L255.332 72.9014L255.326 72.8956C254.339 71.6531 253.166 70.4878 251.797 69.4132C246.768 64.9562 237.698 62.8252 227.306 63.651C216.783 64.4873 204.561 68.369 192.965 76.394C181.439 84.3707 173.041 93.7766 168.444 103.055C163.855 112.316 162.964 121.671 166.923 129.242C171.652 138.287 181.917 141.911 193.395 141.43C204.927 140.947 218.704 135.539 230.275 127.531C241.804 119.552 251.21 109.416 256.138 98.6518C258.604 93.264 259.865 87.8041 259.315 82.7285ZM245.077 68.261C249.45 69.3901 252.957 71.0486 255.177 73.0269C259.92 81.4013 258.912 91.1488 254.035 100.661C249.155 110.18 240.406 119.451 229.704 126.844L229.704 126.844C218.392 134.673 205.24 139.091 193.86 139.524C182.476 139.957 172.893 136.405 168.67 128.328C165.102 121.505 165.792 112.849 170.211 103.931C174.629 95.0138 182.772 85.8462 194.087 78.0156C205.394 70.1905 218.445 66.9547 229.786 66.6732C235.457 66.5325 240.698 67.1303 245.077 68.261Z" fill="#F5B302" stroke="black" stroke-width="0.197207"/>
</g>
<path d="M149.721 96.5522C145.085 100.212 140.027 102.427 135.601 103.053C131.171 103.68 127.394 102.714 125.285 100.044C124.86 99.5049 124.588 99.1133 124.262 98.6451C124.227 98.5941 124.19 98.5421 124.153 98.489C123.779 97.9516 123.315 97.2944 122.486 96.2214C122.214 93.452 123.366 90.1009 125.495 86.7228C127.63 83.3359 130.739 79.9342 134.349 77.0841C136.775 75.168 140.849 73.1818 144.896 71.6121C148.911 70.0551 152.884 68.9139 155.18 68.656C156.057 69.8523 156.479 70.4656 156.815 70.9538C157.293 71.648 157.597 72.0891 158.784 73.5927C160.893 76.2631 160.956 80.1612 159.319 84.3248C157.684 88.4857 154.356 92.892 149.721 96.5522Z" fill="#666666" stroke="black" stroke-width="0.197207"/>
<path d="M146.552 92.3298C141.916 95.9899 136.859 98.2048 132.432 98.8309C128.002 99.4573 124.225 98.4916 122.116 95.8212C120.008 93.1508 119.944 89.2527 121.581 85.0892C123.217 80.9282 126.544 76.5219 131.18 72.8618C135.815 69.2017 140.873 66.9867 145.3 66.3607C149.729 65.7343 153.507 66.7 155.615 69.3703C157.724 72.0407 157.787 75.9388 156.15 80.1024C154.515 84.2634 151.187 88.6697 146.552 92.3298Z" fill="white" stroke="black" stroke-width="0.197207"/>
<path d="M145.415 90.9589C141.37 94.1522 136.971 96.1004 133.13 96.6724C129.287 97.245 126.025 96.4377 124.221 94.1528C122.417 91.8679 122.388 88.5081 123.837 84.9021C125.284 81.2991 128.199 77.4714 132.243 74.2781C136.287 71.0848 140.687 69.1366 144.527 68.5645C148.371 67.992 151.632 68.7993 153.437 71.0842C155.241 73.369 155.27 76.7289 153.821 80.3348C152.374 83.9378 149.459 87.7656 145.415 90.9589Z" fill="#666666" stroke="black" stroke-width="0.197207"/>
<path d="M145.418 90.9588C141.373 94.1527 137.018 96.1596 133.252 96.8258C129.48 97.4928 126.325 96.8133 124.637 94.6752C122.949 92.5372 123.019 89.3102 124.543 85.7965C126.064 82.2871 129.026 78.5169 133.071 75.323C137.116 72.1291 141.471 70.1222 145.237 69.456C149.008 68.7889 152.164 69.4685 153.852 71.6066C155.54 73.7446 155.47 76.9716 153.946 80.4853C152.425 83.9947 149.463 87.7649 145.418 90.9588Z" fill="white" stroke="black" stroke-width="0.197207"/>
<path fill-rule="evenodd" clip-rule="evenodd" d="M150.517 79.0197L148.032 81.1069L143.411 80.1707L142.172 81.2233C146.793 82.1249 147.387 83.0842 146.584 84.0552C145.865 84.6591 142.752 84.626 138.871 83.9847L133.66 88.362L130.368 87.695L130.456 86.8793L135.577 83.3187C131.958 82.4425 129.693 81.5149 130.414 80.9092C131.136 80.3035 134.602 80.2214 138.496 80.8673L140.119 79.5036L135.498 78.5674L135.616 77.7241L137.983 76.4802L149.604 78.6021L150.619 78.1967L150.517 79.0197ZM139.509 83.5237C142.687 84.0535 145.369 84.1676 145.861 83.7503C146.353 83.333 144.496 82.5185 141.544 81.794L139.987 83.1152C139.419 83.0241 138.827 82.9161 138.228 82.7935C137.638 82.6729 137.082 82.546 136.57 82.4175L138.133 81.0913C134.94 80.558 132.244 80.441 131.749 80.8604C131.255 81.2797 133.124 82.0982 136.091 82.824L136.286 82.8716L136.289 82.8721C136.486 82.9192 136.688 82.966 136.894 83.0122L136.914 83.0162L137.088 83.055L137.139 83.0655L137.286 83.0972L138.235 83.2914L138.386 83.3206L138.44 83.3316L138.633 83.3677L138.642 83.3695C138.786 83.3963 138.929 83.4221 139.071 83.4471L139.091 83.4512L139.282 83.4845L139.304 83.489L139.509 83.5237Z" fill="#666666"/>
<path d="M148.032 81.1069L147.959 81.172L148.053 81.191L148.127 81.1288L148.032 81.1069ZM150.517 79.0197L150.611 79.0416L150.636 79.0212L150.638 79.0006L150.517 79.0197ZM143.411 80.1707L143.485 80.1056L143.39 80.0865L143.316 80.1493L143.411 80.1707ZM142.172 81.2233L142.076 81.2019L141.998 81.2687L142.099 81.2885L142.172 81.2233ZM146.584 84.0552L146.678 84.077L146.686 84.0705L146.692 84.0635L146.584 84.0552ZM138.871 83.9847L138.939 83.9189L138.847 83.9035L138.776 83.9629L138.871 83.9847ZM133.66 88.362L133.586 88.4271L133.68 88.4461L133.754 88.3839L133.66 88.362ZM130.368 87.695L130.246 87.7147L130.242 87.7495L130.294 87.76L130.368 87.695ZM130.456 86.8793L130.372 86.8496L130.337 86.8735L130.335 86.899L130.456 86.8793ZM135.577 83.3187L135.662 83.3485L135.76 83.2801L135.655 83.2547L135.577 83.3187ZM130.414 80.9092L130.32 80.8873L130.414 80.9092ZM138.496 80.8673L138.427 80.9331L138.52 80.9485L138.59 80.8891L138.496 80.8673ZM140.119 79.5036L140.214 79.5255L140.293 79.459L140.192 79.4386L140.119 79.5036ZM135.498 78.5674L135.377 78.586L135.372 78.6217L135.425 78.6324L135.498 78.5674ZM135.616 77.7241L135.551 77.6829L135.5 77.71L135.495 77.7427L135.616 77.7241ZM137.983 76.4802L138.054 76.4147L137.987 76.4025L137.917 76.439L137.983 76.4802ZM149.604 78.6021L149.533 78.6676L149.587 78.6774L149.649 78.6528L149.604 78.6021ZM150.619 78.1967L150.741 78.1775L150.754 78.0745L150.574 78.146L150.619 78.1967ZM145.861 83.7503L145.956 83.7718L145.861 83.7503ZM139.509 83.5237L139.439 83.5895L139.44 83.5896L139.509 83.5237ZM141.544 81.794L141.622 81.7301L141.527 81.7066L141.449 81.7726L141.544 81.794ZM139.987 83.1152L139.918 83.1812L140.012 83.1962L140.082 83.1367L139.987 83.1152ZM138.228 82.7935L138.154 82.8585L138.228 82.7935ZM136.57 82.4175L136.475 82.396L136.401 82.4586L136.491 82.4813L136.57 82.4175ZM138.133 81.0913L138.228 81.1127L138.31 81.0434L138.202 81.0254L138.133 81.0913ZM131.749 80.8604L131.654 80.8389L131.749 80.8604ZM136.091 82.824L136.013 82.888L136.013 82.888L136.091 82.824ZM136.286 82.8716L136.208 82.9357L136.213 82.9365L136.286 82.8716ZM136.289 82.8721L136.367 82.8079L136.363 82.8071L136.289 82.8721ZM136.894 83.0122L136.818 83.0767L136.82 83.0772L136.894 83.0122ZM136.914 83.0162L136.989 82.9516L136.987 82.9512L136.914 83.0162ZM137.088 83.055L137.012 83.1195L137.014 83.1199L137.088 83.055ZM137.139 83.0655L137.214 83.0008L137.213 83.0005L137.139 83.0655ZM137.286 83.0972L137.211 83.1619L137.212 83.1622L137.286 83.0972ZM138.235 83.2914L138.161 83.3564L138.162 83.3566L138.235 83.2914ZM138.386 83.3206L138.46 83.2556L138.458 83.2554L138.386 83.3206ZM138.44 83.3316L138.366 83.3966L138.368 83.397L138.44 83.3316ZM138.633 83.3677L138.706 83.3027L138.704 83.3023L138.633 83.3677ZM138.642 83.3695L138.568 83.4345L138.57 83.435L138.642 83.3695ZM139.071 83.4471L139.144 83.3821L139.141 83.3815L139.071 83.4471ZM139.091 83.4512L139.017 83.5163L139.021 83.5169L139.091 83.4512ZM139.282 83.4845L139.356 83.4195L139.352 83.4188L139.282 83.4845ZM139.304 83.489L139.23 83.554L139.235 83.5548L139.304 83.489ZM148.127 81.1288L150.611 79.0416L150.422 78.9979L147.937 81.0851L148.127 81.1288ZM143.338 80.2357L147.959 81.172L148.105 81.0419L143.485 80.1056L143.338 80.2357ZM142.267 81.2447L143.506 80.1921L143.316 80.1493L142.076 81.2019L142.267 81.2447ZM146.692 84.0635C147.114 83.5538 147.162 83.0494 146.519 82.5619C145.88 82.0783 144.559 81.6097 142.244 81.1581L142.099 81.2885C144.406 81.7384 145.693 82.2003 146.306 82.6646C146.913 83.1249 146.857 83.5856 146.475 84.0468L146.692 84.0635ZM138.802 84.0506C140.747 84.3719 142.504 84.5418 143.869 84.5548C144.551 84.5613 145.142 84.5288 145.613 84.4543C146.079 84.3805 146.461 84.2599 146.678 84.077L146.489 84.0333C146.347 84.1524 146.07 84.2542 145.629 84.3239C145.193 84.393 144.628 84.4253 143.957 84.4189C142.616 84.4061 140.876 84.2388 138.939 83.9189L138.802 84.0506ZM133.754 88.3839L138.965 84.0066L138.776 83.9629L133.565 88.3402L133.754 88.3839ZM130.294 87.76L133.586 88.4271L133.733 88.297L130.441 87.63L130.294 87.76ZM130.335 86.899L130.246 87.7147L130.489 87.6753L130.578 86.8596L130.335 86.899ZM135.493 83.289L130.372 86.8496L130.54 86.9091L135.662 83.3485L135.493 83.289ZM130.32 80.8873C130.096 81.075 130.123 81.2725 130.295 81.4636C130.469 81.6569 130.807 81.8611 131.274 82.071C132.21 82.4914 133.687 82.9441 135.499 83.3828L135.655 83.2547C133.848 82.8171 132.384 82.3679 131.463 81.954C131.001 81.7468 130.682 81.5508 130.521 81.3724C130.358 81.1919 130.372 81.0463 130.509 80.9311L130.32 80.8873ZM138.564 80.8014C136.611 80.4774 134.762 80.3353 133.305 80.351C132.578 80.3588 131.943 80.406 131.439 80.4916C130.943 80.5759 130.538 80.7038 130.32 80.8873L130.509 80.9311C130.651 80.8117 130.95 80.7022 131.429 80.621C131.899 80.541 132.509 80.4945 133.225 80.4868C134.656 80.4715 136.486 80.6113 138.427 80.9331L138.564 80.8014ZM140.024 79.4818L138.401 80.8454L138.59 80.8891L140.214 79.5255L140.024 79.4818ZM135.425 78.6324L140.046 79.5687L140.192 79.4386L135.571 78.5024L135.425 78.6324ZM135.495 77.7427L135.377 78.586L135.619 78.5488L135.738 77.7056L135.495 77.7427ZM137.917 76.439L135.551 77.6829L135.682 77.7654L138.048 76.5214L137.917 76.439ZM149.675 78.5366L138.054 76.4147L137.912 76.5457L149.533 78.6676L149.675 78.5366ZM150.574 78.146L149.559 78.5514L149.649 78.6528L150.664 78.2474L150.574 78.146ZM150.638 79.0006L150.741 78.1775L150.498 78.2158L150.395 79.0389L150.638 79.0006ZM145.766 83.7288C145.728 83.7604 145.664 83.7928 145.556 83.8232C145.448 83.8539 145.305 83.8797 145.127 83.8987C144.772 83.9369 144.302 83.9455 143.741 83.9244C142.621 83.8821 141.163 83.7221 139.578 83.4579L139.44 83.5896C141.033 83.855 142.505 84.017 143.643 84.06C144.212 84.0814 144.703 84.0735 145.088 84.0322C145.28 84.0115 145.453 83.9819 145.598 83.941C145.743 83.8999 145.87 83.8446 145.956 83.7718L145.766 83.7288ZM141.466 81.858C142.939 82.2194 144.135 82.6025 144.9 82.9458C145.283 83.1178 145.553 83.2779 145.698 83.418C145.77 83.4882 145.808 83.5506 145.816 83.6043C145.824 83.6575 145.802 83.6976 145.766 83.7288L145.956 83.7718C146.042 83.6986 146.07 83.6221 146.059 83.5479C146.048 83.4744 145.999 83.3991 145.92 83.3229C145.763 83.1703 145.477 83.0032 145.088 82.8288C144.31 82.4795 143.102 82.0931 141.622 81.7301L141.466 81.858ZM140.082 83.1367L141.639 81.8155L141.449 81.7726L139.891 83.0938L140.082 83.1367ZM138.154 82.8585C138.755 82.9814 139.349 83.0898 139.918 83.1812L140.055 83.0493C139.489 82.9584 138.899 82.8508 138.301 82.7285L138.154 82.8585ZM136.491 82.4813C137.005 82.6103 137.563 82.7375 138.154 82.8585L138.301 82.7285C137.713 82.6082 137.159 82.4818 136.649 82.3536L136.491 82.4813ZM138.038 81.0698L136.475 82.396L136.665 82.4389L138.228 81.1127L138.038 81.0698ZM131.844 80.8819C131.882 80.8501 131.947 80.8175 132.055 80.7869C132.164 80.7562 132.308 80.7303 132.486 80.7113C132.844 80.6732 133.316 80.6648 133.88 80.6864C135.006 80.7295 136.471 80.8911 138.064 81.1571L138.202 81.0254C136.602 80.7582 135.123 80.5946 133.978 80.5508C133.407 80.5289 132.913 80.5366 132.526 80.5778C132.333 80.5984 132.16 80.6281 132.014 80.6691C131.868 80.7103 131.74 80.7658 131.654 80.8389L131.844 80.8819ZM136.169 82.76C134.689 82.398 133.486 82.0136 132.716 81.6688C132.331 81.4961 132.058 81.3353 131.913 81.1944C131.84 81.1239 131.802 81.0612 131.794 81.0071C131.785 80.9537 131.807 80.9133 131.844 80.8819L131.654 80.8389C131.567 80.9123 131.54 80.9892 131.551 81.0636C131.562 81.1375 131.612 81.2131 131.691 81.2897C131.849 81.4429 132.137 81.6107 132.528 81.7858C133.311 82.1366 134.526 82.5243 136.013 82.888L136.169 82.76ZM136.364 82.8075L136.169 82.76L136.013 82.888L136.208 82.9356L136.364 82.8075ZM136.363 82.8071L136.36 82.8066L136.213 82.9365L136.215 82.9371L136.363 82.8071ZM136.97 82.9477C136.764 82.9016 136.563 82.855 136.366 82.808L136.212 82.9362C136.409 82.9835 136.611 83.0304 136.818 83.0767L136.97 82.9477ZM136.987 82.9512L136.968 82.9472L136.82 83.0772L136.84 83.0811L136.987 82.9512ZM137.163 82.9904L136.989 82.9516L136.838 83.0807L137.012 83.1195L137.163 82.9904ZM137.213 83.0005L137.161 82.99L137.014 83.1199L137.066 83.1305L137.213 83.0005ZM137.361 83.0325L137.214 83.0008L137.064 83.1302L137.211 83.1619L137.361 83.0325ZM138.308 83.2264L137.359 83.0322L137.212 83.1622L138.161 83.3563L138.308 83.2264ZM138.458 83.2554L138.307 83.2261L138.162 83.3566L138.314 83.3859L138.458 83.2554ZM138.513 83.2666L138.46 83.2556L138.312 83.3856L138.366 83.3966L138.513 83.2666ZM138.704 83.3023L138.511 83.2662L138.368 83.397L138.561 83.4331L138.704 83.3023ZM138.715 83.3046L138.706 83.3028L138.559 83.4327L138.568 83.4345L138.715 83.3046ZM139.141 83.3815C138.999 83.3565 138.857 83.3308 138.713 83.3041L138.57 83.435C138.715 83.4618 138.858 83.4877 139.001 83.5128L139.141 83.3815ZM139.164 83.3862L139.144 83.3821L138.997 83.5121L139.017 83.5162L139.164 83.3862ZM139.352 83.4188L139.161 83.3855L139.021 83.5169L139.212 83.5502L139.352 83.4188ZM139.377 83.424L139.356 83.4195L139.208 83.5495L139.23 83.554L139.377 83.424ZM139.578 83.4579L139.373 83.4232L139.235 83.5548L139.439 83.5895L139.578 83.4579Z" fill="black"/>
<path fill-rule="evenodd" clip-rule="evenodd" d="M150.301 78.3315L147.81 80.4228L143.178 79.4847L141.549 80.8519C145.161 81.7285 147.38 82.8048 146.66 83.4099C145.939 84.0149 142.516 83.9486 138.626 83.3061L133.402 87.6918L130.101 87.0235L135.324 82.6388C131.696 81.7609 129.462 80.6809 130.185 80.074C130.908 79.4671 134.346 79.5355 138.25 80.1826L139.877 78.8164L135.244 77.8783L137.735 75.7871L150.301 78.3315ZM139.231 82.8518C142.41 83.3816 145.091 83.4957 145.583 83.0784C146.075 82.6611 144.219 81.8466 141.267 81.1221L139.709 82.4433C139.142 82.3522 138.549 82.2442 137.95 82.1216C137.361 82.001 136.804 81.8741 136.293 81.7456L137.856 80.4193C134.663 79.8861 131.966 79.7691 131.472 80.1885C130.977 80.6078 132.847 81.4263 135.813 82.1521L136.009 82.1997L136.012 82.2002C136.209 82.2473 136.411 82.2941 136.617 82.3403L136.636 82.3443L136.81 82.3831L136.862 82.3936L137.008 82.4253L137.957 82.6195L138.109 82.6487L138.162 82.6597L138.355 82.6958L138.364 82.6976C138.508 82.7244 138.651 82.7502 138.793 82.7752L138.813 82.7793L139.005 82.8126L139.027 82.8171L139.231 82.8518Z" fill="white"/>
<path d="M147.81 80.4228L147.737 80.4878L147.831 80.5068L147.905 80.4446L147.81 80.4228ZM150.301 78.3315L150.396 78.3534L150.475 78.2869L150.374 78.2665L150.301 78.3315ZM143.178 79.4847L143.251 79.4197L143.157 79.4007L143.083 79.4628L143.178 79.4847ZM141.549 80.8519L141.454 80.83L141.379 80.8935L141.471 80.9159L141.549 80.8519ZM146.66 83.4099L146.565 83.388L146.66 83.4099ZM138.626 83.3061L138.694 83.2402L138.602 83.2249L138.531 83.2842L138.626 83.3061ZM133.402 87.6918L133.328 87.7569L133.422 87.7759L133.496 87.7137L133.402 87.6918ZM130.101 87.0235L130.006 87.0016L129.927 87.0682L130.028 87.0885L130.101 87.0235ZM135.324 82.6388L135.419 82.6607L135.494 82.5972L135.402 82.5748L135.324 82.6388ZM130.185 80.074L130.091 80.0521L130.185 80.074ZM138.25 80.1826L138.181 80.2485L138.273 80.2639L138.344 80.2045L138.25 80.1826ZM139.877 78.8164L139.972 78.8383L140.051 78.7717L139.95 78.7514L139.877 78.8164ZM135.244 77.8783L135.15 77.8565L135.071 77.923L135.171 77.9434L135.244 77.8783ZM137.735 75.7871L137.809 75.7221L137.715 75.7031L137.641 75.7652L137.735 75.7871ZM145.583 83.0784L145.679 83.0999L145.679 83.0999L145.583 83.0784ZM139.231 82.8518L139.162 82.9176L139.162 82.9177L139.231 82.8518ZM141.267 81.1221L141.345 81.0582L141.249 81.0347L141.171 81.1007L141.267 81.1221ZM139.709 82.4433L139.641 82.5093L139.734 82.5243L139.804 82.4648L139.709 82.4433ZM137.95 82.1216L137.877 82.1866L137.95 82.1216ZM136.293 81.7456L136.197 81.7241L136.124 81.7867L136.214 81.8094L136.293 81.7456ZM137.856 80.4193L137.951 80.4408L138.033 80.3715L137.925 80.3535L137.856 80.4193ZM131.472 80.1885L131.377 80.167L131.377 80.167L131.472 80.1885ZM135.813 82.1521L135.735 82.2161L135.735 82.2161L135.813 82.1521ZM136.009 82.1997L135.931 82.2638L135.935 82.2646L136.009 82.1997ZM136.012 82.2002L136.089 82.136L136.085 82.1352L136.012 82.2002ZM136.617 82.3403L136.541 82.4048L136.543 82.4053L136.617 82.3403ZM136.636 82.3443L136.712 82.2797L136.71 82.2793L136.636 82.3443ZM136.81 82.3831L136.735 82.4476L136.737 82.448L136.81 82.3831ZM136.862 82.3936L136.937 82.3289L136.935 82.3286L136.862 82.3936ZM137.008 82.4253L136.933 82.49L136.935 82.4903L137.008 82.4253ZM137.957 82.6195L137.884 82.6844L137.885 82.6847L137.957 82.6195ZM138.109 82.6487L138.182 82.5837L138.181 82.5835L138.109 82.6487ZM138.162 82.6597L138.089 82.7247L138.091 82.7251L138.162 82.6597ZM138.355 82.6958L138.429 82.6308L138.427 82.6304L138.355 82.6958ZM138.364 82.6976L138.291 82.7626L138.293 82.7631L138.364 82.6976ZM138.793 82.7752L138.867 82.7102L138.863 82.7096L138.793 82.7752ZM138.813 82.7793L138.74 82.8444L138.744 82.845L138.813 82.7793ZM139.005 82.8126L139.078 82.7476L139.074 82.7469L139.005 82.8126ZM139.027 82.8171L138.953 82.8821L138.957 82.8829L139.027 82.8171ZM147.905 80.4446L150.396 78.3534L150.206 78.3097L147.715 80.4009L147.905 80.4446ZM143.104 79.5497L147.737 80.4878L147.883 80.3577L143.251 79.4197L143.104 79.5497ZM141.644 80.8738L143.272 79.5066L143.083 79.4628L141.454 80.83L141.644 80.8738ZM146.754 83.4318C146.977 83.2446 146.954 83.038 146.787 82.8341C146.618 82.627 146.287 82.4041 145.826 82.1754C144.902 81.7174 143.437 81.2272 141.627 80.7878L141.471 80.9159C143.273 81.3532 144.723 81.8394 145.632 82.29C146.087 82.5156 146.402 82.73 146.559 82.9223C146.719 83.1178 146.702 83.2726 146.565 83.388L146.754 83.4318ZM138.557 83.372C140.507 83.694 142.343 83.8723 143.787 83.8937C144.507 83.9044 145.136 83.8762 145.636 83.805C146.127 83.735 146.533 83.6175 146.754 83.4318L146.565 83.388C146.426 83.5049 146.134 83.6059 145.659 83.6736C145.192 83.7401 144.588 83.7685 143.876 83.7579C142.455 83.7368 140.635 83.5607 138.694 83.2402L138.557 83.372ZM133.496 87.7137L138.72 83.328L138.531 83.2842L133.307 87.6699L133.496 87.7137ZM130.028 87.0885L133.328 87.7569L133.475 87.6268L130.174 86.9585L130.028 87.0885ZM135.229 82.6169L130.006 87.0016L130.196 87.0454L135.419 82.6607L135.229 82.6169ZM130.091 80.0521C129.867 80.2398 129.891 80.447 130.059 80.6515C130.229 80.8592 130.562 81.0827 131.026 81.3121C131.955 81.7714 133.428 82.2629 135.246 82.7029L135.402 82.5748C133.592 82.1368 132.134 81.6493 131.22 81.1974C130.762 80.9712 130.446 80.7561 130.287 80.5631C130.126 80.367 130.142 80.2116 130.28 80.0959L130.091 80.0521ZM138.318 80.1168C136.362 79.7925 134.519 79.6124 133.07 79.5901C132.346 79.579 131.715 79.6071 131.213 79.6782C130.72 79.7482 130.313 79.8659 130.091 80.0521L130.28 80.0959C130.42 79.9787 130.713 79.8773 131.19 79.8097C131.658 79.7432 132.266 79.715 132.98 79.726C134.407 79.748 136.234 79.9257 138.181 80.2485L138.318 80.1168ZM139.782 78.7945L138.155 80.1608L138.344 80.2045L139.972 78.8383L139.782 78.7945ZM135.171 77.9434L139.804 78.8814L139.95 78.7514L135.318 77.8133L135.171 77.9434ZM137.641 75.7652L135.15 77.8565L135.339 77.9002L137.83 75.809L137.641 75.7652ZM150.374 78.2665L137.809 75.7221L137.662 75.8522L150.228 78.3966L150.374 78.2665ZM145.488 83.0569C145.451 83.0885 145.387 83.1209 145.279 83.1513C145.171 83.182 145.028 83.2078 144.85 83.2268C144.494 83.265 144.025 83.2736 143.464 83.2524C142.344 83.2102 140.886 83.0502 139.3 82.786L139.162 82.9177C140.755 83.1831 142.227 83.3451 143.366 83.3881C143.934 83.4095 144.426 83.4016 144.811 83.3603C145.003 83.3396 145.175 83.31 145.32 83.2691C145.466 83.228 145.593 83.1727 145.679 83.0999L145.488 83.0569ZM141.189 81.1861C142.661 81.5475 143.857 81.9306 144.622 82.2739C145.005 82.4459 145.276 82.606 145.421 82.7461C145.493 82.8163 145.531 82.8787 145.539 82.9324C145.547 82.9856 145.525 83.0257 145.488 83.0569L145.679 83.0999C145.765 83.0267 145.793 82.9501 145.782 82.876C145.771 82.8025 145.721 82.7272 145.643 82.651C145.485 82.4984 145.199 82.3313 144.811 82.1569C144.033 81.8076 142.824 81.4212 141.345 81.0582L141.189 81.1861ZM139.804 82.4648L141.362 81.1436L141.171 81.1007L139.614 82.4219L139.804 82.4648ZM137.877 82.1866C138.478 82.3095 139.072 82.4179 139.641 82.5093L139.777 82.3773C139.212 82.2865 138.621 82.1789 138.024 82.0566L137.877 82.1866ZM136.214 81.8094C136.727 81.9383 137.285 82.0656 137.877 82.1866L138.024 82.0566C137.436 81.9363 136.881 81.8099 136.371 81.6817L136.214 81.8094ZM137.761 80.3979L136.197 81.7241L136.388 81.767L137.951 80.4408L137.761 80.3979ZM131.567 80.21C131.604 80.1782 131.669 80.1456 131.778 80.115C131.887 80.0843 132.03 80.0584 132.209 80.0394C132.567 80.0013 133.039 79.9929 133.603 80.0145C134.728 80.0576 136.194 80.2192 137.787 80.4852L137.925 80.3535C136.325 80.0863 134.846 79.9227 133.701 79.8789C133.13 79.857 132.636 79.8647 132.249 79.9059C132.055 79.9265 131.882 79.9562 131.737 79.9972C131.59 80.0384 131.463 80.0939 131.377 80.167L131.567 80.21ZM135.891 82.0881C134.411 81.7261 133.209 81.3417 132.439 80.9969C132.054 80.8242 131.781 80.6634 131.635 80.5225C131.563 80.452 131.524 80.3893 131.516 80.3352C131.508 80.2818 131.53 80.2414 131.567 80.21L131.377 80.167C131.29 80.2404 131.262 80.3173 131.273 80.3917C131.284 80.4655 131.334 80.5412 131.413 80.6178C131.572 80.771 131.86 80.9388 132.25 81.1139C133.033 81.4646 134.249 81.8524 135.735 82.2161L135.891 82.0881ZM136.087 82.1356L135.891 82.0881L135.735 82.2161L135.931 82.2637L136.087 82.1356ZM136.085 82.1352L136.083 82.1347L135.935 82.2646L135.938 82.2652L136.085 82.1352ZM136.693 82.2758C136.487 82.2297 136.286 82.1831 136.089 82.1361L135.934 82.2643C136.132 82.3116 136.334 82.3585 136.541 82.4048L136.693 82.2758ZM136.71 82.2793L136.69 82.2753L136.543 82.4053L136.563 82.4092L136.71 82.2793ZM136.886 82.3185L136.712 82.2797L136.56 82.4088L136.735 82.4476L136.886 82.3185ZM136.935 82.3286L136.884 82.3181L136.737 82.448L136.788 82.4586L136.935 82.3286ZM137.083 82.3606L136.937 82.3289L136.787 82.4583L136.933 82.49L137.083 82.3606ZM138.031 82.5545L137.082 82.3603L136.935 82.4903L137.884 82.6844L138.031 82.5545ZM138.181 82.5835L138.029 82.5542L137.885 82.6847L138.036 82.714L138.181 82.5835ZM138.236 82.5947L138.182 82.5837L138.035 82.7137L138.089 82.7247L138.236 82.5947ZM138.427 82.6304L138.234 82.5943L138.091 82.7251L138.284 82.7612L138.427 82.6304ZM138.438 82.6326L138.429 82.6309L138.282 82.7608L138.291 82.7626L138.438 82.6326ZM138.863 82.7096C138.722 82.6846 138.579 82.6589 138.435 82.6322L138.293 82.7631C138.437 82.7899 138.581 82.8158 138.723 82.8409L138.863 82.7096ZM138.887 82.7143L138.867 82.7102L138.72 82.8402L138.74 82.8443L138.887 82.7143ZM139.074 82.7469L138.883 82.7136L138.744 82.845L138.935 82.8783L139.074 82.7469ZM139.1 82.7521L139.078 82.7476L138.931 82.8776L138.953 82.8821L139.1 82.7521ZM139.301 82.786L139.096 82.7513L138.957 82.8829L139.162 82.9176L139.301 82.786Z" fill="black"/>
<path d="M151.074 33.3682L151.075 33.3685L151.08 33.3621C151.79 32.52 152.103 32.1436 152.428 31.7775C152.91 31.2344 153.418 30.7142 155.286 28.73C158.529 28.4329 162.872 29.687 167.326 31.9324C171.794 34.1847 176.359 37.4274 180.014 41.0745C183.346 44.3986 186.531 48.6461 188.903 52.8491C191.267 57.0389 192.816 61.1717 192.905 64.296C191.24 66.3509 189.797 67.9812 187.785 69.9973C184.878 72.9106 180.195 73.5277 174.95 72.1376C169.707 70.7482 163.923 67.3577 158.845 62.291C153.767 57.2244 150.364 51.4479 148.963 46.2083C147.561 40.9658 148.167 36.2815 151.074 33.3682Z" fill="#666666" stroke="black" stroke-width="0.197207"/>
<path d="M184.66 35.9513C189.738 41.018 193.142 46.7945 194.543 52.0341C195.944 57.2766 195.338 61.9609 192.431 64.8742C189.524 67.7875 184.841 68.4045 179.596 67.0144C174.353 65.6251 168.569 62.2345 163.491 57.1679C158.413 52.1013 155.01 46.3248 153.609 41.0851C152.207 35.8426 152.813 31.1584 155.72 28.2451C158.627 25.3318 163.31 24.7147 168.556 26.1048C173.798 27.4941 179.582 30.8847 184.66 35.9513Z" fill="white" stroke="black" stroke-width="0.197207"/>
<path d="M183.373 37.5036C187.831 41.9525 190.829 47.0143 192.075 51.5979C193.322 56.1845 192.811 60.2706 190.287 62.8C187.763 65.3295 183.678 65.8502 179.089 64.6136C174.502 63.3778 169.434 60.3911 164.975 55.9422C160.516 51.4933 157.518 46.4315 156.272 41.8479C155.026 37.2614 155.537 33.1752 158.061 30.6458C160.585 28.1164 164.67 27.5957 169.259 28.8323C173.845 30.068 178.914 33.0547 183.373 37.5036Z" fill="#666666" stroke="black" stroke-width="0.197207"/>
<path d="M182.39 38.4885C186.849 42.938 189.903 47.9455 191.237 52.4407C192.573 56.9401 192.182 60.901 189.795 63.2925C187.409 65.684 183.449 66.0843 178.947 64.7584C174.449 63.4338 169.434 60.3917 164.975 55.9422C160.516 51.4927 157.462 46.4852 156.128 41.99C154.792 37.4906 155.183 33.5297 157.57 31.1382C159.956 28.7467 163.916 28.3464 168.418 29.6723C172.916 30.9969 177.931 34.039 182.39 38.4885Z" fill="white" stroke="black" stroke-width="0.197207"/>
<path d="M166.154 45.3838L165.62 34.2367L166.295 33.5002L183.215 46.5555L183.295 47.0002L176.776 49.8591L168.447 46.3499L177.892 51.4213L183.215 48.4759L182.772 58.2561L167.795 47.0002L167.795 46.0755L166.154 45.3838Z" fill="#666666" stroke="black" stroke-width="0.197207"/>
<path d="M166.943 44.6054L166.41 33.4582L183.168 46.5258L177.565 49.0807L166.943 44.6054Z" fill="white"/>
<path d="M184.005 47.6975L178.681 50.6429L167.779 45.7771L183.561 57.4777L184.005 47.6975Z" fill="white"/>
<path d="M166.943 44.6054L166.41 33.4582L183.168 46.5258L177.565 49.0807L166.943 44.6054Z" stroke="black" stroke-width="0.197207"/>
<path d="M184.005 47.6975L178.681 50.6429L167.779 45.7771L183.561 57.4777L184.005 47.6975Z" stroke="black" stroke-width="0.197207"/>
<path d="M128.662 44.5566C128.662 46.3575 127.384 48.0072 125.275 49.2122C123.169 50.4156 120.253 51.163 117.027 51.163C113.801 51.163 110.885 50.4156 108.779 49.2122C106.67 48.0072 105.392 46.3575 105.392 44.5566L105.392 40.1598C106.374 39.1739 108.16 38.6177 110.27 38.3112C112.394 38.0026 114.82 37.9502 117.027 37.9502C118.845 37.9502 121.233 38.2648 123.435 38.7668C125.613 39.2629 127.592 39.9385 128.662 40.6643V40.6675V40.6811V40.6947V40.7082V40.7216V40.735V40.7484V40.7617V40.7749V40.7881V40.8013V40.8144V40.8274V40.8404V40.8533V40.8662V40.879V40.8918V40.9045V40.9172V40.9298V40.9424V40.9549V40.9674V40.9798V40.9922V41.0045V41.0168V41.029V41.0412V41.0533V41.0654V41.0774V41.0894V41.1013V41.1132V41.125V41.1368V41.1486V41.1602V41.1719V41.1835V41.195V41.2065V41.218V41.2294V41.2408V41.2521V41.2634V41.2746V41.2858V41.2969V41.308V41.3191V41.3301V41.341V41.3519V41.3628V41.3736V41.3844V41.3952V41.4058V41.4165V41.4271V41.4377V41.4482V41.4587V41.4691V41.4795V41.4899V41.5002V41.5104V41.5207V41.5309V41.541V41.5511V41.5612V41.5712V41.5812V41.5911V41.601V41.6109V41.6207V41.6305V41.6403V41.65V41.6596V41.6693V41.6789V41.6884V41.6979V41.7074V41.7169V41.7263V41.7356V41.7449V41.7542V41.7635V41.7727V41.7819V41.791V41.8001V41.8092V41.8182V41.8272V41.8362V41.8451V41.854V41.8629V41.8717V41.8805V41.8893V41.898V41.9067V41.9153V41.9239V41.9325V41.9411V41.9496V41.9581V41.9665V41.975V41.9834V41.9917V42V42.0083V42.0166V42.0248V42.033V42.0412V42.0493V42.0574V42.0655V42.0736V42.0816V42.0896V42.0975V42.1054V42.1133V42.1212V42.1291V42.1369V42.1446V42.1524V42.1601V42.1678V42.1755V42.1831V42.1907V42.1983V42.2059V42.2134V42.2209V42.2284V42.2358V42.2433V42.2507V42.258V42.2654V42.2727V42.28V42.2873V42.2945V42.3017V42.3089V42.3161V42.3232V42.3304V42.3375V42.3445V42.3516V42.3586V42.3656V42.3726V42.3796V42.3865V42.3934V42.4003V42.4072V42.414V42.4208V42.4276V42.4344V42.4412V42.4479V42.4546V42.4613V42.468V42.4747V42.4813V42.4879V42.4945V42.5011V42.5076V42.5142V42.5207V42.5272V42.5337V42.5401V42.5466V42.553V42.5594V42.5658V42.5722V42.5785V42.5849V42.5912V42.5975V42.6038V42.61V42.6163V42.6225V42.6287V42.6349V42.6411V42.6473V42.6535V42.6596V42.6657V42.6719V42.678V42.684V42.6901V42.6962V42.7022V42.7082V42.7142V42.7202V42.7262V42.7322V42.7382V42.7441V42.7501V42.756V42.7619V42.7678V42.7737V42.7796V42.7854V42.7913V42.7971V42.803V42.8088V42.8146V42.8204V42.8262V42.832V42.8378V42.8435V42.8493V42.855V42.8608V42.8665V42.8722V42.8779V42.8836V42.8893V42.895V42.9007V42.9064V42.912V42.9177V42.9233V42.929V42.9346V42.9402V42.9459V42.9515V42.9571V42.9627V42.9683V42.9739V42.9795V42.9851V42.9907V42.9962V43.0018V43.0074V43.0129V43.0185V43.024V43.0296V43.0351V43.0407V43.0462V43.0518V43.0573V43.0628V43.0684V43.0739V43.0794V43.085V43.0905V43.096V43.1015V43.1071V43.1126V43.1181V43.1236V43.1291V43.1347V43.1402V43.1457V43.1512V43.1567V43.1623V43.1678V43.1733V43.1788V43.1844V43.1899V43.1954V43.2009V43.2065V43.212V43.2176V43.2231V43.2286V43.2342V43.2397V43.2453V43.2509V43.2564V43.262V43.2676V43.2731V43.2787V43.2843V43.2899V43.2955V43.3011V43.3067V43.3123V43.3179V43.3235V43.3292V43.3348V43.3405V43.3461V43.3518V43.3574V43.3631V43.3688V43.3745V43.3802V43.3859V43.3916V43.3973V43.403V43.4088V43.4145V43.4203V43.426V43.4318V43.4376V43.4434V43.4492V43.455V43.4608V43.4667V43.4725V43.4784V43.4842V43.4901V43.496V43.5019V43.5078V43.5137V43.5197V43.5256V43.5316V43.5376V43.5436V43.5496V43.5556V43.5616V43.5677V43.5737V43.5798V43.5859V43.592V43.5981V43.6042V43.6104V43.6165V43.6227V43.6289V43.6351V43.6413V43.6475V43.6538V43.6601V43.6664V43.6727V43.679V43.6853V43.6917V43.698V43.7044V43.7108V43.7173V43.7237V43.7302V43.7367V43.7432V43.7497V43.7562V43.7628V43.7693V43.7759V43.7826V43.7892V43.7959V43.8025V43.8092V43.8159V43.8227V43.8294V43.8362V43.843V43.8499V43.8567V43.8636V43.8705V43.8774V43.8843V43.8913V43.8983V43.9053V43.9123V43.9193V43.9264V43.9335V43.9406V43.9478V43.955V43.9622V43.9694V43.9766V43.9839V43.9912V43.9985V44.0059V44.0132V44.0206V44.0281V44.0355V44.043V44.0505V44.058V44.0656V44.0732V44.0808V44.0884V44.0961V44.1038V44.1115V44.1193V44.1271V44.1349V44.1427V44.1506V44.1585V44.1664V44.1744V44.1823V44.1904V44.1984V44.2065V44.2146V44.2227V44.2309V44.2391V44.2473V44.2556V44.2639V44.2722V44.2806V44.289V44.2974V44.3059V44.3144V44.3229V44.3314V44.34V44.3486V44.3573V44.366V44.3747V44.3835V44.3923V44.4011V44.4099V44.4188V44.4278V44.4367V44.4457V44.4548V44.4639V44.473V44.4821V44.4913V44.5005V44.5098V44.5191V44.5284V44.5378V44.5472V44.5566Z" fill="#666666" stroke="black" stroke-width="0.197207"/>
<path d="M128.662 41.2031C128.662 43.004 127.384 44.6536 125.275 45.8586C123.169 47.0621 120.253 47.8095 117.027 47.8095C113.801 47.8095 110.885 47.0621 108.779 45.8586C106.67 44.6536 105.392 43.004 105.392 41.2031C105.392 39.4022 106.67 37.7525 108.779 36.5475C110.885 35.3441 113.801 34.5967 117.027 34.5967C120.253 34.5967 123.169 35.3441 125.275 36.5475C127.384 37.7525 128.662 39.4022 128.662 41.2031Z" fill="white" stroke="black" stroke-width="0.197207"/>
<path d="M127.28 41.2033C127.28 42.7864 126.156 44.2388 124.297 45.3011C122.441 46.3618 119.87 47.0209 117.025 47.0209C114.18 47.0209 111.609 46.3618 109.753 45.3011C107.894 44.2388 106.77 42.7864 106.77 41.2033C106.77 39.6203 107.894 38.1678 109.753 37.1055C111.609 36.0449 114.18 35.3857 117.025 35.3857C119.87 35.3857 122.441 36.0449 124.297 37.1055C126.156 38.1678 127.28 39.6203 127.28 41.2033Z" fill="white" stroke="black" stroke-width="0.197207"/>
<path fill-rule="evenodd" clip-rule="evenodd" d="M114.231 40.5017L114.888 38.9149L118.721 40.5024L119.103 39.5791L113.042 37.0684L112.002 39.5784L114.231 40.5016L114.231 40.5017ZM111.353 41.1539L111.735 40.2305L113.964 41.1537L113.582 42.077L111.353 41.1539ZM119.369 43.3921L115.539 41.8054L115.153 42.7274L115.156 42.7287L121.216 45.2387L122.256 42.728L122.256 42.7275L120.027 41.8047L119.369 43.3921ZM120.294 41.1538L120.677 40.2305L122.906 41.1537L122.523 42.077L120.294 41.1538ZM118.455 41.1537H118.454L118.456 41.1541L118.456 41.1546L118.068 42.0915L115.808 41.1553L115.804 41.154L115.805 41.1527L115.873 40.9886L115.906 40.909L116.193 40.2168L118.455 41.1537Z" fill="white"/>
<path d="M114.888 38.9149L114.909 38.8656L114.79 38.8163L114.769 38.8656L114.888 38.9149ZM114.231 40.5017L114.112 40.4704L114.35 40.551L114.231 40.5017ZM118.721 40.5024L118.701 40.5517L118.82 40.601L118.84 40.5517L118.721 40.5024ZM119.103 39.5791L119.222 39.6284L119.243 39.5791L119.124 39.5298L119.103 39.5791ZM113.042 37.0684L113.062 37.0191L112.943 36.9698L112.923 37.0191L113.042 37.0684ZM112.002 39.5784L111.883 39.5291L111.863 39.5784L111.982 39.6277L112.002 39.5784ZM114.231 40.5016L114.351 40.5329L114.338 40.4879L114.252 40.4523L114.231 40.5016ZM111.735 40.2305L111.756 40.1812L111.637 40.1319L111.616 40.1812L111.735 40.2305ZM111.353 41.1539L111.234 41.1046L111.214 41.1539L111.333 41.2032L111.353 41.1539ZM113.964 41.1537L114.083 41.203L114.104 41.1537L113.985 41.1044L113.964 41.1537ZM113.582 42.077L113.561 42.1263L113.681 42.1756L113.701 42.1263L113.582 42.077ZM115.539 41.8054L115.559 41.7561L115.44 41.7069L115.42 41.7561L115.539 41.8054ZM119.369 43.3921L119.349 43.4414L119.468 43.4907L119.488 43.4414L119.369 43.3921ZM115.153 42.7274L115.034 42.678L115.014 42.7273L115.133 42.7767L115.153 42.7274ZM115.156 42.7287L115.136 42.778L115.136 42.778L115.156 42.7287ZM121.216 45.2387L121.196 45.288L121.315 45.3373L121.335 45.288L121.216 45.2387ZM122.256 42.728L122.375 42.7773L122.376 42.7756L122.256 42.728ZM122.256 42.7275L122.376 42.7751L122.392 42.7258L122.277 42.6781L122.256 42.7275ZM120.027 41.8047L120.047 41.7554L119.928 41.7061L119.908 41.7554L120.027 41.8047ZM120.677 40.2305L120.697 40.1812L120.578 40.1319L120.558 40.1812L120.677 40.2305ZM120.294 41.1538L120.175 41.1045L120.155 41.1538L120.274 41.2031L120.294 41.1538ZM122.906 41.1537L123.025 41.203L123.045 41.1537L122.926 41.1044L122.906 41.1537ZM122.523 42.077L122.503 42.1263L122.622 42.1756L122.642 42.1263L122.523 42.077ZM118.454 41.1537L118.384 41.0839L118.469 41.2151L118.454 41.1537ZM118.455 41.1537L118.524 41.2234H118.762L118.475 41.1044L118.455 41.1537ZM118.456 41.1541L118.576 41.2L118.591 41.1342L118.441 41.0927L118.456 41.1541ZM118.456 41.1546L118.575 41.2041L118.576 41.2006L118.456 41.1546ZM118.068 42.0915L118.047 42.1408L118.166 42.1901L118.187 42.1408L118.068 42.0915ZM115.808 41.1553L115.786 41.204L115.787 41.2046L115.808 41.1553ZM115.804 41.154L115.686 41.1041L115.664 41.1528L115.782 41.2027L115.804 41.154ZM115.805 41.1527L115.924 41.2026L115.924 41.202L115.805 41.1527ZM115.873 40.9886L115.992 41.0379L115.992 41.0379L115.873 40.9886ZM115.906 40.909L115.787 40.8597L115.787 40.8597L115.906 40.909ZM116.193 40.2168L116.213 40.1675L116.094 40.1182L116.074 40.1675L116.193 40.2168ZM114.769 38.8656L114.112 40.4524L114.35 40.551L115.007 38.9642L114.769 38.8656ZM118.741 40.4531L114.909 38.8656L114.868 38.9642L118.701 40.5517L118.741 40.4531ZM118.984 39.5298L118.602 40.4531L118.84 40.5517L119.222 39.6284L118.984 39.5298ZM113.021 37.1177L119.083 39.6284L119.124 39.5298L113.062 37.0191L113.021 37.1177ZM112.121 39.6277L113.161 37.1177L112.923 37.0191L111.883 39.5291L112.121 39.6277ZM114.252 40.4523L112.023 39.5291L111.982 39.6277L114.211 40.5509L114.252 40.4523ZM114.351 40.533L114.351 40.5329L114.112 40.4703L114.112 40.4704L114.351 40.533ZM111.616 40.1812L111.234 41.1046L111.472 41.2032L111.854 40.2798L111.616 40.1812ZM113.985 41.1044L111.756 40.1812L111.715 40.2798L113.944 41.203L113.985 41.1044ZM113.701 42.1263L114.083 41.203L113.845 41.1044L113.463 42.0277L113.701 42.1263ZM111.333 41.2032L113.561 42.1263L113.602 42.0277L111.374 41.1046L111.333 41.2032ZM115.518 41.8547L119.349 43.4414L119.39 43.3428L115.559 41.7561L115.518 41.8547ZM115.272 42.7767L115.658 41.8548L115.42 41.7561L115.034 42.678L115.272 42.7767ZM115.177 42.6794L115.174 42.6781L115.133 42.7767L115.136 42.778L115.177 42.6794ZM121.236 45.1894L115.177 42.6794L115.136 42.778L121.196 45.288L121.236 45.1894ZM122.137 42.6787L121.097 45.1894L121.335 45.288L122.375 42.7773L122.137 42.6787ZM122.137 42.6799L122.136 42.6804L122.376 42.7756L122.376 42.7751L122.137 42.6799ZM120.007 41.854L122.236 42.7768L122.277 42.6781L120.047 41.7554L120.007 41.854ZM119.488 43.4414L120.146 41.854L119.908 41.7554L119.25 43.3428L119.488 43.4414ZM120.558 40.1812L120.175 41.1045L120.413 41.2031L120.796 40.2798L120.558 40.1812ZM122.926 41.1044L120.697 40.1812L120.656 40.2798L122.885 41.203L122.926 41.1044ZM122.642 42.1263L123.025 41.203L122.787 41.1044L122.404 42.0277L122.642 42.1263ZM120.274 41.2031L122.503 42.1263L122.544 42.0277L120.315 41.1045L120.274 41.2031ZM118.524 41.2234H118.524L118.385 41.0839H118.384L118.524 41.2234ZM118.441 41.0927L118.439 41.0923L118.469 41.2151L118.47 41.2155L118.441 41.0927ZM118.576 41.2006L118.576 41.2L118.336 41.1082L118.335 41.1087L118.576 41.2006ZM118.187 42.1408L118.575 41.2039L118.337 41.1053L117.949 42.0422L118.187 42.1408ZM115.787 41.2046L118.047 42.1408L118.088 42.0422L115.828 41.106L115.787 41.2046ZM115.782 41.2027L115.786 41.204L115.829 41.1066L115.826 41.1053L115.782 41.2027ZM115.686 41.1028L115.686 41.1041L115.923 41.2039L115.924 41.2026L115.686 41.1028ZM115.754 40.9393L115.686 41.1034L115.924 41.202L115.992 41.0379L115.754 40.9393ZM115.787 40.8597L115.754 40.9393L115.992 41.0379L116.025 40.9583L115.787 40.8597ZM116.074 40.1675L115.787 40.8597L116.025 40.9583L116.312 40.2661L116.074 40.1675ZM118.475 41.1044L116.213 40.1675L116.172 40.2661L118.434 41.203L118.475 41.1044Z" fill="black"/>
<path d="M166.609 105.31L166.614 105.327L166.625 105.342C167.383 106.337 168.004 107.297 168.62 108.248L168.688 108.354C169.325 109.339 169.962 110.315 170.74 111.306C181.608 125.126 204.195 125.454 221.181 112.098C238.166 98.7414 243.176 76.714 232.308 62.8937C230.844 61.0317 230.3 60.2172 229.907 59.6289C229.892 59.6078 229.879 59.587 229.865 59.5665C229.464 58.9671 229.196 58.5796 228.206 57.4914C228.067 57.338 227.808 57.1932 227.46 57.0551C227.108 56.9155 226.652 56.7776 226.106 56.6442C225.012 56.3775 223.547 56.127 221.809 55.9178C218.334 55.4993 213.759 55.2453 208.864 55.3591C203.97 55.4729 198.754 55.9546 193.997 57.0088C189.241 58.0627 184.935 59.6904 181.868 62.1018C168.172 72.8711 162.704 92.1227 166.609 105.31Z" fill="#FF8E2B"/>
<path d="M166.609 105.31L166.614 105.327L166.625 105.342C167.383 106.337 168.004 107.297 168.62 108.248L168.688 108.354C169.325 109.339 169.962 110.315 170.74 111.306C181.608 125.126 204.195 125.454 221.181 112.098C238.166 98.7414 243.176 76.714 232.308 62.8937C230.844 61.0317 230.3 60.2172 229.907 59.6289C229.892 59.6078 229.879 59.587 229.865 59.5665C229.464 58.9671 229.196 58.5796 228.206 57.4914C228.067 57.338 227.808 57.1932 227.46 57.0551C227.108 56.9155 226.652 56.7776 226.106 56.6442C225.012 56.3775 223.547 56.127 221.809 55.9178C218.334 55.4993 213.759 55.2453 208.864 55.3591C203.97 55.4729 198.754 55.9546 193.997 57.0088C189.241 58.0627 184.935 59.6904 181.868 62.1018C168.172 72.8711 162.704 92.1227 166.609 105.31Z" stroke="black" stroke-width="0.197207"/>
<path d="M166.609 105.31L166.614 105.327L166.625 105.342C167.383 106.337 168.004 107.297 168.62 108.248L168.688 108.354C169.325 109.339 169.962 110.315 170.74 111.306C181.608 125.126 204.195 125.454 221.181 112.098C238.166 98.7414 243.176 76.714 232.308 62.8937C230.844 61.0317 230.3 60.2172 229.907 59.6289C229.892 59.6078 229.879 59.587 229.865 59.5665C229.464 58.9671 229.196 58.5796 228.206 57.4914C228.067 57.338 227.808 57.1932 227.46 57.0551C227.108 56.9155 226.652 56.7776 226.106 56.6442C225.012 56.3775 223.547 56.127 221.809 55.9178C218.334 55.4993 213.759 55.2453 208.864 55.3591C203.97 55.4729 198.754 55.9546 193.997 57.0088C189.241 58.0627 184.935 59.6904 181.868 62.1018C168.172 72.8711 162.704 92.1227 166.609 105.31Z" stroke="black" stroke-opacity="0.2" stroke-width="0.197207"/>
<path d="M166.987 105.769C178.419 120.308 201.268 119.944 217.659 107.056C234.05 94.167 239.793 72.0487 228.361 57.5097C216.929 42.9707 194.08 43.3352 177.689 56.2236C161.298 69.1121 155.554 91.2305 166.987 105.769ZM215.465 104.265C200.042 116.392 179.591 116.057 169.777 103.575C159.963 91.0939 164.46 71.1413 179.883 59.014C195.306 46.8867 215.756 47.2224 225.571 59.7038C235.385 72.1852 230.888 92.1378 215.465 104.265Z" fill="#FEDD7B" stroke="black" stroke-width="0.197207"/>
<path d="M169.619 103.697C179.523 116.292 200.107 116.589 215.583 104.42C231.06 92.25 235.627 72.177 225.722 59.5813C215.818 46.9856 195.234 46.6888 179.758 58.8584C164.281 71.028 159.714 91.101 169.619 103.697Z" fill="#FF8E2B" stroke="black" stroke-width="0.197207"/>
<path d="M170.348 104.623C179.853 116.71 200.112 116.587 215.585 104.42C231.058 92.2535 235.956 72.5948 226.452 60.5076C216.947 48.4203 196.688 48.543 181.215 60.71C165.741 72.877 160.844 92.5356 170.348 104.623Z" fill="#FEBB00" stroke="black" stroke-width="0.197207"/>
<path fill-rule="evenodd" clip-rule="evenodd" d="M189.278 70.2818C189.36 70.4151 189.454 70.5698 189.564 70.7505L193.549 71.2495C193.915 71.3652 194.44 71.9622 193.616 73.4246C192.791 74.887 188.041 83.3973 185.769 87.4696L183.103 87.8131L177.789 89.5006L178.267 91.0734L186.355 92.0861L182.289 96.0006L183.103 97.3405L186.853 97.8101L189.724 92.5081L193.124 92.9337L189.289 97.0006L190.06 98.4214L193.84 98.8947L193.789 99.0006L196.677 93.6583L200.555 94.3885C202.789 95.0006 209.191 93.6288 211.789 90.0006C214.077 86.8041 212.892 82.4242 209.789 82.0006C212.632 81.2035 217.195 78.1054 216.66 75.4014C215.848 71.3001 213.044 71.0351 210.218 70.7681C210.012 70.7486 209.806 70.7291 209.6 70.7081C210.048 70.1212 211.754 67.0055 212.551 65.5209L211.789 64.5006L208.917 65.066L206.122 69.7833L202.957 69.387L206.039 64.0415L205.289 63.0006L202.259 63.5681L199.366 68.7627L193.549 67.8132L188.789 69.3871C188.816 69.5269 188.923 69.7014 189.278 70.2818ZM197.439 79.2858L201.172 72.7986L205.245 73.3086C207.619 73.6059 209.796 75.2764 208.407 77.5139C207.297 79.304 204.695 79.9498 203.534 80.049L197.439 79.2858ZM192.037 88.9534L196.117 82.1951C196.625 82.2587 198.22 82.5424 200.539 83.1681C203.436 83.9504 206.084 84.9109 204.641 87.4562C203.488 89.4925 200.368 89.8801 198.953 89.8193L192.037 88.9534Z" fill="#FC8F30"/>
<path d="M189.564 70.7505L189.324 70.8449L189.347 70.8829L189.418 70.8918L189.564 70.7505ZM189.278 70.2818L189.518 70.1872L189.518 70.1872L189.278 70.2818ZM193.549 71.2495L193.733 71.1161L193.716 71.1107L193.696 71.1081L193.549 71.2495ZM193.616 73.4246L193.852 73.4071L193.616 73.4246ZM185.769 87.4696L185.712 87.6098L185.933 87.5813L186.005 87.4516L185.769 87.4696ZM183.103 87.8131L183.16 87.673L183.116 87.6787L183.071 87.6929L183.103 87.8131ZM177.789 89.5006L177.757 89.3804L177.505 89.4603L177.542 89.5812L177.789 89.5006ZM178.267 91.0734L178.02 91.154L178.036 91.2041L178.121 91.2148L178.267 91.0734ZM186.355 92.0861L186.556 92.1118L186.703 91.9701L186.501 91.9448L186.355 92.0861ZM182.289 96.0006L182.087 95.975L182.017 96.0429L182.048 96.095L182.289 96.0006ZM183.103 97.3405L182.862 97.4348L182.885 97.4729L182.956 97.4818L183.103 97.3405ZM186.853 97.8101L186.707 97.9515L186.984 97.9862L187.09 97.7907L186.853 97.8101ZM189.724 92.5081L189.871 92.3668L189.593 92.332L189.487 92.5276L189.724 92.5081ZM193.124 92.9337L193.333 92.9509L193.46 92.8163L193.27 92.7924L193.124 92.9337ZM189.289 97.0006L189.079 96.9835L189.021 97.0448L189.047 97.0924L189.289 97.0006ZM190.06 98.4214L189.818 98.5132L189.84 98.5535L189.914 98.5627L190.06 98.4214ZM193.84 98.8947L194.08 98.8707L194.129 98.7712L193.987 98.7534L193.84 98.8947ZM193.789 99.0006L193.549 99.0246L194.026 98.9811L193.789 99.0006ZM196.677 93.6583L196.838 93.5192L196.554 93.4658L196.44 93.6778L196.677 93.6583ZM200.555 94.3885L200.732 94.2532L200.725 94.2511L200.716 94.2495L200.555 94.3885ZM211.789 90.0006L211.561 90.0043L211.789 90.0006ZM209.789 82.0006L209.774 81.8751L209.091 82.0667L209.639 82.1416L209.789 82.0006ZM216.66 75.4014L216.908 75.3267L216.66 75.4014ZM210.218 70.7681L210.356 70.6259L210.218 70.7681ZM209.6 70.7081L209.376 70.7073L209.281 70.8319L209.46 70.8502L209.6 70.7081ZM212.551 65.5209L212.788 65.5011L212.813 65.455L212.788 65.4214L212.551 65.5209ZM211.789 64.5006L212.025 64.4011L211.975 64.3339L211.814 64.3656L211.789 64.5006ZM208.917 65.066L208.943 64.9309L208.749 64.9691L208.683 65.0808L208.917 65.066ZM206.122 69.7833L205.975 69.9247L206.244 69.9582L206.356 69.7684L206.122 69.7833ZM202.957 69.387L202.722 69.4033L202.66 69.5096L202.811 69.5284L202.957 69.387ZM206.039 64.0415L206.274 64.0252L206.301 63.9776L206.276 63.9429L206.039 64.0415ZM205.289 63.0006L205.526 62.9021L205.478 62.835L205.319 62.8647L205.289 63.0006ZM202.259 63.5681L202.289 63.4322L202.087 63.47L202.022 63.5862L202.259 63.5681ZM199.366 68.7627L199.211 68.9027L199.489 68.9481L199.602 68.7446L199.366 68.7627ZM193.549 67.8132L193.705 67.6731L193.619 67.6592L193.511 67.6949L193.549 67.8132ZM188.789 69.3871L188.751 69.2688L188.518 69.3458L188.54 69.4618L188.789 69.3871ZM201.172 72.7986L201.318 72.6573L201.047 72.6233L200.937 72.815L201.172 72.7986ZM197.439 79.2858L197.203 79.3022L197.142 79.4083L197.292 79.4271L197.439 79.2858ZM205.245 73.3086L205.391 73.1673L205.245 73.3086ZM208.407 77.5139L208.174 77.5263L208.407 77.5139ZM203.534 80.049L203.387 80.1903L203.42 80.1944L203.458 80.1911L203.534 80.049ZM196.117 82.1951L196.263 82.0538L195.997 82.0204L195.883 82.209L196.117 82.1951ZM192.037 88.9534L191.803 88.9672L191.738 89.0755L191.891 89.0947L192.037 88.9534ZM200.539 83.1681L200.362 83.3036L200.539 83.1681ZM204.641 87.4562L204.877 87.439L204.641 87.4562ZM198.953 89.8193L198.806 89.9606L198.818 89.9621L198.83 89.9626L198.953 89.8193ZM189.805 70.6561C189.695 70.4753 189.6 70.3205 189.518 70.1872L189.038 70.3763C189.119 70.5096 189.214 70.6643 189.324 70.8449L189.805 70.6561ZM193.696 71.1081L189.71 70.6091L189.418 70.8918L193.403 71.3908L193.696 71.1081ZM193.852 73.4071C194.692 71.917 194.185 71.2589 193.733 71.1161L193.365 71.3828C193.646 71.4715 194.189 72.0073 193.38 73.442L193.852 73.4071ZM186.005 87.4516C188.277 83.379 193.027 74.8692 193.852 73.4071L193.38 73.442C192.555 74.9048 187.805 83.4155 185.533 87.4876L186.005 87.4516ZM183.046 87.9533L185.712 87.6098L185.826 87.3295L183.16 87.673L183.046 87.9533ZM177.82 89.6208L183.134 87.9333L183.071 87.6929L177.757 89.3804L177.82 89.6208ZM178.514 90.9929L178.035 89.42L177.542 89.5812L178.02 91.154L178.514 90.9929ZM186.501 91.9448L178.413 90.9321L178.121 91.2148L186.208 92.2275L186.501 91.9448ZM182.49 96.0262L186.556 92.1118L186.153 92.0605L182.087 95.975L182.49 96.0262ZM183.343 97.2461L182.529 95.9063L182.048 96.095L182.862 97.4348L183.343 97.2461ZM187 97.6688L183.249 97.1991L182.956 97.4818L186.707 97.9515L187 97.6688ZM189.487 92.5276L186.616 97.8296L187.09 97.7907L189.962 92.4886L189.487 92.5276ZM193.27 92.7924L189.871 92.3668L189.578 92.6494L192.977 93.0751L193.27 92.7924ZM189.498 97.0177L193.333 92.9509L192.914 92.9166L189.079 96.9835L189.498 97.0177ZM190.302 98.3296L189.53 96.9089L189.047 97.0924L189.818 98.5132L190.302 98.3296ZM193.987 98.7534L190.207 98.2801L189.914 98.5627L193.694 99.0361L193.987 98.7534ZM194.028 98.9766L194.08 98.8707L193.601 98.9187L193.549 99.0246L194.028 98.9766ZM196.44 93.6778L193.551 99.0202L194.026 98.9811L196.914 93.6387L196.44 93.6778ZM200.716 94.2495L196.838 93.5192L196.516 93.7973L200.394 94.5276L200.716 94.2495ZM211.561 90.0043C210.3 91.7662 208.126 92.9714 205.999 93.6658C203.855 94.3661 201.782 94.5408 200.732 94.2532L200.378 94.5238C201.562 94.8484 203.807 94.6432 206.071 93.9036C208.354 93.1581 210.68 91.8633 212.016 89.997L211.561 90.0043ZM209.639 82.1416C210.364 82.2405 210.998 82.5747 211.501 83.0866C212.003 83.5966 212.366 84.2733 212.563 85.0388C212.958 86.5729 212.68 88.4413 211.561 90.0043L212.016 89.997C213.185 88.3634 213.459 86.4436 213.058 84.8827C212.857 84.1007 212.484 83.4033 211.963 82.873C211.443 82.3447 210.765 81.9726 209.938 81.8597L209.639 82.1416ZM216.412 75.4762C216.672 76.7893 215.695 78.1981 214.303 79.3785C212.904 80.5654 211.11 81.5007 209.774 81.8751L209.803 82.1262C211.311 81.7034 213.22 80.6911 214.679 79.4537C216.146 78.2098 217.183 76.7175 216.908 75.3267L216.412 75.4762ZM210.08 70.9104C211.494 71.0439 212.862 71.1745 213.986 71.7705C215.112 72.3667 216.008 73.4375 216.412 75.4762L216.908 75.3267C216.499 73.264 215.588 72.1516 214.402 71.5233C213.215 70.8947 211.768 70.7593 210.356 70.6259L210.08 70.9104ZM209.46 70.8502C209.667 70.8713 209.874 70.8909 210.08 70.9104L210.356 70.6259C210.15 70.6064 209.945 70.587 209.74 70.5661L209.46 70.8502ZM212.314 65.5408C211.916 66.2826 211.29 67.4319 210.709 68.4689C210.124 69.5122 209.591 70.4257 209.376 70.7073L209.824 70.7089C210.057 70.4037 210.602 69.4659 211.181 68.4334C211.764 67.3946 212.39 66.2438 212.788 65.5011L212.314 65.5408ZM211.552 64.6002L212.314 65.6205L212.788 65.4214L212.025 64.4011L211.552 64.6002ZM208.892 65.201L211.763 64.6357L211.814 64.3656L208.943 64.9309L208.892 65.201ZM206.356 69.7684L209.152 65.0511L208.683 65.0808L205.887 69.7982L206.356 69.7684ZM202.811 69.5284L205.975 69.9247L206.268 69.642L203.103 69.2457L202.811 69.5284ZM205.803 64.0578L202.722 69.4033L203.192 69.3707L206.274 64.0252L205.803 64.0578ZM205.051 63.0992L205.801 64.1401L206.276 63.9429L205.526 62.9021L205.051 63.0992ZM202.228 63.704L205.258 63.1365L205.319 62.8647L202.289 63.4322L202.228 63.704ZM199.602 68.7446L202.495 63.5501L202.022 63.5862L199.13 68.7808L199.602 68.7446ZM193.394 67.9532L199.211 68.9027L199.522 68.6227L193.705 67.6731L193.394 67.9532ZM188.826 69.5053L193.587 67.9314L193.511 67.6949L188.751 69.2688L188.826 69.5053ZM189.518 70.1872C189.159 69.5999 189.061 69.4385 189.037 69.3124L188.54 69.4618C188.571 69.6153 188.687 69.8028 189.038 70.3763L189.518 70.1872ZM200.937 72.815L197.203 79.3022L197.674 79.2693L201.407 72.7822L200.937 72.815ZM205.391 73.1673L201.318 72.6573L201.026 72.94L205.099 73.45L205.391 73.1673ZM208.64 77.5016C209.362 76.3385 209.153 75.3306 208.47 74.579C207.787 73.8282 206.622 73.3215 205.391 73.1673L205.099 73.45C206.241 73.593 207.352 74.0702 208.004 74.7883C208.656 75.5057 208.841 76.4519 208.174 77.5263L208.64 77.5016ZM203.458 80.1911C204.08 80.138 205.076 79.9407 206.069 79.5181C207.074 79.0903 208.058 78.4392 208.64 77.5016L208.174 77.5263C207.645 78.3787 206.774 78.9455 205.91 79.313C205.034 79.6856 204.149 79.8608 203.609 79.9068L203.458 80.1911ZM197.292 79.4271L203.387 80.1903L203.68 79.9076L197.585 79.1444L197.292 79.4271ZM195.883 82.209L191.803 88.9672L192.271 88.9395L196.351 82.1812L195.883 82.209ZM200.715 83.0326C198.392 82.4056 196.786 82.1192 196.263 82.0538L195.971 82.3364C196.464 82.3982 198.049 82.6791 200.362 83.3036L200.715 83.0326ZM204.877 87.439C206.374 84.7964 203.602 83.8117 200.715 83.0326L200.362 83.3036C203.271 84.089 205.793 85.0254 204.406 87.4734L204.877 87.439ZM198.83 89.9626C199.566 89.9942 200.754 89.9108 201.925 89.5452C202.515 89.3608 203.104 89.1037 203.623 88.7536C204.141 88.4036 204.576 87.9699 204.877 87.439L204.406 87.4734C204.13 87.9607 203.742 88.3391 203.307 88.6325C202.872 88.9259 202.377 89.1437 201.866 89.3032C200.835 89.6252 199.755 89.7052 199.075 89.676L198.83 89.9626ZM191.891 89.0947L198.806 89.9606L199.099 89.678L192.183 88.812L191.891 89.0947Z" fill="black"/>
<path fill-rule="evenodd" clip-rule="evenodd" d="M189.129 68.8803C188.982 69.09 188.839 69.2934 188.708 69.4807L192.693 69.9797C193.059 70.0954 193.584 70.6924 192.759 72.1548C191.935 73.6172 187.185 82.1275 184.913 86.1999L180.459 85.6421L177.411 89.8037L185.498 90.8164L182.246 96.0707L185.997 96.5404L188.868 91.2383L192.267 91.664L189.204 97.1516L192.984 97.625L195.821 92.3885L199.699 93.1188C201.711 93.3707 206.569 92.9726 209.906 89.3643C214.076 84.854 211.928 81.3 208.825 80.8764C211.668 80.0793 216.21 76.8736 215.803 74.1317C215.397 71.3898 211.767 69.7471 208.744 69.4384C209.192 68.8515 210.898 65.7357 211.695 64.2512L208.061 63.7962L205.265 68.5135L202.101 68.1173L205.182 62.7717L201.402 62.2984L198.51 67.4929L190.668 66.5109C190.696 66.654 189.859 67.8431 189.129 68.8803ZM196.583 78.0162L200.316 71.5291L204.39 72.0391C206.763 72.3363 208.94 74.0069 207.552 76.2444C206.441 78.0344 203.84 78.6803 202.678 78.7794L196.583 78.0162ZM191.182 87.6838L195.262 80.9256C195.77 80.9892 197.365 81.2728 199.683 81.8986C202.581 82.6808 205.228 83.6413 203.786 86.1867C202.632 88.223 199.513 88.6105 198.097 88.5498L191.182 87.6838Z" fill="#FFE082"/>
<path d="M188.708 69.4807L188.48 69.486L188.399 69.6017L188.562 69.622L188.708 69.4807ZM189.129 68.8803L188.901 68.8851L189.129 68.8803ZM192.693 69.9797L192.877 69.8464L192.86 69.841L192.839 69.8384L192.693 69.9797ZM192.759 72.1548L192.995 72.1374L192.759 72.1548ZM184.913 86.1999L184.767 86.3412L185.041 86.3756L185.149 86.1819L184.913 86.1999ZM180.459 85.6421L180.605 85.5008L180.36 85.4701L180.233 85.6442L180.459 85.6421ZM177.411 89.8037L177.185 89.8058L177.098 89.9242L177.265 89.945L177.411 89.8037ZM185.498 90.8164L185.731 90.8039L185.799 90.6944L185.645 90.675L185.498 90.8164ZM182.246 96.0707L182.013 96.0832L181.945 96.1927L182.1 96.212L182.246 96.0707ZM185.997 96.5404L185.851 96.6817L186.128 96.7164L186.234 96.5209L185.997 96.5404ZM188.868 91.2383L189.014 91.097L188.737 91.0623L188.631 91.2578L188.868 91.2383ZM192.267 91.664L192.504 91.646L192.562 91.5412L192.414 91.5226L192.267 91.664ZM189.204 97.1516L188.968 97.1696L188.909 97.2744L189.058 97.293L189.204 97.1516ZM192.984 97.625L192.838 97.7663L193.115 97.801L193.221 97.6055L192.984 97.625ZM195.821 92.3885L195.982 92.2494L195.698 92.1961L195.584 92.4079L195.821 92.3885ZM199.699 93.1188L199.538 93.2578L199.545 93.2591L199.553 93.2601L199.699 93.1188ZM209.906 89.3643L209.694 89.3489L209.906 89.3643ZM208.825 80.8764L208.81 80.7509L208.127 80.9425L208.675 81.0174L208.825 80.8764ZM215.803 74.1317L215.555 74.2035L215.803 74.1317ZM208.744 69.4384L208.52 69.4376L208.425 69.5621L208.604 69.5804L208.744 69.4384ZM211.695 64.2512L211.932 64.2313L211.987 64.1282L211.841 64.1098L211.695 64.2512ZM208.061 63.7962L208.207 63.6548L207.939 63.6213L207.827 63.8111L208.061 63.7962ZM205.265 68.5135L205.119 68.6549L205.387 68.6885L205.5 68.4987L205.265 68.5135ZM202.101 68.1173L201.865 68.1336L201.804 68.2398L201.954 68.2586L202.101 68.1173ZM205.182 62.7717L205.418 62.7554L205.479 62.6492L205.329 62.6304L205.182 62.7717ZM201.402 62.2984L201.549 62.157L201.274 62.1226L201.166 62.3165L201.402 62.2984ZM198.51 67.4929L198.364 67.6342L198.638 67.6686L198.746 67.4748L198.51 67.4929ZM190.668 66.5109L190.814 66.3696L190.366 66.3135L190.42 66.5856L190.668 66.5109ZM200.316 71.5291L200.463 71.3877L200.191 71.3538L200.081 71.5455L200.316 71.5291ZM196.583 78.0162L196.348 78.0326L196.287 78.1388L196.437 78.1576L196.583 78.0162ZM204.39 72.0391L204.536 71.8978L204.39 72.0391ZM207.552 76.2444L207.319 76.2567L207.552 76.2444ZM202.678 78.7794L202.532 78.9208L202.564 78.9248L202.602 78.9216L202.678 78.7794ZM195.262 80.9256L195.408 80.7842L195.142 80.7509L195.028 80.9394L195.262 80.9256ZM191.182 87.6838L190.948 87.6977L190.882 87.806L191.035 87.8252L191.182 87.6838ZM199.683 81.8986L199.86 81.7631L199.683 81.8986ZM203.786 86.1867L203.55 86.2039L203.786 86.1867ZM198.097 88.5498L197.951 88.6911L197.962 88.6925L197.974 88.693L198.097 88.5498ZM188.936 69.4754C189.067 69.2884 189.21 69.0853 189.357 68.8756L188.901 68.8851C188.754 69.0946 188.611 69.2983 188.48 69.486L188.936 69.4754ZM192.839 69.8384L188.854 69.3394L188.562 69.622L192.547 70.1211L192.839 69.8384ZM192.995 72.1374C193.836 70.6472 193.328 69.9891 192.877 69.8464L192.509 70.1131C192.789 70.2017 193.333 70.7376 192.524 72.1723L192.995 72.1374ZM185.149 86.1819C187.421 82.1093 192.171 73.5994 192.995 72.1374L192.524 72.1723C191.699 73.635 186.949 82.1457 184.677 86.2178L185.149 86.1819ZM180.313 85.7835L184.767 86.3412L185.059 86.0585L180.605 85.5008L180.313 85.7835ZM177.637 89.8016L180.685 85.64L180.233 85.6442L177.185 89.8058L177.637 89.8016ZM185.645 90.675L177.557 89.6623L177.265 89.945L185.352 90.9577L185.645 90.675ZM182.479 96.0582L185.731 90.8039L185.265 90.8288L182.013 96.0832L182.479 96.0582ZM186.143 96.399L182.392 95.9294L182.1 96.212L185.851 96.6817L186.143 96.399ZM188.631 91.2578L185.76 96.5598L186.234 96.5209L189.105 91.2189L188.631 91.2578ZM192.414 91.5226L189.014 91.097L188.722 91.3797L192.121 91.8053L192.414 91.5226ZM189.44 97.1337L192.504 91.646L192.031 91.6819L188.968 97.1696L189.44 97.1337ZM193.13 97.4836L189.35 97.0103L189.058 97.293L192.838 97.7663L193.13 97.4836ZM195.584 92.4079L192.747 97.6444L193.221 97.6055L196.058 92.369L195.584 92.4079ZM199.86 92.9797L195.982 92.2494L195.66 92.5275L199.538 93.2578L199.86 92.9797ZM209.694 89.3489C208.066 91.1095 206.09 92.068 204.294 92.563C202.48 93.0629 200.817 93.0991 199.845 92.9774L199.553 93.2601C200.593 93.3903 202.365 93.3535 204.318 92.8152C206.288 92.2721 208.409 91.2274 210.117 89.3798L209.694 89.3489ZM208.675 81.0174C210.154 81.2191 211.447 82.1797 211.846 83.6665C212.243 85.1475 211.745 87.1308 209.694 89.3489L210.117 89.3798C212.237 87.0876 212.75 85.0387 212.34 83.5092C211.931 81.9855 210.599 80.9573 208.974 80.7355L208.675 81.0174ZM215.555 74.2035C215.753 75.5365 214.748 76.9836 213.343 78.1975C211.929 79.4182 210.141 80.3779 208.81 80.7509L208.839 81.0019C210.352 80.5778 212.256 79.536 213.723 78.2691C215.198 76.9954 216.261 75.4688 216.052 74.0598L215.555 74.2035ZM208.604 69.5804C211.573 69.8836 215.155 71.5045 215.555 74.2035L216.052 74.0598C215.639 71.2751 211.962 69.6106 208.884 69.2963L208.604 69.5804ZM211.457 64.2711C211.059 65.0128 210.434 66.1622 209.853 67.1991C209.267 68.2424 208.735 69.156 208.52 69.4376L208.968 69.4392C209.201 69.1339 209.746 68.1961 210.325 67.1637C210.907 66.1249 211.533 64.974 211.932 64.2313L211.457 64.2711ZM207.915 63.9375L211.549 64.3925L211.841 64.1098L208.207 63.6548L207.915 63.9375ZM205.5 68.4987L208.296 63.7813L207.827 63.8111L205.031 68.5284L205.5 68.4987ZM201.954 68.2586L205.119 68.6549L205.412 68.3722L202.247 67.9759L201.954 68.2586ZM204.947 62.788L201.865 68.1336L202.336 68.1009L205.418 62.7554L204.947 62.788ZM201.256 62.4397L205.036 62.913L205.329 62.6304L201.549 62.157L201.256 62.4397ZM198.746 67.4748L201.639 62.2803L201.166 62.3165L198.274 67.511L198.746 67.4748ZM190.521 66.6523L198.364 67.6342L198.656 67.3516L190.814 66.3696L190.521 66.6523ZM189.357 68.8756C189.722 68.3575 190.115 67.7991 190.413 67.3523C190.562 67.1291 190.689 66.9315 190.777 66.7797C190.821 66.7041 190.857 66.6374 190.881 66.5836C190.902 66.5366 190.924 66.4786 190.916 66.4362L190.42 66.5856C190.418 66.579 190.421 66.5895 190.399 66.639C190.379 66.6816 190.349 66.7394 190.307 66.8115C190.223 66.9554 190.101 67.1468 189.953 67.3684C189.657 67.8112 189.267 68.366 188.901 68.8851L189.357 68.8756ZM200.081 71.5455L196.348 78.0326L196.818 77.9998L200.552 71.5127L200.081 71.5455ZM204.536 71.8978L200.463 71.3877L200.17 71.6704L204.243 72.1805L204.536 71.8978ZM207.785 76.2321C208.506 75.0689 208.297 74.0611 207.614 73.3095C206.932 72.5587 205.767 72.0519 204.536 71.8978L204.243 72.1805C205.386 72.3235 206.496 72.8006 207.149 73.5188C207.801 74.2362 207.986 75.1823 207.319 76.2567L207.785 76.2321ZM202.602 78.9216C203.225 78.8685 204.221 78.6711 205.214 78.2485C206.219 77.8208 207.203 77.1696 207.785 76.2321L207.319 76.2567C206.79 77.1092 205.918 77.676 205.055 78.0434C204.179 78.4161 203.293 78.5912 202.754 78.6373L202.602 78.9216ZM196.437 78.1576L202.532 78.9208L202.824 78.6381L196.729 77.8749L196.437 78.1576ZM195.028 80.9394L190.948 87.6977L191.415 87.67L195.496 80.9117L195.028 80.9394ZM199.86 81.7631C197.537 81.136 195.931 80.8497 195.408 80.7842L195.115 81.0669C195.608 81.1286 197.193 81.4096 199.507 82.0341L199.86 81.7631ZM204.022 86.1695C205.519 83.5268 202.746 82.5422 199.86 81.7631L199.507 82.0341C202.416 82.8194 204.937 83.7558 203.55 86.2039L204.022 86.1695ZM197.974 88.693C198.711 88.7246 199.898 88.6413 201.069 88.2756C201.659 88.0913 202.248 87.8342 202.767 87.4841C203.286 87.1341 203.721 86.7003 204.022 86.1695L203.55 86.2039C203.274 86.6912 202.887 87.0695 202.452 87.363C202.017 87.6564 201.521 87.8741 201.01 88.0336C199.979 88.3556 198.899 88.4356 198.22 88.4065L197.974 88.693ZM191.035 87.8252L197.951 88.6911L198.243 88.4084L191.328 87.5425L191.035 87.8252Z" fill="black"/>
</g>
<defs>
<clipPath id="clip0_257_5947">
<rect width="286.75" height="165" rx="12" fill="white"/>
</clipPath>
</defs>
</svg>
