<svg width="287" height="165" viewBox="0 0 287 165" fill="none" xmlns="http://www.w3.org/2000/svg">
<g clip-path="url(#clip0_257_6384)">
<rect x="-0.5" width="286.75" height="165" rx="12" fill="transparent"/>
<path opacity="0.15" d="M289.5 126.939C281.78 124.79 185.571 65.9395 180.999 65.9395C176.428 65.9395 90.8619 118.118 89.7046 118.774C89.7046 118.774 85.0576 120.737 87.9453 123.624C90.8318 126.51 194.502 185.953 200.739 188.955C206.976 191.958 211.286 191.727 218.255 188.955C225.222 186.184 274.185 154.128 279.5 150.939C294.5 141.939 300 132.939 289.5 126.939Z" fill="black"/>
<path d="M282.608 76.5175L285.097 75.0734L285.104 75.0697L285.104 75.0698C285.303 74.965 285.369 74.8295 285.369 74.7434V74.6339C285.34 74.5398 285.26 74.4321 285.098 74.3392L285.098 74.339L235.136 45.4954L282.608 76.5175ZM282.608 76.5175L282.607 76.5177L269.049 84.3473L269.049 84.3473L266.547 85.7914C266.332 85.9153 266.038 85.9824 265.734 85.9824C265.43 85.9824 265.136 85.9153 264.921 85.7914L214.948 56.9356L214.947 56.9351C214.691 56.7894 214.448 56.6307 214.228 56.4726L214.227 56.4718C212.567 55.2994 211.805 53.8716 211.887 52.4959L211.887 52.4939C211.958 51.033 212.962 49.5608 214.948 48.4083C214.948 48.4083 214.948 48.4082 214.948 48.4082L220.002 45.4954L219.913 45.3394L220.002 45.4954C222.085 44.2951 224.823 43.6898 227.57 43.6898C230.316 43.6898 233.053 44.295 235.136 45.4953L282.608 76.5175Z" fill="white" stroke="black" stroke-width="0.36"/>
<path d="M218.11 54.832L218.11 54.832L218.108 54.831C217.638 54.5666 217.274 54.2583 217.031 53.9338L217.031 53.9338L217.027 53.9289C216.573 53.365 216.443 52.7494 216.613 52.1638C216.785 51.5726 217.271 50.983 218.109 50.5007L218.109 50.5007L223.625 47.3264L223.625 47.3262C224.699 46.7048 226.123 46.3888 227.557 46.3888C228.99 46.3888 230.414 46.7048 231.488 47.3262L231.488 47.3263L272.474 70.9787L282.338 76.6727L269.14 84.2954L218.11 54.832Z" fill="white" stroke="black" stroke-width="0.36"/>
<path d="M279.836 93.4421V93.4422V97.5958C279.836 98.0791 279.715 98.4302 279.518 98.6505L279.448 98.7283C279.388 98.7815 279.32 98.828 279.248 98.8671L279.234 98.8745L279.222 98.884L277.399 100.314L276.728 98.0547L276.707 97.9857L276.645 97.9497L269.229 93.6685L226.97 69.2751L226.97 69.2751C226.403 68.9484 225.877 68.378 225.492 67.715C225.107 67.0519 224.874 66.3134 224.874 65.6608V54.8665L224.883 49.4289V49.4286V33.8435C224.883 33.1844 225.112 32.7698 225.431 32.5859C225.749 32.4021 226.22 32.4112 226.788 32.7428L226.788 32.7428L226.789 32.7433L233.093 36.378L233.093 36.3781L242.085 41.5699L242.085 41.57L249.709 45.9787L249.71 45.9788L253.927 48.4107L253.928 48.4107L270.726 58.1019L270.726 58.1021L272.457 59.1042L272.457 59.1044L277.749 62.1553C277.749 62.1554 277.749 62.1555 277.749 62.1555C278.317 62.4867 278.843 63.0571 279.228 63.7199C279.612 64.3828 279.845 65.1215 279.845 65.7792V78.2121V78.2122L279.836 93.4421Z" fill="#7CB90A" stroke="black" stroke-width="0.361402"/>
<path d="M277.233 100.444L277.208 100.464L277.207 100.465L277.192 100.476C276.881 100.715 276.375 100.734 275.764 100.373L275.762 100.372L269.231 96.6008L269.14 96.7572L269.231 96.6007L224.802 70.9601C224.23 70.6286 223.704 70.0581 223.321 69.3953C222.937 68.7326 222.706 67.994 222.706 67.3364V35.5198C222.706 35.3718 222.715 35.2385 222.739 35.1173L222.739 35.1173L222.74 35.1131C222.823 34.63 223.059 34.3357 223.364 34.2153C223.674 34.0928 224.105 34.1309 224.613 34.4195L224.655 34.443H224.663L232.82 39.155L232.82 39.155L240.445 43.5546L249.427 48.7373L249.427 48.7373L266.098 58.3649L266.098 58.3649L270.34 60.8138L270.343 60.8152L270.614 60.9775L270.657 61.0031H270.668L275.582 63.8389C276.149 64.1663 276.672 64.7368 277.055 65.4011C277.437 66.0653 277.668 66.8063 277.668 67.464V99.2714C277.668 99.8464 277.488 100.233 277.233 100.444Z" fill="#A2A2A2" stroke="black" stroke-width="0.361402"/>
<path d="M258.019 62.8621L230.177 46.7889V43.8574L258.019 59.9298V62.8621Z" fill="white"/>
<path d="M273.989 65.5016L273.999 65.5115L272.624 66.8438L270.362 64.8455L270.33 64.8169L270.288 64.806L224.011 52.7243C223.481 52.5856 222.921 52.1701 222.45 51.5887C221.982 51.0098 221.616 50.2843 221.464 49.5533L214.336 15.3894L214.324 15.3306L214.279 15.2909L213.09 14.2406L214.465 12.9138L214.465 12.914L214.471 12.9075C214.481 12.8964 214.491 12.8863 214.499 12.877C214.526 12.8487 214.545 12.8275 214.565 12.8102L214.606 12.7818C214.826 12.6299 215.12 12.5703 215.49 12.6673L215.491 12.6673L264.645 25.5C264.645 25.5 264.645 25.5 264.645 25.5C265.175 25.6387 265.735 26.0543 266.205 26.6356C266.674 27.2145 267.039 27.9399 267.192 28.671L274.47 63.5581C274.653 64.4365 274.475 65.0675 274.131 65.3742L273.989 65.5016Z" fill="#DFDFDF" stroke="black" stroke-width="0.361402"/>
<path d="M271.495 67.1697L271.495 67.1697L222.341 54.337L222.341 54.337C221.811 54.1988 221.251 53.7832 220.781 53.2018C220.312 52.6228 219.947 51.8972 219.794 51.1661L212.516 16.2797L212.516 16.2796C212.362 15.5448 212.458 14.973 212.696 14.6285C212.924 14.2989 213.303 14.1453 213.82 14.2801C213.82 14.2801 213.82 14.2801 213.82 14.2801L262.974 27.1128L262.974 27.1128C263.505 27.2511 264.065 27.6666 264.535 28.2481C265.004 28.827 265.369 29.5527 265.521 30.2837L265.521 30.2838L272.799 65.171C272.953 65.9058 272.857 66.4776 272.619 66.822C272.392 67.1514 272.013 67.305 271.495 67.1697Z" fill="white" stroke="black" stroke-width="0.361402"/>
<path d="M227.647 30.1005L222.77 28.8269C221.506 28.4971 220.201 26.8838 219.854 25.2236L219.697 24.4727C219.351 22.8133 220.095 21.7349 221.36 22.0654L226.236 23.339C227.501 23.6687 228.806 25.2821 229.153 26.9415L229.31 27.6924C229.656 29.3526 228.911 30.4302 227.647 30.1005Z" fill="black"/>
<path d="M263.355 52.839L263.636 52.9124L263.577 52.6281L262.949 49.6182L262.926 49.509L262.818 49.4808L224.212 39.402L223.931 39.3287L223.991 39.6129L224.619 42.6228L224.642 42.732L224.75 42.7602L263.355 52.839Z" stroke="black" stroke-width="0.36"/>
<path d="M256.268 56.2434L256.549 56.3168L256.49 56.0325L255.862 53.0234L255.839 52.9142L255.731 52.886L233.619 47.1129L233.338 47.0396L233.397 47.3239L234.025 50.333L234.048 50.4422L234.156 50.4704L256.268 56.2434Z" stroke="black" stroke-width="0.36"/>
<path d="M269.139 84.5028L266.637 85.947C266.138 86.2337 265.329 86.2337 264.831 85.947L214.858 57.0911C214.596 56.942 214.347 56.7798 214.123 56.6184C212.144 55.1582 211.904 54.5615 212 52.4394L221.917 57.241L269.139 84.5028Z" fill="white"/>
<path d="M285.347 116.644L285.347 116.642L285.384 74.9969C285.358 75.0049 285.332 75.0129 285.306 75.0205C285.283 75.0273 285.261 75.0338 285.242 75.0398C285.183 75.058 285.131 75.0764 285.086 75.0981L282.593 76.5943L282.587 76.598L282.586 76.5979L280.206 77.8983V93.4061V93.4066L280.196 96.5856L280.196 96.6892L280.106 96.741L274.522 99.9653L274.432 100.017L274.342 99.9653L269.049 96.9139L268.959 96.862V96.758V84.8181L266.726 86.1009C266.726 86.1011 266.725 86.1013 266.725 86.1015C266.444 86.2672 266.085 86.3444 265.736 86.3444C265.385 86.3444 265.024 86.2669 264.74 86.1016L214.764 57.2452L214.764 57.245C213.319 56.4086 212.342 55.3806 211.864 54.285V95.339H211.882L211.89 95.5104C211.959 96.9586 212.953 98.4329 214.944 99.5804L214.944 99.5805L264.92 128.436L264.92 128.437C265.137 128.563 265.432 128.631 265.736 128.631C266.039 128.631 266.331 128.563 266.542 128.437L266.545 128.436L269.049 126.998L269.05 126.997L282.605 119.164L282.605 119.164L285.036 117.762L285.347 116.644ZM285.347 116.644C285.348 116.733 285.351 116.814 285.353 116.889M285.347 116.644L285.353 116.889M285.353 116.889L285.354 116.912M285.353 116.889L285.354 116.912M285.354 116.912C285.356 116.978 285.358 117.039 285.359 117.095M285.354 116.912L285.359 117.095M285.359 117.095C285.361 117.222 285.357 117.317 285.342 117.395M285.359 117.095L285.342 117.395M285.342 117.395C285.327 117.47 285.302 117.528 285.26 117.582M285.342 117.395L285.26 117.582M285.26 117.582C285.217 117.637 285.149 117.696 285.037 117.761L285.26 117.582Z" fill="white" stroke="black" stroke-width="0.36"/>
<path d="M279.432 99.1764C279.56 99.1057 279.68 99.015 279.782 98.9042L279.788 98.8977L280.096 98.5904H279.885C279.879 98.5801 279.872 98.5697 279.863 98.5595C279.803 98.4918 279.724 98.498 279.714 98.4988L279.713 98.4989C279.701 98.4997 279.691 98.5016 279.683 98.5034C279.682 98.4895 279.68 98.472 279.68 98.4503L279.83 97.2757C279.83 97.2755 279.83 97.2753 279.83 97.2751C279.845 97.167 279.85 96.9437 279.851 96.6611C279.852 96.3724 279.849 96.007 279.846 95.6056C279.845 95.5465 279.845 95.4867 279.844 95.4262C279.837 94.6628 279.829 93.7941 279.841 93.069H279.841V93.066V78.2452L282.514 76.6615V119.215L269.318 126.842L269.181 96.7416L275.411 100.096C275.515 100.157 275.626 100.227 275.74 100.3C275.964 100.44 276.201 100.59 276.416 100.697C276.583 100.78 276.755 100.848 276.92 100.872C277.081 100.896 277.25 100.878 277.394 100.775C277.413 100.765 277.447 100.745 277.477 100.71L279.432 99.1764Z" fill="#4A7200" stroke="black" stroke-width="0.36"/>
<path d="M288.12 105.716V93.7417C288.111 93.7472 288.102 93.7526 288.092 93.7579L288.12 105.716ZM288.12 105.716L288.095 105.728V105.839C288.095 105.89 288.064 105.978 287.906 106.084L272.959 114.708L288.12 105.716ZM273.14 102.397L288.092 93.7582L271.491 102.397C271.729 102.535 272.027 102.599 272.315 102.599C272.604 102.599 272.901 102.535 273.14 102.397L273.14 102.397ZM255.534 93.2201L271.491 102.397L272.959 114.708C272.786 114.807 272.555 114.862 272.314 114.862C272.074 114.862 271.842 114.807 271.67 114.708L271.67 114.708L253.909 104.498C253.909 104.498 253.909 104.498 253.908 104.498C252.382 103.608 251.434 101.975 251.434 100.198V94.7949C251.434 93.9082 251.915 93.1951 252.596 92.8127L252.716 92.7526C253.328 92.4524 254.053 92.4182 254.733 92.7641L254.751 92.7735L254.772 92.7784C254.778 92.78 254.786 92.783 254.802 92.7909C254.809 92.7946 254.817 92.7987 254.827 92.8041L254.831 92.8062C254.841 92.8115 254.852 92.8177 254.865 92.8241L255.532 93.2189L255.532 93.2189L255.534 93.2201Z" fill="white" stroke="black" stroke-width="0.36"/>
<path d="M288.001 92.7681L285.547 91.3516L285.546 92.9779L285.599 92.9926C285.736 93.0794 285.736 93.2792 285.599 93.3661L272.352 101.009C272.352 100.997 272.352 100.997 272.352 100.997C272.34 100.997 272.327 101.009 272.314 101.009C272.277 101.009 272.252 100.997 272.252 100.997L255.959 91.6198C255.517 91.3646 254.975 91.3546 254.524 91.5929L253.905 91.9211L252.635 92.5913C253.294 92.2677 254.079 92.2301 254.813 92.6036L254.776 92.576L255.623 93.064L271.58 102.241C271.984 102.474 272.645 102.474 273.049 102.241L288.002 93.6021C288.176 93.5021 288.276 93.3776 288.301 93.2408V93.2162C288.312 93.0417 288.213 92.8926 288.001 92.7681Z" fill="#A1A1A1"/>
<path d="M260.112 101.354C260.112 99.2979 258.668 96.7982 256.888 95.77C255.992 95.2527 255.182 95.2078 254.598 95.5505L254.184 95.8193L254.253 95.9371C253.975 96.3269 253.813 96.871 253.813 97.5532C253.813 99.6095 255.257 102.109 257.038 103.137C257.633 103.481 258.188 103.612 258.667 103.564L258.751 103.71L259.128 103.458C259.171 103.434 259.212 103.407 259.253 103.379L259.321 103.337L259.319 103.333C259.812 102.966 260.112 102.288 260.112 101.354Z" fill="#D9D9D9"/>
<path d="M256.314 103.17L256.314 103.17C255.457 102.675 254.672 101.819 254.1 100.829C253.528 99.8385 253.18 98.7304 253.18 97.7413C253.18 96.751 253.526 96.1031 254.034 95.8098C254.543 95.5165 255.277 95.5406 256.134 96.0358C256.99 96.5303 257.776 97.3863 258.348 98.3768C258.92 99.3673 259.268 100.475 259.268 101.464C259.268 102.454 258.922 103.102 258.414 103.395C257.906 103.689 257.171 103.665 256.314 103.17Z" fill="white" stroke="black" stroke-width="0.36"/>
<path d="M235.711 93.195C237.278 93.8441 238.707 93.0045 238.903 91.3196C239.099 89.6348 237.988 87.7427 236.42 87.0936C234.853 86.4445 233.424 87.2842 233.228 88.969C233.033 90.6539 234.144 92.5459 235.711 93.195Z" fill="#F2F2F2" stroke="black" stroke-width="0.36"/>
<path d="M235.378 96.0667C238.42 97.3268 241.195 95.6968 241.575 92.4258C241.955 89.1549 239.797 85.4817 236.755 84.2215C233.712 82.9614 230.938 84.5914 230.558 87.8624C230.177 91.1333 232.336 94.8065 235.378 96.0667ZM238.571 91.1816C238.398 92.669 237.137 93.4102 235.753 92.8372C234.37 92.2642 233.389 90.5939 233.561 89.1066C233.734 87.6192 234.996 86.878 236.379 87.451C237.763 88.024 238.744 89.6943 238.571 91.1816Z" stroke="black" stroke-width="0.36"/>
<path d="M236.259 90.1406L229.392 93.2125V126.642L225.056 128.991" stroke="black" stroke-width="2.52981" stroke-linecap="round"/>
<path d="M91.3369 117.944V112.187L133.724 85.7334C138.098 83.0041 143.631 82.9538 148.053 85.603L258.485 151.76V157.964C258.485 159.381 257.731 160.691 256.505 161.402L216.765 184.463C211.946 187.26 205.999 187.262 201.177 184.47L93.861 122.322C92.2988 121.418 91.3369 119.749 91.3369 117.944Z" fill="#679B07" stroke="black" stroke-width="0.361402"/>
<path d="M256.132 154.672L256.134 154.67C257.863 153.672 258.58 152.33 258.412 150.978C258.242 149.612 257.161 148.169 255.142 147.003L148.272 85.3587L148.271 85.3587C146.256 84.1945 143.715 83.5459 141.238 83.4432C138.759 83.3405 136.364 83.785 134.631 84.7848C134.631 84.785 134.631 84.7852 134.63 84.7855L93.7138 109.293L93.7113 109.294C91.983 110.292 91.2659 111.635 91.4341 112.987C91.604 114.353 92.6844 115.796 94.7038 116.962L201.573 178.606L201.573 178.606C203.589 179.77 206.13 180.419 208.608 180.521C211.087 180.624 213.482 180.18 215.214 179.18C215.215 179.179 215.215 179.179 215.215 179.179L256.132 154.672Z" fill="white" stroke="black" stroke-width="0.361402"/>
<path fill-rule="evenodd" clip-rule="evenodd" d="M129.621 96.1918C130.135 95.8857 130.209 95.2943 129.786 94.8708C129.363 94.4474 128.602 94.3524 128.088 94.6585C127.573 94.9647 127.499 95.5561 127.922 95.9795C128.346 96.4029 129.106 96.498 129.621 96.1918ZM115.043 102.42C114.528 102.726 114.454 103.318 114.878 103.741C115.301 104.165 116.061 104.26 116.576 103.954L126.825 97.8557C127.34 97.5496 127.414 96.9582 126.991 96.5347C126.567 96.1113 125.807 96.0163 125.292 96.3224L115.043 102.42Z" fill="#D9D9D9"/>
<path d="M102.629 116.729L200.338 173.085L246.02 146.339L148.311 89.9816L102.629 116.729Z" fill="#ABE839"/>
<path d="M102.629 116.729L200.338 173.085L246.02 146.339L148.311 89.9816L102.629 116.729Z" stroke="black" stroke-width="0.36"/>
<path d="M102.629 116.729L200.338 173.085L246.02 146.339L148.311 89.9816L102.629 116.729Z" stroke="black" stroke-opacity="0.2" stroke-width="0.36"/>
<path d="M233.767 160.776C235.523 161.789 235.496 163.449 233.707 164.482C231.919 165.514 229.044 165.53 227.288 164.517C225.533 163.503 225.559 161.844 227.349 160.811C229.138 159.777 232.011 159.762 233.767 160.776Z" fill="#E6E6E6"/>
<path d="M232.842 161.311C234.095 162.035 234.077 163.22 232.798 163.958C231.521 164.696 229.468 164.707 228.214 163.982C226.96 163.259 226.978 162.073 228.257 161.336C229.536 160.598 231.587 160.587 232.842 161.311Z" fill="white"/>
<path d="M247.393 155.007L244.596 156.622C243.707 157.135 242.155 157.072 241.13 156.478L240.758 156.264C239.732 155.672 239.62 154.775 240.509 154.262L243.306 152.647C244.195 152.134 245.748 152.199 246.774 152.791L247.144 153.005C248.17 153.598 248.282 154.494 247.393 155.007Z" fill="#E6E6E6"/>
<path d="M156.75 118.691L150.606 121.944L186.747 143.086L192.89 139.472L156.75 118.691Z" fill="black"/>
<path d="M142.391 121.681L142.232 121.766L142.387 121.856L186.702 147.78L186.753 147.81L186.803 147.78L200.849 139.518L200.997 139.431L200.848 139.345L156.88 114.064L156.832 114.036L156.783 114.062L142.391 121.681ZM192.692 139.472L186.747 142.969L150.812 121.948L156.749 118.805L192.692 139.472Z" fill="#74AD09" stroke="black" stroke-width="0.2" stroke-linecap="round"/>
<path d="M169.315 106.217L169.336 106.218L169.356 106.21C171.535 105.302 173.616 103.918 174.791 103.004C177.076 101.227 178.058 98.3105 177.812 94.7337C177.566 91.1574 176.093 86.9092 173.45 82.4423C170.806 77.9732 167.637 74.6929 164.496 72.7802C161.356 70.8684 158.232 70.3167 155.693 71.3326L155.685 71.3354L155.679 71.3393C155.419 71.4928 154.995 71.7151 154.493 71.9774C154.218 72.1215 153.919 72.2777 153.612 72.4413C152.751 72.9001 151.827 73.4151 151.189 73.8711L151.177 73.8793L151.169 73.8904C149.435 76.0759 148.805 79.313 149.168 82.9475C149.531 86.5841 150.889 90.6314 153.149 94.452C155.188 97.8988 157.931 100.813 160.811 102.878C163.689 104.943 166.713 106.166 169.315 106.217Z" fill="#FF8E2B" stroke="black" stroke-width="0.2"/>
<path d="M167.642 85.7526C172.436 93.8565 173.44 102.131 169.884 104.235C166.328 106.339 159.559 101.475 154.765 93.3707C149.97 85.2668 148.967 76.9919 152.523 74.8882C156.079 72.7845 162.848 77.6486 167.642 85.7526Z" fill="#FF8E2B"/>
<path d="M169.808 102.92C171.639 101.837 172.337 99.2931 172.032 96.1117C171.726 92.9216 170.412 89.0508 168.164 85.2519C165.917 81.453 163.157 78.4369 160.509 76.6331C157.867 74.8342 155.302 74.2208 153.471 75.3041C151.64 76.3873 150.942 78.9307 151.247 82.1121C151.552 85.3022 152.867 89.173 155.115 92.9719C157.362 96.7708 160.121 99.787 162.77 101.591C165.412 103.39 167.977 104.003 169.808 102.92Z" fill="#FFBA00" stroke="black" stroke-width="0.2"/>
<path d="M170.703 105.621C172.537 104.536 173.524 102.79 173.991 101.103C174.45 99.4402 174.476 97.6194 174.261 95.8492C173.83 92.2973 172.343 88.22 170.043 84.333C167.744 80.446 164.886 77.1792 161.981 75.0913C160.533 74.0508 158.925 73.1965 157.246 72.7985C155.543 72.3947 153.537 72.4198 151.703 73.5046C149.87 74.5894 148.882 76.3353 148.416 78.0224C147.956 79.6854 147.93 81.5061 148.145 83.2763C148.576 86.8283 150.063 90.9056 152.363 94.7926C154.662 98.6795 157.52 101.946 160.425 104.034C161.873 105.075 163.481 105.929 165.16 106.327C166.863 106.731 168.869 106.706 170.703 105.621ZM167.644 85.9765C170.003 89.9649 171.152 93.8635 171.324 96.9896C171.41 98.5527 171.251 99.9191 170.881 101.006C170.511 102.093 169.932 102.894 169.179 103.339C167.449 104.363 164.921 103.793 162.274 102.047C159.634 100.306 156.911 97.4153 154.816 93.8746C152.719 90.3301 151.171 86.4681 150.734 83.1238C150.297 79.7773 150.973 76.9798 153.282 75.5108C154.028 75.0704 155.028 75.0464 156.192 75.3854C157.354 75.7241 158.665 76.4216 160.014 77.4013C162.713 79.3603 165.549 82.4358 167.644 85.9765Z" fill="#FFDF7D" stroke="black" stroke-width="0.2"/>
<path d="M161.114 82.9788L160.439 83.2475L160.404 82.7312L160.398 82.6485L160.306 82.6092L159.204 82.14L159.162 82.1221L159.131 82.1348L158.179 82.5244L158.145 82.538L158.145 82.5773C158.145 82.6157 158.16 82.6684 158.176 82.7181C158.194 82.7715 158.218 82.8356 158.245 82.9046C158.274 82.9781 158.309 83.0628 158.344 83.149C158.374 83.2207 158.404 83.2933 158.431 83.3614C158.493 83.5173 158.545 83.6568 158.568 83.75C158.572 83.7629 158.574 83.7739 158.576 83.7833L157.114 83.1604L157.071 83.142L157.04 83.1558L156.009 83.6092L155.872 83.6694L156.056 83.779L156.079 83.7014L156.056 83.779L156.056 83.7791L156.056 83.7792L156.057 83.7799L156.061 83.7823L156.077 83.792L156.138 83.8286L156.357 83.9593C156.538 84.0676 156.778 84.212 157.019 84.3567C157.259 84.5015 157.499 84.6464 157.678 84.7557C157.736 84.7916 157.788 84.8235 157.831 84.8502L157.805 84.8725L157.993 84.9528C158.19 85.0365 158.316 85.1494 158.401 85.2658C158.488 85.3834 158.538 85.5128 158.565 85.6319L158.716 87.8622L158.722 87.9444L158.722 87.9444L158.928 90.9995C158.923 91.064 158.906 91.1317 158.864 91.1705C158.827 91.2055 158.767 91.2221 158.647 91.1712L158.393 91.0636L158.399 91.0715C158.353 91.0516 158.303 91.0301 158.253 91.0084C158.152 90.9646 158.051 90.9202 157.974 90.8867L157.882 90.8461L157.856 90.8347L157.85 90.8317L157.848 90.831L157.847 90.8308L157.847 90.8307L157.847 90.8307L157.841 90.9175L157.847 90.8307L157.807 90.813L157.776 90.8232L156.737 91.1646L156.594 91.2115L156.77 91.331L159.121 92.9348L159.135 92.9441L159.149 92.9503C159.306 93.0174 159.46 93.0848 159.614 93.1519C159.69 93.1853 159.767 93.2187 159.843 93.2518L159.952 95.9525L159.961 96.1632L160.127 96.08L161.212 95.5379L161.243 95.5223L161.241 95.4824L161.152 93.8329C161.383 93.9353 161.607 94.0329 161.827 94.127L161.94 96.856L161.949 97.0667L162.115 96.9835L163.199 96.4414L163.229 96.4268L163.229 96.3903L163.229 95.3749C165.385 95.7054 166.3 94.6121 166.271 93.4632C166.285 92.7197 166.113 92.0936 165.791 91.5554C165.507 91.0802 165.112 90.6835 164.646 90.3418C164.89 90.2764 165.086 90.1413 165.212 89.9181C165.367 89.6455 165.415 89.2468 165.331 88.6973L165.321 88.6291L165.32 88.6285C165.195 87.9004 164.842 87.2892 164.339 86.7664C163.842 86.2516 163.206 85.83 162.514 85.4653L162.387 83.5754L162.381 83.4927L162.289 83.4535L161.186 82.9842L161.145 82.9664L161.114 82.9788ZM163.872 92.2261L163.872 92.2261C163.896 92.5728 163.777 92.7552 163.583 92.8391C163.384 92.9249 163.098 92.912 162.772 92.841C162.227 92.7224 161.61 92.4511 161.198 92.2696C161.152 92.2495 161.109 92.2305 161.069 92.2129L160.904 89.7636C160.955 89.7845 161.011 89.8068 161.07 89.8306C161.481 89.9953 162.064 90.2293 162.6 90.56C162.935 90.7667 163.241 91.0052 163.469 91.2791C163.694 91.55 163.848 91.8621 163.872 92.2261ZM163.109 88.2947C163.13 88.6105 163.031 88.7789 162.873 88.8601C162.711 88.943 162.477 88.9406 162.208 88.8867C161.759 88.7966 161.25 88.5714 160.906 88.4191C160.872 88.4042 160.84 88.39 160.81 88.3768L160.661 86.1717C160.7 86.1874 160.741 86.2038 160.785 86.2211C161.127 86.3574 161.608 86.549 162.052 86.8298C162.329 87.0052 162.582 87.2098 162.77 87.4487C162.957 87.6851 163.086 87.9633 163.109 88.2947Z" fill="#FC8F30" stroke="black" stroke-width="0.2"/>
<path d="M156.746 85.2328C156.682 85.2058 156.608 85.1747 156.532 85.1437C156.431 85.1018 156.329 85.0602 156.253 85.0291L156.16 84.9915L156.134 84.981L156.128 84.9783L156.126 84.9776L156.126 84.9774L156.125 84.9774L156.125 84.9774L156.127 84.8887L156.125 84.9774L156.031 84.9391L156.025 84.8542L155.941 83.5777L155.934 83.4767L156.047 83.5245L157.58 84.1745L157.67 84.213L157.671 84.2189C157.836 84.2879 158.004 84.356 158.174 84.4248L158.052 82.5606L158.045 82.4598L158.158 82.5075L159.269 82.9781L159.361 83.0173L159.367 83.1003L159.487 84.9396C159.715 85.0312 159.943 85.1238 160.169 85.2184L160.05 83.4073L160.043 83.3065L160.156 83.3541L161.267 83.8249L161.36 83.8641L161.365 83.9471L161.489 85.8361C162.187 86.2015 162.827 86.6238 163.327 87.1391C163.838 87.6669 164.194 88.2846 164.316 89.021L164.317 89.0217L164.324 89.0711C164.407 89.6206 164.357 90.0192 164.201 90.2915C164.073 90.5143 163.875 90.6491 163.629 90.714C164.098 91.056 164.495 91.453 164.781 91.9284C165.104 92.4674 165.277 93.0942 165.261 93.8384C165.241 94.7665 164.904 95.2364 164.315 95.375C163.755 95.5067 162.983 95.3348 162.093 95.0188L162.217 96.9072L162.224 97.0081L162.111 96.9604L161 96.4897L160.907 96.4505L160.902 96.3675L160.779 94.495C160.556 94.4003 160.329 94.302 160.096 94.199L160.218 96.0605L160.225 96.1615L160.112 96.1137L159.002 95.6432L158.91 95.604L158.904 95.521L158.779 93.6173C158.701 93.5837 158.623 93.5499 158.545 93.516C158.391 93.4488 158.235 93.3811 158.077 93.3139L156.746 85.2328ZM156.746 85.2328L156.74 85.2372L156.93 85.3177C157.129 85.4019 157.256 85.5152 157.342 85.6315C157.429 85.7491 157.479 85.8783 157.506 85.9973M156.746 85.2328L157.506 85.9973M157.506 85.9973L157.653 88.2268L157.658 88.3094L157.658 88.3094L157.859 91.3632C157.854 91.4276 157.836 91.4952 157.794 91.534C157.757 91.5691 157.695 91.5857 157.573 91.5344L157.319 91.4271L157.325 91.435C157.278 91.4149 157.227 91.3931 157.176 91.371C157.075 91.3271 156.972 91.2826 156.896 91.249L156.803 91.2083L156.777 91.1969L156.77 91.1939L156.768 91.1931L156.768 91.1929L156.768 91.1929L156.768 91.1929L156.762 91.2797L156.768 91.1929L156.668 91.149L156.66 91.2329L156.533 92.5666L156.524 92.656L156.631 92.7011L158.077 93.3138L157.506 85.9973ZM162.44 91.6498C162.664 91.9177 162.817 92.2257 162.844 92.5841L162.845 92.5965C162.868 92.9428 162.747 93.1251 162.551 93.2088C162.35 93.2944 162.061 93.281 161.732 93.2096C161.182 93.0901 160.561 92.8179 160.145 92.6359C160.099 92.6157 160.055 92.5966 160.015 92.579L159.854 90.1303C159.906 90.1514 159.962 90.174 160.023 90.198C160.437 90.3632 161.025 90.5981 161.565 90.9295C161.903 91.1367 162.211 91.3756 162.44 91.6498ZM159.618 86.5395C159.657 86.5553 159.699 86.572 159.744 86.5895C160.089 86.7262 160.574 86.9186 161.021 87.2C161.301 87.3759 161.555 87.5808 161.745 87.8199C161.929 88.0526 162.058 88.3255 162.083 88.6497L162.084 88.6654C162.105 88.981 162.005 89.1492 161.845 89.2303C161.681 89.313 161.444 89.3103 161.173 89.256C160.719 89.1652 160.206 88.9392 159.86 88.7865C159.826 88.7716 159.793 88.7573 159.763 88.744L159.618 86.5395Z" fill="#FFDF7D" stroke="black" stroke-width="0.2"/>
<path d="M194.315 93.2172L194.336 93.2177L194.356 93.2096C196.535 92.3017 198.616 90.9183 199.791 90.0044C202.076 88.2273 203.058 85.3105 202.812 81.7337C202.566 78.1574 201.093 73.9092 198.45 69.4423C195.806 64.9732 192.637 61.6929 189.496 59.7802C186.356 57.8684 183.232 57.3167 180.693 58.3326L180.685 58.3354L180.679 58.3393C180.419 58.4928 179.995 58.7151 179.493 58.9774C179.218 59.1215 178.919 59.2777 178.612 59.4413C177.751 59.9001 176.827 60.4151 176.189 60.8711L176.177 60.8793L176.169 60.8904C174.435 63.0759 173.805 66.313 174.168 69.9475C174.531 73.5841 175.889 77.6314 178.149 81.452C180.188 84.8988 182.931 87.8127 185.811 89.8783C188.689 91.9428 191.713 93.1658 194.315 93.2172Z" fill="#FF8E2B" stroke="black" stroke-width="0.2"/>
<path d="M192.642 72.7526C197.436 80.8565 198.44 89.1315 194.884 91.2352C191.328 93.3388 184.559 88.4747 179.765 80.3707C174.97 72.2668 173.967 63.9919 177.523 61.8882C181.079 59.7845 187.848 64.6486 192.642 72.7526Z" fill="#FF8E2B"/>
<path d="M194.808 89.9198C196.639 88.8366 197.337 86.2931 197.032 83.1117C196.726 79.9216 195.412 76.0508 193.164 72.2519C190.917 68.453 188.157 65.4369 185.509 63.6331C182.867 61.8342 180.302 61.2208 178.471 62.3041C176.64 63.3873 175.942 65.9307 176.247 69.1121C176.552 72.3022 177.867 76.173 180.115 79.9719C182.362 83.7708 185.121 86.787 187.77 88.5908C190.412 90.3897 192.977 91.003 194.808 89.9198Z" fill="#FFBA00" stroke="black" stroke-width="0.2"/>
<path d="M195.703 92.6209C197.537 91.5362 198.524 89.7902 198.991 88.1032C199.45 86.4402 199.476 84.6194 199.261 82.8492C198.83 79.2973 197.343 75.22 195.043 71.333C192.744 67.446 189.886 64.1792 186.981 62.0913C185.533 61.0508 183.925 60.1965 182.246 59.7985C180.543 59.3947 178.537 59.4198 176.703 60.5046C174.87 61.5894 173.882 63.3353 173.416 65.0224C172.956 66.6854 172.93 68.5061 173.145 70.2763C173.576 73.8283 175.063 77.9056 177.363 81.7926C179.662 85.6795 182.52 88.9463 185.425 91.0343C186.873 92.0748 188.481 92.929 190.16 93.3271C191.863 93.7309 193.869 93.7057 195.703 92.6209ZM192.644 72.9765C195.003 76.9649 196.152 80.8635 196.324 83.9896C196.41 85.5527 196.251 86.9191 195.881 88.006C195.511 89.0932 194.932 89.8942 194.179 90.3395C192.449 91.3629 189.921 90.7932 187.274 89.0468C184.634 87.3056 181.911 84.4153 179.816 80.8746C177.719 77.3301 176.171 73.4681 175.734 70.1238C175.297 66.7773 175.973 63.9798 178.282 62.5108C179.028 62.0704 180.028 62.0464 181.192 62.3854C182.354 62.7241 183.665 63.4216 185.014 64.4013C187.713 66.3603 190.549 69.4358 192.644 72.9765Z" fill="#FFDF7D" stroke="black" stroke-width="0.2"/>
<path d="M186.114 69.9788L185.439 70.2475L185.404 69.7312L185.398 69.6485L185.306 69.6092L184.204 69.14L184.162 69.1221L184.131 69.1348L183.179 69.5244L183.145 69.538L183.145 69.5773C183.145 69.6157 183.16 69.6684 183.176 69.7181C183.194 69.7715 183.218 69.8356 183.245 69.9046C183.274 69.9781 183.309 70.0628 183.344 70.149C183.374 70.2207 183.404 70.2933 183.431 70.3614C183.493 70.5173 183.545 70.6568 183.568 70.75C183.572 70.7629 183.574 70.7739 183.576 70.7833L182.114 70.1604L182.071 70.142L182.04 70.1558L181.009 70.6092L180.872 70.6694L181.056 70.779L181.079 70.7014L181.056 70.779L181.056 70.7791L181.056 70.7792L181.057 70.7799L181.061 70.7823L181.077 70.792L181.138 70.8286L181.357 70.9593C181.538 71.0676 181.778 71.212 182.019 71.3567C182.259 71.5015 182.499 71.6464 182.678 71.7557C182.736 71.7916 182.788 71.8235 182.831 71.8502L182.805 71.8725L182.993 71.9528C183.19 72.0365 183.316 72.1494 183.401 72.2658C183.488 72.3834 183.538 72.5128 183.565 72.6319L183.716 74.8622L183.722 74.9444L183.722 74.9444L183.928 77.9995C183.923 78.064 183.906 78.1317 183.864 78.1705C183.827 78.2055 183.767 78.2221 183.647 78.1712L183.393 78.0636L183.399 78.0715C183.353 78.0516 183.303 78.0301 183.253 78.0084C183.152 77.9646 183.051 77.9202 182.974 77.8867L182.882 77.8461L182.856 77.8347L182.85 77.8317L182.848 77.831L182.847 77.8308L182.847 77.8307L182.847 77.8307L182.841 77.9175L182.847 77.8307L182.807 77.813L182.776 77.8232L181.737 78.1646L181.594 78.2115L181.77 78.331L184.121 79.9348L184.135 79.9441L184.149 79.9503C184.306 80.0174 184.46 80.0848 184.614 80.1519C184.69 80.1853 184.767 80.2187 184.843 80.2518L184.952 82.9525L184.961 83.1632L185.127 83.08L186.212 82.5379L186.243 82.5223L186.241 82.4824L186.152 80.8329C186.383 80.9353 186.607 81.0329 186.827 81.127L186.94 83.856L186.949 84.0667L187.115 83.9835L188.199 83.4414L188.229 83.4268L188.229 83.3903L188.229 82.3749C190.385 82.7054 191.3 81.6121 191.271 80.4632C191.285 79.7197 191.113 79.0936 190.791 78.5554C190.507 78.0802 190.112 77.6835 189.646 77.3418C189.89 77.2764 190.086 77.1413 190.212 76.9181C190.367 76.6455 190.415 76.2468 190.331 75.6973L190.321 75.6291L190.32 75.6285C190.195 74.9004 189.842 74.2892 189.339 73.7664C188.842 73.2516 188.206 72.83 187.514 72.4653L187.387 70.5754L187.381 70.4927L187.289 70.4535L186.186 69.9842L186.145 69.9664L186.114 69.9788ZM188.872 79.2261L188.872 79.2261C188.896 79.5728 188.777 79.7552 188.583 79.8391C188.384 79.9249 188.098 79.912 187.772 79.841C187.227 79.7224 186.61 79.4511 186.198 79.2696C186.152 79.2495 186.109 79.2305 186.069 79.2129L185.904 76.7636C185.955 76.7845 186.011 76.8068 186.07 76.8306C186.481 76.9953 187.064 77.2293 187.6 77.56C187.935 77.7667 188.241 78.0052 188.469 78.2791C188.694 78.55 188.848 78.8621 188.872 79.2261ZM188.109 75.2947C188.13 75.6105 188.031 75.7789 187.873 75.8601C187.711 75.943 187.477 75.9406 187.208 75.8867C186.759 75.7966 186.25 75.5714 185.906 75.4191C185.872 75.4042 185.84 75.39 185.81 75.3768L185.661 73.1717C185.7 73.1874 185.741 73.2038 185.785 73.2211C186.127 73.3574 186.608 73.549 187.052 73.8298C187.329 74.0052 187.582 74.2098 187.77 74.4487C187.957 74.6851 188.086 74.9633 188.109 75.2947Z" fill="#FC8F30" stroke="black" stroke-width="0.2"/>
<path d="M181.746 72.2328C181.682 72.2058 181.608 72.1747 181.532 72.1437C181.431 72.1018 181.329 72.0602 181.253 72.0291L181.16 71.9915L181.134 71.981L181.128 71.9783L181.126 71.9776L181.126 71.9774L181.125 71.9774L181.125 71.9774L181.127 71.8887L181.125 71.9774L181.031 71.9391L181.025 71.8542L180.941 70.5777L180.934 70.4767L181.047 70.5245L182.58 71.1745L182.67 71.213L182.671 71.2189C182.836 71.2879 183.004 71.356 183.174 71.4248L183.052 69.5606L183.045 69.4598L183.158 69.5075L184.269 69.9781L184.361 70.0173L184.367 70.1003L184.487 71.9396C184.715 72.0312 184.943 72.1238 185.169 72.2184L185.05 70.4073L185.043 70.3065L185.156 70.3541L186.267 70.8249L186.36 70.8641L186.365 70.9471L186.489 72.8361C187.187 73.2015 187.827 73.6238 188.327 74.1391C188.838 74.6669 189.194 75.2846 189.316 76.021L189.317 76.0217L189.324 76.0711C189.407 76.6206 189.357 77.0192 189.201 77.2915C189.073 77.5143 188.875 77.6491 188.629 77.714C189.098 78.056 189.495 78.453 189.781 78.9284C190.104 79.4674 190.277 80.0942 190.261 80.8384C190.241 81.7665 189.904 82.2364 189.315 82.375C188.755 82.5067 187.983 82.3348 187.093 82.0188L187.217 83.9072L187.224 84.0081L187.111 83.9604L186 83.4897L185.907 83.4505L185.902 83.3675L185.779 81.495C185.556 81.4003 185.329 81.302 185.096 81.199L185.218 83.0605L185.225 83.1615L185.112 83.1137L184.002 82.6432L183.91 82.604L183.904 82.521L183.779 80.6173C183.701 80.5837 183.623 80.5499 183.545 80.516C183.391 80.4488 183.235 80.3811 183.077 80.3139L181.746 72.2328ZM181.746 72.2328L181.74 72.2372L181.93 72.3177C182.129 72.4019 182.256 72.5152 182.342 72.6315C182.429 72.7491 182.479 72.8783 182.506 72.9973M181.746 72.2328L182.506 72.9973M182.506 72.9973L182.653 75.2268L182.658 75.3094L182.658 75.3094L182.859 78.3632C182.854 78.4276 182.836 78.4952 182.794 78.534C182.757 78.5691 182.695 78.5857 182.573 78.5344L182.319 78.4271L182.325 78.435C182.278 78.4149 182.227 78.3931 182.176 78.371C182.075 78.3271 181.972 78.2826 181.896 78.249L181.803 78.2083L181.777 78.1969L181.77 78.1939L181.768 78.1931L181.768 78.1929L181.768 78.1929L181.768 78.1929L181.762 78.2797L181.768 78.1929L181.668 78.149L181.66 78.2329L181.533 79.5666L181.524 79.656L181.631 79.7011L183.077 80.3138L182.506 72.9973ZM187.44 78.6498C187.664 78.9177 187.817 79.2257 187.844 79.5841L187.845 79.5965C187.868 79.9428 187.747 80.1251 187.551 80.2088C187.35 80.2944 187.061 80.281 186.732 80.2096C186.182 80.0901 185.561 79.8179 185.145 79.6359C185.099 79.6157 185.055 79.5966 185.015 79.579L184.854 77.1303C184.906 77.1514 184.962 77.174 185.023 77.198C185.437 77.3632 186.025 77.5981 186.565 77.9295C186.903 78.1367 187.211 78.3756 187.44 78.6498ZM184.618 73.5395C184.657 73.5553 184.699 73.572 184.744 73.5895C185.089 73.7262 185.574 73.9186 186.021 74.2C186.301 74.3759 186.555 74.5808 186.745 74.8199C186.929 75.0526 187.058 75.3255 187.083 75.6497L187.084 75.6654C187.105 75.981 187.005 76.1492 186.845 76.2303C186.681 76.313 186.444 76.3103 186.173 76.256C185.719 76.1652 185.206 75.9392 184.86 75.7865C184.826 75.7716 184.793 75.7573 184.763 75.744L184.618 73.5395Z" fill="#FFDF7D" stroke="black" stroke-width="0.2"/>
<mask id="mask0_257_6384" style="mask-type:alpha" maskUnits="userSpaceOnUse" x="148" y="95" width="45" height="49">
<path d="M148.258 117.426L191.807 143.628L192.891 126.823L183.494 108.753L156.931 95.3809L148.258 117.426Z" fill="#D9D9D9"/>
</mask>
<g mask="url(#mask0_257_6384)">
<path d="M182.365 119.493C187.64 128.41 188.231 136.426 183.731 139.926C182.56 140.836 180.487 142.214 178.318 143.117C173.169 143.016 166.3 138.271 162.236 131.401C157.729 123.782 156.826 115.268 160.248 110.953C161.513 110.049 163.922 108.904 164.731 108.426C169.731 106.426 177.09 110.577 182.365 119.493Z" fill="#FF8E2B"/>
<path fill-rule="evenodd" clip-rule="evenodd" d="M164.642 108.245L164.656 108.24C167.235 107.208 170.393 107.774 173.548 109.695C176.706 111.618 179.886 114.911 182.537 119.391C185.184 123.867 186.665 128.13 186.912 131.727C187.16 135.324 186.172 138.279 183.853 140.083C182.673 141.001 180.584 142.39 178.395 143.302L178.356 143.318L178.314 143.317C175.684 143.265 172.641 142.031 169.753 139.96C166.862 137.886 164.11 134.962 162.064 131.503C159.797 127.671 158.434 123.61 158.069 119.957C157.705 116.309 158.335 113.042 160.091 110.828L160.108 110.806L160.131 110.79C160.776 110.329 161.705 109.812 162.566 109.353C162.876 109.188 163.175 109.031 163.451 108.887C163.951 108.626 164.371 108.405 164.628 108.253L164.642 108.245ZM164.73 108.425C169.73 106.425 177.089 110.577 182.364 119.493C187.639 128.41 188.23 136.425 183.73 139.925C182.56 140.836 180.486 142.214 178.318 143.117C173.168 143.015 166.3 138.271 162.236 131.401C157.728 123.781 156.826 115.268 160.247 110.952C161.103 110.341 162.483 109.619 163.536 109.068C164.04 108.805 164.469 108.58 164.73 108.425Z" fill="black"/>
<path d="M176.642 122.755C181.436 130.858 182.44 139.133 178.884 141.237C175.328 143.341 168.559 138.477 163.765 130.373C158.97 122.269 157.967 113.994 161.523 111.89C165.079 109.786 171.848 114.651 176.642 122.755Z" fill="#FF8E2B"/>
<path d="M177.079 122.303C181.562 129.881 182.314 137.73 178.758 139.834C175.202 141.937 168.685 137.499 164.202 129.921C159.718 122.342 158.967 114.494 162.523 112.39C166.079 110.286 172.596 114.724 177.079 122.303Z" fill="#FFBA00"/>
<path fill-rule="evenodd" clip-rule="evenodd" d="M181.132 133.102C181.437 136.292 180.743 138.891 178.859 140.006C176.975 141.12 174.363 140.477 171.714 138.673C169.051 136.86 166.282 133.831 164.029 130.023C161.776 126.214 160.455 122.329 160.148 119.122C159.842 115.931 160.536 113.333 162.42 112.218C164.305 111.103 166.916 111.746 169.565 113.55C172.229 115.364 174.998 118.392 177.251 122.201C179.504 126.01 180.825 129.894 181.132 133.102ZM178.758 139.834C182.314 137.73 181.562 129.881 177.079 122.303C172.595 114.725 166.078 110.286 162.522 112.39C158.966 114.494 159.718 122.343 164.201 129.921C168.684 137.499 175.202 141.937 178.758 139.834Z" fill="black"/>
<path fill-rule="evenodd" clip-rule="evenodd" d="M182.895 138.077C182.434 139.747 181.458 141.467 179.653 142.535C177.848 143.603 175.87 143.63 174.184 143.23C172.522 142.836 170.926 141.989 169.485 140.953C166.593 138.875 163.744 135.62 161.45 131.742C159.156 127.864 157.674 123.8 157.245 120.264C157.032 118.502 157.058 116.696 157.513 115.049C157.974 113.379 158.95 111.659 160.755 110.591C162.56 109.523 164.538 109.496 166.224 109.896C167.886 110.29 169.482 111.137 170.923 112.173C173.815 114.251 176.664 117.506 178.958 121.384C181.252 125.262 182.734 129.326 183.163 132.861C183.376 134.623 183.35 136.43 182.895 138.077ZM178.231 140.426C181.348 138.582 181.464 130.926 176.731 122.926C172.529 115.822 165.348 110.582 162.231 112.426C157.513 115.426 159.529 123.822 163.731 130.926C167.933 138.029 174.665 142.535 178.231 140.426Z" fill="#FFDF7D"/>
<path fill-rule="evenodd" clip-rule="evenodd" d="M183.087 138.13C182.617 139.834 181.617 141.605 179.754 142.707C177.892 143.809 175.858 143.832 174.138 143.424C172.442 143.022 170.822 142.161 169.367 141.115C166.448 139.018 163.582 135.74 161.277 131.843C158.972 127.947 157.479 123.857 157.046 120.288C156.831 118.51 156.856 116.675 157.32 114.996C157.791 113.292 158.791 111.52 160.653 110.419C162.515 109.317 164.549 109.293 166.269 109.701C167.965 110.103 169.585 110.965 171.04 112.01C173.959 114.108 176.825 117.386 179.13 121.282C181.435 125.178 182.928 129.269 183.361 132.837C183.576 134.616 183.552 136.45 183.087 138.13ZM180.224 133.995C180.053 130.888 178.911 127.004 176.558 123.027C174.47 119.498 171.643 116.433 168.956 114.482C167.612 113.507 166.312 112.816 165.164 112.481C164.015 112.147 163.047 112.176 162.335 112.596C160.076 114.034 159.398 116.78 159.834 120.111C160.269 123.437 161.81 127.286 163.903 130.824C165.991 134.353 168.704 137.232 171.329 138.963C173.97 140.705 176.451 141.246 178.129 140.253C178.855 139.824 179.422 139.046 179.787 137.974C180.152 136.902 180.31 135.549 180.224 133.995ZM162.231 112.426C165.347 110.582 172.528 115.822 176.731 122.926C181.463 130.926 181.347 138.582 178.231 140.426C174.665 142.535 167.933 138.029 163.731 130.926C159.528 123.822 157.512 115.426 162.231 112.426ZM179.652 142.535C181.458 141.467 182.433 139.747 182.895 138.077C183.35 136.43 183.376 134.623 183.162 132.861C182.733 129.326 181.252 125.262 178.958 121.384C176.664 117.506 173.815 114.251 170.923 112.173C169.482 111.137 167.885 110.29 166.223 109.896C164.537 109.496 162.56 109.523 160.755 110.591C158.95 111.659 157.974 113.379 157.512 115.049C157.058 116.696 157.031 118.502 157.245 120.264C157.674 123.8 159.155 127.864 161.449 131.742C163.744 135.62 166.592 138.875 169.484 140.953C170.926 141.989 172.522 142.836 174.184 143.23C175.87 143.63 177.847 143.603 179.652 142.535Z" fill="black"/>
<path d="M174.231 125.67C174.01 124.201 172.85 123.246 171.418 122.505L171.286 120.541L170.183 120.072L169.056 120.521C168.766 120.397 169.727 121.741 169.433 121.622L169.303 119.697L168.201 119.228L167.249 119.617C167.249 119.798 167.861 120.999 167.632 120.902L167.632 120.896L166.111 120.248L165.08 120.701C165.08 120.701 167.011 121.855 166.998 121.865C167.445 122.055 167.609 122.399 167.668 122.659L167.819 124.897C167.85 124.91 167.89 124.928 167.936 124.955C167.899 124.939 167.86 124.922 167.82 124.905L168.031 128.039C168.022 128.183 167.956 128.391 167.644 128.259C167.659 128.278 166.842 127.917 166.842 127.917L165.803 128.259L168.154 129.863C168.421 129.977 168.684 130.094 168.942 130.205L169.055 132.989L170.14 132.447L170.046 130.695C170.348 130.831 170.641 130.958 170.927 131.08L171.043 133.893L172.127 133.35L172.127 132.266C174.296 132.628 175.199 131.543 175.17 130.424C175.197 128.959 174.492 128.001 173.422 127.279C174.037 127.198 174.395 126.746 174.231 125.67L174.231 125.67ZM172.975 129.26C173.076 130.745 170.721 129.578 169.973 129.261L169.796 126.629C170.543 126.948 172.871 127.712 172.975 129.26ZM172.212 125.329C172.303 126.679 170.337 125.689 169.715 125.424L169.554 123.038C170.176 123.303 172.116 123.92 172.212 125.329Z" fill="#FC8F30"/>
<path fill-rule="evenodd" clip-rule="evenodd" d="M171.285 120.54L171.418 122.504C172.85 123.245 174.009 124.2 174.23 125.669C174.374 126.617 174.114 127.081 173.629 127.233C173.563 127.253 173.494 127.268 173.421 127.277C173.503 127.333 173.583 127.39 173.66 127.448C174.595 128.149 175.195 129.07 175.169 130.423C175.199 131.542 174.295 132.627 172.127 132.265L172.127 133.349L171.043 133.891L170.926 131.079C170.706 130.985 170.481 130.888 170.25 130.786C170.182 130.756 170.114 130.725 170.045 130.694L170.139 132.446L169.055 132.988L168.942 130.204C168.836 130.158 168.729 130.111 168.621 130.064C168.467 129.997 168.311 129.929 168.154 129.862L165.802 128.258L166.842 127.916C166.842 127.916 167.124 128.041 167.354 128.14C167.383 128.153 167.412 128.165 167.439 128.177C167.546 128.223 167.629 128.257 167.641 128.259C167.642 128.259 167.643 128.259 167.643 128.259C167.643 128.258 167.643 128.259 167.643 128.259C167.726 128.294 167.791 128.304 167.843 128.299C167.986 128.284 168.024 128.144 168.03 128.038L167.819 124.904C167.848 124.916 167.876 124.928 167.903 124.94C167.914 124.944 167.925 124.949 167.935 124.953C167.918 124.943 167.9 124.934 167.885 124.926C167.86 124.914 167.838 124.904 167.819 124.896C167.819 124.896 167.82 124.896 167.819 124.896L167.667 122.658C167.618 122.441 167.496 122.167 167.199 121.972C167.139 121.932 167.072 121.896 166.998 121.864C166.998 121.864 166.998 121.864 166.998 121.864C166.997 121.864 166.996 121.862 166.994 121.861C166.978 121.848 166.907 121.803 166.801 121.738C166.797 121.736 166.793 121.733 166.789 121.731C166.43 121.509 165.695 121.069 165.317 120.842C165.172 120.756 165.08 120.7 165.08 120.7L166.11 120.247L167.631 120.895L167.632 120.901C167.637 120.904 167.642 120.905 167.647 120.906C167.653 120.907 167.659 120.907 167.663 120.905C167.693 120.895 167.686 120.827 167.658 120.728C167.615 120.578 167.523 120.356 167.438 120.147C167.339 119.907 167.248 119.686 167.248 119.616L168.2 119.227L169.302 119.696L169.35 120.402L170.182 120.071L171.285 120.54ZM169.432 121.621C169.438 121.623 169.443 121.625 169.448 121.626C169.52 121.644 169.489 121.542 169.417 121.394L169.432 121.621ZM169.528 120.091L170.108 119.86L171.478 120.443L171.612 122.425C172.281 122.785 172.905 123.204 173.4 123.717C173.91 124.247 174.27 124.863 174.409 125.585L174.412 125.587L174.433 125.723C174.518 126.284 174.47 126.7 174.307 126.987C174.197 127.182 174.037 127.313 173.841 127.392C174.255 127.718 174.611 128.094 174.876 128.537C175.213 129.1 175.387 129.747 175.374 130.502C175.403 131.679 174.477 132.782 172.331 132.482L172.331 133.502L170.856 134.24L170.729 131.173C170.575 131.107 170.419 131.039 170.26 130.969L170.347 132.597L168.868 133.336L168.744 130.297C168.699 130.277 168.653 130.257 168.607 130.237C168.455 130.171 168.302 130.104 168.145 130.037L168.116 130.024L165.387 128.163L166.774 127.707L166.854 127.743L166.889 127.758L166.98 127.799C167.028 127.82 167.086 127.845 167.147 127.872L167.144 127.867L167.651 128.083C167.699 128.103 167.725 128.105 167.74 128.104C167.755 128.103 167.767 128.098 167.779 128.087C167.806 128.062 167.821 128.014 167.826 127.958L167.626 124.991L167.464 122.604C167.438 122.497 167.395 122.389 167.326 122.295C167.259 122.204 167.159 122.112 166.989 122.039L166.612 121.879L166.662 121.837C166.659 121.835 166.656 121.833 166.653 121.831C166.475 121.722 166.235 121.578 165.995 121.433C165.755 121.288 165.514 121.144 165.333 121.036L165.033 120.856L164.665 120.636L166.033 120.035L167.441 120.635C167.415 120.559 167.379 120.464 167.337 120.358C167.311 120.293 167.281 120.22 167.251 120.148C167.215 120.061 167.18 119.973 167.151 119.9C167.123 119.831 167.098 119.764 167.08 119.707C167.063 119.657 167.044 119.59 167.044 119.536L167.044 119.458L168.125 119.016L169.495 119.599L169.528 120.091ZM172.771 129.191C172.748 128.85 172.605 128.564 172.4 128.316C172.189 128.063 171.901 127.836 171.575 127.635C171.052 127.313 170.486 127.086 170.076 126.921C170.054 126.912 170.033 126.904 170.013 126.896L170.166 129.165C170.18 129.171 170.194 129.177 170.209 129.183C170.622 129.365 171.222 129.629 171.752 129.745C172.069 129.814 172.335 129.823 172.513 129.746C172.683 129.672 172.792 129.513 172.771 129.191ZM169.973 129.26L169.795 126.628C169.854 126.653 169.923 126.681 170 126.712C170.021 126.72 170.043 126.729 170.065 126.738C170.988 127.108 172.881 127.867 172.975 129.259C173.067 130.621 171.092 129.752 170.188 129.354C170.107 129.318 170.034 129.286 169.973 129.26ZM171.8 125.768C171.935 125.699 172.027 125.553 172.007 125.259C171.986 124.949 171.866 124.695 171.698 124.482C171.526 124.265 171.292 124.073 171.025 123.904C170.596 123.633 170.134 123.448 169.791 123.312C169.784 123.309 169.777 123.306 169.77 123.304L169.907 125.329C169.91 125.33 169.914 125.332 169.917 125.333C170.262 125.486 170.753 125.703 171.187 125.79C171.445 125.842 171.658 125.841 171.8 125.768ZM169.714 125.423C169.766 125.445 169.827 125.472 169.895 125.503C170.649 125.837 172.294 126.566 172.211 125.328C172.125 124.062 170.549 123.435 169.779 123.128C169.772 123.125 169.765 123.123 169.758 123.12C169.68 123.089 169.611 123.061 169.553 123.036L169.714 125.423Z" fill="black"/>
<path d="M173.223 126.044C173.003 124.575 171.836 123.619 170.392 122.876L170.263 120.913L169.152 120.442L169.278 122.354C168.986 122.23 168.687 122.109 168.391 121.99L168.265 120.066L167.154 119.595L167.283 121.558C167.042 121.461 166.806 121.366 166.576 121.268L166.576 121.262L165.043 120.612L165.127 121.889C165.127 121.889 165.947 122.22 165.934 122.23C166.384 122.421 166.549 122.764 166.608 123.025L166.755 125.261C166.786 125.275 166.826 125.293 166.873 125.319C166.836 125.304 166.796 125.287 166.755 125.27L166.961 128.403C166.951 128.547 166.884 128.755 166.57 128.622C166.585 128.642 165.762 128.28 165.762 128.28L165.635 129.613L167.081 130.226C167.35 130.341 167.615 130.458 167.875 130.57L168.006 132.556L169.116 133.026L168.987 131.061C169.293 131.197 169.588 131.325 169.876 131.447L170.004 133.402L171.115 133.873L170.985 131.891C172.846 132.567 174.12 132.615 174.158 130.797C174.19 129.333 173.481 128.374 172.402 127.65C173.023 127.571 173.385 127.12 173.223 126.044L173.223 126.044L173.223 126.044ZM171.947 129.631C172.045 131.115 169.671 129.945 168.918 129.627L168.745 126.996C169.499 127.315 171.845 128.083 171.947 129.631L171.947 129.631ZM171.186 125.7C171.274 127.05 169.294 126.057 168.666 125.792L168.509 123.406C169.137 123.671 171.093 124.292 171.186 125.7L171.186 125.7Z" fill="#FFDF7D"/>
<path fill-rule="evenodd" clip-rule="evenodd" d="M170.264 120.913L170.393 122.876C171.757 123.578 172.875 124.471 173.179 125.808C173.196 125.885 173.211 125.964 173.223 126.044C173.224 126.052 173.226 126.061 173.227 126.069C173.362 127.001 173.098 127.457 172.612 127.606C172.546 127.627 172.476 127.641 172.403 127.651C172.485 127.706 172.565 127.763 172.643 127.821C173.585 128.524 174.188 129.445 174.159 130.797C174.122 132.548 172.939 132.568 171.19 131.963C171.122 131.94 171.054 131.916 170.985 131.891L171.115 133.873L170.004 133.402L169.876 131.447C169.653 131.352 169.426 131.255 169.193 131.152C169.125 131.122 169.057 131.092 168.988 131.061L169.117 133.026L168.007 132.556L167.876 130.57C167.769 130.524 167.661 130.477 167.552 130.43C167.397 130.362 167.24 130.294 167.081 130.226L165.635 129.614L165.762 128.28C165.762 128.28 166.049 128.406 166.281 128.505C166.31 128.518 166.339 128.53 166.366 128.542C166.473 128.587 166.556 128.621 166.568 128.623C166.569 128.623 166.57 128.623 166.57 128.623C166.57 128.623 166.57 128.623 166.57 128.623C166.653 128.658 166.718 128.669 166.77 128.664C166.916 128.65 166.954 128.51 166.961 128.403L166.756 125.27C166.785 125.282 166.813 125.294 166.841 125.306C166.852 125.311 166.863 125.315 166.873 125.32C166.856 125.31 166.839 125.301 166.823 125.293C166.798 125.28 166.775 125.27 166.756 125.262C166.756 125.262 166.756 125.262 166.756 125.262L166.608 123.025C166.559 122.808 166.436 122.533 166.136 122.337C166.076 122.298 166.009 122.262 165.934 122.23C165.935 122.23 165.935 122.231 165.934 122.23C165.934 122.23 165.933 122.228 165.931 122.227C165.914 122.216 165.834 122.181 165.731 122.137C165.719 122.132 165.707 122.127 165.695 122.122C165.457 122.022 165.127 121.889 165.127 121.889L165.043 120.612L166.576 121.262L166.577 121.269C166.741 121.338 166.908 121.407 167.078 121.475C167.146 121.503 167.214 121.53 167.283 121.558L167.154 119.595L168.265 120.066L168.391 121.99C168.619 122.082 168.847 122.174 169.073 122.268C169.142 122.296 169.21 122.325 169.278 122.354L169.152 120.442L170.264 120.913ZM169.061 122.084L168.935 120.171L170.457 120.816L170.587 122.797C171.261 123.157 171.889 123.577 172.388 124.091C172.911 124.63 173.276 125.259 173.409 125.998L173.411 125.999L173.426 126.098C173.51 126.66 173.461 127.075 173.296 127.362C173.184 127.556 173.023 127.687 172.825 127.765C173.241 128.091 173.599 128.468 173.865 128.911C174.205 129.476 174.379 130.124 174.363 130.88C174.343 131.827 173.998 132.324 173.374 132.471C172.812 132.603 172.055 132.441 171.202 132.146L171.333 134.144L169.811 133.499L169.683 131.543C169.526 131.476 169.367 131.408 169.205 131.337L169.334 133.297L167.814 132.653L167.683 130.665C167.635 130.644 167.587 130.624 167.539 130.603C167.386 130.536 167.231 130.469 167.073 130.402M169.061 122.084C168.902 122.018 168.743 121.953 168.584 121.889L168.458 119.969L166.937 119.325L167.066 121.292C166.965 121.251 166.865 121.21 166.766 121.169L166.765 121.164L164.826 120.341L164.935 121.99L165.124 122.066L165.159 122.08L165.251 122.118C165.328 122.149 165.429 122.19 165.53 122.232C165.537 122.235 165.544 122.238 165.551 122.241L165.547 122.245L165.926 122.406C166.098 122.479 166.2 122.572 166.266 122.662C166.335 122.756 166.379 122.863 166.405 122.971L166.562 125.358L166.757 128.323C166.752 128.379 166.736 128.427 166.71 128.452C166.697 128.463 166.684 128.468 166.669 128.469C166.654 128.47 166.626 128.467 166.577 128.447L166.069 128.232L166.072 128.237C166.01 128.209 165.95 128.184 165.902 128.162L165.809 128.122L165.774 128.106L165.574 128.018L165.414 129.699L167.073 130.402M171.947 129.631C172.037 130.993 170.046 130.121 169.136 129.721C169.054 129.685 168.981 129.653 168.918 129.627L168.746 126.996C168.805 127.021 168.874 127.049 168.951 127.08C168.972 127.089 168.995 127.097 169.018 127.107C169.948 127.478 171.856 128.239 171.947 129.631ZM168.963 127.264L169.112 129.532C169.126 129.538 169.14 129.544 169.155 129.551C169.572 129.733 170.177 129.998 170.712 130.114C171.033 130.184 171.301 130.194 171.482 130.117C171.654 130.043 171.764 129.884 171.743 129.562L171.742 129.55C171.718 129.215 171.576 128.933 171.371 128.689C171.159 128.435 170.869 128.208 170.54 128.006C170.013 127.683 169.443 127.455 169.029 127.29C169.006 127.281 168.984 127.272 168.963 127.264ZM171.186 125.7C171.103 124.434 169.514 123.805 168.738 123.498C168.73 123.495 168.722 123.492 168.715 123.489C168.637 123.458 168.568 123.43 168.51 123.406L168.667 125.792C168.719 125.814 168.78 125.841 168.849 125.872C169.609 126.207 171.267 126.938 171.186 125.7ZM170.981 125.616L170.982 125.631C171.002 125.925 170.909 126.07 170.772 126.14C170.628 126.213 170.413 126.213 170.152 126.16C169.713 126.073 169.218 125.855 168.871 125.702C168.867 125.7 168.863 125.699 168.86 125.697L168.727 123.672C168.735 123.675 168.743 123.679 168.751 123.682C169.096 123.819 169.562 124.004 169.995 124.276C170.264 124.445 170.5 124.637 170.673 124.855C170.839 125.064 170.958 125.313 170.981 125.616Z" fill="black"/>
</g>
</g>
<defs>
<clipPath id="clip0_257_6384">
<rect x="-0.5" width="286.75" height="165" rx="12" fill="white"/>
</clipPath>
</defs>
</svg>
