<svg width="287" height="165" viewBox="0 0 287 165" fill="none" xmlns="http://www.w3.org/2000/svg">
<g clip-path="url(#clip0_257_6470)">
<rect width="286.75" height="165" rx="12" fill="transparent"/>
<path d="M174.034 105.364L169.534 98.8638C163.034 87.8639 148.334 62.6639 141.534 49.8639C134.734 37.0639 141.368 30.8639 145.534 29.3639C148.534 27.6972 157.134 23.1638 167.534 18.3638C177.934 13.5638 184.201 19.6972 186.034 23.3638C196.034 39.5305 216.834 73.3638 220.034 79.3638C223.234 85.3638 220.368 90.1972 218.534 91.8638C213.368 96.5305 200.834 106.664 192.034 109.864C183.234 113.064 176.368 108.197 174.034 105.364Z" fill="#FF8E2B"/>
<path d="M174.034 105.364L169.534 98.8638C163.034 87.8639 148.334 62.6639 141.534 49.8639C134.734 37.0639 141.368 30.8639 145.534 29.3639C148.534 27.6972 157.134 23.1638 167.534 18.3638C177.934 13.5638 184.201 19.6972 186.034 23.3638C196.034 39.5305 216.834 73.3638 220.034 79.3638C223.234 85.3638 220.368 90.1972 218.534 91.8638C213.368 96.5305 200.834 106.664 192.034 109.864C183.234 113.064 176.368 108.197 174.034 105.364Z" stroke="black" stroke-width="0.36"/>
<path d="M174.034 105.364L169.534 98.8638C163.034 87.8639 148.334 62.6639 141.534 49.8639C134.734 37.0639 141.368 30.8639 145.534 29.3639C148.534 27.6972 157.134 23.1638 167.534 18.3638C177.934 13.5638 184.201 19.6972 186.034 23.3638C196.034 39.5305 216.834 73.3638 220.034 79.3638C223.234 85.3638 220.368 90.1972 218.534 91.8638C213.368 96.5305 200.834 106.664 192.034 109.864C183.234 113.064 176.368 108.197 174.034 105.364Z" stroke="#331413" stroke-width="0.36"/>
<path d="M144.464 43.5917C144.869 45.1646 147.376 49.6593 148.579 51.71L156.555 66.7414C159.909 72.513 166.847 84.3479 167.759 85.5149C168.899 86.9737 175.482 96.4873 177.507 99.2779C179.532 102.069 181.242 103.146 182.698 103.909C189.078 107.139 197.004 103.986 200.169 102.005C203.059 100.335 210.056 95.7642 214.918 90.8425C219.779 85.9208 217.45 79.6177 215.677 77.0813L210.487 68.2326L205.296 59.384C198.26 47.9647 191.439 36.3827 183.837 25.3257C179.128 18.4759 172.127 19.1735 169.215 20.3786L153.01 27.4186C151.533 27.9683 147.958 29.8922 145.477 33.1902C142.375 37.3128 143.958 41.6256 144.464 43.5917Z" fill="#FFBA00" stroke="black" stroke-width="0.36"/>
<path d="M176.61 104.102L171.11 96.1016C164.61 85.1016 151.41 63.4016 144.61 50.6016C137.81 37.8016 141.368 30.8639 145.534 29.3639C148.534 27.6972 157.134 23.1638 167.534 18.3638C177.934 13.5638 184.201 19.6972 186.034 23.3638C196.034 39.5305 216.834 73.3638 220.034 79.3638C223.234 85.3638 220.368 90.1972 218.534 91.8638C213.368 96.5305 204.41 104.902 195.61 108.102C186.81 111.302 178.943 106.935 176.61 104.102Z" stroke="black" stroke-width="0.36"/>
<path d="M176.61 104.102L171.11 96.1016C164.61 85.1016 151.41 63.4016 144.61 50.6016C137.81 37.8016 141.368 30.8639 145.534 29.3639C148.534 27.6972 157.134 23.1638 167.534 18.3638C177.934 13.5638 184.201 19.6972 186.034 23.3638C196.034 39.5305 216.834 73.3638 220.034 79.3638C223.234 85.3638 220.368 90.1972 218.534 91.8638C213.368 96.5305 204.41 104.902 195.61 108.102C186.81 111.302 178.943 106.935 176.61 104.102Z" stroke="#331413" stroke-width="0.36"/>
<path d="M157.589 49.728C155.589 50.928 154.423 49.8947 154.089 49.228L150.896 42.8405L150.896 42.5874C150.089 41.228 151.147 40.6641 152.089 40.1616C160.03 35.9285 173.121 28.9622 174.589 28.228C176.189 27.428 177.589 27.5613 178.089 27.728C179.089 28.8947 181.289 31.628 182.089 33.228C182.889 34.828 182.089 35.8947 181.589 36.228C174.423 40.228 159.589 48.528 157.589 49.728Z" fill="#FFE082"/>
<path d="M157.589 55.728C156.389 54.128 156.756 53.0614 157.089 52.728C164.089 49.0614 178.589 41.4147 180.589 40.1616C182.589 38.9085 184.089 39.0171 184.589 39.228C185.589 40.5614 187.789 43.628 188.589 45.228C189.389 46.828 188.589 47.5614 188.089 47.728C181.423 51.3947 167.389 59.128 164.589 60.728C161.789 62.328 161.089 61.728 161.089 61.228C160.423 60.0614 158.789 57.328 157.589 55.728Z" fill="#FFE082"/>
<path d="M164.089 66.228C163.289 65.028 164.089 64.0614 164.589 63.728C170.256 60.5614 182.589 53.728 186.589 51.728C190.589 49.728 191.256 49.8947 191.089 50.228L195.589 56.228C196.789 57.828 195.756 58.8947 195.089 59.228C188.089 63.3947 173.489 72.028 171.089 73.228C168.689 74.428 167.423 73.0614 167.089 72.228C166.423 70.728 164.889 67.428 164.089 66.228Z" fill="#FFE082"/>
<path d="M157.589 49.728C155.589 50.928 154.423 49.8947 154.089 49.228L150.896 42.8405L150.896 42.5874C150.089 41.228 151.147 40.6641 152.089 40.1616C160.03 35.9285 173.121 28.9622 174.589 28.228C176.189 27.428 177.589 27.5613 178.089 27.728C179.089 28.8947 181.289 31.628 182.089 33.228C182.889 34.828 182.089 35.8947 181.589 36.228C174.423 40.228 159.589 48.528 157.589 49.728Z" stroke="black" stroke-width="1.37"/>
<path d="M157.589 49.728C155.589 50.928 154.423 49.8947 154.089 49.228L150.896 42.8405L150.896 42.5874C150.089 41.228 151.147 40.6641 152.089 40.1616C160.03 35.9285 173.121 28.9622 174.589 28.228C176.189 27.428 177.589 27.5613 178.089 27.728C179.089 28.8947 181.289 31.628 182.089 33.228C182.889 34.828 182.089 35.8947 181.589 36.228C174.423 40.228 159.589 48.528 157.589 49.728Z" stroke="#331413" stroke-width="1.37"/>
<path d="M157.589 55.728C156.389 54.128 156.756 53.0614 157.089 52.728C164.089 49.0614 178.589 41.4147 180.589 40.1616C182.589 38.9085 184.089 39.0171 184.589 39.228C185.589 40.5614 187.789 43.628 188.589 45.228C189.389 46.828 188.589 47.5614 188.089 47.728C181.423 51.3947 167.389 59.128 164.589 60.728C161.789 62.328 161.089 61.728 161.089 61.228C160.423 60.0614 158.789 57.328 157.589 55.728Z" stroke="black" stroke-width="1.37"/>
<path d="M157.589 55.728C156.389 54.128 156.756 53.0614 157.089 52.728C164.089 49.0614 178.589 41.4147 180.589 40.1616C182.589 38.9085 184.089 39.0171 184.589 39.228C185.589 40.5614 187.789 43.628 188.589 45.228C189.389 46.828 188.589 47.5614 188.089 47.728C181.423 51.3947 167.389 59.128 164.589 60.728C161.789 62.328 161.089 61.728 161.089 61.228C160.423 60.0614 158.789 57.328 157.589 55.728Z" stroke="#331413" stroke-width="1.37"/>
<path d="M164.089 66.228C163.289 65.028 164.089 64.0614 164.589 63.728C170.256 60.5614 182.589 53.728 186.589 51.728C190.589 49.728 191.256 49.8947 191.089 50.228L195.589 56.228C196.789 57.828 195.756 58.8947 195.089 59.228C188.089 63.3947 173.489 72.028 171.089 73.228C168.689 74.428 167.423 73.0614 167.089 72.228C166.423 70.728 164.889 67.428 164.089 66.228Z" stroke="black" stroke-width="1.37"/>
<path d="M164.089 66.228C163.289 65.028 164.089 64.0614 164.589 63.728C170.256 60.5614 182.589 53.728 186.589 51.728C190.589 49.728 191.256 49.8947 191.089 50.228L195.589 56.228C196.789 57.828 195.756 58.8947 195.089 59.228C188.089 63.3947 173.489 72.028 171.089 73.228C168.689 74.428 167.423 73.0614 167.089 72.228C166.423 70.728 164.889 67.428 164.089 66.228Z" stroke="#331413" stroke-width="1.37"/>
<path d="M181.587 86.1014C179.745 81.9188 185.857 78.7204 187.801 77.3365C190.257 76.1063 197.77 72.4885 199.311 71.7162C201.767 70.4856 205.45 70.4867 206.678 74.3309C207.906 78.1752 203.992 79.9434 200.309 82.3268C197.161 84.3634 193.791 86.4144 191.101 87.6319C188.722 88.7082 183.889 91.3296 181.587 86.1014Z" fill="#C9FF5B"/>
<path d="M154.19 163.418C150.012 153.44 141.707 130.363 141.91 117.881C142.164 102.278 143.557 99.614 147.609 92.6374C151.66 85.6608 157.737 80.8396 163.054 80.2054C168.371 79.5712 169.764 83.3759 167.359 87.5619C165.834 90.2143 163.624 94.2163 161.452 96.9702M161.452 96.9702C160.196 98.5625 158.953 99.7375 157.863 99.9931C157.484 99.2321 159.344 97.6893 161.452 96.9702ZM161.452 96.9702C162.619 96.6248 165.573 96.2765 168.055 97.6464C171.157 99.3589 175.334 104.433 172.929 113.439M200.148 163.418C195.696 155.765 186.412 138.428 184.893 130.31C184.893 130.119 183.595 123.523 182.804 123.238C182.013 122.953 181.475 123.714 181.823 124.158C182.171 124.602 183.184 123.46 184.196 122.572C185.209 121.684 194.451 115.025 197.869 110.521C201.288 106.018 202.237 106.399 203.123 101.008M279.147 163.417C275.603 158.047 267.5 144.923 263.449 135.384C258.385 123.46 253.954 117.879 252.561 115.976C251.169 114.073 246.737 108.238 242.939 106.209C239.141 104.179 235.47 103.291 232.178 102.15C228.887 101.008 222.873 102.72 217.05 94.9826C214.581 91.748 212.239 89.1477 212.239 86.1667C212.239 83.1858 212.175 80.2683 215.783 79.5707C219.392 78.873 218.759 80.1409 221.291 82.107C223.823 84.0732 225.342 86.0404 227.684 82.4887C229.558 79.6473 228.465 75.7657 227.684 74.1801C226.46 71.2838 223.19 65.3007 219.898 64.5396C215.784 63.5883 213.378 64.0946 212.239 64.0312C211.099 63.9678 205.592 63.6497 206.162 58.8295C206.732 54.0092 210.973 53.1208 213.378 52.9305C215.783 52.7403 219.613 53.3107 221.196 53.8181C222.778 54.3255 224.202 54.7704 224.297 56.0706C224.392 57.3707 223 56.8951 222.81 56.4828C222.62 56.0706 222.082 54.6435 222.588 52.5188C223.095 50.3941 225.215 48.4603 227.051 48.2066C228.52 48.0036 230.659 48.8835 231.545 49.3488C232.231 49.7184 233.584 50.6986 233.508 51.6627C233.413 52.8677 232.115 51.4724 232.337 50.5844C232.558 49.6965 232.875 47.6352 235.217 46.2399C237.559 44.8446 241.8 44.971 243.193 45.6054C244.585 46.2399 249.206 49.0623 253.194 53.5019C256.385 57.0537 260.6 61.9584 262.309 63.9669L271.931 76.4614M271.931 76.4614C269.673 77.3493 264.753 79.3281 263.132 80.1399C261.648 80.8835 259.79 81.8314 258.654 83.0584M271.931 76.4614C273.007 76.6199 273.861 75.7091 278.135 79.1886C279.147 80.0131 284.591 86.7995 286.174 89.3998C286.42 89.8038 286.55 90.1967 286.593 90.5723M258.654 83.0584C258.239 83.506 257.921 83.9907 257.752 84.5162C257.245 86.0891 259.187 89.5267 260.221 91.0489L265.601 98.0889C266.487 99.3151 269.184 101.4 272.881 99.9282C276.577 98.4568 282.228 95.2983 284.591 93.9029C285.441 93.3918 286.771 92.1312 286.593 90.5723M258.654 83.0584C257.678 83.7769 255.789 85.8988 256.043 88.6388C256.174 90.0602 257.152 92.0779 258.295 93.9889M286.593 90.5723C287.517 92.1564 287.2 93.5862 286.496 94.7114M286.496 94.7114C285.902 95.662 285.032 96.3953 284.401 96.8204C281.511 98.5329 274.995 102.44 271.298 103.607C268.187 104.589 266.024 103.574 264.988 102.648M286.496 94.7114L289.339 98.7866M264.988 102.648C264.794 102.473 264.639 102.302 264.525 102.148L261.36 98.4695C260.558 97.4419 259.355 95.7614 258.295 93.9889M264.988 102.648C263.747 103.348 260.743 105.56 258.654 108.808C256.565 112.055 255.536 115.657 255.283 117.053C255.135 118.046 254.498 119.837 253.131 119.051C252.561 118.575 251.77 116.133 251.39 115.34C251.01 114.547 247.814 110.266 246.516 109.791C245.218 109.315 249.442 102.933 252.403 99.5794C253.859 97.9303 256.806 95.4084 258.295 93.9889M188.674 55.457C191.357 52.9643 198.276 47.6311 204.481 46.2399C212.239 44.5009 213.948 43.6908 215.277 45.3837C216.606 47.0765 214.087 49.7675 212.239 49.7675C212.999 47.0765 215.378 44.3087 219.368 43.0016C223.358 41.6946 230.802 40.3106 236.327 39.4649C241.852 38.6192 242.619 38.7729 247.07 37.1584C251.52 35.5438 252.134 34.6212 253.976 32.4684M181.806 45.0775C183.507 43.2475 187.722 39.0216 190.976 36.7583C195.043 33.9292 196.923 33.6276 198.649 33.048C200.376 32.4684 202.41 32.4684 202.851 33.2372C203.292 34.0061 202.947 34.8326 202.333 34.5443C201.719 34.256 202.812 32.6221 203.445 31.911C203.952 31.342 204.628 30.841 204.903 30.6616M157.895 33.6217C156.9 32.9297 154.757 30.5001 154.143 26.3176C153.376 21.0894 154.91 18.4373 155.678 16.7838C156.445 15.1304 157.327 14.5918 158.862 15.1304C160.397 15.669 159.438 23.2037 152.838 20.4359C150.229 18.8597 149.347 17.0906 148.695 15.1304C148.042 13.1703 147.697 9.44134 148.196 7.40388C148.695 5.36643 151.035 -1.05346 154.373 -3.39845M187.801 77.3365C185.857 78.7204 179.745 81.9188 181.587 86.1014C183.889 91.3296 188.722 88.7083 191.101 87.6319C193.791 86.4144 197.161 84.3634 200.309 82.3268C203.992 79.9434 207.906 78.1752 206.678 74.3309C205.45 70.4867 201.767 70.4856 199.311 71.7162C197.77 72.4885 190.257 76.1063 187.801 77.3365Z" stroke="black" stroke-width="1.36639"/>
<mask id="mask0_257_6470" style="mask-type:alpha" maskUnits="userSpaceOnUse" x="-116" y="9" width="230" height="229">
<rect x="-23.2461" y="9.60155" width="167.563" height="160.252" transform="rotate(35.1 -23.2461 9.60155)" fill="#D9D9D9"/>
</mask>
<g mask="url(#mask0_257_6470)">
<path d="M41.2151 111.213C46.1666 115.706 53.2152 125.084 55.4678 129.616C44.5244 129.739 35.9353 135.883 30.6497 141.584C28.5055 143.896 26.9049 146.136 25.9114 147.872L25.803 148.026C22.4192 142.852 15.2692 132.236 13.7396 131.161C15.8274 126.754 19.6835 123.864 25.2946 119.658L25.3616 119.608C31.009 115.375 35.8242 113.507 41.2151 111.213Z" fill="#ABE839"/>
<path d="M20.3088 126.01C23.6091 129.704 30.2977 137.992 30.6497 141.584M30.6497 141.584C28.5055 143.896 26.9049 146.136 25.9114 147.872L25.803 148.026C22.4192 142.852 15.2692 132.236 13.7396 131.161C15.8357 126.737 19.7142 123.841 25.3616 119.608C31.009 115.375 35.8242 113.507 41.2151 111.213C46.1666 115.706 53.2152 125.084 55.4678 129.616C44.5244 129.739 35.9353 135.883 30.6497 141.584ZM30.5406 119.516C32.9827 122.138 38.0854 128.108 38.9595 131.008M32.5964 118.426C35.2954 121.46 40.8083 128.077 41.2679 130.28M38.4371 114.836C40.485 116.905 44.6576 121.484 44.9656 123.249M40.2179 113.876C42.882 116.685 48.6474 123.321 50.3965 127.388" stroke="black" stroke-width="0.90761"/>
<path d="M-184.772 -103.645C-190.419 -109.457 -196.977 -111.455 -199.55 -111.727L-212.838 -92.8206C-202.67 -96.2728 -194.266 -93.5453 -188.931 -91.0398C-183.595 -88.5344 -183.858 -85.0789 -183.779 -84.4704C-183.716 -83.9835 -183.447 -79.414 -183.32 -77.1902C-183.206 -75.758 -182.713 -72.9017 -181.658 -72.9343C-180.339 -72.9751 -180.66 -74.3531 -180.94 -74.8725C-181.221 -75.3918 -182.927 -77.8812 -181.719 -78.092C-180.511 -78.3029 -179.371 -75.3359 -179.033 -74.1771C-178.696 -73.0183 -177.746 -72.0745 -176.993 -72.0978C-176.239 -72.1211 -176.169 -73.2699 -176.467 -73.8943C-176.766 -74.5187 -178.431 -75.6893 -179.036 -76.2062C-179.64 -76.7231 -180.062 -78.6788 -179.391 -79.1748C-178.72 -79.6707 -177.146 -76.076 -176.495 -75.2965C-175.845 -74.517 -174.563 -73.063 -173.011 -74.0916C-171.459 -75.1202 -174.945 -77.1095 -176.259 -78.125C-177.572 -79.1405 -179.826 -82.7519 -178.407 -85.1644C-176.988 -87.5769 -175.199 -82.91 -174.829 -82.6499C-174.459 -82.3898 -171.625 -78.5548 -170.141 -79.355C-168.657 -80.1552 -169.558 -80.9722 -171.216 -82.4145C-172.543 -83.5684 -173.251 -85.5953 -173.439 -86.4645C-174.863 -89.7697 -179.125 -97.8329 -184.772 -103.645Z" fill="#ABE839"/>
<path d="M-213.675 -70.9115C-213.391 -72.26 -212.198 -72.6192 -211.662 -72.5955C-211.04 -72.5681 -210.451 -72.1709 -210.073 -71.7092C-209.643 -71.1843 -209.479 -70.4396 -210.238 -69.3601C-210.715 -68.6815 -211.591 -68.5762 -211.954 -68.5734C-212.279 -68.571 -214.03 -69.2259 -213.675 -70.9115Z" fill="#ABE839"/>
<path d="M-208.891 -66.605C-209.973 -67.4919 -210.657 -66.6824 -210.83 -66.4697C-211.002 -66.2569 -211.272 -65.753 -211.089 -65.1661C-210.805 -64.2567 -209.556 -64.0994 -209.219 -64.2546C-208.674 -64.5052 -207.81 -65.7181 -208.891 -66.605Z" fill="#ABE839"/>
<path d="M-201.092 -33.6611C-200.452 -35.0175 -199.55 -35.0194 -199.303 -35.076C-199.055 -35.1327 -197.827 -35.1427 -197.206 -34.1903C-196.43 -32.9998 -196.853 -32.2023 -197.156 -31.7705C-197.578 -31.1702 -198.594 -30.6266 -199.481 -30.7897C-200.216 -30.9246 -201.848 -32.0579 -201.092 -33.6611Z" fill="#ABE839"/>
<path d="M-201.076 -37.8311C-200.777 -38.5057 -200.363 -38.5666 -200.193 -38.5128C-199.59 -38.5031 -198.916 -38.0542 -198.956 -37.4704C-198.996 -36.8866 -199.194 -36.5088 -199.667 -36.3113C-199.841 -36.2388 -199.999 -36.2185 -200.141 -36.2292C-200.321 -36.2428 -200.473 -36.3065 -200.592 -36.3768C-200.745 -36.4668 -200.844 -36.5675 -200.879 -36.5869C-200.961 -36.6334 -201.449 -36.9879 -201.076 -37.8311Z" fill="#ABE839"/>
<path d="M8.30003 90.9821C11.7427 90.4896 13.2412 92.7807 13.5601 93.9878C13.7871 94.6275 14.0886 95.4738 14.4154 96.3859C14.6895 96.6371 14.9145 97.1462 14.9035 97.745C14.888 98.5851 14.4078 99.6017 12.9465 100.33C10.7969 100.813 9.97901 99.7389 9.57125 98.516C9.16351 97.2932 9.75314 96.3479 10.9754 95.6331C12.1977 94.9182 13.7566 95.7823 14.4154 96.3859C14.0886 95.4738 13.7871 94.6275 13.5601 93.9878C13.2412 92.7807 11.7427 90.4896 8.30003 90.9821C4.85742 91.4748 3.82716 93.1068 3.74237 93.8612C3.38561 93.0576 3.18803 91.0572 5.25156 89.4847C7.83098 87.5192 12.7246 85.0145 15.1956 84.908C17.6665 84.8014 20.6834 85.0326 19.6546 86.8898C18.8315 88.3756 16.9139 90.3087 16.0579 91.0894C17.464 90.6185 20.6702 90.0734 22.246 91.6601L29.8614 90.331C32.8114 90.0236 39.4841 89.3713 42.5753 89.2215C46.4392 89.0342 48.0874 87.9347 50.7327 85.4165C53.3781 82.8983 53.0315 79.9822 53.1566 79.1486C53.2817 78.3149 53.0811 74.9946 54.6375 75.0747C56.1939 75.1548 55.3 77.4756 55.2983 78.3959C55.2966 79.3163 54.1158 83.0942 55.2921 83.3219C56.2331 83.504 56.822 80.5113 56.9988 78.9921C57.1865 77.1734 57.7527 73.2646 58.5157 72.1789C59.4695 70.8218 60.0746 72.5833 60.3563 73.8871C60.6379 75.191 59.855 77.6818 58.5385 79.7517C57.222 81.8215 57.3062 83.0786 57.7771 83.9165C58.2481 84.7543 59.1576 83.9191 60.079 81.7559C61.0003 79.5926 60.2593 77.8278 61.3865 76.2239C62.5137 74.6201 63.099 73.7873 64.0044 73.5481C64.9097 73.309 65.172 76.6727 63.8446 79.6103C63.2748 80.8715 62.4098 81.9847 61.4207 83.0592C60.106 84.4876 58.5721 85.8476 57.2209 87.3961C55.3267 89.5667 56.9901 89.1231 58.0586 88.6299C59.3847 87.4423 62.3147 85.1703 63.4258 85.5825C64.5368 85.9947 62.8843 87.7516 61.9191 88.5785C60.9773 89.1742 59.169 90.3406 57.3799 91.5476C56.4377 92.1832 55.5009 92.83 54.6986 93.4106C51.7916 95.5145 49.1906 95.8061 47.5567 95.9018C45.9227 95.9976 42.9708 95.6739 38.5457 96.9874C34.1207 98.3009 28.1709 100.801 26.471 101.449C24.7712 102.097 21.9518 101.913 20.1479 100.415C18.344 98.9166 20.1406 97.7372 21.8338 97.3605C23.5269 96.9838 23.4627 96.6162 23.1827 96.0968C21.9997 94.5281 19.0012 94.8783 17.6499 95.2494C18.8559 94.4075 21.4637 92.511 22.246 91.6601C20.6702 90.0734 17.464 90.6185 16.0579 91.0894C16.9139 90.3087 18.8315 88.3756 19.6546 86.8898C20.6834 85.0326 17.6665 84.8014 15.1956 84.908C12.7246 85.0145 7.83098 87.5192 5.25156 89.4847C3.18803 91.0572 3.38561 93.0576 3.74237 93.8612C3.82716 93.1068 4.85742 91.4748 8.30003 90.9821Z" fill="#ABE839"/>
<path d="M57.7577 158.226C58.5343 158.698 59.2557 159.458 59.8955 160.329C60.9974 160.14 62.1021 159.758 63.4123 158.376C65.1947 156.495 65.174 154.361 61.5894 153.823C63.4077 152.613 65.1868 150.868 66.2064 148.958C67.2261 147.049 68.7839 139.849 59.4915 137.926C58.6053 137.81 56.968 138.042 54.3294 140.288C51.6908 142.535 49.4806 145.221 49.6897 147.349C49.8988 149.477 51.2592 150.295 52.4779 150.921C53.6967 151.548 55.6908 150.415 56.2152 149.931C55.9979 149.978 55.4871 150.264 54.9962 150.272C54.3083 150.284 53.5365 150.087 52.9422 149.163C52.1687 147.959 52.9567 146.339 53.955 145.935C54.9534 145.531 56.0605 145.611 56.8225 146.821C57.5246 147.937 56.7396 149.447 56.2152 149.931C55.6908 150.415 53.6967 151.548 52.4779 150.921C51.2592 150.295 49.8988 149.477 49.6897 147.349C49.4806 145.221 51.6908 142.535 54.3294 140.288C56.968 138.042 58.6053 137.81 59.4915 137.926C68.7839 139.849 67.2261 147.049 66.2064 148.958C65.1868 150.868 63.4077 152.613 61.5894 153.823C65.174 154.361 65.1947 156.495 63.4123 158.376C62.1021 159.758 60.9974 160.14 59.8955 160.329C59.4982 160.398 59.1014 160.441 58.6953 160.498C57.1631 160.711 55.17 159.679 55.0166 159.11C54.8633 158.542 54.8518 156.46 57.7577 158.226Z" fill="#ABE839"/>
<path d="M46.9867 145.196C47.6345 145.934 48.431 145.528 48.79 145.199C49.2093 144.37 49.0898 143.636 48.7738 143.342C48.3699 142.966 47.595 142.79 47.2099 143.141C46.8247 143.492 46.1423 144.234 46.9867 145.196Z" fill="#ABE839"/>
<path d="M20.7916 82.551L20.7986 81.2474C21.6967 81.3256 22.7569 81.3428 23.1347 81.4791C23.7411 81.698 23.8887 82.0782 23.3722 82.4524C22.8557 82.8267 22.2655 83.0109 21.4394 83.0063C20.7784 83.0025 20.7321 82.7012 20.7916 82.551Z" fill="#ABE839"/>
<path d="M-0.190904 166.987C-0.218865 165.392 -0.171429 162.368 0.150736 160.449C1.09938 163.043 1.77672 167.073 0.860217 168.048C-0.0161596 168.98 -0.205696 167.729 -0.190904 166.987Z" fill="#ABE839"/>
<path d="M1.0692 171.881C0.580029 171.869 0.409383 171.279 0.385245 170.986C0.411237 170.851 0.572263 170.569 1.00841 170.525C1.5536 170.471 1.75199 170.91 1.76409 171.056C1.77616 171.203 1.68068 171.896 1.0692 171.881Z" fill="#ABE839"/>
<path d="M-226.523 -66.2676C-226.167 -65.1572 -224.854 -63.0303 -222.452 -63.4063C-220.049 -63.7822 -218.645 -64.233 -218.243 -64.4113C-219.605 -65.1839 -221.356 -67.7971 -217.469 -72.0691C-217.769 -70.0684 -219.113 -68.1561 -216.026 -64.4195C-215.471 -65.2091 -215.006 -65.6076 -214.844 -65.7082C-214.681 -66.0703 -214.265 -66.5453 -213.896 -65.5489C-213.527 -64.5525 -212.16 -62.2709 -211.523 -61.2547C-212.116 -62.3779 -212.561 -65.468 -209.6 -68.8423C-208.353 -70.2236 -207.474 -71.0805 -206.274 -71.804C-205.075 -72.5275 -202.259 -75.1566 -204.358 -79.1199C-206.037 -82.2905 -209.272 -85.1536 -210.679 -86.1888C-208.191 -85.8382 -202.531 -84.8399 -199.791 -83.6512C-196.366 -82.1654 -193.457 -80.0753 -195.284 -79.3777C-197.11 -78.68 -199.568 -79.117 -200.224 -78.3802C-200.245 -77.8786 -198.012 -76.3037 -196.894 -75.5789C-195.457 -74.8916 -192.814 -73.4118 -193.736 -72.991C-194.659 -72.5703 -196.629 -72.6125 -197.498 -72.6862C-198.169 -72.7585 -199.265 -72.6376 -198.279 -71.5758C-197.046 -70.2486 -194.759 -67.5358 -195.475 -66.5179C-196.19 -65.5001 -199.182 -67.6028 -201.067 -68.7892C-200.933 -67.4053 -198.67 -63.7413 -197.597 -62.7109C-196.525 -61.6804 -193.548 -59.8187 -191.629 -58.7465C-189.71 -57.6743 -163.34 -43.7941 -133.387 -67.531M-133.387 -67.531C-134.796 -66.9243 -138.876 -66.6707 -143.919 -70.5098M-133.387 -67.531C-134.515 -65.3137 -135.976 -60.2278 -132.794 -57.6226M-236.16 -58.8489C-233.634 -56.674 -227.443 -52.4092 -222.892 -52.749C-217.202 -53.1738 -215.08 -53.5713 -213.485 -55.9062C-211.89 -58.2411 -210.574 -59.8508 -208.478 -59.6213C-206.381 -59.3919 -206.829 -57.7714 -208.065 -57.258C-209.301 -56.7445 -211.384 -56.2728 -210.453 -55.4341C-209.522 -54.5954 -208.346 -55.6124 -205.442 -56.3358C-202.537 -57.0591 -197.765 -57.1613 -195.912 -55.5364C-194.059 -53.9115 -201.82 -54.3431 -202.382 -54.4615C-202.943 -54.5799 -206.014 -54.3417 -206.768 -53.8583C-207.523 -53.3748 -207.15 -52.7904 -206.32 -52.5294C-205.489 -52.2684 -204.376 -53.3287 -203.487 -52.8885C-202.598 -52.4483 -201.952 -51.5329 -202.647 -51.3304C-203.203 -51.1684 -204.71 -50.7989 -205.394 -50.6345C-205.882 -50.4861 -206.626 -50.1001 -205.698 -49.7425C-204.538 -49.2956 -203.115 -48.8945 -204.408 -47.7759C-205.701 -46.6572 -207.03 -47.9136 -211.052 -47.2386C-214.27 -46.6987 -220.714 -45.4893 -223.533 -44.952C-227.562 -43.8972 -237.625 -42.498 -245.655 -45.3396M-248.169 -41.7618C-245.407 -41.8019 -239.223 -41.5751 -236.584 -40.3471C-233.286 -38.8122 -230.571 -37.3648 -227.478 -34.6844C-224.385 -32.004 -222.42 -29.4246 -221.631 -28.3175C-220.843 -27.2103 -218.186 -22.5326 -215.872 -24.7766C-214.02 -26.5718 -214.363 -29.1531 -214.765 -30.2193C-214.948 -30.7468 -214.904 -31.9756 -213.272 -32.6718C-211.64 -33.3679 -210.394 -33.598 -209.975 -33.6261C-210.376 -32.2031 -210.094 -29.1296 -205.757 -28.2196C-207.27 -30.0662 -208.638 -31.857 -208.437 -35.3558C-207.851 -34.9439 -206.6 -34.7562 -206.188 -35.3423C-205.777 -35.9283 -205.51 -36.5702 -206.029 -37.9949C-206.548 -39.4196 -206.986 -41.6163 -206.335 -42.5416C-205.685 -43.4669 -205.809 -43.5536 -205.315 -43.2068C-204.822 -42.8599 -203.673 -39.3802 -202.928 -38.2114C-202.183 -37.0426 -200.742 -36.0763 -198.59 -35.992C-196.437 -35.9076 -192.212 -36.3475 -188.866 -33.3053C-185.521 -30.2631 -185.513 -28.0456 -186.203 -25.4897C-186.894 -22.9338 -188.531 -19.7527 -191.494 -18.7484C-193.865 -17.945 -195.428 -17.7192 -195.913 -17.7067C-195.245 -17.0836 -194.262 -15.5053 -195.675 -14.1762C-197.442 -12.5149 -198.899 -12.8018 -199.914 -13.1928C-200.93 -13.5839 -203.777 -15.1705 -202.506 -17.9631C-203.951 -17.8732 -206.657 -17.5632 -210.059 -15.346C-213.46 -13.1288 -212.408 -10.8228 -211.77 -8.71536C-211.132 -6.60788 -207.521 -2.04259 -209.445 3.05581C-211.369 8.15422 -215.795 16.2869 -216.079 22.7226C-216.363 29.1582 -216.088 37.553 -208.681 43.404C-201.274 49.255 -195 50.1625 -189.618 49.0608C-184.236 47.9591 -180.912 44.6732 -179.93 37.8991C-178.947 31.125 -180.372 20.1709 -181.919 15.0289C-183.466 9.88686 -182.522 7.23262 -180.096 8.10812C-177.67 8.98361 -169.303 16.6154 -166.797 37.1764C-166.261 31.5627 -166.979 22.4877 -168.599 16.9255C-169.895 12.4758 -172.526 3.10683 -173.68 -1.02144C-173.888 -3.04164 -173.464 -6.54681 -170.103 -4.40578C-165.902 -1.72949 -158.22 9.10672 -157.652 22.5917C-157.425 16.7613 -161.037 -3.9316 -163.534 -9.55718C-166.031 -15.1828 -164.754 -17.787 -162.234 -17.3066C-159.715 -16.8263 -154.754 -11.0354 -152.265 -4.21775C-150.274 1.2364 -143.142 39.5785 -139.825 58.0677C-132.12 101.013 -104.472 133.354 -88.3675 132.109C-70.8182 130.753 -36.593 112.374 -30.9639 108.036C-25.3349 103.699 -19.7442 100.071 -14.6659 102.811C-9.58754 105.55 -12.0319 107.979 -14.0562 110.335C-16.0804 112.691 -26.96 120.435 -30.7033 123.794C-34.4466 127.153 -42.8186 135 -45.8652 142.351C-48.9119 149.702 -48.7404 153.785 -43.0537 158.151C-37.3669 162.516 -33.1187 163.29 -27.2016 163.394C-21.2844 163.498 -16.0755 159.233 -12.5722 155.429C-9.06902 151.624 -5.52391 145.269 -5.10476 135.887C-4.68561 126.505 -1.48089 123.781 0.343192 122.759C2.16728 121.737 6.82568 121.141 8.24372 120.893C9.66176 120.646 10.3145 120.045 9.71352 119.392C9.23272 118.87 6.53881 118.773 5.25194 118.791C5.92888 118.483 7.50286 117.764 8.38321 117.351C9.48364 116.834 11.3544 115.615 10.5992 114.854C9.99501 114.245 7.83035 115.165 6.82355 115.702C5.99962 115.891 4.55355 116.06 5.36057 115.227C6.16759 114.393 8.71697 112.855 9.89079 112.19C10.6783 111.638 11.8915 110.537 10.4436 110.551C8.63375 110.569 4.76636 112.597 3.41744 113.861C2.06852 115.125 0.400287 117.04 -0.589169 116.022C-1.38073 115.207 0.177735 112.767 1.05592 111.648C1.70594 110.877 2.64952 109.368 1.22364 109.508C-0.558696 109.684 -3.73765 113.486 -4.38461 114.276C-5.03158 115.065 -6.05063 119.924 -8.60602 123.888C-11.1614 127.852 -16.6439 134.735 -17.9253 136.23C-19.2067 137.726 -20.9841 138.55 -21.7477 137.276C-22.5112 136.002 -23.1996 134.228 -22.3867 132.219C-21.5737 130.21 -18.0653 123.645 -11.737 121.918M11.7379 115.331C13.2271 115.026 16.1348 113.547 15.8523 110.067C13.1981 109.123 11.7967 108.691 10.4614 106.002C13.4157 108.355 14.8662 108.913 16.7411 108.803C16.7964 108.252 16.7481 107.241 16.717 106.804C18.4326 107.073 22.1957 106.877 23.5231 103.939C21.3848 104.556 18.672 105.137 16.5773 102.283C16.2217 101.4 15.2384 98.6837 14.4154 96.3859M22.246 91.6601C20.6702 90.0734 17.464 90.6185 16.0579 91.0894C16.9139 90.3087 18.8315 88.3756 19.6546 86.8898C20.6834 85.0326 17.6665 84.8014 15.1956 84.9079C12.7246 85.0145 7.831 87.5192 5.25157 89.4847C3.18802 91.0572 3.38562 93.0576 3.74236 93.8612C3.82717 93.1068 4.85741 91.4747 8.30004 90.9822C11.7427 90.4896 13.2412 92.7807 13.5601 93.9878C13.7871 94.6275 14.0886 95.4738 14.4154 96.3859M22.246 91.6601C21.4637 92.511 18.8559 94.4075 17.6499 95.2494C19.0012 94.8783 21.9997 94.5281 23.1827 96.0968C23.4627 96.6162 23.5269 96.9838 21.8338 97.3605C20.1406 97.7372 18.344 98.9166 20.1479 100.415C21.9518 101.913 24.7712 102.097 26.471 101.449C28.1709 100.801 34.1207 98.3009 38.5457 96.9874C42.9708 95.6739 45.9227 95.9976 47.5567 95.9018C49.1906 95.8061 51.7916 95.5145 54.6986 93.4106C55.5009 92.83 56.4377 92.1832 57.3799 91.5476M22.246 91.6601L29.8614 90.331C32.8114 90.0236 39.4841 89.3713 42.5753 89.2215C46.4392 89.0342 48.0874 87.9348 50.7327 85.4165C53.3781 82.8983 53.0315 79.9822 53.1566 79.1486C53.2817 78.3149 53.0811 74.9945 54.6375 75.0747C56.1939 75.1548 55.3 77.4756 55.2983 78.3959C55.2965 79.3163 54.1158 83.0942 55.2921 83.3219C56.2331 83.5041 56.822 80.5113 56.9988 78.9921C57.1865 77.1734 57.7527 73.2646 58.5157 72.1789C59.4695 70.8218 60.0746 72.5833 60.3563 73.8871C60.638 75.191 59.855 77.6818 58.5385 79.7517C57.222 81.8215 57.3062 83.0787 57.7771 83.9165C58.2481 84.7543 59.1576 83.9191 60.079 81.7559C61.0003 79.5926 60.2593 77.8278 61.3865 76.2239C62.5137 74.6201 63.099 73.7873 64.0044 73.5481C64.9097 73.309 65.172 76.6727 63.8446 79.6103C63.2748 80.8715 62.4098 81.9847 61.4207 83.0592M61.4207 83.0592C60.106 84.4876 58.5721 85.8476 57.2209 87.3961C55.3267 89.5667 56.9901 89.1231 58.0586 88.6299C59.3847 87.4423 62.3147 85.1703 63.4258 85.5825C64.5368 85.9948 62.8843 87.7516 61.9191 88.5785C60.9773 89.1742 59.169 90.3406 57.3799 91.5476M61.4207 83.0592C61.8398 83.4026 63.1676 83.5764 65.1258 81.5245C67.5736 78.9595 69.3368 77.4341 71.6761 76.7282C74.0153 76.0222 74.8522 77.7163 73.4724 78.9583C72.0926 80.2003 69.6785 81.4063 67.8044 82.7616C65.9302 84.117 64.4843 85.9121 65.3689 86.9482C66.2534 87.9843 67.0055 85.4717 68.5612 84.3072C70.1168 83.1428 71.5101 81.357 73.4474 80.8297C75.3847 80.3023 75.2323 80.978 75.5248 81.4142C75.8172 81.8503 75.7829 83.6694 73.076 84.4394C70.3692 85.2095 66.8626 89.1499 66.259 89.8776C65.6554 90.6053 66.5716 91.2029 67.6137 90.5069C68.6558 89.8109 71.8163 87.6087 72.6942 87.2119C73.572 86.8152 74.2457 86.6433 74.3431 87.3571C74.4404 88.0709 74.1205 89.1818 71.9236 91.3242C69.7266 93.4667 68.0002 95.202 67.2981 97.3811C66.596 99.5602 65.9022 102.252 67.5159 106.381C69.1295 110.51 70.5598 113.589 76.0382 117.071C81.5166 120.552 84.0685 120.134 86.9103 121.532C89.1837 122.651 90.7156 124.007 91.1974 124.545M57.3799 91.5476C56.6648 93.5535 55.3235 98.1992 55.6794 100.735C56.1244 103.904 55.2781 105.567 57.501 110.862C59.7239 116.157 61.0726 118.303 61.5392 121.441C62.0058 124.58 62.8041 130.394 61.5391 134.619C60.5272 138 60.5099 138.335 60.6277 138.08M62.5373 165.456C61.9127 163.635 60.0824 159.639 57.7577 158.226C54.8518 156.46 54.8633 158.542 55.0166 159.11C55.17 159.679 57.1631 160.711 58.6954 160.498C60.2276 160.285 61.6298 160.256 63.4123 158.376C65.1947 156.495 65.174 154.361 61.5894 153.823C63.4077 152.613 65.1868 150.868 66.2064 148.958C67.2261 147.049 68.7839 139.849 59.4915 137.926C58.6053 137.81 56.968 138.042 54.3294 140.288C51.6908 142.535 49.4806 145.221 49.6897 147.349C49.8988 149.477 51.2592 150.295 52.4779 150.921C53.6967 151.548 55.6908 150.415 56.2152 149.931M56.2152 149.931C56.7396 149.447 57.5246 147.937 56.8225 146.821C56.0605 145.611 54.9534 145.531 53.9551 145.935C52.9567 146.339 52.1687 147.959 52.9422 149.163C53.5365 150.087 54.3083 150.284 54.9962 150.272C55.4871 150.264 55.9979 149.978 56.2152 149.931ZM48.8337 145.158C48.4995 145.491 47.6622 145.966 46.9867 145.196C46.1423 144.234 46.8247 143.492 47.2099 143.141C47.595 142.79 48.3699 142.966 48.7738 143.342C49.1777 143.718 49.2605 144.813 48.308 145.906C47.3555 146.999 47.0203 147.869 44.8291 147.873C43.0761 147.876 42.3853 148.083 42.259 148.186C42.5252 148.703 43.2915 149.916 44.2278 150.629C45.3982 151.521 46.9898 152.617 48.6247 152.798C49.9327 152.943 51.9289 153.293 52.7635 153.449C51.772 154.603 49.2529 156.723 47.1085 155.972C44.9641 155.22 43.6187 153.496 43.214 152.728C42.6366 153.735 41.5346 156.114 41.7456 157.571C42.0093 159.392 42.0859 160.528 43.2417 161.801C44.1663 162.82 46.8539 163.557 48.0821 163.798C45.4028 167.129 38.9299 173.765 34.473 173.655C28.9018 173.518 23.9786 170.427 24.1374 164.824C24.2644 160.343 27.8792 150.19 29.6708 145.674M38.7603 186.437C38.1177 184.357 36.8718 179.709 37.0287 177.755C37.1855 175.801 37.0945 171.258 37.0293 169.231L39.3072 151.894C39.4208 148.411 39.5503 140.744 39.159 137.944C39.1465 137.855 39.1337 137.763 39.1203 137.668M15.0288 132.481C14.6442 132.81 13.6221 133.63 12.6103 134.283C16.0314 136.365 23.0867 145.471 24.6712 148.658C25.9388 151.207 26.8161 149.474 27.0963 148.289C27.8136 146.765 29.3568 143.472 29.791 142.487C30.3338 141.256 28.9469 138.116 28.9135 137.77C28.8802 137.424 26.7122 134.149 27.5142 133.008C28.3163 131.867 29.5883 133.728 30.1126 134.097C30.6369 134.465 31.2019 137.858 32.0755 138.909C32.9491 139.961 33.3092 139.776 33.0417 138.321C32.7742 136.866 32.0537 134.482 31.7532 133.729C31.4527 132.977 29.6511 129.902 29.8345 129.248C31.2126 128.074 32.2878 130.281 33.8457 132.85C35.4036 135.419 34.8008 137.392 35.7902 138.41C36.7797 139.428 36.9269 137.907 36.9941 137.09C37.0613 136.273 35.2463 132.037 34.6037 130.526C33.9611 129.015 33.4494 126.858 34.7257 126.419C37.4198 126.291 38.6089 134.034 39.1203 137.668M39.1203 137.668C41.2066 136.383 46.2184 133.878 49.5756 134.137C52.9328 134.395 54.1614 134.365 54.3561 134.317L52.1985 130.405M20.7988 81.1968L20.7916 82.551C20.7322 82.7012 20.7784 83.0025 21.4393 83.0062C22.2655 83.0109 22.8557 82.8267 23.3722 82.4524C23.8887 82.0782 23.7411 81.698 23.1347 81.4791C22.5282 81.2603 20.1623 81.3485 19.533 80.9983C18.9036 80.6481 18.2643 79.8532 18.5586 79.3689C18.8529 78.8846 19.0896 78.6132 20.1133 78.6646C21.1371 78.7159 23.6066 79.2996 24.0514 79.2897C24.4962 79.2797 25.6799 78.7754 24.7993 78.2256C23.9186 77.6757 22.2425 77.9953 21.6081 77.849C20.9737 77.7026 19.3098 77.3165 19.4703 76.5308C19.6309 75.7451 19.4759 75.2445 21.3874 75.3439C23.2989 75.4432 25.8023 76.1428 27.1174 75.6156C28.4325 75.0884 29.5851 73.0878 29.308 71.8102C29.031 70.5326 28.5063 68.6894 26.1793 67.8373C23.8522 66.9851 22.4466 68.0016 21.6592 68.7614C20.8718 69.5213 21.0946 71.7283 21.1817 72.2273C21.2514 72.6264 21.6955 73.5176 21.9089 73.9134L24.4072 69.9325C24.7129 69.9784 25.282 70.2155 25.1129 70.797C24.9438 71.3786 24.6066 72.315 24.4591 72.7106C24.8678 72.4679 25.8916 72.0493 26.7175 72.3165C27.7499 72.6504 26.7386 73.3681 25.7028 74.0224C24.8741 74.5459 24.044 74.7765 23.7325 74.8263M44.713 190.62L27.3792 178.438C26.3848 177.34 23.7734 175.701 21.2837 177.932C18.7939 180.164 8.82917 188.901 4.15799 192.99L29.7577 210.982L-17.1238 178.033C-18.018 177.251 -20.6716 176 -24.133 177.254M2.85449 165.211C4.2646 163.16 6.2669 158.467 2.9952 156.094C2.0382 155.882 1.33115 157.413 0.515736 159.097C-0.136596 160.445 -0.227167 164.919 -0.190914 166.987C-0.205701 167.729 -0.0161698 168.98 0.860223 168.048C1.95571 166.883 0.774042 161.352 -0.426241 159.126C-1.62652 156.901 -2.49919 154.536 -4.7443 156.092C-6.54039 157.336 -4.88173 162.385 -3.82791 164.753C-3.04717 166.177 -1.41686 169.203 -1.14147 169.913C-0.866088 170.622 -0.056892 173.44 0.313288 174.76M2.3127 175.75L2.49988 169.846C2.49991 169.561 2.29636 169.021 1.48205 169.13C0.667742 169.24 0.209624 169.411 0.0823502 169.483L0.385245 170.986M0.385245 170.986C0.409395 171.279 0.580021 171.869 1.06921 171.881C1.68069 171.896 1.77617 171.203 1.76408 171.056C1.75199 170.91 1.55361 170.471 1.00841 170.525C0.572258 170.569 0.411237 170.851 0.385245 170.986ZM6.55899 179.149L16.9384 171.33L18.7406 173.749L9.24235 181.035L8.19372 180.298L17.2709 173.546M14.4154 96.3859C13.7566 95.7823 12.1977 94.9182 10.9754 95.6331C9.75313 96.3479 9.16351 97.2932 9.57125 98.516C9.979 99.7389 10.7969 100.813 12.9465 100.33C15.4492 99.0827 15.0741 96.9896 14.4154 96.3859ZM-199.55 -111.727C-196.977 -111.455 -190.419 -109.457 -184.772 -103.645C-179.125 -97.8329 -174.863 -89.7697 -173.439 -86.4645C-173.251 -85.5953 -172.543 -83.5684 -171.216 -82.4145C-169.558 -80.9722 -168.657 -80.1552 -170.141 -79.355C-171.625 -78.5548 -174.459 -82.3898 -174.829 -82.6499C-175.199 -82.91 -176.988 -87.5768 -178.407 -85.1644C-179.826 -82.7519 -177.572 -79.1405 -176.259 -78.125C-174.945 -77.1095 -171.459 -75.1202 -173.011 -74.0916C-174.563 -73.063 -175.845 -74.517 -176.495 -75.2965C-177.146 -76.076 -178.72 -79.6707 -179.391 -79.1748C-180.062 -78.6788 -179.64 -76.7231 -179.036 -76.2062C-178.431 -75.6893 -176.766 -74.5187 -176.467 -73.8943C-176.169 -73.2699 -176.239 -72.1211 -176.993 -72.0978C-177.746 -72.0745 -178.696 -73.0183 -179.033 -74.1771C-179.371 -75.3359 -180.511 -78.3029 -181.719 -78.092C-182.927 -77.8812 -181.221 -75.3918 -180.94 -74.8725C-180.66 -74.3531 -180.339 -72.9751 -181.658 -72.9343C-182.713 -72.9017 -183.206 -75.758 -183.32 -77.1902C-183.447 -79.414 -183.716 -83.9835 -183.779 -84.4704C-183.858 -85.0789 -183.595 -88.5344 -188.931 -91.0398C-194.266 -93.5453 -202.67 -96.2728 -212.838 -92.8206L-199.55 -111.727ZM-211.662 -72.5955C-212.198 -72.6192 -213.391 -72.26 -213.675 -70.9115C-214.03 -69.2259 -212.279 -68.571 -211.954 -68.5734C-211.591 -68.5762 -210.715 -68.6815 -210.238 -69.3601C-209.479 -70.4396 -209.643 -71.1843 -210.073 -71.7092C-210.451 -72.1709 -211.04 -72.5681 -211.662 -72.5955ZM-210.83 -66.4697C-210.657 -66.6824 -209.973 -67.4919 -208.891 -66.605C-207.81 -65.7181 -208.674 -64.5052 -209.219 -64.2546C-209.556 -64.0994 -210.805 -64.2567 -211.089 -65.1661C-211.272 -65.753 -211.002 -66.2569 -210.83 -66.4697ZM-199.303 -35.076C-199.55 -35.0194 -200.452 -35.0175 -201.092 -33.6611C-201.848 -32.0579 -200.216 -30.9246 -199.481 -30.7897C-198.594 -30.6266 -197.578 -31.1702 -197.156 -31.7705C-196.853 -32.2023 -196.43 -32.9998 -197.206 -34.1903C-197.827 -35.1427 -199.055 -35.1327 -199.303 -35.076ZM-200.193 -38.5128C-200.363 -38.5666 -200.777 -38.5057 -201.076 -37.8311C-201.449 -36.9879 -200.961 -36.6334 -200.879 -36.5869C-200.796 -36.5404 -200.344 -36.0284 -199.667 -36.3113C-199.194 -36.5088 -198.996 -36.8866 -198.956 -37.4704C-198.916 -38.0542 -199.59 -38.5031 -200.193 -38.5128Z" stroke="black" stroke-width="0.90761"/>
<path d="M9.34766 160.881L3.17669 177.003L4.65749 178.044L10.9513 162.008L9.34766 160.881Z" fill="#ABE839" stroke="black" stroke-width="0.90761"/>
<path d="M38.7853 61.2497L47.2569 72.4C47.3947 72.5814 47.652 72.6203 47.8373 72.4876C48.0159 72.3598 48.0662 72.1162 47.9529 71.928L40.7305 59.9309C40.3888 59.3633 39.6462 59.1895 39.0882 59.5465C38.5092 59.9169 38.3695 60.7025 38.7853 61.2497Z" fill="#ABE839"/>
<path d="M37.4707 76.0516L42.7948 79.4371C42.9279 79.5217 43.0001 79.6756 42.9802 79.832C42.9491 80.0768 42.7091 80.2379 42.4708 80.174L36.3768 78.5395C35.6754 78.3513 35.2412 77.65 35.3857 76.9383C35.5774 75.9933 36.657 75.5342 37.4707 76.0516Z" fill="#ABE839"/>
<path d="M87.9905 84.0845L79.8629 83.9324C79.7162 83.9296 79.5819 83.8498 79.5094 83.7222C79.3724 83.4809 79.5059 83.1757 79.7761 83.1125L87.6918 81.2624C88.3534 81.1078 89.0324 81.44 89.3163 82.0572C89.757 83.0151 89.0447 84.1042 87.9905 84.0845Z" fill="#ABE839"/>
<path d="M92.5813 94.1536L76.5936 90.8493C76.471 90.824 76.3433 90.8473 76.2376 90.9145C75.8986 91.1297 75.9561 91.6408 76.3343 91.7755L91.7143 97.2513C92.4891 97.5271 93.3474 97.1755 93.706 96.4352C94.1638 95.4899 93.6099 94.3662 92.5813 94.1536Z" fill="#ABE839"/>
<path d="M77.8733 104.021L73.4354 97.6158C73.3087 97.4329 73.074 97.3595 72.8657 97.4375C72.613 97.532 72.4857 97.8144 72.5822 98.0663L75.3697 105.343C75.6341 106.033 76.382 106.407 77.0927 106.204C78.0321 105.936 78.4297 104.824 77.8733 104.021Z" fill="#ABE839"/>
<path d="M38.7853 61.2497L47.2569 72.4C47.3947 72.5814 47.652 72.6203 47.8373 72.4876C48.0159 72.3598 48.0662 72.1162 47.9529 71.928L40.7305 59.9309C40.3888 59.3633 39.6462 59.1895 39.0882 59.5465C38.5092 59.9169 38.3695 60.7025 38.7853 61.2497Z" stroke="black" stroke-width="0.90761"/>
<path d="M37.4707 76.0516L42.7948 79.4371C42.9279 79.5217 43.0001 79.6756 42.9802 79.832C42.9491 80.0768 42.7091 80.2379 42.4708 80.174L36.3768 78.5395C35.6754 78.3513 35.2412 77.65 35.3857 76.9383C35.5774 75.9933 36.657 75.5342 37.4707 76.0516Z" stroke="black" stroke-width="0.90761"/>
<path d="M87.9905 84.0845L79.8629 83.9324C79.7162 83.9296 79.5819 83.8498 79.5094 83.7222C79.3724 83.4809 79.5059 83.1757 79.7761 83.1125L87.6918 81.2624C88.3534 81.1078 89.0324 81.44 89.3163 82.0572C89.757 83.0151 89.0447 84.1042 87.9905 84.0845Z" stroke="black" stroke-width="0.90761"/>
<path d="M92.5813 94.1536L76.5936 90.8493C76.471 90.824 76.3433 90.8473 76.2376 90.9145C75.8986 91.1297 75.9561 91.6408 76.3343 91.7755L91.7143 97.2513C92.4891 97.5271 93.3474 97.1755 93.706 96.4352C94.1638 95.4899 93.6099 94.3662 92.5813 94.1536Z" stroke="black" stroke-width="0.90761"/>
<path d="M77.8733 104.021L73.4354 97.6158C73.3087 97.4329 73.074 97.3595 72.8657 97.4375C72.613 97.532 72.4857 97.8144 72.5822 98.0663L75.3697 105.343C75.6341 106.033 76.382 106.407 77.0927 106.204C78.0321 105.936 78.4297 104.824 77.8733 104.021Z" stroke="black" stroke-width="0.90761"/>
</g>
</g>
<defs>
<clipPath id="clip0_257_6470">
<rect width="286.75" height="165" rx="12" fill="white"/>
</clipPath>
</defs>
</svg>
