<svg width="287" height="165" viewBox="0 0 287 165" fill="none" xmlns="http://www.w3.org/2000/svg">
<g clip-path="url(#clip0_257_6312)">
<rect width="286.75" height="165" rx="12" fill="transparent"/>
<path d="M94.3455 123.012C89.5085 117.411 94.4516 114.314 97.5278 113.465C157.248 102.168 278.024 79.6698 283.371 80.0517C288.717 80.4335 288.356 85.1963 287.508 87.5299L272.074 112.192L194.268 160.562L150.353 157.857L118.212 142.264C111.158 136.643 96.5095 124.921 94.3455 123.012Z" fill="#ABE839"/>
<path d="M94.3455 123.012C89.5085 117.411 94.4516 114.314 97.5278 113.465C157.248 102.168 278.024 79.6698 283.371 80.0517C288.717 80.4335 288.356 85.1963 287.508 87.5299L272.074 112.192L194.268 160.562L150.353 157.857L118.212 142.264C111.158 136.643 96.5095 124.921 94.3455 123.012Z" stroke="black" stroke-width="0.318224"/>
<path d="M94.3455 123.012C89.5085 117.411 94.4516 114.314 97.5278 113.465C157.248 102.168 278.024 79.6698 283.371 80.0517C288.717 80.4335 288.356 85.1963 287.508 87.5299L272.074 112.192L194.268 160.562L150.353 157.857L118.212 142.264C111.158 136.643 96.5095 124.921 94.3455 123.012Z" stroke="#331413" stroke-width="0.318224"/>
<path d="M120.122 140.833L95.9371 120.785C94.5051 119.406 92.5957 116.107 96.4144 113.943C100.233 111.779 165.893 89.1743 198.246 78.1426L210.498 91.6671L226.727 83.3933C228.583 81.9082 234.396 79.0018 242.797 79.2564C251.199 79.5109 271.915 79.9989 281.939 80.211C284.007 80.5823 287.317 82.725 284.007 88.3257C280.698 93.9265 264.172 119.83 256.322 132.082L240.411 139.991L200.951 159.608L150.353 152.13L120.122 140.833Z" fill="#679B07"/>
<path d="M150.353 152.13L200.951 159.608L240.411 139.991M150.353 152.13L120.122 140.833L95.9371 120.785C94.5051 119.406 92.5957 116.107 96.4144 113.943C100.233 111.779 165.893 89.1743 198.246 78.1426L210.498 91.6671L226.727 83.3933C228.583 81.9082 234.396 79.0018 242.797 79.2564C251.199 79.5109 271.915 79.9989 281.939 80.211C284.007 80.5823 287.317 82.725 284.007 88.3257C280.698 93.9265 264.172 119.83 256.322 132.082L240.411 139.991M150.353 152.13L193.95 131.127L240.411 139.991" stroke="black" stroke-width="0.318224"/>
<path d="M150.353 152.13L200.951 159.608L240.411 139.991M150.353 152.13L120.122 140.833L95.9371 120.785C94.5051 119.406 92.5957 116.107 96.4144 113.943C100.233 111.779 165.893 89.1743 198.246 78.1426L210.498 91.6671L226.727 83.3933C228.583 81.9082 234.396 79.0018 242.797 79.2564C251.199 79.5109 271.915 79.9989 281.939 80.211C284.007 80.5823 287.317 82.725 284.007 88.3257C280.698 93.9265 264.172 119.83 256.322 132.082L240.411 139.991M150.353 152.13L193.95 131.127L240.411 139.991" stroke="#331413" stroke-width="0.318224"/>
<path d="M240.41 143.856L199.2 162.472L198.723 158.017L224.181 138.923L252.503 119.83L297.054 100.736L299.918 102.646C287.401 112.67 261.89 133.1 259.981 134.627C258.071 136.155 246.138 141.416 240.41 143.856Z" fill="#8ECD1A"/>
<path d="M240.41 143.856L199.2 162.472L198.723 158.017L224.181 138.923L252.503 119.83L297.054 100.736L299.918 102.646C287.401 112.67 261.89 133.1 259.981 134.627C258.071 136.155 246.138 141.416 240.41 143.856Z" stroke="black" stroke-width="0.318224"/>
<path d="M240.41 143.856L199.2 162.472L198.723 158.017L224.181 138.923L252.503 119.83L297.054 100.736L299.918 102.646C287.401 112.67 261.89 133.1 259.981 134.627C258.071 136.155 246.138 141.416 240.41 143.856Z" stroke="#331413" stroke-width="0.318224"/>
<path d="M160.674 -21.7771L153.832 -4.11567L258.21 33.5939C259.588 30.3056 262.728 22.7743 264.256 18.9556C266.802 10.1726 260.861 4.47638 257.573 2.72614L218.75 -17.1629C215.886 -18.7009 209.553 -22.0635 207.135 -23.2091C204.716 -24.3547 203.051 -24.429 202.52 -24.3229C192.761 -24.8002 172.194 -25.8504 167.993 -26.2322C163.792 -26.6141 161.363 -23.4213 160.674 -21.7771Z" fill="white"/>
<path d="M160.674 -21.7771L153.832 -4.11567L258.21 33.5939C259.588 30.3056 262.728 22.7743 264.256 18.9556C266.802 10.1726 260.861 4.47638 257.573 2.72614L218.75 -17.1629C215.886 -18.7009 209.553 -22.0635 207.135 -23.2091C204.716 -24.3547 203.051 -24.429 202.52 -24.3229C192.761 -24.8002 172.194 -25.8504 167.993 -26.2322C163.792 -26.6141 161.363 -23.4213 160.674 -21.7771Z" stroke="black" stroke-width="0.318224"/>
<path d="M160.674 -21.7771L153.832 -4.11567L258.21 33.5939C259.588 30.3056 262.728 22.7743 264.256 18.9556C266.802 10.1726 260.861 4.47638 257.573 2.72614L218.75 -17.1629C215.886 -18.7009 209.553 -22.0635 207.135 -23.2091C204.716 -24.3547 203.051 -24.429 202.52 -24.3229C192.761 -24.8002 172.194 -25.8504 167.993 -26.2322C163.792 -26.6141 161.363 -23.4213 160.674 -21.7771Z" stroke="#331413" stroke-width="0.318224"/>
<path d="M181.836 -2.68345L155.264 -4.7519C154.627 -4.75191 153.673 -4.91098 153.673 -4.43368C153.036 -3.00168 154.786 -1.83491 155.9 -1.09239L155.9 -1.09233L174.039 8.13617C186.821 13.9703 212.894 25.8931 214.931 26.9114C216.967 27.9297 223.205 29.5633 226.069 30.2527L248.822 33.435C251.792 33.7532 257.859 34.2942 258.368 33.9123C259.005 32.3848 254.815 29.9876 252.64 28.9798C236.517 21.1303 202.679 4.66753 196.315 1.61258C189.95 -1.44237 184.01 -2.52434 181.836 -2.68345Z" fill="white"/>
<path d="M181.836 -2.68345L155.264 -4.7519C154.627 -4.75191 153.673 -4.91098 153.673 -4.43368C153.036 -3.00168 154.786 -1.83491 155.9 -1.09239L155.9 -1.09233L174.039 8.13617C186.821 13.9703 212.894 25.8931 214.931 26.9114C216.967 27.9297 223.205 29.5633 226.069 30.2527L248.822 33.435C251.792 33.7532 257.859 34.2942 258.368 33.9123C259.005 32.3848 254.815 29.9876 252.64 28.9798C236.517 21.1303 202.679 4.66753 196.315 1.61258C189.95 -1.44237 184.01 -2.52434 181.836 -2.68345Z" stroke="black" stroke-width="0.318224"/>
<path d="M181.836 -2.68345L155.264 -4.7519C154.627 -4.75191 153.673 -4.91098 153.673 -4.43368C153.036 -3.00168 154.786 -1.83491 155.9 -1.09239L155.9 -1.09233L174.039 8.13617C186.821 13.9703 212.894 25.8931 214.931 26.9114C216.967 27.9297 223.205 29.5633 226.069 30.2527L248.822 33.435C251.792 33.7532 257.859 34.2942 258.368 33.9123C259.005 32.3848 254.815 29.9876 252.64 28.9798C236.517 21.1303 202.679 4.66753 196.315 1.61258C189.95 -1.44237 184.01 -2.52434 181.836 -2.68345Z" stroke="#331413" stroke-width="0.318224"/>
<path d="M181.836 -1.56994L157.969 -3.00195L156.696 -3.00193C155.932 -2.36548 157.651 -0.933494 158.606 -0.297046L189.951 14.6595C198.012 18.3721 214.518 25.9883 216.045 26.752C217.573 27.5157 222.728 28.7674 225.114 29.2978C231.638 30.2525 245.385 32.2255 248.186 32.48C251.686 32.7983 254.709 32.7983 255.187 32.7983C255.823 31.6526 252.8 29.9873 251.209 29.2978L223.842 15.455C216.894 12.0607 201.661 4.66725 196.315 2.24875C190.969 -0.169756 184.435 -1.30476 181.836 -1.56994Z" fill="white"/>
<path d="M181.836 -1.56994L157.969 -3.00195L156.696 -3.00193C155.932 -2.36548 157.651 -0.933494 158.606 -0.297046L189.951 14.6595C198.012 18.3721 214.518 25.9883 216.045 26.752C217.573 27.5157 222.728 28.7674 225.114 29.2978C231.638 30.2525 245.385 32.2255 248.186 32.48C251.686 32.7983 254.709 32.7983 255.187 32.7983C255.823 31.6526 252.8 29.9873 251.209 29.2978L223.842 15.455C216.894 12.0607 201.661 4.66725 196.315 2.24875C190.969 -0.169756 184.435 -1.30476 181.836 -1.56994Z" stroke="black" stroke-width="0.318224"/>
<path d="M181.836 -1.56994L157.969 -3.00195L156.696 -3.00193C155.932 -2.36548 157.651 -0.933494 158.606 -0.297046L189.951 14.6595C198.012 18.3721 214.518 25.9883 216.045 26.752C217.573 27.5157 222.728 28.7674 225.114 29.2978C231.638 30.2525 245.385 32.2255 248.186 32.48C251.686 32.7983 254.709 32.7983 255.187 32.7983C255.823 31.6526 252.8 29.9873 251.209 29.2978L223.842 15.455C216.894 12.0607 201.661 4.66725 196.315 2.24875C190.969 -0.169756 184.435 -1.30476 181.836 -1.56994Z" stroke="#331413" stroke-width="0.318224"/>
<path d="M226.546 0.0216866C227.023 -1.5164 228.073 -5.73817 228.455 -10.3206C228.657 -12.7451 227.562 -14.445 226.163 -15.5713C224.918 -16.5738 223.433 -17.1217 222.409 -17.3215C224.424 -17.4276 227.713 -16.8442 230.683 -20.0264C232.91 -22.4131 234.979 -26.2318 236.092 -29.5732C236.983 -32.2462 235.721 -35.1421 234.979 -36.2559C239.222 -33.9753 248.312 -29.0322 250.731 -27.5047C253.754 -25.5954 254.231 -23.8451 254.072 -21.9358C253.913 -20.0264 252.958 -17.3215 250.412 -12.8664C247.867 -8.41125 243.571 -8.41125 240.866 -8.41125C246.116 -5.22901 243.889 5.59061 243.412 7.18173C243.03 8.45462 239.54 17.3649 237.843 21.6609L221.454 13.3871L226.546 0.0216866Z" fill="white"/>
<path d="M240.866 -8.41125C246.116 -5.22901 243.889 5.59061 243.412 7.18173C243.03 8.45462 239.54 17.3649 237.843 21.6609L221.454 13.3871L226.546 0.0216866C227.023 -1.5164 228.073 -5.73817 228.455 -10.3206C228.657 -12.7451 227.562 -14.445 226.163 -15.5713M240.866 -8.41125C243.571 -8.41125 247.867 -8.41125 250.412 -12.8664C252.958 -17.3215 253.913 -20.0264 254.072 -21.9358C254.231 -23.8451 253.754 -25.5954 250.731 -27.5047C248.312 -29.0322 239.222 -33.9753 234.979 -36.2559C235.721 -35.1421 236.983 -32.2462 236.092 -29.5732C234.979 -26.2318 232.91 -22.4131 230.683 -20.0264C227.713 -16.8442 224.424 -17.4276 222.409 -17.3215C223.433 -17.1217 224.918 -16.5738 226.163 -15.5713M240.866 -8.41125L226.163 -15.5713" stroke="black" stroke-width="0.318224"/>
<path d="M203.156 -44.5298L215.885 -24.9591L213.658 -23.527L203.156 -39.7565C202.414 -41.5067 200.165 -45.1345 197.11 -45.6436C194.055 -46.1528 191.7 -44.0525 190.905 -42.9387C188.677 -38.8018 189.473 -36.256 190.109 -34.0284C190.382 -33.0718 191.194 -32.125 192.177 -31.2887C192.549 -32.202 193.8 -34.283 195.837 -35.3013C196.092 -35.0468 196.474 -34.3467 196.633 -34.0284L196.792 -33.8693C195.747 -33.6572 193.557 -32.6919 193.156 -30.528C194.224 -29.7642 195.35 -29.1461 196.155 -28.7777L205.543 -24.1635L199.815 -24.6408C197.959 -25.1712 193.928 -26.582 192.655 -27.9822C191.064 -29.7324 188.518 -31.1644 187.563 -34.824C186.609 -38.4836 186.609 -40.552 188.995 -44.0525C191.382 -47.553 194.246 -47.8712 197.11 -48.0303C199.401 -48.1576 202.095 -45.7497 203.156 -44.5298Z" fill="white"/>
<path d="M229.887 -35.1422L211.112 -21.2995L212.385 -20.5039C218.59 -25.0121 231.255 -34.1876 232.274 -34.824C233.547 -35.6196 234.82 -33.392 234.82 -31.96C234.82 -30.528 234.82 -27.9822 231.637 -23.527C229.091 -19.9629 226.652 -19.3901 225.75 -19.5492H214.453L217.954 -17.6399C219.863 -17.4808 224.254 -17.258 226.546 -17.6399C228.837 -18.0218 231.107 -20.4509 231.955 -21.6177C233.281 -23.7922 235.997 -28.4913 236.252 -29.8915C236.57 -31.6418 236.411 -33.8693 235.138 -35.7787C234.119 -37.3061 231.213 -35.9908 229.887 -35.1422Z" fill="white"/>
<path d="M252.64 -17.3217L251.526 -15.0941C252.163 -15.2532 253.849 -15.476 255.504 -15.0941C257.573 -14.6168 259.8 -12.071 259.959 -8.25229C260.118 -4.4336 259.482 -3.95627 257.413 -1.88781C255.759 -0.233044 252.587 -0.243652 251.208 -0.455803C252.428 0.180645 254.995 1.48537 255.504 1.61266C260.914 0.657982 262.187 -4.4336 262.187 -6.82028C262.187 -9.20696 261.709 -11.1163 259.482 -14.6168C257.7 -17.4171 254.178 -17.5869 252.64 -17.3217Z" fill="white"/>
<path d="M227.967 -13.1848C227.203 -15.476 224.254 -16.7913 222.875 -17.1626C222.398 -16.8974 220.329 -17.6399 218.102 -17.4808C219.693 -16.367 226.546 -14.935 225.898 -8.25233C226.046 -6.34299 224.148 -1.41051 223.671 0.180607C223.289 1.4535 220.011 8.56051 218.42 11.9549L221.443 13.3869C222.822 9.8334 225.739 2.31271 226.376 0.657944C227.171 -1.41051 228.285 -4.11542 228.603 -6.97943C228.921 -9.84345 228.921 -10.3208 227.967 -13.1848Z" fill="white"/>
<path d="M192.177 -31.2887C191.194 -32.125 190.382 -33.0718 190.109 -34.0284C189.473 -36.256 188.677 -38.8018 190.905 -42.9387C191.7 -44.0525 194.055 -46.1528 197.11 -45.6436C200.165 -45.1345 202.414 -41.5067 203.156 -39.7565L213.658 -23.527L215.885 -24.9591L203.156 -44.5298C202.095 -45.7497 199.401 -48.1576 197.11 -48.0303C194.246 -47.8712 191.382 -47.553 188.995 -44.0525C186.609 -40.552 186.609 -38.4836 187.563 -34.824C188.518 -31.1644 191.064 -29.7324 192.655 -27.9822C193.928 -26.582 197.959 -25.1712 199.815 -24.6408L205.543 -24.1635L196.155 -28.7777C195.35 -29.1461 194.224 -29.7642 193.156 -30.528M192.177 -31.2887C192.549 -32.202 193.8 -34.283 195.837 -35.3013C196.092 -35.0468 196.474 -34.3467 196.633 -34.0284L196.792 -33.8693C195.747 -33.6572 193.557 -32.6919 193.156 -30.528M192.177 -31.2887C192.49 -31.0229 192.82 -30.7682 193.156 -30.528M211.112 -21.2995L229.887 -35.1422C231.213 -35.9908 234.119 -37.3061 235.138 -35.7787C236.411 -33.8693 236.57 -31.6418 236.252 -29.8915C235.997 -28.4913 233.281 -23.7922 231.955 -21.6177C231.107 -20.4509 228.837 -18.0218 226.546 -17.6399C224.254 -17.258 219.863 -17.4808 217.954 -17.6399L214.453 -19.5492H225.75C226.652 -19.3901 229.091 -19.9629 231.637 -23.527C234.82 -27.9822 234.82 -30.528 234.82 -31.96C234.82 -33.392 233.547 -35.6196 232.274 -34.824C231.255 -34.1876 218.59 -25.0121 212.385 -20.5039L211.112 -21.2995ZM251.526 -15.0941L252.64 -17.3217C254.178 -17.5869 257.7 -17.4171 259.482 -14.6168C261.709 -11.1163 262.187 -9.20696 262.187 -6.82028C262.187 -4.4336 260.914 0.657983 255.504 1.61265C254.995 1.48537 252.428 0.180646 251.208 -0.455802C252.587 -0.243652 255.759 -0.233045 257.413 -1.88781C259.482 -3.95627 260.118 -4.4336 259.959 -8.25229C259.8 -12.071 257.573 -14.6168 255.504 -15.0941C253.849 -15.476 252.163 -15.2532 251.526 -15.0941ZM222.875 -17.1626C224.254 -16.7913 227.203 -15.476 227.967 -13.1848C228.921 -10.3208 228.921 -9.84345 228.603 -6.97943C228.285 -4.11542 227.171 -1.41051 226.376 0.657944C225.739 2.31271 222.822 9.8334 221.443 13.3869L218.42 11.9549C220.011 8.56051 223.289 1.4535 223.671 0.180608C224.148 -1.41051 226.046 -6.34299 225.898 -8.25233C226.546 -14.935 219.693 -16.367 218.102 -17.4808C220.329 -17.6399 222.398 -16.8974 222.875 -17.1626Z" stroke="black" stroke-width="0.318224"/>
<path d="M192.177 -31.2887C191.194 -32.125 190.382 -33.0718 190.109 -34.0284C189.473 -36.256 188.677 -38.8018 190.905 -42.9387C191.7 -44.0525 194.055 -46.1528 197.11 -45.6436C200.165 -45.1345 202.414 -41.5067 203.156 -39.7565L213.658 -23.527L215.885 -24.9591L203.156 -44.5298C202.095 -45.7497 199.401 -48.1576 197.11 -48.0303C194.246 -47.8712 191.382 -47.553 188.995 -44.0525C186.609 -40.552 186.609 -38.4836 187.563 -34.824C188.518 -31.1644 191.064 -29.7324 192.655 -27.9822C193.928 -26.582 197.959 -25.1712 199.815 -24.6408L205.543 -24.1635L196.155 -28.7777C195.35 -29.1461 194.224 -29.7642 193.156 -30.528M192.177 -31.2887C192.549 -32.202 193.8 -34.283 195.837 -35.3013C196.092 -35.0468 196.474 -34.3467 196.633 -34.0284L196.792 -33.8693C195.747 -33.6572 193.557 -32.6919 193.156 -30.528M192.177 -31.2887C192.49 -31.0229 192.82 -30.7682 193.156 -30.528M211.112 -21.2995L229.887 -35.1422C231.213 -35.9908 234.119 -37.3061 235.138 -35.7787C236.411 -33.8693 236.57 -31.6418 236.252 -29.8915C235.997 -28.4913 233.281 -23.7922 231.955 -21.6177C231.107 -20.4509 228.837 -18.0218 226.546 -17.6399C224.254 -17.258 219.863 -17.4808 217.954 -17.6399L214.453 -19.5492H225.75C226.652 -19.3901 229.091 -19.9629 231.637 -23.527C234.82 -27.9822 234.82 -30.528 234.82 -31.96C234.82 -33.392 233.547 -35.6196 232.274 -34.824C231.255 -34.1876 218.59 -25.0121 212.385 -20.5039L211.112 -21.2995ZM251.526 -15.0941L252.64 -17.3217C254.178 -17.5869 257.7 -17.4171 259.482 -14.6168C261.709 -11.1163 262.187 -9.20696 262.187 -6.82028C262.187 -4.4336 260.914 0.657983 255.504 1.61265C254.995 1.48537 252.428 0.180646 251.208 -0.455802C252.587 -0.243652 255.759 -0.233045 257.413 -1.88781C259.482 -3.95627 260.118 -4.4336 259.959 -8.25229C259.8 -12.071 257.573 -14.6168 255.504 -15.0941C253.849 -15.476 252.163 -15.2532 251.526 -15.0941ZM222.875 -17.1626C224.254 -16.7913 227.203 -15.476 227.967 -13.1848C228.921 -10.3208 228.921 -9.84345 228.603 -6.97943C228.285 -4.11542 227.171 -1.41051 226.376 0.657944C225.739 2.31271 222.822 9.8334 221.443 13.3869L218.42 11.9549C220.011 8.56051 223.289 1.4535 223.671 0.180608C224.148 -1.41051 226.046 -6.34299 225.898 -8.25233C226.546 -14.935 219.693 -16.367 218.102 -17.4808C220.329 -17.6399 222.398 -16.8974 222.875 -17.1626Z" stroke="#331413" stroke-width="0.318224"/>
<path d="M172.448 -3.47899L169.743 -4.59278C171.069 -7.93414 174.135 -15.3169 175.789 -18.1173C177.858 -21.6178 179.29 -23.0498 183.586 -25.5956C187.023 -27.6322 191.595 -27.3988 193.451 -27.0276L199.02 -24.8H192.337C191.382 -24.6939 188.614 -24.1954 185.177 -23.0498C181.74 -21.9042 178.335 -17.2687 177.062 -15.0942L172.448 -3.47899Z" fill="white"/>
<path d="M190.905 -42.7797C191.595 -43.8404 193.578 -45.9301 195.997 -45.8028C199.02 -45.6437 201.247 -43.4161 201.884 -41.9841C202.393 -40.8385 209.945 -29.096 213.658 -23.368L211.112 -21.2996L201.884 -26.0729C199.497 -27.2397 194.406 -29.7643 193.133 -30.5281C193.515 -32.5647 195.71 -33.6042 196.76 -33.8694L190.905 -42.7797Z" fill="white"/>
<path d="M231.638 -34.3467L212.703 -20.6631L214.454 -19.5493H225.432C226.96 -19.5493 228.509 -20.3979 229.092 -20.8222C230.206 -21.6708 232.752 -24.1636 234.024 -27.3458C235.616 -31.3236 234.979 -32.9147 234.024 -34.3467C233.261 -35.4924 232.115 -34.8241 231.638 -34.3467Z" fill="white"/>
<path d="M248.345 -6.50214C248.09 -5.10196 246.966 -3.58509 246.435 -3.00167C247.655 -2.41827 250.381 -1.06051 251.527 -0.296772C254.709 0.0214539 256.459 -1.25145 258.05 -2.52434C259.641 -3.79724 260.119 -6.50214 260.119 -7.93415C260.119 -9.36616 259.482 -12.0711 257.891 -13.8213C256.3 -15.5715 253.595 -15.2533 251.845 -15.2533C250.954 -13.0894 249.14 -11.0634 248.345 -10.3208C248.451 -9.63134 248.599 -7.90232 248.345 -6.50214Z" fill="white"/>
<path d="M201.884 -26.0729L211.112 -21.2996L213.658 -23.368C209.945 -29.096 202.393 -40.8385 201.884 -41.9841C201.247 -43.4161 199.02 -45.6437 195.997 -45.8028C193.578 -45.9301 191.595 -43.8404 190.905 -42.7797L196.76 -33.8694M201.884 -26.0729L196.76 -33.8694M201.884 -26.0729C199.497 -27.2397 194.406 -29.7643 193.133 -30.5281C193.515 -32.5647 195.71 -33.6042 196.76 -33.8694M169.743 -4.59278L172.448 -3.47899L177.062 -15.0942C178.335 -17.2687 181.74 -21.9042 185.177 -23.0498C188.614 -24.1954 191.382 -24.6939 192.337 -24.8H199.02L193.451 -27.0276C191.595 -27.3988 187.023 -27.6322 183.586 -25.5956C179.29 -23.0498 177.858 -21.6178 175.789 -18.1173C174.135 -15.3169 171.069 -7.93413 169.743 -4.59278ZM212.703 -20.6631L231.638 -34.3467C232.115 -34.8241 233.261 -35.4924 234.024 -34.3467C234.979 -32.9147 235.616 -31.3236 234.024 -27.3458C232.752 -24.1636 230.206 -21.6708 229.092 -20.8222C228.509 -20.3979 226.96 -19.5493 225.432 -19.5493C223.905 -19.5493 217.477 -19.5493 214.454 -19.5493L212.703 -20.6631ZM246.435 -3.00168C246.966 -3.58509 248.09 -5.10195 248.345 -6.50214C248.599 -7.90233 248.451 -9.63134 248.345 -10.3208C249.14 -11.0634 250.954 -13.0894 251.845 -15.2533C253.595 -15.2533 256.3 -15.5715 257.891 -13.8213C259.482 -12.0711 260.119 -9.36616 260.119 -7.93415C260.119 -6.50214 259.641 -3.79724 258.05 -2.52434C256.459 -1.25144 254.709 0.0214522 251.527 -0.296772C250.381 -1.06051 247.655 -2.41827 246.435 -3.00168Z" stroke="black" stroke-width="0.318224"/>
<path d="M201.884 -26.0729L211.112 -21.2996L213.658 -23.368C209.945 -29.096 202.393 -40.8385 201.884 -41.9841C201.247 -43.4161 199.02 -45.6437 195.997 -45.8028C193.578 -45.9301 191.595 -43.8404 190.905 -42.7797L196.76 -33.8694M201.884 -26.0729L196.76 -33.8694M201.884 -26.0729C199.497 -27.2397 194.406 -29.7643 193.133 -30.5281C193.515 -32.5647 195.71 -33.6042 196.76 -33.8694M169.743 -4.59278L172.448 -3.47899L177.062 -15.0942C178.335 -17.2687 181.74 -21.9042 185.177 -23.0498C188.614 -24.1954 191.382 -24.6939 192.337 -24.8H199.02L193.451 -27.0276C191.595 -27.3988 187.023 -27.6322 183.586 -25.5956C179.29 -23.0498 177.858 -21.6178 175.789 -18.1173C174.135 -15.3169 171.069 -7.93413 169.743 -4.59278ZM212.703 -20.6631L231.638 -34.3467C232.115 -34.8241 233.261 -35.4924 234.024 -34.3467C234.979 -32.9147 235.616 -31.3236 234.024 -27.3458C232.752 -24.1636 230.206 -21.6708 229.092 -20.8222C228.509 -20.3979 226.96 -19.5493 225.432 -19.5493C223.905 -19.5493 217.477 -19.5493 214.454 -19.5493L212.703 -20.6631ZM246.435 -3.00168C246.966 -3.58509 248.09 -5.10195 248.345 -6.50214C248.599 -7.90233 248.451 -9.63134 248.345 -10.3208C249.14 -11.0634 250.954 -13.0894 251.845 -15.2533C253.595 -15.2533 256.3 -15.5715 257.891 -13.8213C259.482 -12.0711 260.119 -9.36616 260.119 -7.93415C260.119 -6.50214 259.641 -3.79724 258.05 -2.52434C256.459 -1.25144 254.709 0.0214522 251.527 -0.296772C250.381 -1.06051 247.655 -2.41827 246.435 -3.00168Z" stroke="#331413" stroke-width="0.318224"/>
<path d="M125.531 154.835L81.7754 142.424L88.6172 140.355L160.854 147.197L194.586 163.268C181.22 161.995 152.898 159.353 146.534 158.972C140.17 158.59 129.88 156.055 125.531 154.835Z" fill="#8ECD1A"/>
<path d="M125.531 154.835L81.7754 142.424L88.6172 140.355L160.854 147.197L194.586 163.268C181.22 161.995 152.898 159.353 146.534 158.972C140.17 158.59 129.88 156.055 125.531 154.835Z" stroke="black" stroke-width="0.318224"/>
<path d="M125.531 154.835L81.7754 142.424L88.6172 140.355L160.854 147.197L194.586 163.268C181.22 161.995 152.898 159.353 146.534 158.972C140.17 158.59 129.88 156.055 125.531 154.835Z" stroke="#331413" stroke-width="0.318224"/>
<path d="M79.5481 139.082C79.6754 136.791 82.253 136.324 83.5259 136.377C94.2395 137.279 117.735 139.209 126.009 139.718C134.283 140.227 142.291 142.052 145.261 142.901L194.427 157.857C196.867 159.024 201.078 161.644 198.405 162.79C195.732 163.935 193.366 163.479 192.518 163.108C177.72 158.918 147.234 150.283 143.67 149.265C140.106 148.247 132.957 146.931 129.828 146.401C114.712 145.234 84.1305 142.869 82.7304 142.741C80.9801 142.582 79.389 141.946 79.5481 139.082Z" fill="#ABE839"/>
<path d="M79.5481 139.082C79.6754 136.791 82.253 136.324 83.5259 136.377C94.2395 137.279 117.735 139.209 126.009 139.718C134.283 140.227 142.291 142.052 145.261 142.901L194.427 157.857C196.867 159.024 201.078 161.644 198.405 162.79C195.732 163.935 193.366 163.479 192.518 163.108C177.72 158.918 147.234 150.283 143.67 149.265C140.106 148.247 132.957 146.931 129.828 146.401C114.712 145.234 84.1305 142.869 82.7304 142.741C80.9801 142.582 79.389 141.946 79.5481 139.082Z" stroke="black" stroke-width="0.318224"/>
<path d="M79.5481 139.082C79.6754 136.791 82.253 136.324 83.5259 136.377C94.2395 137.279 117.735 139.209 126.009 139.718C134.283 140.227 142.291 142.052 145.261 142.901L194.427 157.857C196.867 159.024 201.078 161.644 198.405 162.79C195.732 163.935 193.366 163.479 192.518 163.108C177.72 158.918 147.234 150.283 143.67 149.265C140.106 148.247 132.957 146.931 129.828 146.401C114.712 145.234 84.1305 142.869 82.7304 142.741C80.9801 142.582 79.389 141.946 79.5481 139.082Z" stroke="#331413" stroke-width="0.318224"/>
<path d="M79.5481 139.082C79.6754 136.791 82.253 136.324 83.5259 136.377C94.2395 137.279 117.735 139.209 126.009 139.718C134.283 140.227 142.291 142.052 145.261 142.901L194.427 157.857C196.867 159.024 201.078 161.644 198.405 162.79C195.732 163.935 193.366 163.479 192.518 163.108C177.72 158.918 147.234 150.283 143.67 149.265C140.106 148.247 132.957 146.931 129.828 146.401C114.712 145.234 84.1305 142.869 82.7304 142.741C80.9801 142.582 79.389 141.946 79.5481 139.082Z" stroke="black" stroke-opacity="0.2" stroke-width="0.318224"/>
<path d="M232.773 127.945L197.291 156.585C196.336 157.54 194.427 158.813 195.541 161.04C196.941 163.841 200.261 162.207 201.746 161.04C211.293 153.297 231.627 136.824 236.592 132.878C241.556 128.932 249.374 124.869 252.662 123.331C266.982 117.019 296.068 104.237 297.85 103.601C300.077 102.805 300.873 101.851 299.6 99.4641C298.582 97.5547 295.251 98.2442 293.713 98.8276C280.507 104.662 252.598 116.935 246.616 119.353C240.633 121.772 234.895 126.089 232.773 127.945Z" fill="#ABE839"/>
<path d="M232.773 127.945L197.291 156.585C196.336 157.54 194.427 158.813 195.541 161.04C196.941 163.841 200.261 162.207 201.746 161.04C211.293 153.297 231.627 136.824 236.592 132.878C241.556 128.932 249.374 124.869 252.662 123.331C266.982 117.019 296.068 104.237 297.85 103.601C300.077 102.805 300.873 101.851 299.6 99.4641C298.582 97.5547 295.251 98.2442 293.713 98.8276C280.507 104.662 252.598 116.935 246.616 119.353C240.633 121.772 234.895 126.089 232.773 127.945Z" stroke="black" stroke-width="0.318224"/>
<path d="M232.773 127.945L197.291 156.585C196.336 157.54 194.427 158.813 195.541 161.04C196.941 163.841 200.261 162.207 201.746 161.04C211.293 153.297 231.627 136.824 236.592 132.878C241.556 128.932 249.374 124.869 252.662 123.331C266.982 117.019 296.068 104.237 297.85 103.601C300.077 102.805 300.873 101.851 299.6 99.4641C298.582 97.5547 295.251 98.2442 293.713 98.8276C280.507 104.662 252.598 116.935 246.616 119.353C240.633 121.772 234.895 126.089 232.773 127.945Z" stroke="#331413" stroke-width="0.318224"/>
<path d="M232.773 127.945L197.291 156.585C196.336 157.54 194.427 158.813 195.541 161.04C196.941 163.841 200.261 162.207 201.746 161.04C211.293 153.297 231.627 136.824 236.592 132.878C241.556 128.932 249.374 124.869 252.662 123.331C266.982 117.019 296.068 104.237 297.85 103.601C300.077 102.805 300.873 101.851 299.6 99.4641C298.582 97.5547 295.251 98.2442 293.713 98.8276C280.507 104.662 252.598 116.935 246.616 119.353C240.633 121.772 234.895 126.089 232.773 127.945Z" stroke="black" stroke-opacity="0.2" stroke-width="0.318224"/>
<path d="M209.143 126.206C189.991 139.352 166.494 136.762 152.82 118.437C146.829 109.708 144.518 102.422 146.468 94.058C148.422 85.6775 154.657 76.19 165.84 63.0776C179.839 52.7543 191.196 50.3522 200.536 52.6813C209.885 55.0128 217.255 62.0956 223.253 70.8331C235.204 88.2444 228.303 113.054 209.143 126.206Z" fill="#FF8E2B" stroke="black" stroke-width="0.318224"/>
<path d="M206.429 121.355C187.275 134.502 162.063 131.006 150.108 113.588C138.153 96.1709 143.953 71.3877 163.107 58.2404C182.261 45.0931 207.472 48.5897 219.428 66.007C231.383 83.4243 225.583 108.208 206.429 121.355Z" fill="#FEDD7B" stroke="black" stroke-width="0.318224"/>
<path d="M204.405 118.407C187.039 130.327 164.183 127.156 153.345 111.367C142.507 95.5777 147.764 73.109 165.13 61.1886C182.497 49.2683 205.353 52.4397 216.191 68.2289C227.029 84.018 221.772 106.487 204.405 118.407Z" fill="#FEBB00" stroke="black" stroke-width="0.318224"/>
<path fill-rule="evenodd" clip-rule="evenodd" d="M165.944 94.6096L168.331 96.0416C168.808 96.5189 170.113 96.9008 171.513 94.6096C172.913 92.3184 179.628 82.8353 182.81 78.3801C183.128 77.7967 183.51 76.3753 182.492 75.357C181.474 74.3387 179.84 73.6598 179.15 73.4477L178.037 71.5383L182.015 69.4699L189.652 73.7659L196.653 67.5605L198.085 69.4699L193.789 75.8344L196.812 77.4255L203.813 71.5383L205.086 73.4477L200.79 79.0166C202.805 80.0773 206.518 83.9809 206.518 87.9269C206.518 92.8593 203.813 96.2007 198.085 96.5189C199.358 97.4736 201.267 100.497 200.153 103.679C199.039 106.861 193.789 117.522 180.423 109.725C180.423 110.107 177.559 114.233 176.127 116.249L171.99 113.862L170.877 111.953L176.605 107.498L173.263 105.588L168.808 112.271L165.149 109.725L164.035 107.816L169.763 103.361L162.126 98.9056L161.012 96.8371L165.944 94.6096ZM185.197 88.2457L190.606 80.4492C193.099 81.5099 198.085 84.2361 198.085 86.6546C198.085 89.6777 196.175 91.587 192.993 91.587C190.447 91.587 186.735 89.3595 185.197 88.2457ZM176.604 101.293L182.81 92.2235C185.462 93.4434 190.861 96.5195 191.243 99.0653C191.72 102.248 189.652 104.952 186.947 104.952C184.783 104.952 179.15 102.513 176.604 101.293Z" fill="#FF950D"/>
<path d="M168.331 96.0416L168.443 95.9291L168.43 95.9152L168.413 95.9051L168.331 96.0416ZM165.944 94.6096L166.026 94.4731L165.955 94.4303L165.879 94.4646L165.944 94.6096ZM171.513 94.6096L171.377 94.5266L171.513 94.6096ZM182.81 78.3801L182.94 78.4726L182.945 78.4648L182.95 78.4563L182.81 78.3801ZM182.492 75.357L182.604 75.2445L182.492 75.357ZM179.15 73.4477L179.013 73.5278L179.044 73.5815L179.104 73.5998L179.15 73.4477ZM178.037 71.5383L177.963 71.3972L177.815 71.4742L177.899 71.6185L178.037 71.5383ZM182.015 69.4699L182.093 69.3312L182.017 69.289L181.941 69.3287L182.015 69.4699ZM189.652 73.7659L189.574 73.9046L189.673 73.9601L189.757 73.885L189.652 73.7659ZM196.653 67.5605L196.78 67.4651L196.676 67.3269L196.547 67.4415L196.653 67.5605ZM198.085 69.4699L198.217 69.5589L198.28 69.465L198.212 69.3744L198.085 69.4699ZM193.789 75.8344L193.657 75.7453L193.558 75.8925L193.715 75.9752L193.789 75.8344ZM196.812 77.4255L196.738 77.5663L196.832 77.6161L196.914 77.5473L196.812 77.4255ZM203.813 71.5383L203.945 71.4501L203.847 71.3021L203.71 71.4166L203.813 71.5383ZM205.086 73.4477L205.212 73.5449L205.281 73.4544L205.218 73.3594L205.086 73.4477ZM200.79 79.0166L200.664 78.9194L200.548 79.0693L200.716 79.1574L200.79 79.0166ZM198.085 96.5189L198.076 96.3601L197.64 96.3843L197.989 96.6462L198.085 96.5189ZM200.153 103.679L200.003 103.626L200.153 103.679ZM180.423 109.725L180.504 109.588L180.264 109.448V109.725H180.423ZM176.127 116.249L176.048 116.387L176.173 116.459L176.257 116.341L176.127 116.249ZM171.99 113.862L171.853 113.942L171.874 113.979L171.911 114L171.99 113.862ZM170.877 111.953L170.779 111.827L170.669 111.913L170.739 112.033L170.877 111.953ZM176.605 107.498L176.702 107.623L176.89 107.477L176.684 107.36L176.605 107.498ZM173.263 105.588L173.342 105.45L173.213 105.376L173.131 105.5L173.263 105.588ZM168.808 112.271L168.717 112.402L168.851 112.494L168.941 112.359L168.808 112.271ZM165.149 109.725L165.011 109.805L165.029 109.836L165.058 109.856L165.149 109.725ZM164.035 107.816L163.937 107.69L163.827 107.776L163.897 107.896L164.035 107.816ZM169.763 103.361L169.861 103.486L170.046 103.342L169.843 103.223L169.763 103.361ZM162.126 98.9056L161.985 98.981L162.007 99.0205L162.045 99.043L162.126 98.9056ZM161.012 96.8371L160.946 96.6921L160.791 96.7624L160.872 96.9126L161.012 96.8371ZM190.606 80.4492L190.669 80.3028L190.549 80.2521L190.476 80.3585L190.606 80.4492ZM185.197 88.2457L185.066 88.155L184.977 88.2831L185.103 88.3746L185.197 88.2457ZM182.81 92.2235L182.876 92.0789L182.754 92.0228L182.679 92.1336L182.81 92.2235ZM176.604 101.293L176.473 101.203L176.368 101.356L176.536 101.436L176.604 101.293ZM191.243 99.0653L191.085 99.0889L191.243 99.0653ZM168.413 95.9051L166.026 94.4731L165.862 94.746L168.249 96.178L168.413 95.9051ZM171.377 94.5266C170.689 95.6532 170.043 96.0911 169.54 96.2089C169.039 96.326 168.648 96.1341 168.443 95.9291L168.218 96.1541C168.491 96.4264 168.991 96.6641 169.612 96.5187C170.231 96.3739 170.937 95.8572 171.649 94.6925L171.377 94.5266ZM182.681 78.2877C179.501 82.7396 172.781 92.2291 171.377 94.5266L171.649 94.6925C173.045 92.4076 179.755 82.931 182.94 78.4726L182.681 78.2877ZM182.379 75.4695C182.852 75.9419 183.001 76.5069 182.993 77.0294C182.986 77.5558 182.819 78.0318 182.67 78.304L182.95 78.4563C183.12 78.1451 183.303 77.6187 183.311 77.034C183.32 76.4453 183.15 75.7904 182.604 75.2445L182.379 75.4695ZM179.104 73.5998C179.783 73.8088 181.388 74.478 182.379 75.4695L182.604 75.2445C181.559 74.1994 179.897 73.5109 179.197 73.2956L179.104 73.5998ZM177.899 71.6185L179.013 73.5278L179.288 73.3675L178.174 71.4582L177.899 71.6185ZM181.941 69.3287L177.963 71.3972L178.11 71.6795L182.088 69.611L181.941 69.3287ZM189.73 73.6272L182.093 69.3312L181.937 69.6086L189.574 73.9046L189.73 73.6272ZM196.547 67.4415L189.546 73.6468L189.757 73.885L196.758 67.6796L196.547 67.4415ZM198.212 69.3744L196.78 67.4651L196.526 67.656L197.958 69.5653L198.212 69.3744ZM193.921 75.9234L198.217 69.5589L197.953 69.3809L193.657 75.7453L193.921 75.9234ZM196.886 77.2847L193.863 75.6936L193.715 75.9752L196.738 77.5663L196.886 77.2847ZM203.71 71.4166L196.71 77.3037L196.914 77.5473L203.915 71.6601L203.71 71.4166ZM205.218 73.3594L203.945 71.4501L203.68 71.6266L204.953 73.5359L205.218 73.3594ZM200.916 79.1138L205.212 73.5449L204.96 73.3505L200.664 78.9194L200.916 79.1138ZM206.677 87.9269C206.677 85.9065 205.728 83.9112 204.538 82.2954C203.347 80.6799 201.898 79.4202 200.864 78.8758L200.716 79.1574C201.697 79.6737 203.111 80.8962 204.281 82.4841C205.451 84.0718 206.359 86.0013 206.359 87.9269H206.677ZM198.094 96.6778C200.987 96.517 203.138 95.591 204.566 94.0618C205.992 92.5331 206.677 90.4217 206.677 87.9269H206.359C206.359 90.3646 205.691 92.3901 204.333 93.8447C202.976 95.2988 200.911 96.2026 198.076 96.3601L198.094 96.6778ZM200.303 103.732C200.876 102.097 200.67 100.505 200.162 99.2057C199.656 97.9095 198.844 96.8893 198.18 96.3916L197.989 96.6462C198.599 97.1032 199.378 98.0719 199.866 99.3215C200.353 100.568 200.545 102.079 200.003 103.626L200.303 103.732ZM180.343 109.863C183.702 111.822 186.562 112.628 188.985 112.676C191.409 112.724 193.385 112.012 194.971 110.951C198.136 108.835 199.742 105.335 200.303 103.732L200.003 103.626C199.451 105.205 197.874 108.627 194.794 110.687C193.258 111.714 191.345 112.405 188.991 112.358C186.636 112.311 183.828 111.527 180.504 109.588L180.343 109.863ZM176.257 116.341C176.974 115.333 178.048 113.796 178.944 112.463C179.392 111.797 179.796 111.18 180.089 110.706C180.235 110.469 180.355 110.265 180.438 110.107C180.48 110.028 180.514 109.958 180.538 109.9C180.559 109.849 180.583 109.784 180.583 109.725H180.264C180.264 109.714 180.265 109.726 180.244 109.779C180.225 109.824 180.196 109.884 180.157 109.958C180.078 110.107 179.963 110.304 179.818 110.539C179.529 111.008 179.127 111.621 178.68 112.286C177.786 113.615 176.713 115.15 175.998 116.157L176.257 116.341ZM171.911 114L176.048 116.387L176.207 116.111L172.07 113.724L171.911 114ZM170.739 112.033L171.853 113.942L172.128 113.782L171.014 111.873L170.739 112.033ZM176.507 107.372L170.779 111.827L170.974 112.078L176.702 107.623L176.507 107.372ZM173.184 105.726L176.526 107.636L176.684 107.36L173.342 105.45L173.184 105.726ZM168.941 112.359L173.396 105.677L173.131 105.5L168.676 112.183L168.941 112.359ZM165.058 109.856L168.717 112.402L168.899 112.14L165.239 109.595L165.058 109.856ZM163.897 107.896L165.011 109.805L165.286 109.645L164.172 107.736L163.897 107.896ZM169.665 103.235L163.937 107.69L164.133 107.941L169.861 103.486L169.665 103.235ZM162.045 99.043L169.683 103.498L169.843 103.223L162.206 98.7682L162.045 99.043ZM160.872 96.9126L161.985 98.981L162.266 98.8302L161.152 96.7617L160.872 96.9126ZM165.879 94.4646L160.946 96.6921L161.077 96.9822L166.01 94.7546L165.879 94.4646ZM190.476 80.3585L185.066 88.155L185.327 88.3364L190.737 80.5399L190.476 80.3585ZM198.244 86.6546C198.244 85.9962 197.906 85.3369 197.389 84.7124C196.871 84.0856 196.158 83.4758 195.373 82.9134C193.803 81.7883 191.922 80.8363 190.669 80.3028L190.544 80.5956C191.783 81.1229 193.642 82.0643 195.188 83.1721C195.961 83.7261 196.65 84.3176 197.144 84.9152C197.64 85.5153 197.926 86.1037 197.926 86.6546H198.244ZM192.993 91.7462C194.616 91.7462 195.932 91.2587 196.843 90.3683C197.755 89.4775 198.244 88.2002 198.244 86.6546H197.926C197.926 88.1321 197.46 89.321 196.621 90.1407C195.782 90.9607 194.552 91.4279 192.993 91.4279V91.7462ZM185.103 88.3746C185.879 88.9362 187.2 89.7766 188.648 90.4773C190.091 91.1755 191.682 91.7462 192.993 91.7462V91.4279C191.758 91.4279 190.22 90.8848 188.786 90.1908C187.357 89.4992 186.052 88.6689 185.29 88.1168L185.103 88.3746ZM182.679 92.1336L176.473 101.203L176.736 101.383L182.941 92.3133L182.679 92.1336ZM191.4 99.0417C191.298 98.3593 190.864 97.6612 190.255 96.9871C189.643 96.3101 188.84 95.6413 187.97 95.0179C186.231 93.7708 184.209 92.6919 182.876 92.0789L182.743 92.368C184.063 92.9749 186.066 94.0441 187.785 95.2765C188.644 95.8928 189.428 96.5466 190.019 97.2005C190.612 97.8574 190.997 98.4984 191.085 99.0889L191.4 99.0417ZM186.947 105.112C189.772 105.112 191.888 102.296 191.4 99.0417L191.085 99.0889C191.552 102.199 189.531 104.793 186.947 104.793V105.112ZM176.536 101.436C177.812 102.048 179.86 102.964 181.862 103.729C182.863 104.111 183.854 104.456 184.732 104.705C185.607 104.954 186.383 105.112 186.947 105.112V104.793C186.429 104.793 185.689 104.646 184.819 104.399C183.953 104.153 182.972 103.812 181.976 103.431C179.984 102.671 177.943 101.758 176.673 101.149L176.536 101.436Z" fill="black"/>
<path d="M168.331 96.0416L168.443 95.9291L168.43 95.9152L168.413 95.9051L168.331 96.0416ZM165.944 94.6096L166.026 94.4731L165.955 94.4303L165.879 94.4646L165.944 94.6096ZM171.513 94.6096L171.377 94.5266L171.513 94.6096ZM182.81 78.3801L182.94 78.4726L182.945 78.4648L182.95 78.4563L182.81 78.3801ZM182.492 75.357L182.604 75.2445L182.492 75.357ZM179.15 73.4477L179.013 73.5278L179.044 73.5815L179.104 73.5998L179.15 73.4477ZM178.037 71.5383L177.963 71.3972L177.815 71.4742L177.899 71.6185L178.037 71.5383ZM182.015 69.4699L182.093 69.3312L182.017 69.289L181.941 69.3287L182.015 69.4699ZM189.652 73.7659L189.574 73.9046L189.673 73.9601L189.757 73.885L189.652 73.7659ZM196.653 67.5605L196.78 67.4651L196.676 67.3269L196.547 67.4415L196.653 67.5605ZM198.085 69.4699L198.217 69.5589L198.28 69.465L198.212 69.3744L198.085 69.4699ZM193.789 75.8344L193.657 75.7453L193.558 75.8925L193.715 75.9752L193.789 75.8344ZM196.812 77.4255L196.738 77.5663L196.832 77.6161L196.914 77.5473L196.812 77.4255ZM203.813 71.5383L203.945 71.4501L203.847 71.3021L203.71 71.4166L203.813 71.5383ZM205.086 73.4477L205.212 73.5449L205.281 73.4544L205.218 73.3594L205.086 73.4477ZM200.79 79.0166L200.664 78.9194L200.548 79.0693L200.716 79.1574L200.79 79.0166ZM198.085 96.5189L198.076 96.3601L197.64 96.3843L197.989 96.6462L198.085 96.5189ZM200.153 103.679L200.003 103.626L200.153 103.679ZM180.423 109.725L180.504 109.588L180.264 109.448V109.725H180.423ZM176.127 116.249L176.048 116.387L176.173 116.459L176.257 116.341L176.127 116.249ZM171.99 113.862L171.853 113.942L171.874 113.979L171.911 114L171.99 113.862ZM170.877 111.953L170.779 111.827L170.669 111.913L170.739 112.033L170.877 111.953ZM176.605 107.498L176.702 107.623L176.89 107.477L176.684 107.36L176.605 107.498ZM173.263 105.588L173.342 105.45L173.213 105.376L173.131 105.5L173.263 105.588ZM168.808 112.271L168.717 112.402L168.851 112.494L168.941 112.359L168.808 112.271ZM165.149 109.725L165.011 109.805L165.029 109.836L165.058 109.856L165.149 109.725ZM164.035 107.816L163.937 107.69L163.827 107.776L163.897 107.896L164.035 107.816ZM169.763 103.361L169.861 103.486L170.046 103.342L169.843 103.223L169.763 103.361ZM162.126 98.9056L161.985 98.981L162.007 99.0205L162.045 99.043L162.126 98.9056ZM161.012 96.8371L160.946 96.6921L160.791 96.7624L160.872 96.9126L161.012 96.8371ZM190.606 80.4492L190.669 80.3028L190.549 80.2521L190.476 80.3585L190.606 80.4492ZM185.197 88.2457L185.066 88.155L184.977 88.2831L185.103 88.3746L185.197 88.2457ZM182.81 92.2235L182.876 92.0789L182.754 92.0228L182.679 92.1336L182.81 92.2235ZM176.604 101.293L176.473 101.203L176.368 101.356L176.536 101.436L176.604 101.293ZM191.243 99.0653L191.085 99.0889L191.243 99.0653ZM168.413 95.9051L166.026 94.4731L165.862 94.746L168.249 96.178L168.413 95.9051ZM171.377 94.5266C170.689 95.6532 170.043 96.0911 169.54 96.2089C169.039 96.326 168.648 96.1341 168.443 95.9291L168.218 96.1541C168.491 96.4264 168.991 96.6641 169.612 96.5187C170.231 96.3739 170.937 95.8572 171.649 94.6925L171.377 94.5266ZM182.681 78.2877C179.501 82.7396 172.781 92.2291 171.377 94.5266L171.649 94.6925C173.045 92.4076 179.755 82.931 182.94 78.4726L182.681 78.2877ZM182.379 75.4695C182.852 75.9419 183.001 76.5069 182.993 77.0294C182.986 77.5558 182.819 78.0318 182.67 78.304L182.95 78.4563C183.12 78.1451 183.303 77.6187 183.311 77.034C183.32 76.4453 183.15 75.7904 182.604 75.2445L182.379 75.4695ZM179.104 73.5998C179.783 73.8088 181.388 74.478 182.379 75.4695L182.604 75.2445C181.559 74.1994 179.897 73.5109 179.197 73.2956L179.104 73.5998ZM177.899 71.6185L179.013 73.5278L179.288 73.3675L178.174 71.4582L177.899 71.6185ZM181.941 69.3287L177.963 71.3972L178.11 71.6795L182.088 69.611L181.941 69.3287ZM189.73 73.6272L182.093 69.3312L181.937 69.6086L189.574 73.9046L189.73 73.6272ZM196.547 67.4415L189.546 73.6468L189.757 73.885L196.758 67.6796L196.547 67.4415ZM198.212 69.3744L196.78 67.4651L196.526 67.656L197.958 69.5653L198.212 69.3744ZM193.921 75.9234L198.217 69.5589L197.953 69.3809L193.657 75.7453L193.921 75.9234ZM196.886 77.2847L193.863 75.6936L193.715 75.9752L196.738 77.5663L196.886 77.2847ZM203.71 71.4166L196.71 77.3037L196.914 77.5473L203.915 71.6601L203.71 71.4166ZM205.218 73.3594L203.945 71.4501L203.68 71.6266L204.953 73.5359L205.218 73.3594ZM200.916 79.1138L205.212 73.5449L204.96 73.3505L200.664 78.9194L200.916 79.1138ZM206.677 87.9269C206.677 85.9065 205.728 83.9112 204.538 82.2954C203.347 80.6799 201.898 79.4202 200.864 78.8758L200.716 79.1574C201.697 79.6737 203.111 80.8962 204.281 82.4841C205.451 84.0718 206.359 86.0013 206.359 87.9269H206.677ZM198.094 96.6778C200.987 96.517 203.138 95.591 204.566 94.0618C205.992 92.5331 206.677 90.4217 206.677 87.9269H206.359C206.359 90.3646 205.691 92.3901 204.333 93.8447C202.976 95.2988 200.911 96.2026 198.076 96.3601L198.094 96.6778ZM200.303 103.732C200.876 102.097 200.67 100.505 200.162 99.2057C199.656 97.9095 198.844 96.8893 198.18 96.3916L197.989 96.6462C198.599 97.1032 199.378 98.0719 199.866 99.3215C200.353 100.568 200.545 102.079 200.003 103.626L200.303 103.732ZM180.343 109.863C183.702 111.822 186.562 112.628 188.985 112.676C191.409 112.724 193.385 112.012 194.971 110.951C198.136 108.835 199.742 105.335 200.303 103.732L200.003 103.626C199.451 105.205 197.874 108.627 194.794 110.687C193.258 111.714 191.345 112.405 188.991 112.358C186.636 112.311 183.828 111.527 180.504 109.588L180.343 109.863ZM176.257 116.341C176.974 115.333 178.048 113.796 178.944 112.463C179.392 111.797 179.796 111.18 180.089 110.706C180.235 110.469 180.355 110.265 180.438 110.107C180.48 110.028 180.514 109.958 180.538 109.9C180.559 109.849 180.583 109.784 180.583 109.725H180.264C180.264 109.714 180.265 109.726 180.244 109.779C180.225 109.824 180.196 109.884 180.157 109.958C180.078 110.107 179.963 110.304 179.818 110.539C179.529 111.008 179.127 111.621 178.68 112.286C177.786 113.615 176.713 115.15 175.998 116.157L176.257 116.341ZM171.911 114L176.048 116.387L176.207 116.111L172.07 113.724L171.911 114ZM170.739 112.033L171.853 113.942L172.128 113.782L171.014 111.873L170.739 112.033ZM176.507 107.372L170.779 111.827L170.974 112.078L176.702 107.623L176.507 107.372ZM173.184 105.726L176.526 107.636L176.684 107.36L173.342 105.45L173.184 105.726ZM168.941 112.359L173.396 105.677L173.131 105.5L168.676 112.183L168.941 112.359ZM165.058 109.856L168.717 112.402L168.899 112.14L165.239 109.595L165.058 109.856ZM163.897 107.896L165.011 109.805L165.286 109.645L164.172 107.736L163.897 107.896ZM169.665 103.235L163.937 107.69L164.133 107.941L169.861 103.486L169.665 103.235ZM162.045 99.043L169.683 103.498L169.843 103.223L162.206 98.7682L162.045 99.043ZM160.872 96.9126L161.985 98.981L162.266 98.8302L161.152 96.7617L160.872 96.9126ZM165.879 94.4646L160.946 96.6921L161.077 96.9822L166.01 94.7546L165.879 94.4646ZM190.476 80.3585L185.066 88.155L185.327 88.3364L190.737 80.5399L190.476 80.3585ZM198.244 86.6546C198.244 85.9962 197.906 85.3369 197.389 84.7124C196.871 84.0856 196.158 83.4758 195.373 82.9134C193.803 81.7883 191.922 80.8363 190.669 80.3028L190.544 80.5956C191.783 81.1229 193.642 82.0643 195.188 83.1721C195.961 83.7261 196.65 84.3176 197.144 84.9152C197.64 85.5153 197.926 86.1037 197.926 86.6546H198.244ZM192.993 91.7462C194.616 91.7462 195.932 91.2587 196.843 90.3683C197.755 89.4775 198.244 88.2002 198.244 86.6546H197.926C197.926 88.1321 197.46 89.321 196.621 90.1407C195.782 90.9607 194.552 91.4279 192.993 91.4279V91.7462ZM185.103 88.3746C185.879 88.9362 187.2 89.7766 188.648 90.4773C190.091 91.1755 191.682 91.7462 192.993 91.7462V91.4279C191.758 91.4279 190.22 90.8848 188.786 90.1908C187.357 89.4992 186.052 88.6689 185.29 88.1168L185.103 88.3746ZM182.679 92.1336L176.473 101.203L176.736 101.383L182.941 92.3133L182.679 92.1336ZM191.4 99.0417C191.298 98.3593 190.864 97.6612 190.255 96.9871C189.643 96.3101 188.84 95.6413 187.97 95.0179C186.231 93.7708 184.209 92.6919 182.876 92.0789L182.743 92.368C184.063 92.9749 186.066 94.0441 187.785 95.2765C188.644 95.8928 189.428 96.5466 190.019 97.2005C190.612 97.8574 190.997 98.4984 191.085 99.0889L191.4 99.0417ZM186.947 105.112C189.772 105.112 191.888 102.296 191.4 99.0417L191.085 99.0889C191.552 102.199 189.531 104.793 186.947 104.793V105.112ZM176.536 101.436C177.812 102.048 179.86 102.964 181.862 103.729C182.863 104.111 183.854 104.456 184.732 104.705C185.607 104.954 186.383 105.112 186.947 105.112V104.793C186.429 104.793 185.689 104.646 184.819 104.399C183.953 104.153 182.972 103.812 181.976 103.431C179.984 102.671 177.943 101.758 176.673 101.149L176.536 101.436Z" fill="#331413"/>
<path fill-rule="evenodd" clip-rule="evenodd" d="M160.853 96.9962L164.671 92.7002L167.058 94.1322C167.535 94.6096 168.84 94.9914 170.24 92.7002C171.64 90.409 178.355 80.9259 181.537 76.4708C181.855 75.8874 182.237 74.466 181.219 73.4477C180.201 72.4293 178.567 71.7505 177.878 71.5383L180.742 67.5605L188.379 71.8565L192.834 65.1738L196.812 67.5605L192.516 73.925L195.539 75.5161L199.994 69.1516L203.813 71.5383L199.199 77.9028C201.214 78.9635 205.245 82.0715 205.245 86.0175C205.245 90.95 202.063 94.4504 196.335 94.7687C197.607 95.7233 199.994 98.5874 198.88 101.77C197.767 104.952 192.516 115.612 179.15 107.816C179.15 108.198 176.286 112.324 174.854 114.339L170.717 111.953L175.332 105.588L171.99 103.679L167.535 110.362L163.876 107.816L168.49 101.451L160.853 96.9962ZM183.924 86.3356L189.334 78.5391C191.827 79.5998 196.812 82.3259 196.812 84.7444C196.812 87.7676 194.903 89.6769 191.721 89.6769C189.175 89.6769 185.462 87.4493 183.924 86.3356ZM175.332 99.3827L181.537 90.3134C184.189 91.5332 189.588 94.6094 189.97 97.1552C190.448 100.337 188.379 103.042 185.674 103.042C183.51 103.042 177.878 100.603 175.332 99.3827Z" fill="#FFE06C"/>
<path d="M164.671 92.7002L164.753 92.5638L164.64 92.4959L164.552 92.5945L164.671 92.7002ZM160.853 96.9962L160.734 96.8905L160.605 97.0358L160.772 97.1337L160.853 96.9962ZM167.058 94.1322L167.17 94.0197L167.157 94.0059L167.14 93.9958L167.058 94.1322ZM170.24 92.7002L170.376 92.7832L170.24 92.7002ZM181.537 76.4708L181.667 76.5633L181.672 76.5554L181.677 76.547L181.537 76.4708ZM181.219 73.4477L181.331 73.3351L181.219 73.4477ZM177.878 71.5383L177.748 71.4453L177.619 71.6252L177.831 71.6904L177.878 71.5383ZM180.742 67.5605L180.82 67.4218L180.696 67.3521L180.612 67.4675L180.742 67.5605ZM188.379 71.8565L188.301 71.9952L188.429 72.0675L188.511 71.9448L188.379 71.8565ZM192.834 65.1738L192.916 65.0374L192.786 64.9593L192.702 65.0856L192.834 65.1738ZM196.812 67.5605L196.944 67.6495L197.038 67.5104L196.894 67.4241L196.812 67.5605ZM192.516 73.925L192.384 73.836L192.285 73.9831L192.442 74.0658L192.516 73.925ZM195.539 75.5161L195.465 75.6569L195.589 75.7222L195.669 75.6074L195.539 75.5161ZM199.994 69.1516L200.078 69.0167L199.95 68.9367L199.864 69.0604L199.994 69.1516ZM203.813 71.5383L203.942 71.6317L204.042 71.4937L203.897 71.4034L203.813 71.5383ZM199.199 77.9028L199.07 77.8094L198.962 77.9581L199.124 78.0436L199.199 77.9028ZM196.335 94.7687L196.326 94.6098L195.89 94.634L196.239 94.896L196.335 94.7687ZM198.88 101.77L198.73 101.717L198.88 101.77ZM179.15 107.816L179.231 107.678L178.991 107.539V107.816H179.15ZM174.854 114.339L174.775 114.477L174.9 114.55L174.984 114.432L174.854 114.339ZM170.717 111.953L170.589 111.859L170.485 112.002L170.638 112.091L170.717 111.953ZM175.332 105.588L175.461 105.682L175.565 105.538L175.411 105.45L175.332 105.588ZM171.99 103.679L172.069 103.541L171.94 103.467L171.858 103.591L171.99 103.679ZM167.535 110.362L167.444 110.492L167.578 110.585L167.668 110.45L167.535 110.362ZM163.876 107.816L163.747 107.722L163.652 107.854L163.785 107.946L163.876 107.816ZM168.49 101.451L168.619 101.545L168.722 101.402L168.57 101.314L168.49 101.451ZM189.334 78.5391L189.396 78.3927L189.277 78.3419L189.203 78.4484L189.334 78.5391ZM183.924 86.3356L183.793 86.2448L183.704 86.373L183.831 86.4644L183.924 86.3356ZM181.537 90.3134L181.604 90.1688L181.482 90.1127L181.406 90.2235L181.537 90.3134ZM175.332 99.3827L175.201 99.2929L175.096 99.446L175.263 99.5262L175.332 99.3827ZM189.97 97.1552L189.813 97.1788L189.97 97.1552ZM164.552 92.5945L160.734 96.8905L160.971 97.1019L164.79 92.8059L164.552 92.5945ZM167.14 93.9958L164.753 92.5638L164.589 92.8366L166.976 94.2687L167.14 93.9958ZM170.104 92.6172C169.416 93.7439 168.77 94.1817 168.267 94.2995C167.766 94.4166 167.375 94.2247 167.17 94.0197L166.945 94.2447C167.218 94.5171 167.718 94.7548 168.339 94.6093C168.958 94.4646 169.664 93.9478 170.376 92.7832L170.104 92.6172ZM181.408 76.3783C178.228 80.8302 171.508 90.3197 170.104 92.6172L170.376 92.7832C171.772 90.4982 178.482 81.0216 181.667 76.5633L181.408 76.3783ZM181.106 73.5602C181.579 74.0325 181.728 74.5975 181.72 75.12C181.713 75.6464 181.546 76.1225 181.397 76.3946L181.677 76.547C181.847 76.2357 182.03 75.7093 182.038 75.1246C182.047 74.536 181.877 73.8811 181.331 73.3351L181.106 73.5602ZM177.831 71.6904C178.51 71.8994 180.115 72.5686 181.106 73.5602L181.331 73.3351C180.286 72.2901 178.624 71.6015 177.924 71.3862L177.831 71.6904ZM180.612 67.4675L177.748 71.4453L178.007 71.6313L180.871 67.6535L180.612 67.4675ZM188.457 71.7179L180.82 67.4218L180.664 67.6992L188.301 71.9952L188.457 71.7179ZM192.702 65.0856L188.247 71.7683L188.511 71.9448L192.966 65.2621L192.702 65.0856ZM196.894 67.4241L192.916 65.0374L192.752 65.3103L196.73 67.6969L196.894 67.4241ZM192.648 74.014L196.944 67.6495L196.68 67.4715L192.384 73.836L192.648 74.014ZM195.613 75.3753L192.59 73.7842L192.442 74.0658L195.465 75.6569L195.613 75.3753ZM199.864 69.0604L195.409 75.4249L195.669 75.6074L200.124 69.2429L199.864 69.0604ZM203.897 71.4034L200.078 69.0167L199.91 69.2866L203.728 71.6732L203.897 71.4034ZM199.327 77.9962L203.942 71.6317L203.684 71.4449L199.07 77.8094L199.327 77.9962ZM205.404 86.0175C205.404 83.9895 204.369 82.1896 203.096 80.7719C201.822 79.3531 200.295 78.2999 199.273 77.762L199.124 78.0436C200.118 78.5665 201.614 79.5976 202.859 80.9845C204.105 82.3725 205.086 84.0995 205.086 86.0175H205.404ZM196.343 94.9275C199.238 94.7667 201.506 93.8004 203.051 92.2352C204.596 90.6695 205.404 88.5189 205.404 86.0175H205.086C205.086 88.4486 204.302 90.5144 202.824 92.0117C201.346 93.5093 199.159 94.4524 196.326 94.6098L196.343 94.9275ZM199.03 101.822C199.606 100.179 199.275 98.6222 198.645 97.3626C198.016 96.1055 197.084 95.1322 196.43 94.6414L196.239 94.896C196.858 95.3598 197.756 96.2958 198.36 97.505C198.963 98.7117 199.269 100.178 198.73 101.717L199.03 101.822ZM179.07 107.953C182.429 109.912 185.289 110.719 187.712 110.767C190.136 110.815 192.112 110.103 193.698 109.042C196.863 106.925 198.469 103.426 199.03 101.822L198.73 101.717C198.178 103.296 196.601 106.717 193.521 108.777C191.985 109.805 190.072 110.495 187.718 110.449C185.363 110.402 182.555 109.618 179.231 107.678L179.07 107.953ZM174.984 114.432C175.701 113.423 176.775 111.887 177.671 110.554C178.119 109.888 178.523 109.271 178.816 108.796C178.962 108.559 179.082 108.355 179.165 108.198C179.207 108.119 179.241 108.049 179.265 107.991C179.286 107.94 179.31 107.875 179.31 107.816H178.991C178.991 107.805 178.993 107.817 178.971 107.869C178.952 107.914 178.923 107.974 178.884 108.049C178.805 108.197 178.69 108.394 178.545 108.629C178.256 109.099 177.855 109.711 177.407 110.376C176.513 111.706 175.44 113.24 174.725 114.247L174.984 114.432ZM170.638 112.091L174.775 114.477L174.934 114.202L170.797 111.815L170.638 112.091ZM175.203 105.495L170.589 111.859L170.846 112.046L175.461 105.682L175.203 105.495ZM171.911 103.817L175.253 105.726L175.411 105.45L172.069 103.541L171.911 103.817ZM167.668 110.45L172.123 103.767L171.858 103.591L167.403 110.273L167.668 110.45ZM163.785 107.946L167.444 110.492L167.626 110.231L163.967 107.685L163.785 107.946ZM168.361 101.358L163.747 107.722L164.004 107.909L168.619 101.545L168.361 101.358ZM160.772 97.1337L168.41 101.589L168.57 101.314L160.933 96.8588L160.772 97.1337ZM189.203 78.4484L183.793 86.2448L184.055 86.4263L189.465 78.6298L189.203 78.4484ZM196.971 84.7444C196.971 84.086 196.633 83.4267 196.117 82.8023C195.598 82.1754 194.885 81.5656 194.1 81.0033C192.53 79.8782 190.65 78.9261 189.396 78.3927L189.272 78.6855C190.511 79.2127 192.369 80.1541 193.915 81.2619C194.688 81.816 195.377 82.4075 195.872 83.0051C196.368 83.6052 196.653 84.1936 196.653 84.7444H196.971ZM191.721 89.836C193.344 89.836 194.66 89.3486 195.571 88.4581C196.482 87.5674 196.971 86.2901 196.971 84.7444H196.653C196.653 86.2219 196.187 87.4109 195.348 88.2305C194.509 89.0506 193.28 89.5178 191.721 89.5178V89.836ZM183.831 86.4644C184.606 87.0261 185.927 87.8665 187.375 88.5671C188.818 89.2654 190.41 89.836 191.721 89.836V89.5178C190.485 89.5178 188.948 88.9746 187.514 88.2807C186.085 87.5891 184.78 86.7588 184.017 86.2067L183.831 86.4644ZM181.406 90.2235L175.201 99.2929L175.463 99.4726L181.669 90.4032L181.406 90.2235ZM190.128 97.1316C190.025 96.4492 189.592 95.751 188.983 95.077C188.371 94.4 187.567 93.7312 186.698 93.1077C184.959 91.8606 182.936 90.7818 181.604 90.1688L181.471 90.4579C182.79 91.0648 184.794 92.134 186.512 93.3663C187.372 93.9826 188.156 94.6365 188.746 95.2903C189.34 95.9472 189.724 96.5883 189.813 97.1788L190.128 97.1316ZM185.674 103.201C188.5 103.201 190.616 100.386 190.128 97.1316L189.813 97.1788C190.28 100.289 188.259 102.883 185.674 102.883V103.201ZM175.263 99.5262C176.539 100.138 178.588 101.054 180.59 101.819C181.59 102.201 182.582 102.546 183.46 102.795C184.335 103.044 185.11 103.201 185.674 103.201V102.883C185.157 102.883 184.417 102.736 183.547 102.489C182.681 102.243 181.699 101.902 180.703 101.521C178.711 100.761 176.671 99.8477 175.401 99.2393L175.263 99.5262Z" fill="black"/>
<path d="M164.671 92.7002L164.753 92.5638L164.64 92.4959L164.552 92.5945L164.671 92.7002ZM160.853 96.9962L160.734 96.8905L160.605 97.0358L160.772 97.1337L160.853 96.9962ZM167.058 94.1322L167.17 94.0197L167.157 94.0059L167.14 93.9958L167.058 94.1322ZM170.24 92.7002L170.376 92.7832L170.24 92.7002ZM181.537 76.4708L181.667 76.5633L181.672 76.5554L181.677 76.547L181.537 76.4708ZM181.219 73.4477L181.331 73.3351L181.219 73.4477ZM177.878 71.5383L177.748 71.4453L177.619 71.6252L177.831 71.6904L177.878 71.5383ZM180.742 67.5605L180.82 67.4218L180.696 67.3521L180.612 67.4675L180.742 67.5605ZM188.379 71.8565L188.301 71.9952L188.429 72.0675L188.511 71.9448L188.379 71.8565ZM192.834 65.1738L192.916 65.0374L192.786 64.9593L192.702 65.0856L192.834 65.1738ZM196.812 67.5605L196.944 67.6495L197.038 67.5104L196.894 67.4241L196.812 67.5605ZM192.516 73.925L192.384 73.836L192.285 73.9831L192.442 74.0658L192.516 73.925ZM195.539 75.5161L195.465 75.6569L195.589 75.7222L195.669 75.6074L195.539 75.5161ZM199.994 69.1516L200.078 69.0167L199.95 68.9367L199.864 69.0604L199.994 69.1516ZM203.813 71.5383L203.942 71.6317L204.042 71.4937L203.897 71.4034L203.813 71.5383ZM199.199 77.9028L199.07 77.8094L198.962 77.9581L199.124 78.0436L199.199 77.9028ZM196.335 94.7687L196.326 94.6098L195.89 94.634L196.239 94.896L196.335 94.7687ZM198.88 101.77L198.73 101.717L198.88 101.77ZM179.15 107.816L179.231 107.678L178.991 107.539V107.816H179.15ZM174.854 114.339L174.775 114.477L174.9 114.55L174.984 114.432L174.854 114.339ZM170.717 111.953L170.589 111.859L170.485 112.002L170.638 112.091L170.717 111.953ZM175.332 105.588L175.461 105.682L175.565 105.538L175.411 105.45L175.332 105.588ZM171.99 103.679L172.069 103.541L171.94 103.467L171.858 103.591L171.99 103.679ZM167.535 110.362L167.444 110.492L167.578 110.585L167.668 110.45L167.535 110.362ZM163.876 107.816L163.747 107.722L163.652 107.854L163.785 107.946L163.876 107.816ZM168.49 101.451L168.619 101.545L168.722 101.402L168.57 101.314L168.49 101.451ZM189.334 78.5391L189.396 78.3927L189.277 78.3419L189.203 78.4484L189.334 78.5391ZM183.924 86.3356L183.793 86.2448L183.704 86.373L183.831 86.4644L183.924 86.3356ZM181.537 90.3134L181.604 90.1688L181.482 90.1127L181.406 90.2235L181.537 90.3134ZM175.332 99.3827L175.201 99.2929L175.096 99.446L175.263 99.5262L175.332 99.3827ZM189.97 97.1552L189.813 97.1788L189.97 97.1552ZM164.552 92.5945L160.734 96.8905L160.971 97.1019L164.79 92.8059L164.552 92.5945ZM167.14 93.9958L164.753 92.5638L164.589 92.8366L166.976 94.2687L167.14 93.9958ZM170.104 92.6172C169.416 93.7439 168.77 94.1817 168.267 94.2995C167.766 94.4166 167.375 94.2247 167.17 94.0197L166.945 94.2447C167.218 94.5171 167.718 94.7548 168.339 94.6093C168.958 94.4646 169.664 93.9478 170.376 92.7832L170.104 92.6172ZM181.408 76.3783C178.228 80.8302 171.508 90.3197 170.104 92.6172L170.376 92.7832C171.772 90.4982 178.482 81.0216 181.667 76.5633L181.408 76.3783ZM181.106 73.5602C181.579 74.0325 181.728 74.5975 181.72 75.12C181.713 75.6464 181.546 76.1225 181.397 76.3946L181.677 76.547C181.847 76.2357 182.03 75.7093 182.038 75.1246C182.047 74.536 181.877 73.8811 181.331 73.3351L181.106 73.5602ZM177.831 71.6904C178.51 71.8994 180.115 72.5686 181.106 73.5602L181.331 73.3351C180.286 72.2901 178.624 71.6015 177.924 71.3862L177.831 71.6904ZM180.612 67.4675L177.748 71.4453L178.007 71.6313L180.871 67.6535L180.612 67.4675ZM188.457 71.7179L180.82 67.4218L180.664 67.6992L188.301 71.9952L188.457 71.7179ZM192.702 65.0856L188.247 71.7683L188.511 71.9448L192.966 65.2621L192.702 65.0856ZM196.894 67.4241L192.916 65.0374L192.752 65.3103L196.73 67.6969L196.894 67.4241ZM192.648 74.014L196.944 67.6495L196.68 67.4715L192.384 73.836L192.648 74.014ZM195.613 75.3753L192.59 73.7842L192.442 74.0658L195.465 75.6569L195.613 75.3753ZM199.864 69.0604L195.409 75.4249L195.669 75.6074L200.124 69.2429L199.864 69.0604ZM203.897 71.4034L200.078 69.0167L199.91 69.2866L203.728 71.6732L203.897 71.4034ZM199.327 77.9962L203.942 71.6317L203.684 71.4449L199.07 77.8094L199.327 77.9962ZM205.404 86.0175C205.404 83.9895 204.369 82.1896 203.096 80.7719C201.822 79.3531 200.295 78.2999 199.273 77.762L199.124 78.0436C200.118 78.5665 201.614 79.5976 202.859 80.9845C204.105 82.3725 205.086 84.0995 205.086 86.0175H205.404ZM196.343 94.9275C199.238 94.7667 201.506 93.8004 203.051 92.2352C204.596 90.6695 205.404 88.5189 205.404 86.0175H205.086C205.086 88.4486 204.302 90.5144 202.824 92.0117C201.346 93.5093 199.159 94.4524 196.326 94.6098L196.343 94.9275ZM199.03 101.822C199.606 100.179 199.275 98.6222 198.645 97.3626C198.016 96.1055 197.084 95.1322 196.43 94.6414L196.239 94.896C196.858 95.3598 197.756 96.2958 198.36 97.505C198.963 98.7117 199.269 100.178 198.73 101.717L199.03 101.822ZM179.07 107.953C182.429 109.912 185.289 110.719 187.712 110.767C190.136 110.815 192.112 110.103 193.698 109.042C196.863 106.925 198.469 103.426 199.03 101.822L198.73 101.717C198.178 103.296 196.601 106.717 193.521 108.777C191.985 109.805 190.072 110.495 187.718 110.449C185.363 110.402 182.555 109.618 179.231 107.678L179.07 107.953ZM174.984 114.432C175.701 113.423 176.775 111.887 177.671 110.554C178.119 109.888 178.523 109.271 178.816 108.796C178.962 108.559 179.082 108.355 179.165 108.198C179.207 108.119 179.241 108.049 179.265 107.991C179.286 107.94 179.31 107.875 179.31 107.816H178.991C178.991 107.805 178.993 107.817 178.971 107.869C178.952 107.914 178.923 107.974 178.884 108.049C178.805 108.197 178.69 108.394 178.545 108.629C178.256 109.099 177.855 109.711 177.407 110.376C176.513 111.706 175.44 113.24 174.725 114.247L174.984 114.432ZM170.638 112.091L174.775 114.477L174.934 114.202L170.797 111.815L170.638 112.091ZM175.203 105.495L170.589 111.859L170.846 112.046L175.461 105.682L175.203 105.495ZM171.911 103.817L175.253 105.726L175.411 105.45L172.069 103.541L171.911 103.817ZM167.668 110.45L172.123 103.767L171.858 103.591L167.403 110.273L167.668 110.45ZM163.785 107.946L167.444 110.492L167.626 110.231L163.967 107.685L163.785 107.946ZM168.361 101.358L163.747 107.722L164.004 107.909L168.619 101.545L168.361 101.358ZM160.772 97.1337L168.41 101.589L168.57 101.314L160.933 96.8588L160.772 97.1337ZM189.203 78.4484L183.793 86.2448L184.055 86.4263L189.465 78.6298L189.203 78.4484ZM196.971 84.7444C196.971 84.086 196.633 83.4267 196.117 82.8023C195.598 82.1754 194.885 81.5656 194.1 81.0033C192.53 79.8782 190.65 78.9261 189.396 78.3927L189.272 78.6855C190.511 79.2127 192.369 80.1541 193.915 81.2619C194.688 81.816 195.377 82.4075 195.872 83.0051C196.368 83.6052 196.653 84.1936 196.653 84.7444H196.971ZM191.721 89.836C193.344 89.836 194.66 89.3486 195.571 88.4581C196.482 87.5674 196.971 86.2901 196.971 84.7444H196.653C196.653 86.2219 196.187 87.4109 195.348 88.2305C194.509 89.0506 193.28 89.5178 191.721 89.5178V89.836ZM183.831 86.4644C184.606 87.0261 185.927 87.8665 187.375 88.5671C188.818 89.2654 190.41 89.836 191.721 89.836V89.5178C190.485 89.5178 188.948 88.9746 187.514 88.2807C186.085 87.5891 184.78 86.7588 184.017 86.2067L183.831 86.4644ZM181.406 90.2235L175.201 99.2929L175.463 99.4726L181.669 90.4032L181.406 90.2235ZM190.128 97.1316C190.025 96.4492 189.592 95.751 188.983 95.077C188.371 94.4 187.567 93.7312 186.698 93.1077C184.959 91.8606 182.936 90.7818 181.604 90.1688L181.471 90.4579C182.79 91.0648 184.794 92.134 186.512 93.3663C187.372 93.9826 188.156 94.6365 188.746 95.2903C189.34 95.9472 189.724 96.5883 189.813 97.1788L190.128 97.1316ZM185.674 103.201C188.5 103.201 190.616 100.386 190.128 97.1316L189.813 97.1788C190.28 100.289 188.259 102.883 185.674 102.883V103.201ZM175.263 99.5262C176.539 100.138 178.588 101.054 180.59 101.819C181.59 102.201 182.582 102.546 183.46 102.795C184.335 103.044 185.11 103.201 185.674 103.201V102.883C185.157 102.883 184.417 102.736 183.547 102.489C182.681 102.243 181.699 101.902 180.703 101.521C178.711 100.761 176.671 99.8477 175.401 99.2393L175.263 99.5262Z" fill="#331413"/>
<path d="M200.251 149.155L200.251 149.154L200.24 149.16C190.831 154.593 178.364 150.672 172.406 140.353C166.448 130.035 169.285 117.277 178.694 111.844L178.703 111.839L178.711 111.833C183.579 108.301 189.035 107.925 194.024 109.719C199.019 111.515 203.547 115.487 206.529 120.651C209.516 125.824 211.005 131.437 210.222 136.507C209.44 141.566 206.392 146.11 200.251 149.155Z" fill="#666666" stroke="black" stroke-width="0.37337"/>
<path d="M209.228 119.077C215.186 129.395 212.349 142.153 202.94 147.586C193.53 153.019 181.063 149.097 175.105 138.779C169.147 128.461 171.984 115.703 181.394 110.27C190.803 104.837 203.271 108.758 209.228 119.077Z" fill="white" stroke="black" stroke-width="0.37337"/>
<path d="M207.393 120.138C212.711 129.348 210.177 140.734 201.782 145.581C193.386 150.429 182.259 146.931 176.941 137.72C171.623 128.51 174.156 117.125 182.552 112.277C190.948 107.429 202.074 110.927 207.393 120.138Z" fill="white" stroke="black" stroke-width="0.37337"/>
<path d="M181.559 125.538L179.997 120.395L181.117 119.207L196.662 116.967L199.226 120.887L198.224 122.109L191.628 123.481L194.058 130.68L190.065 131.709L187.809 124.166L181.559 125.538Z" fill="#666666"/>
<path d="M181.212 132.395C180.101 130.2 185.494 128.395 188.329 127.766C186.42 128.452 181.733 130.338 182.08 131.88C182.427 133.423 189.024 132.566 190.76 132.395C192.495 132.223 201.001 129.995 201.001 128.28C201.001 126.566 195.273 126.738 193.363 126.566C194.926 126.395 197.703 126.395 199.613 126.566C205.723 128.212 198.803 131.366 194.579 132.737L198.666 142.356L197.703 143.366L193.537 144.223L190.412 133.595C187.809 134.109 182.323 134.589 181.212 132.395Z" fill="#666666"/>
<path d="M181.559 125.538L179.997 120.395L181.117 119.207L196.662 116.967L199.226 120.887L198.224 122.109L191.628 123.481L194.058 130.68L190.065 131.709L187.809 124.166L181.559 125.538Z" stroke="black" stroke-width="0.37337"/>
<path d="M181.212 132.395C180.101 130.2 185.494 128.395 188.329 127.766C186.42 128.452 181.733 130.338 182.08 131.88C182.427 133.423 189.024 132.566 190.76 132.395C192.495 132.223 201.001 129.995 201.001 128.28C201.001 126.566 195.273 126.738 193.363 126.566C194.926 126.395 197.703 126.395 199.613 126.566C205.723 128.212 198.803 131.366 194.579 132.737L198.666 142.356L197.703 143.366L193.537 144.223L190.412 133.595C187.809 134.109 182.323 134.589 181.212 132.395Z" stroke="black" stroke-width="0.37337"/>
<path d="M182.679 124.417L181.117 119.274L197.782 115.846L199.344 120.988L192.748 122.36L195.178 129.559L191.185 130.588L188.929 123.045L182.679 124.417Z" fill="white"/>
<path d="M182.332 131.273C181.221 129.079 186.614 127.274 189.449 126.645C187.54 127.331 182.853 129.216 183.2 130.759C183.547 132.302 190.144 131.445 191.88 131.273C193.616 131.102 202.121 128.874 202.121 127.159C202.121 125.445 196.393 125.617 194.484 125.445C196.046 125.274 198.823 125.274 200.733 125.445C206.843 127.091 199.923 130.245 195.699 131.616L198.823 142.244L194.657 143.102L191.533 132.473C188.929 132.988 183.443 133.468 182.332 131.273Z" fill="white"/>
<path d="M182.679 124.417L181.117 119.274L197.782 115.846L199.344 120.988L192.748 122.36L195.178 129.559L191.185 130.588L188.929 123.045L182.679 124.417Z" stroke="black" stroke-width="0.37337"/>
<path d="M182.679 124.417L181.117 119.274L197.782 115.846L199.344 120.988L192.748 122.36L195.178 129.559L191.185 130.588L188.929 123.045L182.679 124.417Z" stroke="#331413" stroke-width="0.37337"/>
<path d="M182.679 124.417L181.117 119.274L197.782 115.846L199.344 120.988L192.748 122.36L195.178 129.559L191.185 130.588L188.929 123.045L182.679 124.417Z" stroke="black" stroke-opacity="0.2" stroke-width="0.37337"/>
<path d="M182.332 131.273C181.221 129.079 186.614 127.274 189.449 126.645C187.54 127.331 182.853 129.216 183.2 130.759C183.547 132.302 190.144 131.445 191.88 131.273C193.616 131.102 202.121 128.874 202.121 127.159C202.121 125.445 196.393 125.617 194.484 125.445C196.046 125.274 198.823 125.274 200.733 125.445C206.843 127.091 199.923 130.245 195.699 131.616L198.823 142.244L194.657 143.102L191.533 132.473C188.929 132.988 183.443 133.468 182.332 131.273Z" stroke="black" stroke-width="0.37337"/>
<path d="M182.332 131.273C181.221 129.079 186.614 127.274 189.449 126.645C187.54 127.331 182.853 129.216 183.2 130.759C183.547 132.302 190.144 131.445 191.88 131.273C193.616 131.102 202.121 128.874 202.121 127.159C202.121 125.445 196.393 125.617 194.484 125.445C196.046 125.274 198.823 125.274 200.733 125.445C206.843 127.091 199.923 130.245 195.699 131.616L198.823 142.244L194.657 143.102L191.533 132.473C188.929 132.988 183.443 133.468 182.332 131.273Z" stroke="#331413" stroke-width="0.37337"/>
<path d="M182.332 131.273C181.221 129.079 186.614 127.274 189.449 126.645C187.54 127.331 182.853 129.216 183.2 130.759C183.547 132.302 190.144 131.445 191.88 131.273C193.616 131.102 202.121 128.874 202.121 127.159C202.121 125.445 196.393 125.617 194.484 125.445C196.046 125.274 198.823 125.274 200.733 125.445C206.843 127.091 199.923 130.245 195.699 131.616L198.823 142.244L194.657 143.102L191.533 132.473C188.929 132.988 183.443 133.468 182.332 131.273Z" stroke="black" stroke-opacity="0.2" stroke-width="0.37337"/>
<path d="M142.579 46.3327L142.037 48.9049C142.127 49.0854 142.416 49.4735 142.849 49.5818C143.391 49.7172 143.797 50.5295 144.068 51.6125C144.284 52.4789 144.609 53.0566 144.745 53.2371L148.129 56.3508L147.723 52.8309C147.588 52.8309 147.1 52.6955 146.234 52.154C145.151 51.4771 145.286 50.6648 145.016 49.1757C144.799 47.9843 143.301 46.784 142.579 46.3327Z" stroke="black" stroke-width="0.27076"/>
<path d="M142.579 46.3327L142.037 48.9049C142.127 49.0854 142.416 49.4735 142.849 49.5818C143.391 49.7172 143.797 50.5295 144.068 51.6125C144.284 52.4789 144.609 53.0566 144.745 53.2371L148.129 56.3508L147.723 52.8309C147.588 52.8309 147.1 52.6955 146.234 52.154C145.151 51.4771 145.286 50.6648 145.016 49.1757C144.799 47.9843 143.301 46.784 142.579 46.3327Z" stroke="#331413" stroke-width="0.27076"/>
<path d="M142.579 46.3327L142.037 48.9049C142.127 49.0854 142.416 49.4735 142.849 49.5818C143.391 49.7172 143.797 50.5295 144.068 51.6125C144.284 52.4789 144.609 53.0566 144.745 53.2371L148.129 56.3508L147.723 52.8309C147.588 52.8309 147.1 52.6955 146.234 52.154C145.151 51.4771 145.286 50.6648 145.016 49.1757C144.799 47.9843 143.301 46.784 142.579 46.3327Z" stroke="black" stroke-opacity="0.2" stroke-width="0.27076"/>
<path d="M239.999 46.3327C239.349 46.9826 238.916 48.4988 238.781 49.1757C239.548 49.266 241.299 49.5277 242.165 49.8526C242.03 49.1757 242.301 48.2281 243.113 47.5512C243.925 46.8743 245.279 46.3327 246.633 46.3327C247.716 46.3327 248.528 45.1594 248.799 44.5728L248.934 42.2713L245.956 43.0836C245.82 43.3995 245.496 44.1667 245.279 44.7082C245.008 45.3851 244.467 45.2497 242.571 45.1143C240.676 44.9789 240.811 45.5205 239.999 46.3327Z" stroke="black" stroke-width="0.27076"/>
<path d="M239.999 46.3327C239.349 46.9826 238.916 48.4988 238.781 49.1757C239.548 49.266 241.299 49.5277 242.165 49.8526C242.03 49.1757 242.301 48.2281 243.113 47.5512C243.925 46.8743 245.279 46.3327 246.633 46.3327C247.716 46.3327 248.528 45.1594 248.799 44.5728L248.934 42.2713L245.956 43.0836C245.82 43.3995 245.496 44.1667 245.279 44.7082C245.008 45.3851 244.467 45.2497 242.571 45.1143C240.676 44.9789 240.811 45.5205 239.999 46.3327Z" stroke="#331413" stroke-width="0.27076"/>
<path d="M239.999 46.3327C239.349 46.9826 238.916 48.4988 238.781 49.1757C239.548 49.266 241.299 49.5277 242.165 49.8526C242.03 49.1757 242.301 48.2281 243.113 47.5512C243.925 46.8743 245.279 46.3327 246.633 46.3327C247.716 46.3327 248.528 45.1594 248.799 44.5728L248.934 42.2713L245.956 43.0836C245.82 43.3995 245.496 44.1667 245.279 44.7082C245.008 45.3851 244.467 45.2497 242.571 45.1143C240.676 44.9789 240.811 45.5205 239.999 46.3327Z" stroke="black" stroke-opacity="0.2" stroke-width="0.27076"/>
<path d="M231.93 159.115L224.349 162.229L224.078 161.958C225.297 160.514 228.275 157.057 230.441 154.783C232.607 152.509 235.134 151.669 236.127 151.534C237.932 151.579 241.786 151.75 242.761 152.075C243.979 152.481 245.468 153.429 246.281 154.241C247.093 155.054 248.582 157.355 248.447 161.281C248.338 164.422 249.394 166.29 249.936 166.832L254.404 159.521H260.36L261.037 160.198C260.36 161.417 258.682 164.449 257.382 166.832C255.757 169.81 248.703 171.446 246.537 171.311C244.371 171.175 243.391 171.247 242.037 168.811C240.954 166.861 240.956 161.417 240.73 158.438C240.775 157.355 240.378 155.108 238.429 154.783C236.479 154.458 233.284 157.536 231.93 159.115Z" stroke="black" stroke-width="0.27076"/>
<path d="M231.93 159.115L224.349 162.229L224.078 161.958C225.297 160.514 228.275 157.057 230.441 154.783C232.607 152.509 235.134 151.669 236.127 151.534C237.932 151.579 241.786 151.75 242.761 152.075C243.979 152.481 245.468 153.429 246.281 154.241C247.093 155.054 248.582 157.355 248.447 161.281C248.338 164.422 249.394 166.29 249.936 166.832L254.404 159.521H260.36L261.037 160.198C260.36 161.417 258.682 164.449 257.382 166.832C255.757 169.81 248.703 171.446 246.537 171.311C244.371 171.175 243.391 171.247 242.037 168.811C240.954 166.861 240.956 161.417 240.73 158.438C240.775 157.355 240.378 155.108 238.429 154.783C236.479 154.458 233.284 157.536 231.93 159.115Z" stroke="#331413" stroke-width="0.27076"/>
<path d="M231.93 159.115L224.349 162.229L224.078 161.958C225.297 160.514 228.275 157.057 230.441 154.783C232.607 152.509 235.134 151.669 236.127 151.534C237.932 151.579 241.786 151.75 242.761 152.075C243.979 152.481 245.468 153.429 246.281 154.241C247.093 155.054 248.582 157.355 248.447 161.281C248.338 164.422 249.394 166.29 249.936 166.832L254.404 159.521H260.36L261.037 160.198C260.36 161.417 258.682 164.449 257.382 166.832C255.757 169.81 248.703 171.446 246.537 171.311C244.371 171.175 243.391 171.247 242.037 168.811C240.954 166.861 240.956 161.417 240.73 158.438C240.775 157.355 240.378 155.108 238.429 154.783C236.479 154.458 233.284 157.536 231.93 159.115Z" stroke="black" stroke-opacity="0.2" stroke-width="0.27076"/>
<path d="M87.3169 165.332L82.0371 166.821V167.904C82.8494 168.852 84.7989 170.991 86.0985 171.965C87.3982 172.94 90.4307 173.545 91.7845 173.725C93.2285 173.635 96.5769 173.346 98.4181 172.913C100.368 172.913 100.494 170.205 100.313 168.852L98.6888 162.218C98.4632 161 98.0932 158.346 98.4181 157.48C98.535 157.168 98.7203 156.168 100.345 156.168C101.644 156.168 104.961 158.382 106.27 159.24L113.581 159.917V159.51C112.768 158.924 110.467 157.29 107.759 155.449C105.052 153.608 101.667 153.238 100.313 153.283C98.1279 153.452 96.6661 153.602 94.8448 155.168C94.2131 155.574 93.1383 157.046 92.5967 158.563C91.9198 160.458 92.5967 163.978 93.0029 165.603C93.3278 166.902 93.4993 169.393 93.5444 170.476L87.3169 165.332Z" stroke="black" stroke-width="0.27076"/>
<path d="M87.3169 165.332L82.0371 166.821V167.904C82.8494 168.852 84.7989 170.991 86.0985 171.965C87.3982 172.94 90.4307 173.545 91.7845 173.725C93.2285 173.635 96.5769 173.346 98.4181 172.913C100.368 172.913 100.494 170.205 100.313 168.852L98.6888 162.218C98.4632 161 98.0932 158.346 98.4181 157.48C98.535 157.168 98.7203 156.168 100.345 156.168C101.644 156.168 104.961 158.382 106.27 159.24L113.581 159.917V159.51C112.768 158.924 110.467 157.29 107.759 155.449C105.052 153.608 101.667 153.238 100.313 153.283C98.1279 153.452 96.6661 153.602 94.8448 155.168C94.2131 155.574 93.1383 157.046 92.5967 158.563C91.9198 160.458 92.5967 163.978 93.0029 165.603C93.3278 166.902 93.4993 169.393 93.5444 170.476L87.3169 165.332Z" stroke="#331413" stroke-width="0.27076"/>
<path d="M87.3169 165.332L82.0371 166.821V167.904C82.8494 168.852 84.7989 170.991 86.0985 171.965C87.3982 172.94 90.4307 173.545 91.7845 173.725C93.2285 173.635 96.5769 173.346 98.4181 172.913C100.368 172.913 100.494 170.205 100.313 168.852L98.6888 162.218C98.4632 161 98.0932 158.346 98.4181 157.48C98.535 157.168 98.7203 156.168 100.345 156.168C101.644 156.168 104.961 158.382 106.27 159.24L113.581 159.917V159.51C112.768 158.924 110.467 157.29 107.759 155.449C105.052 153.608 101.667 153.238 100.313 153.283C98.1279 153.452 96.6661 153.602 94.8448 155.168C94.2131 155.574 93.1383 157.046 92.5967 158.563C91.9198 160.458 92.5967 163.978 93.0029 165.603C93.3278 166.902 93.4993 169.393 93.5444 170.476L87.3169 165.332Z" stroke="black" stroke-opacity="0.2" stroke-width="0.27076"/>
<path d="M127.931 81.9931C121.853 86.1652 114.411 85.3393 110.08 79.5363C108.175 76.7608 107.454 74.464 108.067 71.8324C108.685 69.184 110.658 66.1719 114.227 61.9863C118.681 58.7047 122.275 57.9556 125.215 58.6889C128.166 59.4247 130.502 61.6628 132.413 64.4464C136.19 69.95 134.018 77.8149 127.931 81.9931Z" fill="#666666" stroke="black" stroke-width="0.318224"/>
<path d="M127.063 80.4417C120.983 84.6152 112.995 83.4971 109.214 77.9875C105.432 72.4779 107.26 64.6225 113.34 60.4489C119.42 56.2754 127.408 57.3935 131.19 62.9031C134.971 68.4127 133.143 76.2682 127.063 80.4417Z" fill="white" stroke="black" stroke-width="0.318224"/>
<path d="M126.416 79.4995C120.907 83.2809 113.673 82.2667 110.248 77.2775C106.823 72.2882 108.478 65.1725 113.987 61.3911C119.496 57.6097 126.731 58.6239 130.155 63.6132C133.58 68.6024 131.925 75.7182 126.416 79.4995Z" fill="#666666" stroke="black" stroke-width="0.318224"/>
<path d="M126.417 79.4995C120.902 83.2852 113.802 82.4552 110.546 77.7111C107.29 72.967 109.067 66.0442 114.582 62.2585C120.098 58.4728 127.197 59.3027 130.453 64.0468C133.71 68.7909 131.932 75.7138 126.417 79.4995Z" fill="white" stroke="black" stroke-width="0.318224"/>
<path d="M123.77 74.3256L115.496 77.5079L115.178 76.5532L115.655 69.8705L117.883 74.3256H123.77Z" fill="#666666"/>
<path d="M118.678 73.5301L116.451 68.7567L125.202 63.8242L125.52 64.7789L124.247 73.5301H118.678Z" fill="#666666"/>
<path d="M123.77 74.3256L115.496 77.5079L115.178 76.5532L115.655 69.8705L117.883 74.3256H123.77Z" stroke="black" stroke-width="0.318224"/>
<path d="M123.77 74.3256L115.496 77.5079L115.178 76.5532L115.655 69.8705L117.883 74.3256H123.77Z" stroke="#331413" stroke-width="0.318224"/>
<path d="M123.77 74.3256L115.496 77.5079L115.178 76.5532L115.655 69.8705L117.883 74.3256H123.77Z" stroke="black" stroke-opacity="0.2" stroke-width="0.318224"/>
<path d="M118.678 73.5301L116.451 68.7567L125.202 63.8242L125.52 64.7789L124.247 73.5301H118.678Z" stroke="black" stroke-width="0.318224"/>
<path d="M118.678 73.5301L116.451 68.7567L125.202 63.8242L125.52 64.7789L124.247 73.5301H118.678Z" stroke="#331413" stroke-width="0.318224"/>
<path d="M118.678 73.5301L116.451 68.7567L125.202 63.8242L125.52 64.7789L124.247 73.5301H118.678Z" stroke="black" stroke-opacity="0.2" stroke-width="0.318224"/>
<path d="M115.178 76.5532L115.337 68.9158L117.564 73.3709H123.452L115.178 76.5532Z" fill="white"/>
<path d="M118.36 72.5754L116.132 67.802L125.202 63.8242L123.929 72.5754H118.36Z" fill="white"/>
<path d="M115.178 76.5532L115.337 68.9158L117.564 73.3709H123.452L115.178 76.5532Z" stroke="black" stroke-width="0.318224"/>
<path d="M115.178 76.5532L115.337 68.9158L117.564 73.3709H123.452L115.178 76.5532Z" stroke="#331413" stroke-width="0.318224"/>
<path d="M115.178 76.5532L115.337 68.9158L117.564 73.3709H123.452L115.178 76.5532Z" stroke="black" stroke-opacity="0.2" stroke-width="0.318224"/>
<path d="M118.36 72.5754L116.132 67.802L125.202 63.8242L123.929 72.5754H118.36Z" stroke="black" stroke-width="0.318224"/>
<path d="M118.36 72.5754L116.132 67.802L125.202 63.8242L123.929 72.5754H118.36Z" stroke="#331413" stroke-width="0.318224"/>
<path d="M118.36 72.5754L116.132 67.802L125.202 63.8242L123.929 72.5754H118.36Z" stroke="black" stroke-opacity="0.2" stroke-width="0.318224"/>
<path d="M270.634 84.9362C267.931 91.0797 264.055 96.0047 259.982 99.0035C255.905 102.005 251.66 103.059 248.192 101.533C244.611 99.9572 244.515 99.9024 243.048 99.0666C242.795 98.9221 242.501 98.7544 242.14 98.5514C242.18 96.3196 242.422 91.3934 242.919 86.3998C243.171 83.8672 243.489 81.3194 243.879 79.0982C244.269 76.8735 244.729 74.9885 245.264 73.7743C246.803 70.2764 249.718 66.1665 252.843 62.5775C255.942 59.0188 259.232 55.9906 261.569 54.5844C263.456 55.2158 264.212 55.5697 265.44 56.1447C266.028 56.4201 266.725 56.7462 267.706 57.1779C271.175 58.704 273.266 62.5453 273.808 67.5792C274.349 72.608 273.337 78.7926 270.634 84.9362Z" fill="#666666" stroke="black" stroke-width="0.318224"/>
<path d="M265.076 82.4142C262.374 88.5578 258.498 93.4827 254.425 96.4815C250.348 99.4833 246.103 100.537 242.634 99.0106C239.165 97.4845 237.074 93.6432 236.532 88.6094C235.991 83.5805 237.003 77.3959 239.706 71.2523C242.409 65.1088 246.285 60.1839 250.358 57.185C254.435 54.1832 258.68 53.1298 262.149 54.6559C265.617 56.182 267.709 60.0233 268.251 65.0572C268.792 70.0861 267.779 76.2707 265.076 82.4142Z" fill="white" stroke="black" stroke-width="0.318224"/>
<path d="M262.909 81.4607C260.53 86.8677 257.177 91.2264 253.686 93.905C250.19 96.5876 246.59 97.5627 243.69 96.2868C240.79 95.011 239.076 91.6981 238.692 87.3081C238.308 82.9247 239.256 77.5076 241.634 72.1006C244.013 66.6936 247.367 62.335 250.858 59.6564C254.354 56.9738 257.954 55.9987 260.854 57.2745C263.754 58.5504 265.467 61.8633 265.852 66.2533C266.236 70.6366 265.288 76.0538 262.909 81.4607Z" fill="#666666" stroke="black" stroke-width="0.318224"/>
<path d="M262.908 81.4604C260.529 86.8686 257.239 91.2563 253.85 93.9804C250.454 96.7102 246.998 97.7423 244.26 96.5377C241.522 95.333 239.948 92.088 239.666 87.7401C239.384 83.4011 240.396 78.0108 242.775 72.6026C245.154 67.1944 248.445 62.8067 251.834 60.0826C255.23 57.3529 258.686 56.3207 261.424 57.5254C264.162 58.73 265.736 61.9751 266.018 66.3229C266.299 70.662 265.288 76.0522 262.908 81.4604Z" fill="white" stroke="black" stroke-width="0.318224"/>
<mask id="path-41-outside-1_257_6312" maskUnits="userSpaceOnUse" x="244.306" y="57.653" width="17.3269" height="41.5287" fill="black">
<rect fill="white" x="244.306" y="57.653" width="17.3269" height="41.5287"/>
<path fill-rule="evenodd" clip-rule="evenodd" d="M252.982 74.0016L256.036 71.8383L254.242 77.9015L255.063 79.1603L256.841 77.9015L258.379 66.3211L257.584 65.0945L253.548 69.7431L252.174 72.7319L252.982 74.0016ZM251.538 69.2318L252.294 70.6322L251.728 74.8904L249.951 76.1492L248.992 75.1189L251.538 69.2318ZM250.356 85.2162L251.328 77.8977L251.328 77.8976L250.356 76.5505L249.551 79.1565L247.083 89.4385L248.013 90.7333L252.846 87.3105L252.847 87.3098L253.131 85.1683L254.098 86.4245L255.875 85.1656L256.441 80.9074L255.515 79.7336L253.132 85.1579L253.411 83.0521L252.334 81.8012L250.356 85.2162ZM253.132 85.1579L253.129 85.1656L253.131 85.1683L253.132 85.1579ZM253.811 80.0478L253.811 80.0472L253.811 80.0501L253.81 80.0509L252.007 81.3282L251.06 80.0508L252.581 77.0104L252.582 77.0043L252.174 76.6703L252.9 76.7788L253.606 74.6416L254.386 75.7268L253.811 80.0478Z"/>
</mask>
<path fill-rule="evenodd" clip-rule="evenodd" d="M252.982 74.0016L256.036 71.8383L254.242 77.9015L255.063 79.1603L256.841 77.9015L258.379 66.3211L257.584 65.0945L253.548 69.7431L252.174 72.7319L252.982 74.0016ZM251.538 69.2318L252.294 70.6322L251.728 74.8904L249.951 76.1492L248.992 75.1189L251.538 69.2318ZM250.356 85.2162L251.328 77.8977L251.328 77.8976L250.356 76.5505L249.551 79.1565L247.083 89.4385L248.013 90.7333L252.846 87.3105L252.847 87.3098L253.131 85.1683L254.098 86.4245L255.875 85.1656L256.441 80.9074L255.515 79.7336L253.132 85.1579L253.411 83.0521L252.334 81.8012L250.356 85.2162ZM253.132 85.1579L253.129 85.1656L253.131 85.1683L253.132 85.1579ZM253.811 80.0478L253.811 80.0472L253.811 80.0501L253.81 80.0509L252.007 81.3282L251.06 80.0508L252.581 77.0104L252.582 77.0043L252.174 76.6703L252.9 76.7788L253.606 74.6416L254.386 75.7268L253.811 80.0478Z" fill="#666666"/>
<path d="M256.036 71.8383L256.176 72.0759L256.463 71.1047L255.991 71.4395L256.036 71.8383ZM252.982 74.0016L252.886 74.3512L252.952 74.4542L253.028 74.4004L252.982 74.0016ZM254.242 77.9015L254.103 77.6639L253.997 78.0218L254.148 78.2537L254.242 77.9015ZM255.063 79.1603L254.969 79.5124L255.034 79.6121L255.109 79.5591L255.063 79.1603ZM256.841 77.9015L256.886 78.3003L256.976 78.2368L257.005 78.0221L256.841 77.9015ZM258.379 66.3211L258.543 66.4417L258.584 66.1386L258.474 65.9696L258.379 66.3211ZM257.584 65.0945L257.678 64.7429L257.598 64.62L257.512 64.7198L257.584 65.0945ZM253.548 69.7431L253.476 69.3684L253.453 69.395L253.434 69.4365L253.548 69.7431ZM252.174 72.7319L252.06 72.4252L251.892 72.7896L252.078 73.0815L252.174 72.7319ZM252.294 70.6322L252.458 70.7527L252.494 70.4756L252.4 70.3007L252.294 70.6322ZM251.538 69.2318L251.645 68.9004L251.528 68.6845L251.42 68.9341L251.538 69.2318ZM251.728 74.8904L251.774 75.2892L251.863 75.2257L251.892 75.011L251.728 74.8904ZM249.951 76.1492L249.878 76.5295L249.936 76.5911L249.996 76.548L249.951 76.1492ZM248.992 75.1189L248.874 74.8212L248.689 75.2506L248.92 75.4992L248.992 75.1189ZM251.328 77.8977L251.282 77.499L251.193 77.5626L251.164 77.7772L251.328 77.8977ZM250.356 85.2162L250.192 85.0956L250.035 86.2771L250.454 85.5529L250.356 85.2162ZM251.328 77.8976L251.374 78.2963L251.765 78.0191L251.416 77.5361L251.328 77.8976ZM250.356 76.5505L250.443 76.1889L250.311 76.0055L250.218 76.3058L250.356 76.5505ZM249.551 79.1565L249.413 78.9118L249.407 78.9316L249.402 78.9529L249.551 79.1565ZM247.083 89.4385L246.934 89.2349L246.848 89.5948L246.995 89.7995L247.083 89.4385ZM248.013 90.7333L247.925 91.0944L247.988 91.1822L248.059 91.1321L248.013 90.7333ZM252.846 87.3105L252.891 87.7095L252.896 87.7058L252.846 87.3105ZM252.847 87.3098L252.897 87.7051L252.983 87.6378L253.01 87.4302L252.847 87.3098ZM254.098 86.4245L254.014 86.7914L254.076 86.8713L254.144 86.8232L254.098 86.4245ZM255.875 85.1656L255.921 85.5644L256.011 85.5009L256.039 85.2862L255.875 85.1656ZM256.441 80.9074L256.605 81.0279L256.649 80.6978L256.523 80.5385L256.441 80.9074ZM255.515 79.7336L255.597 79.3648L255.489 79.2272L255.398 79.4335L255.515 79.7336ZM253.411 83.0521L253.575 83.1724L253.621 82.8305L253.488 82.6768L253.411 83.0521ZM252.334 81.8012L252.41 81.4259L252.319 81.3196L252.235 81.4645L252.334 81.8012ZM253.129 85.1656L253.012 84.8655L252.837 85.2628L253.045 85.5326L253.129 85.1656ZM253.811 80.0472L253.936 79.7543L253.631 79.0012L253.639 80.0617L253.811 80.0472ZM253.811 80.0478L253.687 80.3408L253.887 80.8353L253.975 80.1684L253.811 80.0478ZM253.811 80.0501L253.866 80.442L253.986 80.3402L253.983 80.0356L253.811 80.0501ZM253.81 80.0509L253.856 80.4497L253.86 80.4465L253.865 80.4428L253.81 80.0509ZM252.007 81.3282L251.921 81.6919L251.983 81.7761L252.053 81.7269L252.007 81.3282ZM251.06 80.0508L250.952 79.7326L250.757 80.1218L250.974 80.4146L251.06 80.0508ZM252.581 77.0104L252.689 77.3287L252.728 77.2507L252.744 77.135L252.581 77.0104ZM252.582 77.0043L252.745 77.1289L252.798 76.7405L252.64 76.6103L252.582 77.0043ZM252.174 76.6703L252.188 76.2554L252.116 77.0643L252.174 76.6703ZM252.9 76.7788L252.886 77.1938L252.977 77.2073L253.034 77.0345L252.9 76.7788ZM253.606 74.6416L253.694 74.2805L253.566 74.1021L253.472 74.3859L253.606 74.6416ZM254.386 75.7268L254.55 75.8474L254.592 75.5301L254.474 75.3657L254.386 75.7268ZM255.991 71.4395L252.936 73.6028L253.028 74.4004L256.082 72.237L255.991 71.4395ZM254.382 78.1392L256.176 72.0759L255.897 71.6006L254.103 77.6639L254.382 78.1392ZM255.158 78.8082L254.336 77.5494L254.148 78.2537L254.969 79.5124L255.158 78.8082ZM256.795 77.5028L255.018 78.7615L255.109 79.5591L256.886 78.3003L256.795 77.5028ZM258.215 66.2006L256.677 77.781L257.005 78.0221L258.543 66.4417L258.215 66.2006ZM257.489 65.446L258.285 66.6727L258.474 65.9696L257.678 64.7429L257.489 65.446ZM253.62 70.1177L257.656 65.4691L257.512 64.7198L253.476 69.3684L253.62 70.1177ZM252.288 73.0385L253.662 70.0497L253.434 69.4365L252.06 72.4252L252.288 73.0385ZM253.078 73.6519L252.27 72.3822L252.078 73.0815L252.886 74.3512L253.078 73.6519ZM252.4 70.3007L251.645 68.9004L251.432 69.5633L252.187 70.9636L252.4 70.3007ZM251.892 75.011L252.458 70.7527L252.13 70.5116L251.564 74.7699L251.892 75.011ZM249.996 76.548L251.774 75.2892L251.682 74.4917L249.905 75.7504L249.996 76.548ZM248.92 75.4992L249.878 76.5295L250.023 75.7689L249.065 74.7386L248.92 75.4992ZM251.42 68.9341L248.874 74.8212L249.11 75.4167L251.656 69.5296L251.42 68.9341ZM251.164 77.7772L250.192 85.0956L250.52 85.3367L251.492 78.0183L251.164 77.7772ZM251.282 77.4989L251.282 77.499L251.374 78.2964L251.374 78.2963L251.282 77.4989ZM250.268 76.912L251.241 78.2591L251.416 77.5361L250.443 76.1889L250.268 76.912ZM249.688 79.4011L250.493 76.7951L250.218 76.3058L249.413 78.9118L249.688 79.4011ZM247.232 89.6421L249.7 79.3601L249.402 78.9529L246.934 89.2349L247.232 89.6421ZM248.101 90.3723L247.171 89.0774L246.995 89.7995L247.925 91.0944L248.101 90.3723ZM252.8 86.9117L247.967 90.3345L248.059 91.1321L252.891 87.7093L252.8 86.9117ZM252.796 86.9145L252.795 86.9152L252.896 87.7058L252.897 87.7051L252.796 86.9145ZM252.967 85.0479L252.683 87.1894L253.01 87.4302L253.295 85.2886L252.967 85.0479ZM253.047 85.5352L254.014 86.7914L254.182 86.0575L253.214 84.8013L253.047 85.5352ZM254.144 86.8232L255.921 85.5644L255.83 84.7669L254.052 86.0257L254.144 86.8232ZM256.039 85.2862L256.605 81.0279L256.277 80.7868L255.711 85.0451L256.039 85.2862ZM256.523 80.5385L255.597 79.3648L255.433 80.1024L256.359 81.2762L256.523 80.5385ZM255.398 79.4335L253.015 84.8578L253.249 85.458L255.632 80.0337L255.398 79.4335ZM253.247 82.9317L252.968 85.0375L253.296 85.2783L253.575 83.1724L253.247 82.9317ZM252.257 82.1765L253.334 83.4274L253.488 82.6768L252.41 81.4259L252.257 82.1765ZM250.454 85.5529L252.432 82.1379L252.235 81.4645L250.257 84.8795L250.454 85.5529ZM253.015 84.8578L253.012 84.8655L253.246 85.4657L253.249 85.458L253.015 84.8578ZM253.045 85.5326L253.047 85.5352L253.214 84.8013L253.212 84.7986L253.045 85.5326ZM252.968 85.0375L252.967 85.0479L253.295 85.2886L253.296 85.2783L252.968 85.0375ZM253.687 80.3401L253.687 80.3408L253.936 79.7549L253.936 79.7543L253.687 80.3401ZM253.983 80.0356L253.983 80.0327L253.639 80.0617L253.639 80.0646L253.983 80.0356ZM253.865 80.4428L253.866 80.442L253.757 79.6581L253.756 79.659L253.865 80.4428ZM252.053 81.7269L253.856 80.4497L253.764 79.6521L251.961 80.9294L252.053 81.7269ZM250.974 80.4146L251.921 81.6919L252.093 80.9644L251.146 79.687L250.974 80.4146ZM252.472 76.6922L250.952 79.7326L251.169 80.3691L252.689 77.3287L252.472 76.6922ZM252.418 76.8797L252.417 76.8858L252.744 77.135L252.745 77.1289L252.418 76.8797ZM252.116 77.0643L252.524 77.3982L252.64 76.6103L252.232 76.2764L252.116 77.0643ZM252.914 76.3639L252.188 76.2554L252.16 77.0853L252.886 77.1938L252.914 76.3639ZM253.472 74.3859L252.766 76.5232L253.034 77.0345L253.74 74.8973L253.472 74.3859ZM254.474 75.3657L253.694 74.2805L253.518 75.0027L254.298 76.0879L254.474 75.3657ZM253.975 80.1684L254.55 75.8474L254.222 75.6063L253.647 79.9273L253.975 80.1684Z" fill="black" mask="url(#path-41-outside-1_257_6312)"/>
<mask id="path-43-outside-2_257_6312" maskUnits="userSpaceOnUse" x="243.426" y="56.5648" width="17.3269" height="41.5287" fill="black">
<rect fill="white" x="243.426" y="56.5648" width="17.3269" height="41.5287"/>
<path fill-rule="evenodd" clip-rule="evenodd" d="M252.027 72.7286L255.082 70.5653L254.109 77.8873L255.886 76.6286L257.425 65.0481L252.593 68.4701L252.028 72.7285L252.027 72.7286ZM249.562 70.6184L251.339 69.3593L250.773 73.6175L248.996 74.8763L249.562 70.6184ZM249.401 83.9436L250.373 76.6252L248.597 77.8779L248.596 77.8839L247.058 89.4608L251.891 86.038L251.891 86.0373L252.456 81.7795L249.401 83.9436ZM253.71 80.8934L255.487 79.6347L254.922 83.8929L253.144 85.1517L253.71 80.8934ZM252.857 78.7754L252.857 78.7748L252.857 78.7776L252.856 78.7784L251.052 80.0557L251.626 75.7379L251.627 75.7318L251.63 75.7301L251.945 75.5064L252.099 75.3978L253.431 74.4544L252.857 78.7754Z"/>
</mask>
<path fill-rule="evenodd" clip-rule="evenodd" d="M252.027 72.7286L255.082 70.5653L254.109 77.8873L255.886 76.6286L257.425 65.0481L252.593 68.4701L252.028 72.7285L252.027 72.7286ZM249.562 70.6184L251.339 69.3593L250.773 73.6175L248.996 74.8763L249.562 70.6184ZM249.401 83.9436L250.373 76.6252L248.597 77.8779L248.596 77.8839L247.058 89.4608L251.891 86.038L251.891 86.0373L252.456 81.7795L249.401 83.9436ZM253.71 80.8934L255.487 79.6347L254.922 83.8929L253.144 85.1517L253.71 80.8934ZM252.857 78.7754L252.857 78.7748L252.857 78.7776L252.856 78.7784L251.052 80.0557L251.626 75.7379L251.627 75.7318L251.63 75.7301L251.945 75.5064L252.099 75.3978L253.431 74.4544L252.857 78.7754Z" fill="white"/>
<path d="M255.082 70.5653L255.246 70.6858L255.344 69.9486L255.036 70.1665L255.082 70.5653ZM252.027 72.7286L251.945 72.3673L252.073 73.1274L252.027 72.7286ZM254.109 77.8873L253.945 77.7667L253.847 78.504L254.155 78.2861L254.109 77.8873ZM255.886 76.6286L255.932 77.0273L256.022 76.9639L256.05 76.7491L255.886 76.6286ZM257.425 65.0481L257.589 65.1687L257.687 64.4314L257.379 64.6494L257.425 65.0481ZM252.593 68.4701L252.548 68.0713L252.458 68.1348L252.429 68.3496L252.593 68.4701ZM252.028 72.7285L252.11 73.0897L252.17 73.0077L252.191 72.849L252.028 72.7285ZM251.339 69.3593L251.503 69.4798L251.601 68.7425L251.293 68.9605L251.339 69.3593ZM249.562 70.6184L249.516 70.2197L249.426 70.2832L249.398 70.4979L249.562 70.6184ZM250.773 73.6175L250.819 74.0163L250.909 73.9528L250.937 73.7381L250.773 73.6175ZM248.996 74.8763L248.832 74.7558L248.734 75.493L249.042 75.2751L248.996 74.8763ZM250.373 76.6252L250.537 76.7457L250.635 76.0095L250.327 76.2263L250.373 76.6252ZM249.401 83.9436L249.237 83.8231L249.139 84.5603L249.446 84.3424L249.401 83.9436ZM248.597 77.8779L248.551 77.479L248.461 77.5423L248.433 77.7573L248.597 77.8779ZM248.596 77.8839L248.432 77.7634L248.432 77.7634L248.596 77.8839ZM247.058 89.4608L246.894 89.3402L246.796 90.0775L247.103 89.8596L247.058 89.4608ZM251.891 86.038L251.936 86.4369L251.941 86.4333L251.891 86.038ZM251.891 86.0373L251.942 86.4326L252.028 86.3653L252.055 86.1576L251.891 86.0373ZM252.456 81.7795L252.62 81.8999L252.718 81.1629L252.411 81.3807L252.456 81.7795ZM255.487 79.6347L255.651 79.7552L255.749 79.0179L255.442 79.2359L255.487 79.6347ZM253.71 80.8934L253.664 80.4947L253.575 80.5581L253.546 80.7729L253.71 80.8934ZM254.922 83.8929L254.967 84.2917L255.057 84.2282L255.086 84.0135L254.922 83.8929ZM253.144 85.1517L252.98 85.0312L252.883 85.7685L253.19 85.5505L253.144 85.1517ZM252.857 78.7748L252.981 78.4819L252.693 77.7683L252.685 78.7738L252.857 78.7748ZM252.857 78.7754L252.733 79.0683L252.932 79.5628L253.021 78.8959L252.857 78.7754ZM252.857 78.7776L252.911 79.1694L253.027 79.0715L253.029 78.7786L252.857 78.7776ZM252.856 78.7784L252.902 79.1772L252.906 79.174L252.91 79.1703L252.856 78.7784ZM251.052 80.0557L250.889 79.9351L250.791 80.6724L251.098 80.4545L251.052 80.0557ZM251.626 75.7379L251.463 75.6133L251.462 75.6174L251.626 75.7379ZM251.627 75.7318L251.583 75.3318L251.493 75.393L251.464 75.6072L251.627 75.7318ZM251.63 75.7301L251.674 76.1302L251.675 76.1289L251.63 75.7301ZM251.945 75.5064L251.991 75.9051L251.991 75.9051L251.945 75.5064ZM252.099 75.3978L252.053 74.999L252.053 74.999L252.099 75.3978ZM253.431 74.4544L253.595 74.5749L253.693 73.8378L253.385 74.0556L253.431 74.4544ZM255.036 70.1665L251.982 72.3298L252.073 73.1274L255.128 70.9641L255.036 70.1665ZM254.273 78.0078L255.246 70.6858L254.918 70.4447L253.945 77.7667L254.273 78.0078ZM255.84 76.2298L254.063 77.4885L254.155 78.2861L255.932 77.0273L255.84 76.2298ZM257.261 64.9276L255.722 76.508L256.05 76.7491L257.589 65.1687L257.261 64.9276ZM252.639 68.8689L257.471 65.4469L257.379 64.6494L252.548 68.0713L252.639 68.8689ZM252.191 72.849L252.757 68.5907L252.429 68.3496L251.864 72.6079L252.191 72.849ZM252.11 73.0899L252.11 73.0897L251.945 72.3672L251.945 72.3673L252.11 73.0899ZM251.293 68.9605L249.516 70.2197L249.607 71.0172L251.385 69.758L251.293 68.9605ZM250.937 73.7381L251.503 69.4798L251.175 69.2387L250.609 73.497L250.937 73.7381ZM249.042 75.2751L250.819 74.0163L250.727 73.2187L248.95 74.4775L249.042 75.2751ZM249.398 70.4979L248.832 74.7558L249.16 74.9968L249.726 70.739L249.398 70.4979ZM250.209 76.5047L249.237 83.8231L249.565 84.0642L250.537 76.7457L250.209 76.5047ZM248.642 78.2768L250.419 77.0241L250.327 76.2263L248.551 77.479L248.642 78.2768ZM248.76 78.0045L248.761 77.9985L248.433 77.7573L248.432 77.7634L248.76 78.0045ZM247.222 89.5813L248.76 78.0045L248.432 77.7634L246.894 89.3402L247.222 89.5813ZM251.845 85.6392L247.012 89.062L247.103 89.8596L251.936 86.4368L251.845 85.6392ZM251.841 85.642L251.84 85.6427L251.941 86.4333L251.942 86.4326L251.841 85.642ZM252.292 81.6591L251.727 85.9169L252.055 86.1576L252.62 81.8999L252.292 81.6591ZM249.446 84.3424L252.502 82.1783L252.411 81.3807L249.355 83.5449L249.446 84.3424ZM255.442 79.2359L253.664 80.4947L253.756 81.2922L255.533 80.0334L255.442 79.2359ZM255.086 84.0135L255.651 79.7552L255.323 79.5141L254.758 83.7724L255.086 84.0135ZM253.19 85.5505L254.967 84.2917L254.876 83.4941L253.099 84.753L253.19 85.5505ZM253.546 80.7729L252.98 85.0312L253.308 85.2723L253.874 81.014L253.546 80.7729ZM252.732 79.0677L252.733 79.0683L252.981 78.4825L252.981 78.4819L252.732 79.0677ZM253.029 78.7786L253.029 78.7758L252.685 78.7738L252.685 78.7766L253.029 78.7786ZM252.91 79.1703L252.911 79.1694L252.802 78.3857L252.801 78.3866L252.91 79.1703ZM251.098 80.4545L252.902 79.1772L252.81 78.3796L251.007 79.6569L251.098 80.4545ZM251.462 75.6174L250.889 79.9351L251.216 80.1763L251.79 75.8585L251.462 75.6174ZM251.464 75.6072L251.463 75.6133L251.79 75.8626L251.791 75.8564L251.464 75.6072ZM251.586 75.3301L251.583 75.3318L251.671 76.1318L251.674 76.1301L251.586 75.3301ZM251.9 75.1076L251.584 75.3314L251.675 76.1289L251.991 75.9051L251.9 75.1076ZM252.053 74.999L251.9 75.1076L251.991 75.9051L252.144 75.7966L252.053 74.999ZM253.385 74.0556L252.053 74.999L252.144 75.7966L253.477 74.8532L253.385 74.0556ZM253.021 78.8959L253.595 74.5749L253.267 74.3338L252.693 78.6548L253.021 78.8959Z" fill="black" mask="url(#path-43-outside-2_257_6312)"/>
</g>
<defs>
<clipPath id="clip0_257_6312">
<rect width="286.75" height="165" rx="12" fill="white"/>
</clipPath>
</defs>
</svg>
