<svg width="60" height="57" viewBox="0 0 60 57" fill="none" xmlns="http://www.w3.org/2000/svg">
<ellipse cx="23.9248" cy="38.6115" rx="9.964" ry="21.767" transform="rotate(-80.0329 23.9248 38.6115)" fill="#8E99AA"/>
<path d="M40.3197 18.1158C48.8335 24.6351 51.2016 35.7249 45.7368 42.8862C41.5419 46.6212 37.3448 48.4612 33.1362 48.6509C28.9218 48.8409 24.6619 47.3776 20.3439 44.4426C16.5011 41.4986 12.9489 37.3317 11.5186 32.3942C10.0918 27.4687 10.7669 21.7449 15.4362 15.6471C18.1597 12.0904 22.2147 11.0612 26.6883 11.7467C31.1691 12.4333 36.0417 14.8399 40.3197 18.1158Z" fill="#007692" stroke="black" stroke-width="0.5"/>
<path d="M43.8465 14.9309C52.2307 22.7539 53.8035 34.5604 47.5114 41.3039C41.2192 48.0475 29.3322 47.2952 20.948 39.4722C12.5637 31.6492 10.9909 19.8427 17.2831 13.0991C23.5752 6.35557 35.4622 7.10788 43.8465 14.9309Z" fill="#00C1DE" stroke="black" stroke-width="0.5"/>
<path d="M21.6677 24.3886C19.7828 22.2903 20.8823 19.0838 21.6677 17.7429L27.38 24.0332L28.9804 29.3677L33.2702 24.411C36.3894 22.9959 42.9745 19.9523 44.8949 18.832C44.4726 20.3212 43.4205 21.7734 43.0501 22.3217C42.7834 22.7588 42.6767 24.1621 43.3168 27.345C41.0496 34.5466 36.9154 37.5917 31.2253 37.6583C26.6732 37.7117 23.4162 36.4803 22.3567 35.858L23.1791 33.6797C24.4831 33.6871 27.2555 33.6664 27.9135 33.5241C26.7354 32.9018 25.7574 32.1016 24.7794 31.168C23.9971 30.4212 24.1571 29.6566 24.3349 29.3677C23.957 29.2121 22.9791 28.5897 22.09 27.345C20.9786 25.7891 21.3565 25.2779 21.6677 24.3886Z" fill="#C5D4EE" stroke="black" stroke-width="0.5"/>
<path d="M24.509 23.7653C20.5717 21.3449 21.0128 18.5881 21.7255 17.5123C25.1361 20.2708 27.2702 21.4709 31.972 22.1516C32.3754 20.4371 33.1217 17.8149 35.3405 16.8872C38.9711 15.5962 40.6453 18.1378 41.0487 18.0369C41.4521 17.9361 43.106 17.3511 43.8927 16.8872C43.5095 18.1983 43.1867 18.6017 42.7833 19.3278C43.2876 19.348 44.6995 18.7429 45.0021 18.6017C44.3768 20.296 43.4086 20.6792 43.106 20.9414C44.8004 26.1857 42.5009 29.897 41.4117 31.3493C35.99 37.7715 26.9429 35.5716 23.0971 33.6689C27.8976 33.6689 29.8138 32.3377 30.6004 31.3493C27.5991 31.4945 25.4637 29.1642 24.7712 27.9809H27.1715C23.3311 26.7222 22.223 24.3502 22.1491 23.3215C22.6466 23.4694 23.8152 23.7653 24.509 23.7653Z" fill="white" stroke="black" stroke-width="0.5"/>
</svg>
