<svg width="91" height="25" viewBox="0 0 91 25" fill="none" xmlns="http://www.w3.org/2000/svg">
<g opacity="0.5">
<path d="M2.55945 0.2005L0.871094 4.41753V21.5869H6.85709V24.7497H10.2338L13.3803 21.5869H18.2151L24.7383 15.186V0.2005H2.55945ZM22.5128 14.1318L18.8291 17.7464H12.8431L9.61985 20.9091V17.7464H4.63153V2.38432H22.5128V14.1318ZM18.8291 6.60135V13.0022H16.5268V6.60135H18.8291ZM12.8431 6.60135V13.0022H10.6175V6.60135H12.8431Z" fill="black"/>
<path d="M87.9124 5.88974H84.2673V2.92816H77.9725L74.9935 5.88974H71.6778L70.0235 7.53425V5.88974H67.0445V2.92816H55.7798V5.88974H42.1947L39.2157 2.92816H32.9209V16.0988L35.8999 19.0604L40.8699 22.0219H45.1738V21.3598L46.828 22.0219H54.8575L56.2775 20.3774L56.4605 22.0219H61.7159L61.8257 20.3774L63.7214 22.0219H68.362L68.6914 20.3774L70.3456 22.0219H75.6449L77.2991 20.3774V22.0219H80.2782L82.5985 20.3774V22.0219H85.9142L90.8842 18.7256V8.85859L87.9124 5.88974ZM40.8699 10.8305H37.8909V14.1268H40.8699V17.7506H36.566L34.2457 15.4439V4.24523H37.8909V7.2068H40.8699V10.8305ZM55.7798 15.4439L53.4595 17.7506H42.1947V7.2068H45.8398V14.1196H47.1647V7.2068H50.8098V14.1196H52.1346V7.2068H55.7798V15.4439ZM60.7497 17.7506H57.1046V7.2068H60.7497V17.7506ZM60.7497 5.88974H57.1046V4.24523H60.7497V5.88974ZM68.6987 10.8305H65.7123V14.1268H68.6914V17.7506H64.3875L62.0745 15.4439V4.24523H65.7123V7.2068H68.6914V10.8305H68.6987ZM77.9725 10.8305H73.6687V14.1268H77.9725V17.7506H72.3438L70.0235 15.4439V9.51348L72.3438 7.2068H77.9725V10.8305ZM89.5667 17.7506H85.9215V10.8378H82.9425V17.7506H79.2974V4.24523H82.9425V7.2068H87.2464L89.5667 9.51348V17.7506Z" fill="black"/>
</g>
</svg>
