<svg width="95" height="21" viewBox="0 0 95 21" fill="none" xmlns="http://www.w3.org/2000/svg">
<g opacity="0.5">
<path d="M29.2669 3.49125C28.9317 2.24348 27.9446 1.25644 26.6969 0.921215C24.4434 0.306641 15.3738 0.306641 15.3738 0.306641C15.3738 0.306641 6.30419 0.325264 4.05075 0.939838C2.80298 1.27506 1.81594 2.2621 1.48072 3.50987C0.884766 5.76331 0.884766 10.475 0.884766 10.475C0.884766 10.475 0.884766 15.1868 1.49934 17.4588C1.83456 18.7066 2.8216 19.6937 4.06938 20.0289C6.32281 20.6434 15.3924 20.6434 15.3924 20.6434C15.3924 20.6434 24.4621 20.6434 26.7155 20.0289C27.9633 19.6937 28.9503 18.7066 29.2855 17.4588C29.9001 15.2054 29.9001 10.475 29.9001 10.475C29.9001 10.475 29.8815 5.76331 29.2669 3.49125Z" fill="black"/>
<path d="M12.4873 14.833L20.0112 10.4751L12.4873 6.11719V14.833Z" fill="white"/>
<path fill-rule="evenodd" clip-rule="evenodd" d="M66.5691 4.06861H69.3999V1.7593H60.9262V4.06861H63.7756V19.1722H66.5691V4.06861ZM84.9504 6.73177C85.3415 7.10423 85.6209 7.68156 85.7885 8.48237C85.9561 9.28318 86.0492 10.4006 86.0492 11.816V13.8273C86.0492 15.7083 85.8071 17.105 85.3602 17.999C84.8946 18.8929 84.1869 19.3398 83.2185 19.3398C82.6784 19.3398 82.1942 19.2095 81.7472 18.9674C81.3189 18.7066 80.9836 18.3714 80.7602 17.9431H80.7043L80.4063 19.1536H78.0411V1.10748H80.7974V7.81193H80.816C81.0768 7.32772 81.412 6.93662 81.8776 6.63865C82.3245 6.34067 82.8274 6.19168 83.3488 6.19168C84.0379 6.19168 84.5593 6.37792 84.9504 6.73177ZM83.0508 15.8573C83.1253 15.3358 83.1626 14.6095 83.1626 13.6783V12.0208C83.1626 11.0152 83.1253 10.2516 83.0695 9.71152C82.995 9.17144 82.9019 8.78034 82.7342 8.55686C82.5853 8.33338 82.3618 8.22164 82.0638 8.22164C81.7845 8.22164 81.5423 8.33338 81.3002 8.55686C81.0581 8.78034 80.8905 9.0597 80.7974 9.41354V16.6394C80.9278 16.8629 81.0768 17.0305 81.2816 17.1423C81.4865 17.254 81.6913 17.3099 81.9334 17.3099C82.2314 17.3099 82.4735 17.1981 82.6598 16.9747C82.846 16.7512 82.9764 16.3787 83.0508 15.8573ZM44.8359 16.9932C45.0781 17.8127 45.4878 18.4086 46.0651 18.7997C46.6424 19.1722 47.4246 19.377 48.4303 19.3584C49.3987 19.3584 50.1809 19.1535 50.7582 18.7811C51.3355 18.39 51.7452 17.794 52.006 16.9746C52.2667 16.1552 52.3971 15.075 52.3971 13.7155V11.8718C52.3971 10.5123 52.2667 9.41348 52.006 8.59405C51.7452 7.77462 51.3169 7.17867 50.7582 6.78757C50.1995 6.39648 49.4359 6.21025 48.5048 6.21025C47.555 6.21025 46.7914 6.41511 46.1955 6.78757C45.5995 7.16004 45.1712 7.75599 44.8918 8.59405C44.6125 9.41348 44.4821 10.5309 44.4821 11.8904V13.7341C44.4821 15.0936 44.5938 16.1738 44.8359 16.9932ZM49.5291 14.777C49.5291 15.7082 49.4546 16.3973 49.287 16.807C49.1193 17.2167 48.84 17.4216 48.4489 17.4216C48.0392 17.4216 47.7598 17.2167 47.6108 16.807C47.4619 16.3973 47.3874 15.7082 47.3874 14.777V10.8102C47.3874 9.89769 47.4619 9.24587 47.6295 8.81753C47.7971 8.38919 48.0578 8.18433 48.4489 8.18433C48.84 8.18433 49.1193 8.38919 49.287 8.81753C49.4546 9.22725 49.5291 9.89769 49.5291 10.8102V14.777ZM90.1096 14.4232V13.7714V13.7527H94.8958V11.5738C94.8958 10.2329 94.8027 9.19 94.5792 8.42644C94.3557 7.66288 93.9832 7.10417 93.4618 6.75033C92.9403 6.39648 92.1954 6.21025 91.2083 6.21025C89.793 6.21025 88.7873 6.65721 88.1914 7.53251C87.614 8.40781 87.316 9.80457 87.316 11.7042V13.9576C87.316 15.8013 87.614 17.1795 88.1727 18.0548C88.7314 18.9301 89.7185 19.377 91.1339 19.377C92.3071 19.377 93.201 19.0791 93.8529 18.5017C94.5047 17.9244 94.8213 17.0491 94.8213 15.8758V15.8757C94.8213 15.6895 94.8213 15.5406 94.8027 15.4289L92.3258 15.2799C92.3071 16.0434 92.2326 16.6021 92.065 16.9374C91.916 17.2726 91.6181 17.4402 91.1897 17.4402C90.8731 17.4402 90.631 17.3471 90.482 17.1608C90.333 16.9746 90.2399 16.6766 90.1841 16.2669C90.1282 15.8572 90.1096 15.2426 90.1096 14.4232ZM90.1841 9.28312C90.2399 8.8734 90.333 8.59405 90.482 8.40782C90.6124 8.2402 90.8359 8.14709 91.1525 8.12846C91.4504 8.12846 91.6739 8.22158 91.8229 8.38919C91.9719 8.5568 92.065 8.85478 92.1209 9.28312C92.1768 9.71146 92.1954 10.326 92.1954 11.1455V12.058H90.1096V11.1455C90.1096 10.3074 90.1282 9.69283 90.1841 9.28312ZM35.8408 1.75924L39.0999 13.5293H39.1185V19.1535H41.9307V13.5106L45.227 1.75924H42.3777L41.2044 7.10417C40.8692 8.66854 40.6457 9.76733 40.5526 10.4378H40.4781C40.3291 9.52522 40.1242 8.40781 39.8262 7.08555L38.6902 1.75924H35.8408ZM61.6343 19.1722V6.45235H58.7849V16.5463C58.6732 16.7697 58.5056 16.9746 58.2821 17.1236C58.0586 17.2726 57.8165 17.3471 57.5744 17.3471C57.295 17.3471 57.0902 17.2353 56.9598 16.9932C56.8294 16.7511 56.7736 16.3414 56.7736 15.7827V6.45235H53.9056V15.9503C53.9056 17.1236 54.0918 17.9803 54.5015 18.539C54.8926 19.0977 55.5258 19.377 56.3639 19.377C57.5744 19.377 58.4869 18.7811 59.1015 17.6078H59.1574L59.3995 19.1722H61.6343ZM76.3282 19.1722V6.45235H73.4788V16.5463C73.3671 16.7697 73.1995 16.9746 72.976 17.1236C72.7525 17.2726 72.5104 17.3471 72.2683 17.3471C71.9889 17.3471 71.7841 17.2353 71.6537 16.9932C71.5234 16.7511 71.4675 16.3414 71.4675 15.7827V6.45235H68.5995V15.9503C68.5995 17.1236 68.7857 17.9803 69.1954 18.539C69.5865 19.0977 70.2197 19.377 71.0578 19.377C72.2683 19.377 73.1808 18.7811 73.7954 17.6078H73.8513L74.0934 19.1722H76.3282Z" fill="#1B1C17"/>
</g>
</svg>
